<mxfile host="65bd71144e">
    <diagram id="_Pl97ALyvF8XZjExtBwY" name="Page-1">
        <mxGraphModel dx="1132" dy="1815" grid="1" gridSize="10" guides="1" tooltips="1" connect="1" arrows="1" fold="1" page="1" pageScale="1" pageWidth="850" pageHeight="1100" math="0" shadow="0">
            <root>
                <mxCell id="0"/>
                <mxCell id="1" parent="0"/>
                <mxCell id="2" value="" style="shape=image;verticalLabelPosition=bottom;labelBackgroundColor=default;verticalAlign=top;aspect=fixed;imageAspect=0;image=https://images.javatpoint.com/programs/images/program-to-find-all-the-permutations-of-a-string.png;" vertex="1" parent="1">
                    <mxGeometry x="10" y="220" width="983.78" height="420" as="geometry"/>
                </mxCell>
                <mxCell id="4" value="" style="shape=image;verticalLabelPosition=bottom;labelBackgroundColor=default;verticalAlign=top;aspect=fixed;imageAspect=0;image=data:image/png,iVBORw0KGgoAAAANSUhEUgAAAm0AAAEsCAYAAACR54TqAAAABHNCSVQICAgIfAhkiAAAABl0RVh0U29mdHdhcmUAZ25vbWUtc2NyZWVuc2hvdO8Dvz4AAAAvdEVYdENyZWF0aW9uIFRpbWUATW9uIDIwIEphbiAyMDI1IDA5OjM1OjEyIEFNICswNTQ1X5m2aQAAIABJREFUeJzsvX90W9WZ9/uVLf9KE+cEaJsM4BxTUjI3xJF5C6U4wced6RQ78FpuJx1I6I3UvjMToIPlvu+sBmbdK+nObRLW3FXbtCV03k6lrCa0JffW8kCSznSKZBJ3GOhFsoG5aUPRiQsF2hSfOIl/yj73j6O9c3R8JMuyftrPZy2vREdHe++zz/7x7Od59rMtqqqqIAiCIAiCIIqaskIXgCAIgiAIglgYEtoIgiAIgiBKABLaCIIgCIIgSgAS2giCIAiCIEoAEtoIgiAIgiBKABLaCIIgCIIgSgAS2giCIAiCIEoAEtoIgiAIgiBKABLaCIIgCIIgSgAS2giCIAiCIEoAEtoIgiAIgiBKABLaCIIgCIIgSgAS2giCIAiCIEoAEtoIgiAIgiBKABLaCIIgCIIgSgAS2giCIAiCIEoAEtoIgiAIgiBKABLaCIIgCIIgSgAS2giCIAiCIEoAEtqIkkOWZciyXOhiFA2KoqCnpwctLS1oaWlBJBIpdJEIAJFIBIqiFLoYS8Lv96OjowMtLS3w+/15zz8UCuU9T4IoZqyFLgCRG2RZRm9v77wJvLm5GQ6HA6IoFqZgS0SWZdTX1wMAotFozp8jEomgq6trwfuCwWBOy5GKjo6OhMktV4KC3+9Hf39/Qvo2mw3Nzc2w2+05ybNU8fv9cDqdEEUR0Wi00MXJCI/HA6/Xyz83Nzeb3qcoCrq6uhAKhfhiymazYe/evXC5XBnn73Q64ff74XA44PP5Mk5nMciyjI6ODrjdbtjtdnR0dEAURXR3d6OjowOKoqC5uRkejyfhd+y79vZ2OBwOdHR0AADa29vn1UFPTw/6+/shCAJ8Ph+8Xu+CC63u7m7YbDaEQiE+HgWDQXR0dECWZYTDYQiCkL2KIIoXlViWBINBFUDSP5/PV+giZkQ0GuXPEI1Gc57fQvXI/gpFOBzmZQiHw6qqquro6GhO8pIkKenzS5KUkzxzTV9fn+pwODLuD93d3ardbud1z/D5fCoAVRTFLJSyMAiCoAJQu7u7VVU1b1ejo6OqKIqmbcLtdvP7Mqlnh8OhAlAdDsdSH2XRearq1XcYDAYTPhvHHrPrbrdbBaAKgpBQb6Ojo7xeWf2k6lfJ0u3u7uZjk91uz3W1EEUECW3LFL2wwYhGo3xQMg4mpUQ0Gs2LwKaq2iAbDAb5n81m4xOJ/nqh6O7uVgGoNpst53mxyUU/Gft8vnmTeylh9kyLgfUxszYQDodLto/pFwOpnsHlcvH2p++T4XA44XOm9ZzPvsUWhEwIEkVRFQQh4R72HHpBiQmt+mczE85U9arQpRfmw+FwwlgSDAbVvr4+U+GX5T86OsrT6uvry25FEEUNmUdXEEzN7/f7oSgKIpEIJEni3yuKglAoxK/rv9Mjy3KCKYTdy3zNBEGAzWbj9zPfHlEUuTmTXbPZbFAUhZtB2PeyLCMQCPB7JEmCIAhQFIXnazSNKoqCQCAAWZYhiiIkSZp3DzMjsvIyP51kJmNBEBLqgZkgNm7cOK/uIpEIf3Z9usZ6UxQFkiQl1JGxjKFQKOG5zYhEIhgaGkr4nVndBwIB/szGd8remSiKEAQBfr+f55sODocDQ0ND3OSjNwVFIhFeJuO7SFVfZmVidcbKxepIFEXY7faEOjJrb+w3gGa6EwSBvwsAOH/+/Lz6Y+Vn99jtdv4dK78+TwA8T1mWeVs1vudkbTtZ3bBnFQQBDofDtD0EAgH+m1RtS1/eZO2CtVPjs5m1CfZde3t7Ql3r809Vz6naH0ubfc/SYmVJp//qxwSbzQa73Z6Qhh6W1rZt2/j4ZrzH7XYjFAohEAjwe1j59G1fEAR0dnbC6/XiyJEj3Jza29sLAAnmXrN31dLSwr9jv2XjM2sD/f39vP0TK4hCS41EbjDTtKlqcvOiXmPC/mw227xVNlvd6f+YaYx9ZzSVma2y2bXu7m6er5kZAobVZrLnMis/TMzA+uvGe9NZsSbTGLBySZLEtZn6emAaCf2f0ewTDofnmZoEQZhnejOWxexdjI6Omn5vfKfsnblcLq5FTKYNSfbs7NkWylv/LlLVl1mZ9O+I3Z/smZKVk93P2pmxfPoyMA1mOu3Q7PtkfcGsHRjfsVnd6O/V99vR0dF5dZRqWE+nXZj18WRpsvKJopi0naaq51Ttz+w9Lqb/BoPBeWOCvj7NnkWSJDUcDqvd3d2qJEmm5lyWht1u5/012djBvvf5fLzMC7kS6NuesV1IkqRGo1H+HknLtvIgoW2Zop9UmMrd5/PxQcTlcvF7mSlEEAQ1GAyqo6Ojpv4k+sHE7XbPMw9mIrQJgqAKgsAHy9HRUZ4H89vo7u7mg5eZ0Ka/xsqln3j0Jhb9AO5yuVS3283rJB3/o4WENjZJ2Gw2Xsd6EyYz7bIJik0Ket8gZmZkv0tWLp/Px8sjiqLqdrt5euy6zWZT+/r61L6+Pp6n/v3ofW/Yd8n8jsyePRwOzzOP2u123naYeZndwwSOVPWlf3c2m011u9287Ky9uFyuBAFIX+Z0hTb9u5ckKaH+wuFwQhvXt332DvXldDgc/H79MySra5/PpwaDQV5XencFfXsWBEF1u92qy+XidaXvk3rzJDOrpTJTp9MugsFggnDjdruTCvLRaDRBMLLb7fMEiVT1nKr9pRLaFuq/evOk3W7n45++rJlifOZUQpheUGPlTOXaoU+7FN0NiNxDQtsyJZUDvXEwYBOHfuLTC0+MhQaTTIQ2URQTtCT6cput3M2ENr2QoEe/ImboJyKGmTN/MhYS2szqxyiwqKrKfVaMmh3jM7AJNZlvj1md659Hn6dey8qeUy94pPvsoiiqkiQlaHiYpoblbRQ0mXBhpqky1peZE7e+7Pp2yt69/h2nK7SluldPNBpVg8HgPKE6WZr6Z9C/F9YOjEKxMV3jgovB2ojez8rMxyoZi2kXyTTaydI1au/S1X6man+phLaF+m+yBY9eQ7cUWLsDFtbQ6+tGv1g2w2xhRRB6KE7bCsDtdsPtdnOfD6/XmxC2gfl49Pb28lhfbMs6+14fc0rvp7VUjP5Iet+nlpYWOJ3OBbfDs/Lv3bs34Tr7zHx39Oh9VfQ+JdkIl6GvH329OZ1OXr8slAIr+8DAAP/M7mlpaeH+e4uJV6X32dH7+TA/P2B+ndhstgX9oBjM54n5PnZ3d/OQAyxvRVESnoPlx55TT7L2xHzPWNn1z8HYtm0bzy+bKIoCj8eDdevWob6+PuFdZJJXqv7D2ml/f/+835m1U33++jbe2NiInp6epGXIpF2kg81mQzAYRDAY5M8WiUS4X1a6aaTb/oCF+y+rS+OYkI0QQXp/QAALhgTq7Ozk/3e73Unv83g83C8xXyFOiNKDhLYVgMfjgcfjQTgchiiKPBgrI9kkxByU2QYARjbjAa1du3betXA4DIfDwTcoNDY2pgzsWWwBTI1O5cnu0TuAJ7uPOWUvZrLJpD4W807dbjdUTUuPYDCY4ICdLG8mGJhNzMUYX6qjowNer5dv3gkGg4sSKozkqo06HA709fVBFEUeU7CxsdE0v1z3E0mS4PP50NfXB0ATbtIN9FyMbSAZTEhjC2FZlufFbdOjf7ZUm4rYQk6/wCYII7R7dAUhCALsdjvf6ccGGjbwdHZ2JtV66E8giEQiKSewpU4ObKXpdrvh9Xrh9/vh9XqTlo2V37gblk0YS5lsl4p+8PX5fEkHY3adTXzZyNNswsx1nbC8BUEoaMBhALh48WJGv2O7RgEtgCmbaJciWOjfu7H/sB3Amb4Tu90Ou92OQCDANdOBQGBef8lXu9DvZizUgoo9q1Gzu9TysF2jgiDA5XJBFEU4nU709vZmHLRcURQ4nU4AWt0tJSAxsfwhTdsKo729HUCiuYaZEHp7e+cNauyzPnyC0+k0Hfz0oRLYJOD3+xd9FI0+pAcrb6rB1qz8iqLw7fUsjUKgNz3po8szjO+AhW4wuyddmMnZqFHt6emBoijzwphkE5a3PhwDI18TOGuHLKwGAD4pJkM/uevLyf6/kNZooTaerB3oTW2ZtFP9Ysput/M+albXuWgXgUAgwVTITkcA5ofLAczN47mA9adQKMSfVZZl0z6YLvpn6+zs5CFYmPUinZNTzNCfiLB3714e4kX/V2zWBKKAFNqpjsgNqRyJYXCgNYYNkCSJ73bSO/wad7Wx+5gTtH7HFgxOyUiyESGZQ7/NZlMlSeLpMQdes+fSl5+VS78rUe8QzX5rdBxPdt1IOhsRjOh3WOrrje3WZeh37LHnZ/8mI9nmD73Dtc1mS3i/ekf4ZL9fzLMb0efNNi2w3zJS1VeyMpm9I7N7zTbhCILAHf7NnPvZH3s2di97X+z/xufXO6Tr0062QYSlweqF/U6/ASVZ3ZhdZ+1IvzHEGBYk2btJ1S7S3YhgFj7ELL1k9Zyq/aXaiJBO/zWGS9GPRZlMfWYbZFQ1+cYRs++N6DdRpPpbaFwiVg5kHl2mpFo1u1wuRCIRvkpnpix2fqDeYdm4SSAcDsPr9SYE/GTmEJYOM9EwfyBFUXDkyBHT4Jtm5gRm6mHfd3Z2clOu2XPpy8/MF+x3Lpdr3jOw3+hJdt1IsnKnqm/mqG2sN6MpyufzYePGjejv708wV6UyuSTzFWMBOPWreLvdjs7OzoRypvI1S/fZjbC8e3t7eQBSFgRUH0g1WX0lK5PZOzK7l5mYvV4vD5Da3d2NI0eOcEdvhsvlwtDQENcKsu/6+voSztNkfkbGdszaN+sz+o0TxnLp24E+4KvRLSFZ3ZhdZwFqWf52uz2lT1S67SJdrZteo6X/nTG9ZPWcqv2ZtbfF9F+fz4fm5mZ+Xm57eztsNtuiNkgwFEXBwMAAJElCe3v7vDGFBYXu7+83HZ9S1WU69VxKPn9EbrGoqqoWuhAEQRAEkWt6enrQ1dUFSZIK7nNJEJlAPm0EQRDEssPoTxsKhbhPWyH9XAliKZCmjSAIglh2NDY2mm4eYWZqMjkSpQgJbQRBEMSyIxQKJfiHiqKI5ubmrAYHJ4h8Q0IbQRAEQRBECUA+bQRBEARBECUACW0EQRAEQRAlAAltBEEQBEEQJQAJbQRBEARBECUACW0EQRAEQRAlAAltBEEQBEEQJQAJbQRBEARBECUACW0EQRAEQRAlAAltBEEQBEEQJQAJbQRBEARBECUACW0EQRAEQRAlAAltBEEQBEEQJYC10AUgCIIgCkMsNIjZ0IsAgHLpblilpoKUY8pzEABQ5XmMX5vxH8OcPIJKxx5YxLqM0o0FTgAArPad5t+HBjHe0oYq9/6EvM1g5TFjod8SRLYgoY0gCGKFoSoKxlvuw2xkGFapCapyCdO9T2PN6PnClOfiRUz3HEaZWIcKxx6o8ggmnA/DKjXBsgSBaML5MABgjf18/PMjAIAa37cXndbs0GuYiwzzz3PybzAnj6Dc1kBCG5E3SGgjiBSo8ghm5d+g3LYFFkEodHEIIivEAicwGxlGje8pVDj2ANAEuUJR5d6PGf8PMOU9hArHHkx6n9Cudx9aUrqrw6cTPs/4j2asTaw2lOVK4w4AI6jOQAAkiEwhoY1IiiqPYNp/DLMD2sBX3ryjICtKbdW9Dxaxnq+QVUXBRMduQFiHVX3HMktXUTDhfAQV7W184mLXmYA27T+GKe8hrAqeXHCwH+/YAyijqOl7hv9+wvkIVDmKGt/TyNTEsxSOD76M31z4IO/56vlq+z34Rv9PClqGG6+7Bp+65WY8O/hyQcvxqVs24VObP1bQMgCAqowl/AuAt9nL9VsBAKujrwFgwgnwobgAdKVxB1RFweroa5juOYyZI89gNjKMMrEOVe79vC+Nt7QB0MaN6d6nAQAVjgfmCT8s7yr3fkx27ceU5yBm/EdR4XgQ5baGefcupnwTzn2IhQZRq17EmGUtAM0kOmZZi1XBkzzN2aHXMd7ShlhoEFb7vajxfTvlIm3KcxCzkWFUufeblpEgcgUJbYQpqjyCy407YBFqUbF3N9SLF+PCW/6FNotYBwjrtIF8725YpSZM9xxGLDSIGt9TmSesjGE2dAZl4o2oiF+6XL8VZeKNCQN6ulibt2Oyaz+mew6jyvMYYqFBPvkUQmADgGdffBkvnj1XkLwZX22/B0/8+FRBy3D35k244dprC16Or30ORSG0VTgewJT3ECa79iPW/xwq9u7hwpbVvhPTPYe55m02bhJU5RFAqMVsZBiVrocAAGViHSo798Eiipj2fh0TzodRZtvKBZlYaBAAUNP3DGaOPIPpnsOwrF1ruvirdD2E6d6nMOU9BIsgoLr766ZlX0z59KwKnsR4S5tmzuw+hHLbFsxG3tDSCJ1Bje8pWMR6zPiPYqZ5u2kaLL8p7yEyixIFgXaPEqbMBE5AVRRUdx9ClecxVHcf4oJMLDTIB0pAG8SMn9lgDWiaq1hoUBtUdeh/Z0zDSE235qg87f06VEXBdO/TsEpNCRqyZHmZfZ6NDMMi1qGm7xlU7N3Nr8/JI1CVS9pvDOYiVR5JWcZK10MoE+sw3fu0Vkbv11NOPgRRKCyCgNXRIVQ4HkQsNIgJ58NcM2Zt1jRXs6FBxAInUG5rQJlYh1joNGbj/drafp/2r30nymxbMRcZhkWs57/TU9P3DKxSE2p830aZWIeZI88kLVe5dHe8fLVJNV2LKV/C7+KacouwRvOV06Vf2bkPVvtO3ldj/c8lLeNk3C+OzKJEISChjTDFItQCAGb6T84TXqa69mO85eqgONGxBxMdexI+T3XtBwBMdu3HpXUbMd7Shkv1W7kjMEtn0vkIxlvacKVxB/8z862xxE0v2gTzCFRFQaX770zLPt7ShokubQWsyiMYb2njPjLsM5s4xlvaeFnZpDUbGcZ4SxtfhQOasHipfisvYzKqfU9zs2ssNKhpIcgXjihCLIKAGt+3sWb0PKxSU1wzfIzvtJyNDCM28HOU2RpQZmvATP9JbbEjCFwAmnA+giuNOzA79DpP19h/9e2/TLwx6Q5MppkutzVgTh7BdM9h0/sWU75M6iQVZBYlCg0JbYQpFY49sEpNmPEfxeX6bVxQAgBrextURYEqj0CVRzAX/5uNDPPPTHtVsXc31kRfQ616EZWuhzDjP5qghZuNDKPM1oBa9SJqfE9hNjKMyS5zYazS9RAsgoBY4HlUOB40HZjZgM12ecVCmp9LLPB8wmdWPj216kXt+aQm1KoXE9K3iPXaNfu92mQRDyVgxCo1aRNg4HnNx4fMJ0SRYxEEvgBiApXVfi9mB05jNvQirM13oaK9DXORYcwOnIbVfi8Are/O+I+i0vUQanzfNu1TQKIQNyf/BmVJXAWYZnpV8DmUiXWY8h5KujkinfJlG1UewXTv05pJOInplCByDQltRFJWBU+ixveUZtKIC2+qovCVbix0GjOBE7BKTSi3NWjmirhQVB4XeMrEOswETmC8Yw83XbC4UAzmmFzh2INyWwMXsFKhytGk31nb79PMnPIIZvpPotL1EFRF4StziyAsepXMJqTKTi2EQCozKS+jMlbQHXkEkYxY4ITmzxY3MTJtcyXza2vezkNaWO07YZV2xBdnv0FFu6aRLotrpbR+P8jTMMK0zhPORxIWdHpm/McSNNNMY51sAZdO+cwoE+swG3kDsbj7x2KYcO6Dqiio2LtbSyP+3DGDOZggcgkJbURKKhx78KHwaS74zPh/gHJbAyyCgNmh1xAbOMPNE7H+5zA79BrKxDouFI233Kdt429vS7oS12MR1iQdTCe7/k4bNON+OMm0XUxgnI28htnQGVibd2g+L4ETmIsM52wlDlydfCocD0JVFEx5lxaygCBygaoomI0Hlh3v2A2LWIdVwZNgG2Yq7DvjAtG9sAgCLPE+PSeP8P5lEetQ3X0Ic/IIJp37UNm5zzSvMvFGTHTsRizwvGkQW004e1zT+MU1WExjbdTMM9IpnxlV7v2wCLUY79id1Exrhl44m/Ie0upN90cQ+YJ2jxJpYW3ekeBjYrXfq5kjIm+gMr6DkwWyvKqJG+T+HxWOPUmFLFUegUWsi2vD3jDVgjFTTIXjQVR3fx2xwPOY7NqPDxkcigFwx+TpI89AVRSUS02w2ndiduh1Xp5cwIS0MrEONb5vQ5WjmO45jIq9u8n/hSgqKhx75m3i0WMR67i7AONDhphngOayoDcVmqVZ3X3INMwHz0sQTIP6ptrBnW75jGmYPbcxHeNn4KrLBEEUGhLaCFNY/CVrexvUixcx4/8BLIKACscDAABr812YjJsxrfadmo9bXOhi/jEsIC2L0ZRs19iVlp2o2Lsbsfimhyr3/DAezPRS7f5afEfmAUw4H+bhNYyUS3cjFnier8StzTsw4U8UKs0otzUgFhrEZNd+VMVNoeky3XMYc/IID0NS43sal+q3Yqprf0YhRPLNLRs+io+u1TagGMOEpPou26xbVYOtdTcAAF4beRuj4xOmZXn/4hh++e77OS2L/rmTUeiQKgRBrBxIaCNMKbM1oPz8eR5YV9OWPcC1Wlb7TpQfOYby+PZ7ZtqYix+Lw67V9D2D6d6nMHf+bdT0HcNU1/55jsjV3YcwfeQZWMQ6rOo+NG+DATNLVLn3g5tvHHu03WIDp6EqD83TtlXs3Q1VjqIybpK12neivHcLygwaL6vUlHCt2vdtTPd+h29kKBPr4uEB1sSfSQsXYHwGVVG4EzRbybMdr7MDp7WgnQU613ExHH/sKwCAzu8cxQ9//gq//sz/2IcbrrsG/xJ+LedCyuj4BLr/cjduuO4afKP/Jwmx1W7Z8FG8eOhxXsZcC21POP5iwbhqH93bmdMylCpltgaaYAgiy1hUVVULXQhiZcIikJPZIXfsOvitRQlZ3/qrPdjVdAfevvAB/st/9wIA7r/rdvT+9YMYG5/Avf9H96IFpfeP9C5asNHnecd/93Jt29c+14qvtt+Dfz/7a9gPPpl2endv3oSvdrQu6jesHBvXX5dwbe2qGnz5M80AgH/66QAeP/rjtNNj5ScIgsgE2ohAEATnfzv6Y4yNT+CG667B/XfdDgD4289rjtbf/elAzjVbjB/+/BW8feED1K6qwV/dIwHQzKb/LS4sfaMvPycb/PDnr+CJH59K+KtdVQMAePvCB/iHAp+wQBDEyoKENqJgVOzdk7NNAURmjI5P4Ls/HQCgCWv333U7brjuGrx94YO8HwHV9T81H8gvNN0BAPireyTUrqrB8cHCHc11/123Y1e8PF3/85l5/nYEQRC5hFwOipxQKFToIuQO8Xrtbzk/YwGx2WwZ/e6JH5/CF5ruwA3XXYO//+LnAVwVoPLJi2fP4d/P/hqf2vwx3H/X7fhC0x0YG5/AN5/7t7yXBdA0faw+/umnAxkLjrIsQ5blLJaMWEmIoghRFAtdDKJAkNBW5LS0tBS6CESJ8sKJn2T823/4f06i968fRO2qGvz72V8XTLP1jb5TOP7YV/D3X/w8alfV4Bv9P8mbidZI71/tQe2qGrzzm98syo/NyI++8z3sP/T3WSwZsZJwu93weDyFLgZRIEhoKxEkSSp0EYgSY90ffRQYykzY0jvfb6n7I6xbVVMQU+CLZ8/hX8Kv4bONW/H2hQ/wjz8J5b0MgGYW/WzjVgDAA9/+/pLS2rrjTkgvSVkoFbGSIA0tAZDQVjIEg8FCF4EoRU6dWfRPbtnwUXy1/R6MjU/gjZHf4lObP4a//VzrkrRLS+GNkXfw2cat+M2F0YIIjnqzaDY0fW1tbWhroyj6xOLweDzwer2FLgZRYGgjAkEQCTzh+AsA2m5Rtkvzy59pxi0bPlrIYhUMvVk035sxCIIg9JDQRhAE5+7Nm/CpzR/D2PgE/vEnIbx49hyOD74M4Kowt5LIplmUIAhiqZB5lCAITvdfaidIfPenA9wU+c3n/g27mu7guzj1JyUsZ/Rm0bHxiaRC62ID9hIEQWQKCW0EQQDQovXfcN01XMvG+OW77+P44MvY1XQH/vbzbfiXyOsrIj7Z1robeCDd2lU1Cx5nRRAEkWtIaCMIAgB4xH8zvvKPx/CVfzyW5xJppCpXLnnx7Dk6V5QgiKKCfNoIgiAIgiBKABLaCIIgCIIgSgAS2giCIAiCIEoAEtoIgiAIgiBKABLaCIIgCIIgSgAS2giCIAiCIEoAEtoIgiAIgiBKAIrTRhDLmOOPfaXQRQAAvH+kt9BFAFA85SAIgsgE0rQRBFGUeDweWCwWeDyeQheFIAiiKCChjSAIgiAIogQgoY0gCIIgCKIEIKGNIAiCIAiiBCChjSAIgiAIogQgoY0gCIIgCKIEIKGNIAiCIAiiBCChjSAIgiAIogQgoY0gCIIgCKIEIKGNIAiCIAiiBCChjSAIgiAIogQgoY0gCIIgCKIEIKGNIAiCIAiiBCChjSAIgiAIogQgoY0gCIIgCKIEIKGNIAiCIAiiBCChjSAIgiAIogQgoY0gCIIgCKIEsBa6AARBEGZ4PB54PJ5CF4MgCKJoIE0bQRAEQRBECUBCG0EQAIDZyDCmew5jynMQscAJqIpSkHLM+I9hynMQqjzCr8VCg1q5QoMZp8ueLxVjlrUYb2lLeU8scAJTnoOYjQwnXJ/yHMSU52DG5SMIglgIEtoIgsCE8xFcadyBmSPPYHbgNMY7dmNOJzTlE4sgYMp7CJPeJ/i1Sec+TPc+jXLblozTnfI+gcmu/VzYmu45jCuNOxZfPvFGTHkPYaprP78WCw1iynsI6sWLGZePIAhiIUhoI4gVjiqPYMZ/FBWOB/Gh8GmsCp7EmtHzKLc1FKQ8VvtOWKUmzPiPxst2DHPyCKrc+2ERhIzTrfF9Gx8Kn+bPFet/bp62LB3KbQ2ocDyIWGiQawOnvV+HRRBQ5d6/wK8JgiAyh4Q2gljhzMXNoHpzKBOOZvzHMGZZixn/MQCaaXDMshaxwImEzzP+Y4iFBjHe0oYxy1pcWrcRkwZN1JhlLaZ7DvMpE6QPAAAgAElEQVR7rjTuSCo0VXUfAgBMep/AlPcQysQ6VLoemnffhPMRjFnWcuFpsmu/9jn+LPyzPMI1a6yczNQ6ZlmbYNZUlUs83WRlrHZ/jZcvFhpELDS4ZKGSIAhiIUhoI4gVTrmtAVapCbHA87hcvxXTPYe50GO17wQAzA69BgCIDZwGAMz0n0z4bLXvhEVYA2v7fVgVPIkKxwOY7jk8z4dssms/Kvbuwaq+ZzAnj2C85T5T3zmmzZrxH8WcPIJq39OmZa9o1/zPZiNa+WbjghgTKmdDgyi3NcAi1iX8rqr7ENe4rQqeRKVjD/9uNjKM8m23orr7EGYjw5jSmWkZlrgQOeM/iunep5IKlQRBENmEhDaCILAqeBJV7v1QlTFMdu3HlcYdUOURWAQB5baGBGHIar8Xs6EXAWhCkVVq4vdV2HdClWVY1q7V7h84k5BPpeshVDj2wGrfieruA1AVhQtYRqzNd/H/l4s3mt5TLjXF8zkNVR7BbGQYVvu9iA38HKqiaJ/b528sKLc1wCKs0fKRmqAX6qxSEypdD6HS9RDKbQ2IBZ43zZtp1mKB55MKlQRBENmEhDaCIAAAVZ7HsGb0PCpdD2FOHuEbAaztbZiNDEOVRzAnj6Byr7ZJYTYyHBeK7gOgmVIv1W/FzJFjVxNVRhPyYMIcAFhEEQBMNzyoioLJrse5Nmyi6zHTMlsEAVapCXORYcRCp1Em1sHavB2xwPOYjbyhlT+uLcwEJtgly5ttjLDGhUeCIIhcQkIbQRAJVMf9yVQ5CuCq0DPpfUITiuw7USbWYbr3OwCACvZ9XMhaFTyJKo+5kKXfXanKMgCgzGC6BMBNtFXdhzSn/8DzScN9WNvv0/zKBn6OculuTdunKJg58gzKxLqCbaggCILINiS0EcQKR5VHMOF8BLHACc1Jv0Pz76rYq/2rmRIFzIZe5AJcuXQ3ZkMvJviLWYRazMkjiAVOYML5iGleM/4faJsWAicw2fW4pikzaMJUeQRT3kOwSk2wSk2o7tZ2Zk4695mmyUyks6EXUdHeBotYhzKxLqG8ZljEegBxAbFA4U0IgiAWAwltBLHCmVMUqHIU4x27Md7SBlUeQY3vKVTonPOt9nsxJ4+gYu9uANoGgDl5hAtMAFDtexoWoRYTzoe1TQkmJsNyaTume5/GeMdulNu2YFXwuXk7Lifiwlml++8AaGbIys59mJNHTIPXltsaUCbWQVXGuJBmte/EnDwCa3PyOGyVnX+NclsDJrv2YyaJXx1BEEQxYVFVVS10IYjkWCwWAAC9JqKUYWE2qtz7k5pOCYJIjsfjgdfrhdvtpjN5VzCkaSMIoijxeDywWCw0QREEQcQhoY0giJzDzKVmmw4IgiCI9LAWugAEQSx/2K5SgiAIInNI00YQBEEQBFECkNBGEARBEARRApDQRhAEQRAEUQKQ0EYQBEEQBFECkNBGEARBEARRApDQRhAEQRAEUQKQ0EYQBEEQBFECkNBGEARBEEWAoihQFCWj38qynN3CEEUJCW0EQRAEUQQIgoCOjg50dHTA7/cvKMApioKenh40Njait7c3T6UkCgkJbQRBEARRJPT19SEUCsHpdKK+vh5OpxOBQCDhHr/fj46ODqxbtw5dXV0QBAHd3d0FKjGRT+gYqyIgEAhAFEXYbLZF/S4SiQDAon9HEARBFCeCIKCvrw8tLS1QFAV+vx9+v59/7/V6593v8/nyXEqiUJCmrQiQJAktLS1obGxET09PSt8EWZbh8Xj4CkwUxbyVkyAIgsg9kiTB5XKlda/b7aZ5YAVBQlsRwFZWkUgEXV1dqK+v5z4NDOa3UF9fD6/XC0VR0NfXB0EQCldwgsgS6fjvMBRFQSgUym2BCKLAuN3uBcf3xQh3xPKAhLYiwdj5AoEAnE4n/9zV1cXNoQCtrojlRzL/HUYgEOB+PJnusCOIUiEdPzXyY1t5WFRVVQtdCEJDURQ0NjYuuHVbkiQEg8H8FIog8oTT6eTaZVEUIQgCIpEIRFFMCIXgdrvh8XgKV1CCyCP19fWmc4LD4SBfthUICW1FRigUQktLS8p7otEoadmIZUc6ixabzYZwOJy/QhFEgfH7/QlWFwbNAysTMo8WGZIkQZKkpN+TWZRYrpA5iCDm43A45o35ZteIlQFp2oqQSCSCxsbGedcFQUA0GqXNB8SypqWlxXSjAZmDiJWKUdtGWraVC2naihCbzQaHwzHvemdnJwlsxLLH7XYv6jpBLHf0mjW73U4C2wqGhLYixThBCYJAW7uJFYEkSfMWLWQOIlY6nZ2dCf8SKxMS2ooUURRht9v5Z9KyESsJ48REWjZipcMWLql8nonlDwltRYx+4jIzlxLEcsVms/HJibRsBKFZW2jnNEEbEYqc+vp6SJJEDtjEioMF0w2Hw3S+LkEQBOjA+KJn3759+OQnP1noYhBE3rHb7di1axcJbARBEHFWrKbt3Eu/wOXR0bzl19j6GYRP/TRv+a1etw7r//jjePPn/5G3PDfc/DGs33RT3vIjMuPSxbG8twsAePfNXy/rPG++65NYs7Y2b/kRuSPffQQoTJsF8j83Adr8tOnOT+Q1z+XCitW0nXv5/8W7v3ozb/k1tn4Gr57417zlt+HjN2PNtdfkNc/bdv4ZCW0lwJXfXch7uwCw7PPccPPHSGhbJuS7jwCFabNA/ucmQJufSGjLDNqIQBAEQRAEUQKQ0EYQBEEQBFECkNBGEARBEARRApDQRhAEQRAEUQKQ0EYQBEEQBFECkNBGEARBEARRAqzYkB/pIG7/BVZf9w5mJtbgl//y6YTvbvnsC6iouYTLF66HfCZ7W5erVtVgS8sOAMCvXnoFl/+QGEvu1k/vQGVNDT54+7eQh17PWr5su3kyLv1hFOdeeiVr+RHFC7X7q1C7J5Kx6iOjuOmuFwEA70TuwKi8gX+3TnwX19teBgC89fO7Mf67dVnLV9x2K6654Y9M2+a1N1yPjdu2AADeCJ7G1PhEVvLc8PGbsWGBcE5m/ZbIPiS0peDK6DW46/4QAOCDt0X8/g2t0X54y1v4L/e9CgD46eGtWc1zanyCB6ldvW4dXjz6I/7dtTdcj09+7r8CAE4++Z2s5tvY+pmU348Mv0GT1wqB2v1VqN0TyRj/3Tp8ZNM5rN8IfGTTObzwD/+Df9e46xjWbwTeOw+8HmjPar5TE5O83b577s0EQem2ts+grmEL3jv3VlZjr23YdNOCfeX80Bu4DBLacg0JbSn4/Rs34b3zwPqNwNa2H+OFN7ROubXtxwCAt/8/8Aktm7x66qdo2/TX2HTnJ/DqqX/lnXKLtB2AdppDtgMDm02G4tYt+F9atDxfPZnfiNnFyrvyGN6TL2HTbddhdW1VoYuTE6jdU7tPxrmhC7g8OoVG6fpCF6UoeO3k57D+oR9j/UZtUfP7N27Ch7e8hfUbte/Dx/dkPc93f/Um3jv3FtZvugm3tf4ZX+CsvnYd6ho0LdvA0R9mNc9fvfQK3j331rzrf/qX/ysqa2owMvwG/vD2O1nNs9TJVV8hoW0BXjryZdj/93/inRLQJrPpGPCL41/OSZ5mnXL1tdqxH9MTE3j1VPajVxsnw9XXrsPNd/4XAED41E8z6pDvymM46HwB68U1eNz3JwCAy2NTeLz9FFYLVTjQ15pw/5NdZwAAj3ZvTyv9c0MX8E3XmXnX/6ZnO94MX8Dp/igeP/LprApXp/y/hM/7Mp4M2pf1xEXtPvN2zzjeM4TT/VHscjVgR/tVIffRlkBW2v8p/1mcOnJ23vUng/ZFp5Uu33SdQTj0Dk6rj2Q13VLl92/chF+/CnzstqsLHLa4OTu4NsFkmk3MFji3tWqm/v8Mnsm6mfLyH0bnpfmpz7ejsqYG0xMTCZrxTHm0JWB6/WbbdQnt+PLYFA7sfQE72uvR6ticVtrLqa/QRoQFGP/dOpwdXAtA65R/LMU7ZGhTVv0UjLCV0sZtW1C1qoZ3yDdC2e+QZjQ/eD/3IcpUzb5BrMVqoQqn/GcRDmmT37PfGEY49A52tNfPuz8S+i0iod+mnf7l0Smerq35ev63em0lzg1dQDj0Di59MJVR2Vc61O4zb/eM1i9txrnIBXzTNcivsb7Q2PxH8+5fbPt/V76EcOgdrBfXJLT/TNIiMue157+M6Zi2qLnlsy/wxc3r//zFnOX57q/exLmXfgEA+Pidt+d8cWNkw8dv5tro00efzYrvnL4N25qvx3vx9r1h45qE+y59oI3754YupJ32cuorpGlLg9f/+Yu46ZPf4irvy2PZ91MwcvkPozj30i+w6c5PYEvLDmzctgWXLo7hjeDpnOYLaE7f6zfdFF9BPbuktP6muwmnA2/B530Fm267Dsd7h9AoXW+6QnrM/2lcHk0Uspg5MpVWy9Z8Pb7kuT3h2q7OBuxor8eaa6q4YMfSuDw2hXOvXsDqdVXYtO26hGvrxTXYICaeH8m+23TbdYuvgBKG2v3SWF1bhV2d2+DzvqwJatL18HlfwQaxFrtc2+bdb9b+2cTE2qkZrXs3z+sf+rTSaf+pzP7p9MGVzPjv1uFsaBMa/vQc9/n8xf8tYfpKdU7zffXUv2r9RLqqIQqf+mnWNh8ko2pVDXbsfQCA5rKQrY1B+jE8HHoHPu/LaJSun9dXNoi1ONDXitXrEtvpUvtKqn6hnxcK3VdI05YG01eq8dZ/rOWffzlwW17yZSumxtbPoLKmBuHnfpLzDrn62nXc4XSp5iFA62BO9x0Ih97Bgb0v4LIyBaf7dtN7v+k6k6Aif7LrDL5Q/3082hLADsu3cXksfa3ZKf8v8WhLAOdevYA3IxfwaEsA3/NoDuVPdibmc8p/Fq1rv4tHWwL4Qv33ubqcfbdro1aG1rXfxZn+6GKroGShdr90vvDVBqwWquDzvoJT/rN4Vx7DY75Pm96rb/+Xx6bwaEsAX7L9SPtrXJwQqU9rofZ/wPkz3s92bfw+TvmvmpH0fbB13XfxnnxpUeVYKfzqp5/l/5+OIas7q5PBFjiVNTVobP0MLl0cw+sv5H5xc1vrn2HN2lpcujiG//jxP2c9/ctjUzjofAGrhaqkfeXRlgB3jclWX1ldW4XjvcP4ku1HfKHT2dKPg84XsOYaTTgrhr5CQlsaVH5oEjdsvcg/39L8al7yvfyHUfxnUGuYH7z927zsYmPmoffOvZW1AYBNXKcDb6HVMX+lY8a5oQs43jOEXa5tOK0+gieD9qS+aZGBd/A9zyv8z8gu1zY0StfjeO8QwqF3cMp/Fk73Hdi07TpNmHT+DI92b8dp9RE87vsTHO8ZwrmhC3hXHsMB58+wQazFs9Ev4tnoF3FZWTnmVmr3S2d1bRW+5L4d4dA7ON47jEbp+rTa/6nvaWbUA4FWnFYfwd90NyW/98hZ3vb1kwgjVftnv/le5C9wWn0EO+z1fNFyyn8Wx3uG0OrYjFMX/xsO9LXiXXks88pYxtRv/zn/f6VVC5uTD/RC08vP9uU8vwSz6JEf5GQx9T33K3hXHsOX3LfPs3qYkc2+8viRT2O1UIVvdg0mLLJW11YVTV8hoS0NPv6Zf8HqWuDXr2omotW1wK32/rzkPTWpdYrpicmc56U3D2V79xEj3dXH6rWV3B/ueM9QStPke/IlRAbe4X9msBXboy0BbLJ9mKvimXPqJWUa3/O8gnfj5TvdF8WZgKZVc3o+gQ1iLTaItbhnb3qOr8sBavfZYZdrGzaItTgX+X1SzYGR9fWaH4/P8wuc8p9NKei9GfkDb/vJ/HyStf+fHDmLDWItTvdF+YLnsqL5DJ2Oa5Uf7d2O1bVVaQucK43KD01ia6u2oBn+t00AgE/8eQiVH8p929ULTVM57it6s+h/Bs9kfSc3oJlFj/cMmZpFk5HNvrK6tgqP+z+Nc5Hf44DzZ3zBAxRPXyGhbQFWfWQUDX96DoDmcDp8UgIAbJbOYdVHlk9MGqN5KJtO3092nsFlZQqtjs3xBj5/67iRDWItngzZscl2HZ7sOoNdG7+fdOVyz97N2i6g+F+y9NYImqZuvXjVsZUJkXqhr1G6HhvENbikTAMAVq9dnqE9UkHtPruwNpeO5gAAdrTfhAOBVlxWpnDA+bOUJp+/6W7ibT/ZDrhk7f9deQyXlCne9pk/zup1VVyrvFxD22SLxr/4Fiqt2uLm9UA7Lo9p2rZb/+v3C120rKI3i+Zqs8NB5wsAkPbiBsh+X7lZ5xOn3wRRLH2FhLYF+MSufwKgdcjx362DfOYTeO+81inZd8uBXJmHzg1d0HzGHJu1VYhQhW+6BtPyT9u07To8GbTjcd+f4LIyhVP+X2ZcDk2LNoZWx2acDrzFBcebbVoH/Zue7QmCX6tjMzY1XgsACOt2Fr13fmWYh6jdF54d7Tfh2egX0erYjHOR33M/m0xI1v432T6MNUIVDvS3JrT/Tduu431Dny/5tCWyTnwXH4u7er72vBYK59+PfQ4AsLnpItaJ7xaqaFklL2bReBt1uu9Ie3HDyGZfOeh8ARvEWjRK1+N73le4sqBY+grtHk3Bh7e8hRv+WPs/65DA1YCKN/zx1YCKpcymO2/H+vgRJes33YQvf+sf5t3z3rm3cKL38KLTZs6iTvftWF1bhUe7t+OA82d49hvD83Z86mEx2GzN13OTZ6M0P0xCOpwbugCf92UuOJ4ORPFN1yAaW67Hrs4GnPKfxaNSAK2OzVi9tgpvDl3Agb5W7Gi/CZtsH4bP+zIuX5zCZWUKpwPLfyMCtfurZNrulwrzq1y/sRaR0G+xWqjKePdyqvbv9HwCj9tP4UvbnuWm/8sXp/Bo93beNx7vOIVdndsQGXgHl1aQT2c6NO46BuDq4gZIDE7duOtYwkkJpQoziwJA26N/bXrPySe/k7HJlLVRht43eYO4JmU8tmz2leM9mt/n474/wXpxjbbhoWsQB/pai6avkNCWgps++WO8dx743bnE2FQsoOKHrgVubPhZTievS38YxXvn3sIHb+c2jsx7JtGu9WSSP1t16FdOrY7NON0fRWTgHVwea0hQJ7PVCqD5tDGBbb24xjSY7ep1VdyUaWSDuIarrpmfA/M3eNz/aRzvGcbpH0fR6tiM4+e/iGe/McyFQ1vz9bg8NoXVtVV4cqAd33O/gjcjF2Brvh4H+lrh874yb7v5coLa/VWylb++badzz8226/Duec1Xc7u9Hrs6G+aZXvRtPFVaC7X/70X+Aqf8ZxEZeAerhSoeQ465KBzvGUJk4B207t2M1r0wDVK6EmFBp987n7i4AbQFDuJBdteJ7+YsyC5wtQ1P53CH9ZXfXcCV36WOi7aU/N8MX+Dju9Ev+fLF69BquL9Rup638Wz1lctjUwgP/Batjs1cSHS67+D+bzvabyqKvmJRVVXNeqolwFJWBZnw5W/9A/7pK3+bt/w2fPxm3Nb6mbxqCW7b+WcLnk9HFJ58a4/YoezZPAuxGPPc2fkQ19wRpU0hNKyFaLNA/ucmQJufkmnsiNSQTxtBEARBEEQJQEIbQRAEQRBECUBCG0EQBEEQRAlAQhtBEARBEEQJQEIbQRAEQRBECUBCG0EQBEEQRAlAQhtBEARBEEQpoBI5Z9euXeo9Dber4XA4b3n6fD7VZrOpPp8vb3kSRCp8Pp8qiqLa/4Mf5TSf/h/8SBVFUX364P+V03wIIluEw2FVFMW8j9dvj4yoj37xS+quXbvymi+ROaRpyzGhUAjHjx/HT4ZfWfjmLKIoCiKRCPr7+/OaL0GYoSgKurq6IMsy3novt6ccfDA5DlmWsf+J/xOKouQ0L4LIBr29vZBlGQMDA3nNd2Z2Fk9+/3s4fvw4ZFnOa95EZpDQlmOcTicAwOVywWaz5S1fu90OAAgEAjRxEQWnp6cHiqJAFEW4XK6c5uVwOCCKIhRFQU9PT07zIoiloigKAoEAAGDv3r15zVsURT5X9Pb25jVvIjNIaMshPT09kGUZgiDA7XbnNW9RFLmQyAYEgigEsizzCaG7uzsvefp8PgCA1+slDQJR1LCFtSiKkCQp7/l3dnYCAPx+Py3wSwAS2nKEoijwer0AtIlKEIS8l4Gt2shEShQSr9cLRVEgSRJf1ecaSZL4BMj6IUEUI2xBw4SnfCNJEtdM0wK/+FmxB8bnGqfTCb/fD5vNhnA4XJAyyLKM+vp6AMDo6GhBBEdiZROJRNDY2AgACAaDedUkhEIhtLS0AADC4XBe3RMIIh30/aOQY3RPTw+6uroKOl8R6UGathwQiUTg9/sB5M8cZAaZSIlC09XVBUDzM8u36UeSJDgcjoRyEEQxwbRsDoejoItqln8kEkEoFCpYOYiFIaEtBxRyojJCJlKiUIRCIT4B5Nunk8Hy1ZeFIIqBQm5AMCIIAnddOHLkSEHLQqSGzKNZxu/3w+l0QhAEhMNhiKJY0PKQiZQoFPX19ZBlGW63Gx6Pp2Dl8Hg88Hq9EEUR0Wi0YOUgCD1sriiWdqmfK6LRaMHnLsIc0rRlERaLCtCcSouh0ZOJlCgEfr+f75zOdYiPhXC5XBAEAbIsc7cFgig0hd6AYES/e5X6SfFCQlsW0ceiKqRmwQiZSIl8ol+8uN3ugmt3BUHgEyPbyUoQhSQSiSASiQAA97ssBthcQSbS4oWEtiwhy3JCiI9iggLtEvkkn4F008Xj8UAURciyTAF3iYJTLBsQjLDA1KSVLl5IaMsS7OSDfMaiShcykRL5ohCBdNOFbUro7e2lxQtRMIppA4IZpG0rbkhoywL6nWksEnuxwToiHVVC5JJCBNJNF7abW2++JYh8U+gTEBaCmWtDoRA34RLFAwltWYBp2dxud1FsPjCDTaCRSISO9SFygj4+YaFCfCwEKxfbKEEQ+abYNiAYEUWRC260yC8+SGhbIh6Pp2h2yaWCTKRErimm+ITJ0B9vRdo2It8U6wYEI8wyQ37QxQcJbUtAUZQE/51icig1g63syFeByDbFEEg3XZgLQyAQoIC7RF4p1g0IRiRJgs1mg6IotCGhyCChbQl0dXVx/51iXjUxyERK5IpScBFg6M0/dJg8kS+KfQOCEbbIJxNpcUFCW4aEQqGi998xoj+qhEykRLYopkC66cI04/p+TBC5pNg3IBix2+08KDVppIuHnAltsdAgJrv2Y7ylDeMdezDjP5arrJKiKgrPX8+M/xjGW9oQC5zIOO1S8N8xo729HUD2TKSqomC65zDGO/ZgvKUNk137ocojWUl7MUz3HDZ9p2bvvxAUSz0BwJTnoFZXoUF+LVn9LUSxBdJNF2PA3UwphnEOAFR5BOMtbZhwPnL1WpLxr9QohjqOhQYx3tKGKc/BhOusXOn05WLfgGBEEISMNyQUy3g34Xxk3vuZjQybvsuSQc0BM33PqxdRq16RWtVJ9wF13PGwOuH6Wi6yWpBJ9wH1ImrVad9Rfu2SeKt6SbxVnRsdzShNn8+nAlAFQVBHM0yjUIyOjqoAVABqNBpdcnqXbdvVMaFOnXB9TZ10H1Av27arc9HzS053scyNjqpjQp16SbyVX5v2HVUvolad6n4q7+UxUiz1pKqqGgsP8f6pquZ1ly5ut1sFoIqimO1i5pzR0VFVEAQVgNrd3b3o3xfTOKeqqnrFvlu9iFp1JnhGVVXzsa/UKKY6viK1qhdRq7J+Oxc9r5XNvnvB34bDYT7ultKcEY1GM5ovimW8mwmeUS+iVh13PMyvjTseVi+iVo2Fh/JenmyQE6GNDR5mQtFM8ExCZcXCQ/M+s0FHVbWOMRM8My8t/e+MaehhExKboNhEnulAttSBvhiw2+1ZKT+b/M0GUeN7mxsdNf+s68jGtmH8nTENI2ySYu2HCeeFptjqSVWvDlwzwTPz6i1dotEo7wt9fX2L+m2xsJQFWDGNcywNJuAYx71SJVkdJ+sXqfpJsjrW/86YhvG+i6hVJ90HVFW92ofSEUYcDocKQHU4HAveW2yw+cLlcqV1f6rxLlm7N37WvyPT8U73O2MaRq5IreqYUKeNjfE+ohfiSo2cCG2sMZtpOJgEzjBOrJfEW9XLtu383ouo5X96QeuK1Kpetm3nq5+LqNWkeZMBVD8pXRJvXdJA5nK5SlazwGATlc1mW1I6rAOYraLYCpm1AaOwzD7P9D3P7zV7j/qV0phQZ9oWeHl0ExVPf5GCSC4otnpS1cS6ynRyZxORJEmL/m0xIYqiCkB1u92L+l2xjXOqenWsM2rdSpVkdTw3Opqg5TJOxuwzExxS1TFL55J4K/8+2aTO+gsTTJgAlwr9Qj8YDC6+EgpMX18fX9ikQ6rxbsL1tQQtl1Hw5Z9HR1OOd6yds/Quopa/FyN6YZuNj5la2YqBnAhtc9HzvANcEm9NaNissuei51X2ctlLZJ9ZB9VrDtigxWCfWadkk5tZZ5sbHeWD5FIGMr2quBQ7HyObJlL2PtnAp+80+vfBOiMbZFnnUVWtvbDfsY7K2gzrcGNCnToXPa/OjY7y92i2wp3qfop38GLSMhRbPRnLtFjThd7cU8p9QVVVNRgMZtQfim2cU9WrwnipaxMYqer4itTKBWFWL6yvsM+8v6SoY/ZuZvqeV1X1ah80W/AwYY0J5elM/myRXMoLfbaw8fl8ad2fbLxj4xSrW/ZuWV+4JN6aIIgnG+/44iSuVY6Fh1K6eDChfEyoS0vQLmZyIrSpqjZ4TLoP8JfCJlDW6Kd9R9Wp7qf4SnKq+6l5HW0uel6ddB/gnVMvcBk7nqrOX93qWWiwSwdJklQAqt1uzziNYiFbJlJV1ToiW9knvKN4R1FVlfs3sPej75yqqr2fccfD/L2y9mI0SajqfO2UEdZWCuUzloxiqyf9wLrYhQzrC6Vo7jEj0+cptnFOL7QV06JlKSSrY7ZAm4ueV6/YdydocfSLHVVNXcfGujJq8YykEurMsNlsJe1Oo6qq2t3dvWjrTLLxbkyoU8cdDyeYUa/Yd6vGxYyqJh/vzFw6jFo8PTdAuPcAACAASURBVCztYnCXWSo52z1qEQRUeR7Dh8KnYZWaEAsNYjYyjHJbAyyCgNmh1xAbOIMyWwPKbA2I9T+H2aHXUCbWodzWAFUeweXGHYj1n0Rl5yMol+5OI881UJNEb7bEY0eVbbwho+fRB+IstoOwMyGbu0itUhNW9R3Dqr5nAADTvU9p15u3Y04eQSw0CFVRULF3N1RFQSxwAnPyCCra2wBoO7AmnA+jbOMNqHT/3cIZxncoJnvXZeKNAACLWLfEJ8suxVRPqjyCKe8hWO33wiIImOran/ZzlFIg3XRhfdrv9y/qvMViG+cmu/5Oa0OOBxELDS5ph3yxkLSOpSYAwGzkNcyGzsDavANlYp3WbyLDsNrvBYBF17GF7YBWRk2/Z3OIJY14hKVyAsJCsGDAkUgk7fAfyca7cmk75iLDmA0NotzWgPJtWxELPI/ZyGsAgAr7TgCLH+8sa9cCAFTl0vzv4nMBmxtKmZzHabMIAspsDQnXrPZ74y9N62gV7W2YjbwR72jaC5v2H4OqKKjqPgSrfScswhrT9NlWXlVRMBt5A+WGvLKBMaxBsQcPTYdcBNplgyiDdb7p3qe0zhn/mz6idWL+rnsOwyo1ocrzGMptW0zTnjv/Nv//bOhFLb8cvOt8UAz1NNH1GACgpvsgKjv3YTYyjOmew2mVv5QC6aaLzWbjk2omx1sVwzg3GxnGjP8oKhwPorr767AIghZqYZkcQ2Ss43JbA8rEOkwfeQaqoqBcaoLVvhOzQ69jNjLMFzvp1PGc/Bv+fxYKx/g+M6FUTkBYCH2Mz8Uu9OeNd+1tmI0MIzZwhr8zAJg+8oy22IkLWOmMd6pu7podOK3ll+TeZUMu1HdX7LvVK/bd3PHPqH6e9h1Vx4S6q746cXX0mFDH1Z3M3HPZtp2bi8zMBszPgfurxf0SjJiZj9JFH9aglLZrL8RSTaSx8JB6SbyVb+s2mh1UVeV+BEzlzd6lvj3o/XaY6cdo9mOmbaYCZ07cZpiZlApJsdWT2TZ4lv9CPjqlHO5mIRbrs1ps45wxJAUzw5ayD89CdczMoMyUOdP3PK9DxkJ1zH2v4mFF2DtbyBd0IZeCUt+AYCTdsCULjXfMVKnfOMDGM6PPYrLxjr0D5k7CzLCpwsEsF5eBnGjaKtrbNNPAwGmoioIa31NYFTzJv7fad6LctgWVnfsAaCuoStdDKLdtgTUulVulJtT4nuKropq+Z2CVmuatkqq7D2F26HVYxDqsCp7kUrsRi7AGVqkJZYs0mcmyXFLniy6GpZpIywQBFXt3a9qEgdOw2ndiTfQ1/g4BoLLzYZTbtnBtUsXe3drnvVcDftb4nkaF40HMyb9BlXs/KhwPzFvlVroegkVYg7nIMKrc+7Eq+FzyctkaEspQaIqtnmaOaH2p2v01fq26+xDKbVsw4/9B0uco1UC66SKKIjf3Mm1iKoppnGPaoSr3fjBNRYVjD6z2e3n5SpGF6pj1k8q9uwHo6tz1EL8nnTq2Sk2wtt8X75/3YnX4NJK5V5SJdabvyEipnYCwEDabjT9HT09P0vsWGu8sYh0qHA+iXNrONcaVnfu0fqFr1+mMd1Xu/Zo5VBlFje8pVHcfSlouq9SUFe1pwSm01Jgp+dKmMG1UqYc1MCPbgXZzwVI0pCuJfNRTKQfSTRe9diTdnXK5pNi0xsuRXGlglsMGBCPFshM209iSywE6ezQFoVCIn9G5HDYfGKGzSIl0MWqclyuCIHBtm9frhVKiGiqisCyXDQhGmG+eLMs0ZxSIco/H4yl0ITKl3LYVVmlHztLv6OjAe++9B5fLtaw6np7JyUn09/fj/fffx759+wpdnHlYAFiEtSiX7l60aXslket66urqwksvvQRJknDoUHITxHLgzjvvxJEjRyDLMqqrqwtu2sr1OEcAVmlHVjc2PfbYY4hEInA4HLj//vuzlm4xMDk5iYGBAbz//vsFnBfLUCbeiAppOyzC2gKVoTBYVFVVC12IYqSnpwddXV0QBAHRaHTZ+e8wFEXBunXrAADRaHTZ7AYkskckEkFjYyMAIBgMFlyIyQd+vx9Op3PZ938i+yiKgvr6eiiKsiz7iyzLqK+vB0BzRiEg86gJiqLA6/UCWJ4O13rIREosBNt84HA4lt0ElAz2rPrNFwSRDsttA4IRURS5ho3Nk0T+IKHNhK6uLiiKApvNBpfLVeji5JxsBtollhfLMZBuurDn9fv9WYtlSCx/mO9nZ2dngUuSO/bu3QvgqoBK5I+SEtpioUFMeQ7yQJO5IBKJwO/3A1jeDtd6chFod6lMeQ5ixn+s0MUoenJdT8sxkG66SJLE+0Y6IUCyRT7GuZXOjP8YpjwHs57uct2AYESSJIiiCEVR8mahUeURTHkO8vA2K5ZCb19lzEXP80B5jFh4KOEcsXS2+bKz94yBQlmw0YXOi1tO54suhmyeRboQLMAlC145Nzo6L1houtvw9ednGv9KfTt4NuvJ7Oxddi1ZQMrlHEg3XRYbcHchsjXOMZK1/eUQRDRT2Jm7+r5irON0QqmwMDrGumQBjs2C7zocjmV1Jm8qsh3+47Jte0IwcON4t5iwRmbnw7JryQLwlwrFo2kTarVge9u2AtBWm1cadyz67DyLIKC6+wBUReGBQtn/rVITKhx7kv7W7/cjFApBEIQVo2VjMBMpU+3nkvJtW1EubQeEWgDARMdujHfsziitSscerAqe5H9Vbu0MTavUVFQBdjMhm/VU4dgDq9SEGf9RrsGZ8h7SznV0zz93dLkH0k2XrPvvZGmcY+jb/qrgSb5zOK2zaZcpFvFGLfht/JzJTOtYmy8e5GedsrRm44GrjcF39VonZj5cztjtdh7+I93zSFNRLjUlHHm1lPGOHeM25dV2uqvyCGb8R7V5IUkA/lIhp0KbmTrT7POM/xgsgoDybbfy383Ez12cHThtqsae8R/DdM9hUxNChWOPdiZd/IDa6Z7DUBUl5UCm33zQ2dm54kxBzAwky/KiDsxmGM0NzMRj/KzKI7CIovaulTHM+I/xc//MVN+8DSUZcC3x6ORWqUmL6H/kGVgEATW+pxf9DPmgUPUEXJ3IJ71PxNMbQXX3gasHZOvo6enhztQrwa8zFewklFAoxF0n9BRqnAOuLk6sUhPmIsOYk0dQ6Xqo5BcsRowmY1bnxs+x0CDKBAHlzTugKpcWrGNVUTDdcxgz8fNJjbBTQ6Z7v6P96/06P9nCyHLfgGBEEAS+oEm22De6b8z4j837zN5J+bat/ND3hcY71h6YMG3EIgio7NyHOXkEM/5jmPQ+AQBFOy8silyr8vTnhcXCQ5q6OX5OHPvMzltkquhYeIiroC+Jt5qeN8bU28nOS2SmH3b+n94sZMZKiPa+EMxE6nK5Fv3bqe6nEs9MjJ8Fx0wSV+y7+RmMevOP/izAK1IrV2ezd3tJvJWfXbeQWpyZwFl7KkYKXU/MRHBJvDXp+a3RaJSfCtDX15fNxy9ZFhofCjXOMZjZ9ZJ464Lnx5YirA5Z22b9iNUp+xwLDyWY0ZLVsf5MV/Z9MpOy3qyWysWGudYspxMQFkLvPmB2qg4b3xj6s3jZZ9ZP9CZrs/GOvdcxoY6fRbqQG4F+XEx1LmkpkXOhTT8JTXU/lXCYL+tozDdA33HM7NdsMGMdlX1O1omuSK0LHv6rqokNbyVPUkvxUTBOTKze2fvTC85Gnx0z/xI2oM6NjnI/xUvirUnzT+Z/UmwUup7YYc2pfDuYX85yPLotU0ZHR1VRFFUAqtvtnvd9Icc5Vb3aNkrdjzMVCRN8vL65EGbfzdu9sU7N6pjVF18sxT+bzRN6P+lUCx02h6w0/08mrJr1C70wHQsPJQhabCxk7do4vhk/8zE+3gbY51QKGaa8uYjaZbOYyblPW0V7G1RFwWxkGLH+5/jhybHACcQGzqBMrEOyg3mTwQ59LZfuBgDMJTEdVHY+AlVRUOF4IGUezHdHv1tsJaL3UVisibTc1oAysQ6xgTOIhQY1c3TnPsT6T2I2MgxVUWBtvmtRaZaJN8IiCJpJybYl6XtWFQWTzn1FbRZlFLKeAGBGZz6d6T8573v97umVFuIjFfrjrXp7e+eFOSjkODfdcxix0OCyNIvqsdrvxWzoDAAgFnhe6zfxPjQbOsPraTGwUxDKm7UTJ2bjJjk9FkFAheMBqIpi6v8JXDUPsmOeVhIstImZibQi7j82GxpELHBCOxReakKs/znMxk2eiz3tg7kXsLauytGk9+rHuEz9RouNnAtt7IXMRV5DLDSIcululNsaMBsZxlxkOLdOgfHOw+zkZujPF/X5fLkrSwmgD7SbScy2culuzEWGMRt6Me5jxt7zawCQs3c93XNY8+Xp3IfFToyFoFD1pCoKpryHuIP1jP/oPF+RlRhIN10cDgcPc9DT05PwXaHGOfZOk20oWU5Ym++KbyrTfKKYX1kscEJbnLe35SxvPockEcjYQmclbEAwYrfbeb8w+nxaxDqUiXWYHXodswOnUd68A2W2Bm38G3od5bYG5GrMjoUGEQs8jyr3fpSJdZjsetzUb7HUyLnQZhHrUG5rwMwRzQnXKjXB2t6G2YHTmJNHULE39e4Q9eLFnJaPxV9yuVwrbvOBGWwXaSaxdyra2zAnj2B24DSs7ffxiWrmyDFY7feaOrzryaRDzUaGMeU9hHJbA6o8jy3694WgEPUEaLtF2YacavfXtN1VXVcn+pUcSDdd2MLO6/UmxDQs1Dg34dSsCTW+pxZsN6WOWT+xSk1X63wBwThXc4nf719RGxDMYMKqmbbNat8JVY4iFhqE1b4T1vb7NA2pHF2wXwBLGO+69vNNI9Xdh/gCp9TJS8iPcqkp/sLuBaC9xFhoMG7OMT+k1yo1wSIImO45jPGW3KygPB4PZFlOMH2sdJZkIo2rq2OhQa4Wt9rv1d598/akv7O23wcAuNK4Y9GBYiedjwDQOvZ4S1vCX7KdRYWmEPU0GxnGdM9hvtPQItahsnMfvw7QAiYdJEniE7MxBEi+x7lY4ARigecBANO9305o+5Ndy0/rxuoxFhrkWjUmAJRLKfpNjucSZpVYzicgLATbYa4PLsywNu/QdvXGFzbsfWjvLbk5fynj3XTPYcxGhjXrS1ygt0pN/HopU+7xeDw5z2Tzx2ER1qLC8QDK1n8UZes/CgCouP9z8wYzq7SDX6u8//MoEzeibPMtKL/zdgBlKBNvRIW0HRZhLSwALMJalEt38/hEelJ9rygKHnjgAUxOTuLw4cO48847c/HoJckvf/lLRCIR1NTU4J577kn7d5bqapSJdbBKO2C950+1a+vXo0y8EZX3fx4WgZmpE99j+Z23a2ry9R9BubSdtw99WwCActvWef4P6nvvwyptR7ltq9ZWdH/WO+/Q5Vk8FKKe5l76Bco2b0Kl62H+u3LbVliqq2Gprsb3z76BI0eOQBAE9PX1obq6OvcVUaLYbDZ85zvfQSQS4ZHhgfyPc3Pv/R5l4o2wStvntf3yzR9PKiiWMmWbb9HqxrFb60frP6rV+f1/zuvGrL7m17GxnyTWuUnOpt/LssxdCn74wx+u2H5TXV2N8+fPIxKJYGpqKsE3vGzzxwFoMTXZ/8vWfwTltq2ouP/PE9LRvxPjeFcef9fGfmAc/wBg9qVfoPzOT6DS9RAs8XdSZtuqtZfqGl6OkqTQOyEKBe2QS05fX9+KD3+ykhgdHeUhPsx2gBHzofGDUFVVdblcK+YEhIUIh8MrdgdtPrGoqqoWUGYsCKFQCC0tLQCAYDC4Yv0QUrFu3br/v73zD4ryuvf/24l1O3F3WSKOIF/C4kgk135l15bUWghL/M402CTg7YjWJBOWaBvTG4TUb6L0WpakF01vU0CbxETD4s2PRphelyYRO3cUDJi2wesuJs0XQ8ddQxA6mrIu652STIbvHw/n4dnfv57n2R98XjM7Pu4Dz3k453x+nPP5nHPgdDphtVqh0+ni/TqEhJhMJjQ1NUGr1cJuD7wSi5jD4XAgLy8PAOmQ+QzTk9QHOPR6PWw2G1paWub9ptxSkTjHWMkIy0WhFXKBiWUVKZE8OBwOPnmY8jrDR6vV8vUl52HyROJACxB8Cbb9ByEO885pm8/ni0ZCLKtIieShqakJTqcTBoOBP5KGCI+6ujp+0Y6/462I1IYWIPjC9qlzOBxkOyRiXjltwkOwd+3aNe82QYyEWFaREskBbaQbG8JV5/X19T4b7hKpi/CQdBrseEKzbdIyr5w2Nqug1Wohw6LZpIdCpKkNG8BUVlZSeCdK2PYo/jbcJVKX+XwCQiiYE9vX1+exlyEhDvPGaXM4HLxSne8nH4QLhUhTF+FGupQmEBvBjrciUpP5fAJCKLRaLT/gp9k28Zk3ThtLFqZZhfChEGnqQhvpigdb0CRMvyBSF1qAEBoWImV1RYjHvHDaLBYLzSpECYVIU4+Ojg46CURkWD2yuiVSF1qAEBq26bTT6aRIjcikhNMWahaIjX4bGxtpViFCwgmRkpFKLILJg9Pp5Le8ocU44mEwGPgBTrAtQJxOJ8lLguNwOALODtEChPBhTq33cW9CKIITOSnhtFksloALC9j5olqtljb7i4JQIVKLxUL7VCUYNpstYJu0trby8kCLccSFzeIL8wWFOJ1OflNvIrEpKyvz67jRAoTwEW7/4U8egukpIgjxPpJBDHp7e2cAzJjNZo/v7XY7fzyP9z0ifNiRPXV1dR7fNzY2zgCYaWlpidObEf5g8uDdLsLjqkgepCHY8VYGg2EmRVRuyqPVame0Wu2M1Wr1+J7JT29vb3xeLMlg8uB9zJfZbJ7RaDQ+NoUITUpoEGakNBqNh5BVVlbS+YAi4H0W6eTkJF+3AGbsdnt8X5DwYHJykm8boXNG52VKTyDHmOo+uWDtJbQpZrOZzmSOELvd7mMnWD0CmDlx4kR8XzAJSSmnjQnZ5OSkx3feoyUicoSGSKfT8XWr0+ni/WqEH1j7sP4vVJ40SyAtbAaaGXf2f3LakgehY6HRaGZOnDjBz5RSZCEyWL01NjZ61CsN+KMjJQ6MdzqdSE9P5//PDji32Wyorq6mfdnCxGazeSw40Gg0fF02NTX5zUuoq6ujFbkJyIIFC/hrjUYDrVYLm82GyspKnDhxIo5vlvo4nU7o9Xo4HA4YDAYPuTEYDOjt7Y3fyxFhYbPZoNfr/d6bnJykfLYI6OjogNFohEaj8ckTTAH3Q3YWxvsFxMBbgIQJ8+RQhI9Op0NfXx9/ckQ4lJaWSvxWRKw4nU5eJioqKuB0OsnoSIjD4UBlZSVaW1t9Bjq0ej05YINVfwgnCBgGgwG7du3iVxDPR0wmE86ePevxnc1m422Jt02hPe6iIyWctmCkp6dDq9VCp9OhsLAQOp0OOp2OlGcA6urqYDAYYDQaw1qOHUy5EYmH0WjkR71MFtLS0lBZWUltGSFsDyqHw4GzZ896OMeByM3NlentiFjRarVhbc+i0+nQ0tIy7+WH7c5AJ4NIS0ps+eEvbCfE4XDAYrGgqakJmzZtgtFopA3/gqDT6dDb2xvWPkTk/CYnTqcTfX196OjowJUrV2jmLQpY2PnKlSvo6+ujPadSjHB0W2NjI6xW67x32ABOHkwmE6xWa1izaBSliY6UcNrCpbq6Gna7Hb29vfN6GjscNBoNzGZz0B3zaXo7eWGnIdjtdpjNZnK+o8RgMMBsNsNut4c1yBkaGpL+pQhRCDaQ0Wg0sFqttNehH7RaLXp7eyk1SSLmhdPGnDUyTpFjMpkCLuSg2ZnkpLq6mjc41IbioNVqYTabQ84yUNgoeSgsLPT7vU6ng91up9m1ENTV1cFqtZKOEZmUcNoCKUIW5iNnLTYCrcANpNSIxISNgEkepIPpnJaWFjJWKQgb8FDbhkcwB5d0UHSkhNPmnUui0WjQ0tISdmydCA1tnZI8+BvE1NXVwW63kzzIBJtloPpOHUgHRodGo/GbI01OW3SkhNMmxGAwwGq10jmjEuCttMggJSbCQQxTmJRfIj/+cntosUJyYjabyWGLAZYjHU7eJxGclHDa2N4wjY2N6O3tJQ9eQqqrq4MuTiASB4PBQLNrCYAwt4dy2pIHZkfI2RAPqsvYSYl92pxOJ959911s3Lgx3q8yLzCZTPj444/j/RpEAP785z+j9uEatP3Hq/F+FWIWlttTVlYGh8NBA8sk4G9/+xsOHDhATobImM1m3Lx5M96vkbREdIzV+YH38d8Df5TyffDjPT/Fyweej+h3Phsdxf/KyQn7579Z/B0AkPRvydLm4IGtVaI8S+p6z9Lm4Jvf/Q7eeaMz7N9x3rgBANCkpYX18/c9WIX/PvdHjDtGo3rHcPhm8XfwreL1kj0/EJH210iIpq86b9wIu12A6No/Gu57sArZEchptIyNjkr+t0Sjp4DI5EYOPQVwf0u8SOS2isSuJHJbJardjlRPJZvdloqInLaXDzyPlw78Ssr3gc05Dp0mS9Iydu7ZDQCS/i1FJetx5O3fifIsqeu9qGQ9fvz0T7H9vh9IVsbRd36Hl597HoP970tWxs49u+NigKTsr3L1VanbH+D6gBxO9fmB9yX/W1JFTwHc3xIvqK0iI5q2IrsdPmLabalIiZw2giAIgiCIVIecNoIgCIIgiCSAnDaCIAiCIIgkgJw2giAIgiCIJICcNoIgCIIgiCSAnDaCIAiCIIgkgJw2giAIgiCIJEA0p+3uign80cl91ho+97j3winu+2N/nIi5nLWGz/lyMvOmA97zfodIKSpZD5tzPOiH7RsTL+Sqc+Hzgn1i5eg7v4PNOY5nDrcFvHf0ncTeQ0cIq7N9r/jWDbv3wqnY602ufrBzz+6QMlFUIv/mxpGyfR9XJ//5sW+dsHv/NTYBZfpXMZclh9w8deAZ2Jzj6L9yCSqNmv9epVGj/8ol2JzjeOrAMzGXEw9YewT7xKrrAXlkNSs3h28Pb9vBZKv/yiVk5Uq/ATVDaDMDfbbvSw4dJezv9z+4JeC9eNvtWBHNaXuvOxMX/sRdP7rnS/77tYbPsXYdd92292sxl3Ohbwlfzo69kx73vr+NK/e9P3A/FwtTzhs4P/C+z2dsdG5H//PnpNsoNhzkqnMAGPkQuPAn3w9DeB0tLz/H7aj9wNYqD8WVlZvDb8r6q70/j70gmXj1AFf3G6vgMcDIzJsWtI8q5nLk6gefjY76lYmpGy4AwNQNF4Y//CjmcqTmrd8shfsmkLUc2PiIp6HY+EPu36PPAe7JW2IuSw65eenArzB1wwVVmhoPPfYj/vuHHvsRVGlqTN1wSb65qlRc/dR//blnT0Fy3wQ+GdLEXI4csjp+ZRRvvnQEALBt5w7ewVZp1Ni2cwcA4M2XjmD8inSnxnjjvvF1v/U7fnXuZy70x6475NBRU04XX7+PeW2ybvh+OVRpaoyNjuL1w6/EVE68ETU8yjr12nXgvWnWQCc7Y3ekGP4ELDNvGhtnT59o2ZMecxnDH/4F2+/7gcen/iEjf//Nw0ck3d0/XOSq89b/m4mf3Ov5ee8kd899E3h2Z+x1PtjPOQEAsHPv3GiIXf/+rU4Mf/iXmMuRi0ADDHZ9shP4xLpYlLLk6Advv3HcRyZ+tffnUKVxxudfn6jHlNMVczlS4568BccPc9fbn577fuMjE8hazhms4wczRSlLDrmZcrrw4qxTxpwBoSPwy4afJ0W7+OPkMd/6a9urgnJWbJ59XBznWi5Zff3wKxgbHfVwsJlzPTY6Krtz/Yl1sU/9Pv3Dpfz940fEsyFy6KjXD7+CqRsuZOfkeMy2MSfu8IHnk1YWGKI6bZ9YF+Pk7DFyj+75kvei3TeBlqeXBv/lCLjQtwTv/YG73vo4J1RMuF59HpiwK0QrS8gzLx5Edk5OXIQrEHLVuTd36G+ibjbicvQ58eqczaQ9sLUKKo0aWbncWXBTN1z49z37RClDTpii2lgFKNO/4gcXYrdPPPqBSqPG82+aAQC9J/+As78/KUk5UvDWb5Zi/Co323Z3BTfbxhy4Xzwuzuy0P6SSm9++dMTDGWCOwPmB9/H2G8dFKSMRUKZ/hQNvTAHgIirvdYvjXAPyyOqU04XDs2d0btu5A1m5ObxzbXq8TpQyYmXf4Wv84OVoc3LpKOEA5qHZer3/wS3IzslJGVkQfSFCy9Nc6GHtOmDXfs6LFivU4FHO7Gza97fBQ7je+o00Bqr0gY0o2/g9AJxwJZK3LledC/nZi5zivPAn8WYlAG6G8/dvcZL90GM/wsOCsEEi1Xm4CBXV1n+5xg8yjh+WQCZk7gc79+xGdk4Opm648PPHayUpQyrck7fg6HPc9ZadnOOWtXw2PCTSzII/pJIbYM7ob9u5A/c9yIUdkimdIBy2N3AOhfsm8Oxj4up6uWT17TeO4/zA+1ClqdH6hhmqNDV6T/4hISI3d1dM4G7OzOEXj38tKXUUG8Cs+sZqFJWs5503ln6T7IjutAlDD3fcCXzy/8RXTgA3Qj3ZCSgXA8+9yQlXS4M0BkqlUeMXh1oAcIfvJoJwCZGrzhnb903gjjs5xSmcSheLl/ZzI6X7HqzC/T/cklAzm9FwZD83wNj4Q26QMX4VOPqs+O0jZz8oKlmPbY9xyvDJh4xJ6VCfPJaJ8aucAXl0D/edGOHKQEgtNyy9QJWmRnZODt48fCSp0glCsdbwObZwXQ5PPyi+QwHIJ6vMgVj1jdWYuuHCL/fGP4qgTP8K+17krl99XprBi1w6is1m7t7/DFZ9YzV+/1ZnwtntaJFky4+rn85dq9KkKIHjyP50uG/ONf7JY9IYqGdePAhVmhqXPvpLwjoPctX5HfqbeHQ2x1OsfBJvxq+M4s3DR5CdkwNVmhq//JlJ9DLkZMKuwPEjXChOuRho3StdWXL0A5VGDdOLrQASJ7czWlhb3HEnl78jVWqFHHIDAFc/+4y/VmokVAQyo0z/Cv/6IjczI2aelbhY6QAAE/1JREFUlTdyyepnn84tNmA5ofFm3+FrUC7mbKkUjipDDh319hvHcemjv/BOMZsISAVEd9qU6V+hvpm7ZjkjW2rF2XbCmwm7Ap98yF33S5ROIwyLNu7cJU0hMSJnnbPwjtj5JN70vnuKv06mXKlAvPfuXJ6UVPUmVz9gYdFknwEFPNtC2EZiI4fcFJWsxwNbq/gV7g9srULB/14tSVlyw8KiYudZ+UMOWX32BW7Qw9rqqf3PSlJOuAjDov/2eOwr2gMhp63qe4ezIZc+/EjWFblSI7rTtr2B89ZPdoLPGdn+NETZ80huvMOiiRpqkKvOheEdsfNJiNiRox8Iw6KJltuZqMglN7v3cyscDh94ns8LZd8lM8KwqBR5VnJT+sBGfKt4PcZGR7H9vh8AAMo2fi9uexx6h0XFWtHuj1TyD+KFqE5bZt40L1xH9qfj5DFubxblYqD+uWtiFiULyRAWlavO5QrvENEhRz9IpbCoXMglN/c/uAWrvrEaY6OjePuN4/j3PfswdcOFbxWv99loNJmQKywqJ0/9mwkA51yPXxnFy7P5V0y25EausGiq+QfxYqGYD9v30tyeNiw35NUDX8Nay5fYWAW8++bnSSN0wrDo1U8/87uL8vlz78fdcMlV5yy8474J3LEGuGON75S2lAJPBEeOfsDCosL/e2P57fGUCkXEihxyo9Ko8VTz3CwbMLfR6I/3/BRPNT+Dvnd7knJWlIVF+f/72Z3/ndfTJctFFBthagHbfuL1w69g284dyM7Jwc49u2WdIBCGRSc+9V+/F/q/JooNSSX/IJ6I5rTdXTHB72zMVuAAbNPCidkVWl/iQp9YJUrLwz96lL8u2/g93oHz4ADi6rTJVedrDZ/jjju5a+Vi8DMH3hyNb1rGvEWufsDCot7XQs6fe5+ctlnkkpude3bzm7MK96FizgDbuy1RowXB2LLD/7WQC/3upHDahHuyMeca8HSwt+3cwW0QK5ODvWXn3PXd3wPvwHkSu+5INf8gnojmtE18qsJPKv8B942v+wjQszvTsTzXDYCb7hYzRNC2VwVl2j9w9YpStGcC3P5GqhCrr4QrgOKBXHX+yZAGP6l0xvSukTL84UfYcf8PZC1TSqSsQ7n6QTjtkQzHWHnzk0ou8VyM45CEyCU3ve+eQu+7p3z00ZTThR33/XNIPZbIsLYJRjK125Ozp+p4D/ZfP/wKfyyiMi1NNqeN2c9giGFb4+EfWH57HOfPvY8p5w1RnpcoiOa0ccmL/hMYJ+wKyUZCwcqNhURddCBErjp3T94i+7T1lNMV99CzmEhZh3L1g1RqDyFStYtcchOsXZJBjwUjHuEyqdpt/MpowFnoeOk7qexnJOVI5R8Eq+9kRpJ92giCIAiCIAhxIaeNIAiCIAgiCSCnjSAIgiAIIgkgp40gCIIgCCIJIKeNIAiCIAgiCSCnjSAIgiAIIglYMDMzMxPvlyAIgiAIgiCCQzNtBEEQBEEQSQA5bQRBEARBEEkAOW0EQRAEQRBJADltBEEQBEEQSQA5bVHQbhpET8dwvF9j3mDtG0O7aRDjDnkOUSaiY9zhQrtpENa+sXi/yryHZCZ56OkYRrtpMN6vMS9IBR0Vs9NWlfcaSha84KEcqvJeQ3n6UYw7XKgts6BkwQseldTffRklC15As/G0x7PY9/3dl8Munz1f+Kkts2Dc4UJ5+lEcrB+I9U/0wdz0AXqOxcdpG3e4ULLgBVTlvebzXY2+E4D/OmEfb2r0nfzvhUO7aTDgcw/WD/DtLibWvqswN32ACceUqM+VEmvfGN8XhdToO3l5CNWOQiKtW/Z874+1bywqOQuHCccUzE0fwNp3VdTnxkqotmCKPJDMeCv4ZGiLZJQZRqB2qC2z8O0kdHLcrmkfWWKIqd8ifVa49BwbhrnpA9GfGw6h+n0o+y4kmr7sr1w22JDCfieqjoqEhbE+YK/5HtSWWWBuGkSDeQN6OoYx7nDB2HgXsrRq7DXfg6q819DVdhF6QzYAoKv1IpQaBWrbij2elalVQ2/IRqZWHfF7HOyt5K+V6QqoblNAb8hGfmFGbH9ggpGlVcPYeBfnOHYMo7y6AOYmToE90fJd7t/WYrgnp/nf6Wq7iH7LZRgb7/J5ns6wPKr3qG0pxkqdZ93mF2ZgwpAN1W2KqJ6ZSugN2SivLkBPxzBGhq4jvzAD1r4xjNiuwdh4F/SG7JDtKCTaui2vLkD5IwVzz1mbgXH7VNRyloyEaossrRrl1augF8gCc3r0hmxebzGoLaRFqMsBYL/xzKxNKYLekI1Tx4bR1TaEGlMRAKDz1xcBcLbIGzH1W7TPSmRC9ftQ9l1ItPY7X7fUQ+dlalUpa7/FIGanjTVuT8cwjI1FMDcNIkur5gWKU4gFfGNPOKZg7RuDsfEuKNWeSk+Ztgi60mwPh2Pc4UJPxyVkaVXQGZb7dBThe3izcrbBR4auo/+EHfn6JSipWAEA6GodwpTzC1Q9uQZKtQLjDhcGLHZMOb9AefUqj3Lcrmn0tHMza8WVeTHUljhUPbkGXW1DMDcNQmdYzht9VgfCjj4ydB39lsvI1y3l20RIfmEGxgWjceHfqisLLDQrdRk+dZ6pVWFlYQam/s49Q1i//tqgv/syRqyfI0urQnl1gcezrH1jsPZdRb5+SRQ1lBgYG4vQ0zGMrtYhNJg3wNw0CKVGgaon1wAI3Y5ChHXL5IaTqSnoDcv9/g4AZOaqfe4p06Z5OWNtULIpD/mFGXC7ptH564tQaRZhc10hgDn5UWkWobymwENuhfKpTF8kSr1JQai2yNKqeZl3u6ax33gGSo3CryMQz7ZIdZkBPHV5V+sQxh0ubK4r5L83Nhah2XgaPR3DKPnnPHS1Dfl1rgFx9ZvwWd72w1u/uV3T6P9Pe8A+wfpLyab42pNQ/T6UfRfiz34L+6S+LNvH5gOAUrMoZvudCjoqXETJaWMNvKusG+MOF55o9ZwpMDZyDWxuGkRX28WAje49ddnffRlVea9hoNuOrraL6Gq7GNF7sTBmfmEGbGfH0FDZg3GHC9a+MX7alTV4jb4TPccuYaDbjqq81/gp3pGh69ic+xoO1g+gv9suyfR4pCjVCtS2FGPc4cKusm4oNQq+jr3ZX30GALC3w9f4AJ5T8+MOFzbncrOi/d12/nfDRRiSWanLgLnpAxzcxdXzoboBTrmWccLZbDyN5uozsJ3l2kJYr83G06gts+DUsWEcqjuHrrahiN4jURAOWPq7L8PaN4balmJeoUTSjt7hrhp9Jw7WD3D9elMP3K5pv7/nD6Gc6cuy0dU2hJ9V9gDgZi3MTR/wsww9HcOo0R2H7ewYutouYnPua3xYpKdjeHYWfQhdbRfRHGF/kZNQbSGkvZELz9Q0FvkdJMarLeaDzAgZd7jQzpyEpjm5KK8uQJZWDXPTIHrah+F2Tvt1rgFx9ZvwWcH0m9s1jdrSbpibBmE7O4baMgtvb9yuadToO9FsPI2BbjtqDRaM2K5HXDdSEKjfh7LvDG/7fbB+ALVlFtjOjuFQ3TlYeyPLIwvXfqeKjgqXmGfaAE+FmK9bynvDwvvGxrvQ1TYEt3MazZbysJ7b1co5aQfPVkCpVgRVhsJ8lfJHCnxGoXvN96BG34n9Rq7RhDNPP6vsQb4ug5+Wb9jUA7PpPEoqVsBsGoTbOY122xY+rOKdGxMPWDiNjUL9GZd20yAfAgpnmrmn4xLczmk0dNzDjxYDcaj+HJQabtSyUpeB2hbPULfekI3NdYXoah1CZq4a1r4xNFvKeSHr6RjGwd5K6A3ZnNOsO47+7svI1Kq5EXTlCjSf4PpJbZklaRNHa9uK0W+xo7n6DPJ1S336ZTjt6A0L7W2uK0RtSzHcrmm/zgcAnDo2DNvZubrzDj0p1Qo0dNyDhsoeHKwfQE/HMD+rMe5wodl4GsbGu1BjKuIMTmEnutouoralGAfrB5ClVaN9qApKtQLtpsG45eaEQ6i2ALi67Wod4vtvKORqi/kkM4z9xjOcvThR7lOnLGzX3jQYttzIpd+ajacx7nCh68rDUKoV6God4pzspiL0tA9jxHYNtS3F2FxXCLdrGptzfXPx5CZYvw9l3wPR1TqEfN1Svp8Hqu8R23UPm/pEa7GPvQpkv1NNR4WDKDNtbtc0bLPe9Yjtmt8E3aon18DtnI6o0Vn+R01hZ8jVNbrSbP6TqVX53M/SqlHTWDQ7XTvGzzyNDF3nw7a1ZRbUllnwV9t1jNiuAQD6LZc9YuuBQh9yw94bAAYsdr/3zU0fBAyL+qNkUx6UGgWaq8+g2XgaU38PrNRW6pbw9R3IIaxpKpodEX+AksoVgrAo977mpkHUlllwqI4bNY1YP0f/Ce7e5l1r+OfoShOjzqNBqVagvLoAbuc0jKZv+dwP1Y7+yF+bgXzdUi7Ut6kHIxcCj9QztSoP2fBHScUKlFSuQFfrEFQaBT+rwd5noNuO2jILGip6MOWcxl9t12HtG4PbOY17H5kLRegTPOcnVFuECov6Q662mE8yA3AG39o35hEWFaI3ZCNftxRu57THLFwwZNNvs3LTUNGD2jILeo5dAgCMXLjOtyNzjJRqBfJ18c3bCtXvw7Hv/iivLsCI7RoXxeoYDjiYUWkUHnKhTPMNYQay36mmo8JBlJm2zl9fxLjDhQbzBjQbT2O/8YzfUSQAfvQSDuXVBcjUqmBu4rxj29kxn+cywnFMppxf8NcTDheXNzIbf2cKFQBQGvYrxo1DdQNQahSoaSzCwfoBtJsGPeqAKXV/Se2ByC/MQLu1igs7dAyj32LnR4velD/iP/fKmyknV7/CVWzu2e+EhkVXmg29YXlSr+oJhDJN4fGvkFDt6Pd5agUOnq1A568voqttCP2Wy/wMjDe60uywZIO1yZRzms/VYvKyUrcEmblq/nlZfgZFyUKwtmB6zF+SdcDnydQW80lm3K5ptM/mHAZzyJgtCeQMeCOnfsvSqj3aqrgiz+9kQiIQqt+HY9/90WDeAH1pNsxNg7Ozj1N++3+mVhW1/U5FHRWKmGfaxh0uPhG0vLoAm+sK+aXsseJ2TUNvyOaVYCzT/WzmiXXM5uoz/POVGgXcs0mNNaYi/gMAJZUruBDIEDeCToSQA8vJ2byrEJvrCrmRftsQPwIKNUoNhNvFKZsG8wYYG++C2zkddOYgFM2PcFPZtS3FGLFd42dLSyq45NusWWFlH70hm0/MFeYvCkNKqUSodgxFjamID4fFYrhZf2kwb4DbOc2HIIRJ0sJ2YosllBoFTh0b5sMeyew8RDMzLUTytphHMtP8yBk+jBmuQxYOsum3yhWYck6jZFOeR1tladV8O3a1DvHvFM+ctlD9Phb77nZNo7y6AJ32hwHE1icD2e/5pKMYMc+0Hao/x4UbZhOoa5q4VVqH6s4FXC0SLrWl3fw1yxuJlv3VZ/jVYvn6JWio7EF74yBqW4r52Pfm3NeQr8uA2/kFiis4gTOauCnZWoMF+boMjNiuhz0KlwK3axqH6s55rHx7ouW7XMik/hyeaPku2me3jrD1XfXJvws2QmpvHMSAxY5MrQrWvjHk65ZGHQ7u777MbzOyua4QPccuoattCOXVq1BeU4D+bjuajafR1XYRSs0ijNiuo2dyO/ILM/j8iRp9J9zOaSg1qbeFSKh2ZA6AP/q7L8/mZXH9UalRoLx6VVTvwZK9mVIeGbqOrtYhbs+lihV83o6t7yoytSpMOKaw13wP9IZs1LYUo9l4GjWFnUnfRiwp3e2c9pEZfzk2DLnaYr7IDNMbAJfTzPKaAf+5ZZEgl34zmorw10ou51D4/IO9lSivKUDPsUv8wjZmT1g6jtyE6vcspztS++52TaM87Sj0hmx+FnJz3Rq/Pxvueway3/NFRzFuMZlMpmh/2e2axrh9CndX5mHD1nwAwCLFQuTeqcFtyxbjtsxbsSTzVsFvLJjNRQgcw1dqvg797NYed92bgyWZt+K2zFtR21aMjY/4Jg4DwMqAwseVhwUAZoCH9qxF7qp05BakQ6VRAFiA/LUZWP3tTGzYuhK5BelQahT49r23Q1+WjSWz779h60osybwVuQXpaPiPDbht2a3I12XEJRfhyrATixQLUblzNfILlwLg4v0qjQJKjQJZeWoo07g9bm4vSEemVu3x8bu0erb+Vq9fhtsLNFikWIiq+jUBFST3nOWzdej/3sd/+hv+aV0mP3r7p+8sgzJNgQULgPzCpfxIaNHXFyJTq8ZDe9ZCdZsCixQLUVK5Avn6DCjTFNhctwYVj63m+4W/MpMB7zoL1Y75azOwSLHQ7zNWr8vE6nXLACzA/9maj92vlGLJssU+ZQplKdC9iStTyMxVw2gqgkqjwOr1y7BIsRBf/uMrrF6XiW/feztKNq3AkmW34rbMxSg3rsLts/KTr8tAyaYVWKRYiG/fezt2Hy4FJ3OBt+ZJBPz1388n/gd6QzZW6jJ8ZGb1umU+/U7uttCXZs8Lmfn7xP947Pcl/OQWpPvo3MC63/dnxNBv7FkfnPo0oH7Tl2ajvKYAq9dx7Zevy8CGrfnI0qqxSLEQG7atRO4qztbsPlyK1euWBdTNUhOs3+femQ735BcR2Pe5vpy7Kh0lm1ZAobgFq9ctw08Pl2L1ukw/bxDMJwjPfpdUrEg5HRWMBTMzMzPxfgmCIAiCIAgiOHT2KEEQBEEQRBJAThtBEARBEEQSQE4bQRAEQRBEEkBOG0EQBEEQRBJAThtBEARBEEQSQE4bQRAEQRBEEkBOG0EQBEEQRBJAThtBEARBEEQSQE4bQRAEQRBEEkBOG0EQBEEQRBJAThtBEARBEEQSQE4bQRAEQRBEEvD/AQBW3OtjPNBVAAAAAElFTkSuQmCC;" vertex="1" parent="1">
                    <mxGeometry y="656" width="920" height="444.44" as="geometry"/>
                </mxCell>
                <mxCell id="5" value="&lt;h2&gt;&lt;br&gt;&lt;/h2&gt;" style="text;html=1;align=center;verticalAlign=middle;resizable=0;points=[];autosize=1;strokeColor=none;fillColor=none;" vertex="1" parent="1">
                    <mxGeometry x="70" y="-10" width="20" height="60" as="geometry"/>
                </mxCell>
                <mxCell id="6" value="" style="shape=image;verticalLabelPosition=bottom;labelBackgroundColor=default;verticalAlign=top;aspect=fixed;imageAspect=0;image=data:image/png,iVBORw0KGgoAAAANSUhEUgAAAukAAAKhCAYAAADtzzAKAAAABHNCSVQICAgIfAhkiAAAABl0RVh0U29mdHdhcmUAZ25vbWUtc2NyZWVuc2hvdO8Dvz4AAAAvdEVYdENyZWF0aW9uIFRpbWUATW9uIDIwIEphbiAyMDI1IDA5OjQ1OjA3IEFNICswNTQ1HfMILQAAIABJREFUeJzs3XF8U/W9+P8Xiz0FanrLN1ClQdfI1qBCRY2wFdhjrV5b2aA4VnS28BtUvxrxS4sXg37t4AuLV+mcUB66sEnRC61zVCaVTVsva/cQ0lkaBQPOpncsnZIihVx6GwL0xIzfH0mhLS2kpdCo7+fj0ccDkpNzPp/POeeT9/mc9/lkmMFgOIMQQgghhBAianxjqAsghBBCCCGE6E6CdCGEEEIIIaKMBOlCCCGEEEJEGQnShRBCCCGEiDISpAshhBBCCBFlJEgXQgghhBAiykiQLoQQQgghRJSRIF0IIYQQQogoI0G6EEIIIYQQUUaCdCGEEEIIIaKMBOlCCCGEEEJEGQnShRBCCCGEiDISpAshhBBCCBFlrhrqAoivMa2R9JnTmHANNP5+E7WHLsM2NAq6sQZGX9WCq9l3GTYQnZQEPfqxV6M2u/CcGurSCCGEEKK/JEgfbCOyKdlZRJrS/WXv2xZmr6xFHZpSXXapS7ZSOt/Q/cWgE9uP89nUV/CdmEH+0kUYNR4q6sqoPTTYraOQ/Us7RdNA3VlE+lPVX9n270qZXMjWl3PRB11sWpCHrWmoSySEEEKI/rrsQbpisrDVloO+zyV8VFuyKKr9ioRPQQ+N9Q4UBUBBZ0zFkDCE5VHSKHqzhOxEcK7NIv81bx/LpWN9q5hMnYcK8zyKHf3bH75PndTVe1EA4g2k3qhDudiHBkqjJ+2BHKYbRuOrW4ttZx91+tq6bC0vhBBCiCvkio6k+1rcHOt56z3YzEfur0iADqA6sD3uCP9HR+7LVRROHsLyBA/T4gUSQTtaD3hhhJH02SaSNCrH9lZR/YkPRo5GlwAEvXg+7f/+cG+3UrA99G9lWhFvrctGN5j16ErzTTLuzw1deHxaCkiQjgYIDnUhhBBCCDFYrmCQ7qHq3/Morv8KBeRfBkEPns9VuFEhXhce3TZmU7AsdHfDs81N7ScO1LGjQ0F122Fa2oa0xCISioJ2tAHjTancMSOLzJvcFOdaqZPTSwghhPhKiLKcdB2Zz5RjvVsHbXVYcwuobA29o0wqpGxDLgbFR90z8ynY7gm9odGTdl8OM9NMTPyWgTEJCkrQh/czF7v/WIrtNQfesyOMCtkv1FKU5mHTv9mIzSsgJ3UMPlcFa57ZjeFhC3nTDMS2OShbbcFWH3rQ0PDTUrYuTsW3s4ic1+IxP5pLRqoebdCL+8MqStf9iurmQYiOEk3kPpJPdloqhgQF1eeh0VFN2a9Lqb2E9R8+fBTQo/2XeGIBrtMzJvzemGv1xOKAa/WM1gCtHpqDAAqGu/LIufMOUm8yYhitRdGo+I642f+XSko3VOC8XMH8CCOL1tswT9aiHqpm9cNFVLeCMrOY2lXp3ZI5UhdvpWFx+D+n6rD+oIDK3p4P1cAYUy4L87OZfrMBncaHu6GCdf9uo6713GLKrBJqV6SFthF0Ybs/j00+E4uWFTJ7qgG9VoFDFeTfV4zz7C5RMNyVj/mBTEzf0qNVVHyHG3HUbqX05Wpc3e4eKWSv6z1P/uy21TqsdxVQ2eVzyrg08hbNJ2uqEb1Oi6LpUT81lluMULe/x+uxRjKX5DP/ThOGa2LpONJIzeZiire5es/P16VR+NwKcowK7p1r+Nkz1bhlhF4IIYS44qJsCkYv1S+spboVSEhj4SNpaAE0BnIezcGggG9XCcWdATpAEAzpOWSaDMR3HMXT7MZzMhbdeBPZS0qwLTWdn6Gr0ZPzcyu5xuH4OhR0k3KxvlKCedpo2n0qSqKJvIdzMPQIhLQ35WN7ycI934JjLV7UEToM03Kxri0kTXuJVR+XTfHLNgpnmdBrPDj3O3GrY0i9axHFL5eQmzLQPGMVT8thAJT/pWO0BpKuH4sSdOM6CMq1BpI0EJuoQwuon/8dTzD0OeWmLHLuMmGIbcfzmRv3kQ5ik4ykzbVge2ERxsuR+qzRk1m0BvNkLXjrWLdsdeh4AGj9iNraOup2OfGEI0zfQQd1u+qo21VHbXUNzpN9rNdo5qWSQu65PrzvFC2GaYuwLuuRltPhw9fmQw0CmtHc8C0T5rUlmO8yoh8ZrvDxY90u/IzzSyh9dhHpk/TEnnTj/sxH7LhU0udbsa1fROqltlNyDr/YWIJ5lgm96sJeXUm13Y0vCGpzLevMc8j4Xh62ngG6JonM1Tas95m4+kQLR32gTUol+4mf8+ik3jeln5lP7mQdyggtxllmcm6V/HYhhBBiKERZkA54q1lbUosX0Gc+St4kBV2mmfkmBdrqsL1QiafbBzxUPD2PrPRpZGTPYd7985jzr1nkb3GhomCYOY/08wJoBf76K/J+kEXO+jpUQPG+g+XeDOY8UYE7CMp1N5Dcc7QySQ9vW5j3gznMy8li3spQORmXzfyZl5KBrSf78QLSk8BnX8ei2fPIfyifvNnzsNZ6IcHEo0uyL/Dw7YX5Wr2hcv7LaHQaheRxo8HrxPGpDxKTSFYg6ZpQ+T2HD58dYXW9spQ5WdOYlhVq13nZGcx+vDLUPpPmkXPHYAdwWkyL17Dibj2ccrGpqIiKg+fGe1VHOUWWAgqeLMURHsV3VxVT8HgBBY8XYHmmss9RXyUpnsObzcyePY+8+2djfs0d2uKtd3QLotV3i8j61/n8aj+AjokPWshL9lD9XD5ZD5XjDoLa5uVo53aS87A8YkKLius1M1lZ85iXk8Xsx8pxqaCdnE/BA4aexelXm6Q/ZCZNBzRXULDAjGWllaLCeeRvdEFyOo8unU1SH58d80Ud1gVZzMnNY05uMXU+QGPANLX3MrUf8XL2RoTqxXNM8meEEEKIoXAFg3Q9OS/aaWho6PJnp2TW+YGe9901rN3pBcVI3pIVLH8oHR0+6jYUU9HLdH5qqwfvKQAFJUGHflw8vr82chRgZBL6XuJnd/2fcZ2CjhM+OgDfX+3YW4Hj7aEgRaOcPwLvfYd1L9SeHcX1VJdR1RzarnFyLyP2kUrOZHaaFoJu3iotP5ceEfRQuaUqFBTfmkFa4sBWr3o8HAsCo0aj0+jR67VwpIWPDh0Ltc81Ckm60YCK91P3uQ/6PHi8ocoqWh26cXqGt+wnNN24Dv21sQOtca8M91mxzjeiqB6qrQXYHIM3r7lqL8Hy687UJ5VGV3PoYkSrJb7nxVgX+vF6nBuWU7TNifeLDgB8bUfPvm/8QUYoyG+rpXSD42yA660vZct7PkAh9V+zMF5gGxekSWLC+NBVpmdfDc4uTeJxODkKKOOnMe263j7sofKZ1VR2Xuh4G2nsTB/T9n7rx/fuz7E8X0H1u5XYilZQ0TzAcgshhBDiklzBnHQV3yEPxzq6vBRU8ZzobVkv1WvXcuetVtInZ5IO+Oy27mkuXWgn5WBemE2GyYhuxPnvxw40QOqpg+55vMFG3J+pkKygvUbPGA3hVJH+UW66hQkaIKhgvLeIotld3zSEgkjNWAzXK9A6gJHNwy2h4FTRMVqXzA1jwbfHjfPTw6gaI0nXafElagEvns+77KBEE7kP5ZM9IxWD7vKmPcTfbmHNgjR0+HCsX8rqdwd5xpZTp+m4+FLna3mHLW+EL1ya38Ja0ABHOvO5tUz4dnhEuvkTmrrlnvtocrnhrlS4zkCyQo/c9AgFT9AeDszH6ELPD3QeAbGJo4kHCPrw9ZbmEzyB72Tfx4sCveSl+3D8rhjH7wZQViGEEEIMmisYpB+l6rl+zO7iPcBHbpX0cHDYftRDey8BsDK1ENsvcjGOAO/+asprP8Ltbed04p0sXZx++aYBDDvd0QEoEBvL1QNchzYhPGqv0WOapcfU14IDvdjo8OA5BlyjZcy3DYzVQsunLfgOH+UoaeivM3JiFBD00PKP8P7RpVP0ayvZ4xTUFgeVG3ezv+UYp7mBOUsXYbrUHPyerhoefhgyFiVhsFc+cL59ds5OGX/Kg7O+64WiwtVx4YuXDpX2Hp9tPxX+oKIlPhYY0C9/evjzW7XMn5yOLs1M8eLTlL7XjHrNNPLM09ACvvoqalovuiIhhBBCfIlE2ewu5+h/XES+SQGvF2+CDv0sC+Y/z6fY3jUFQkf2T3IwjgCaNlHwiA1XZ0A16Ubyg1zmID2W4SPCKR8n2zkxwFkwfD41lBcfdLJudj7lgx1wqYfxtAJJ8YyelIReo+JqcaN+5sYbhLHX34JPB5w8jDu8bcO9+WSPU+CUg18tNlPemWakpHHHYvq+kBig9vo1rCAZ20+NpC5cjaUpP5SPP8TU4IXG332c8KuELtIU4oGuR2f8iPDFhqrSPqBh/BDPjiIKRv6CkmVpmH5qxfTTs6XDs8uGdXWlzBQvhBBCfMVE34OjAMk5FD1oQouXyjX5rKn2hmZkWWbuPoKr0aPXh0YyvX9rpOtvIikaBj7yHCnFiNEQ3v5nbo72tswXF1+N+tfG0AOPGgO3TL0clxVHaWn1AVrG3mhAx1E8nwHHWjh8EsaMT0WnBVo9tISnXxybNDr00SMu9h/uuq5Yhl+GEkIHzg0/Y129DzR6sv+vldzxfaXYnNvRsUN6manS+PfwyHryjaR0S7XSkmIMP875WSNNvd1A6nF89pmWpTGQ8QMTOtVFxdMWilZbKXq6gPx7s5jz+KazD9EODi2pcwuxrrKwaIZefrtUCCGEGCLRF6RrDKFgPAF8u2zYaj3U/tpGXRswLgfLw10e0Ax6OdoWin50xluY0BkkaVPJe3A2oWxhhdiRg1S2a0zMm2kIb1+L8YF8spIAvOze5eg1v/dYW2hsVWuYgCFcPiVBS7eEjua3eGevCmhJf2QFOTeee1cZl0buMjPpA3xoNESl5cgxQGHCzRMgeDiUSx9swdMKijGVCRpQW1rCQbqK1xtO3kiahCk5vBqNjrRH8kkPX0co2vjet3bUG3pQVaNnQmrnRYeCNuEiIV/QTcXqn1PdQmhGm2ce7T2tJuil5Ujon4bb0whfJ6HojKQmX9mw0lVVG7p7k5BO/kOms/tVN83M/O9pARVnVVW3WWfa/aFjQrn+RiaEi6u9MYefLUzrPSgen0F6igIdLbj21FK9o5Lqd+twHhq8B2s7aWf+jHVP5pI5Mwfzc6vJSx70TQghhBAiAldwHHIMWU+WYTrvtr9K0+vLKQo/FGr4sQXzVC2cclK6Pnwbv6WSdeWzMS1OxfBjC4W7OnPbPVS9aQ/l647PxfaGicYW0I03or/Kg7tViyHRwOyHc6gsqLj0H2XR6El/eitVD7k59sVoDEmhkMy7y8Yr7/U2VKpS924d3rsy0d24iLLqHLwnQattp7JgHsWdyc5BDxXPr2PKSxbSEtOwbK4iv9lD+1Xx6MfqUDTgoQH7871dCESmxeNFxYAyQgGvB48PCLbQ8rkK40M58Z4Wz9mHK11/rMQxtxCTNhXzy9vJOOiFpAkYEztwN3sxJOtIvb+AzB0WqnvmWhysoeaveRgn6Uhf9RY1S3yoihbtX9cx+7GKC6dmtNay+uflJJfkYhyfi/X/usl/qse0m0E3lW/WMm9SOjpTIVt3zsfrU9DqtNBkY9HCTbgGuK8V0yJWzLuF5OTQ/7W35mMtngP/eIc1L9WeX/amUoo3m1j3YCrG+TaqMt14TsajTw79uqvP8SuKf9dlxhxUnHYHvrvT0Y7PxfZmGm5fPIZkHR2fufFiOD9Fy9vCYRUM2nQsr28nt02FoIra0YH3sIs9OyuoqHUP+NjoKl6nO3cBqegYndD746VCCCGEuLyu4Ei6gnacAcP4nn9GkkeHxw+Tc7E8HJ5z+ncl3aZ/c79WEpozW2Mge1khpvCotPftn1PwTCWOQz7QGZkwfjQn9lVgfXg++cuKqdzv4dhhz4BmXTlPazXFz1XiUkejv0aL2ubGsc1KwdOVfa7fV7uagmcqcBwKBao6LRw9+A98sd2nL1QPVlCwqIB1Oxy4WzvQXmfAoFM4erCOypcKWPrSwAN0gI7PPefypVtbOBwE6MDz+bkkncMtXQK95nIslnVU7/fgi9VjvMnA1UfsbHo6n7yHirDtdOFpcXO4t1SLoItNTz7BploX3lMK2gQtWtWDs1UN/arpRaiOdfzspdB0hrq7LKx+0HjeCLN3RxEFqytwHPSiKjq0WpWjBx3U2t2ol5LmNPYW0tPTMCaE/quMSyU9PZ302w0M73W9Ks5fF2JeXU7tJx46tAYM12npOOSk9lUL+QXl556T6Cz722so2liH26ui6PQkjTiGfUsR+Uv7mOfdW0mxNXQMkaAPnTcpRoyTUkm7O4fC4jI2LTExGI/bet4upXyfF1X14dpho2K/BOhCCCHEUBhmMBjODHUhop3hp6VsXZwKLZWYc6znZvsQYggpSanc83ARRTMNoNZh/UEBlYOany6EEEKIoRJ9OelCiHNSzJS930BDjY2cHj8rqrY04nT7Qnc/BuNOkRBCCCGiRtROwSiEAJrt2JvzMI43YSnbTvbBw3h9KihXo9MbMIzToqDienMLNTKKLoQQQnxlSJAeqaCK739OyCN04spSndgef4KOB+eTcbsBw00mjAqh49HroXFXDfa3y6nY6Wbw53oRQgghxFCRnPRIjFBQVBVVUgqEEEIIIcQVICPpkTilygi6EEIIIYS4YuTBUSGEEEIIIaKMBOlCCCGEEEJEGQnShRBCCCGEiDISpAshhBBCCBFlJEgXQgghhBAiykiQLoQQQgghRJSRIF0IIYQQQogoI0G6EEIIIYQQUUaCdCGEEEIIIaKMBOlCCCGEEEJEGQnShRBCCCGEiDISpAshhBBCCBFlJEgXQgghhBAiykiQLoQQQgghRJSRIF0IIYQQQogoI0G6EEIIIYQQUUaCdCGEEEIIIaLMVUNdACEURWHUqFGMGDGCYcOGDXVxhODMmTOcOnWK48ePo6rqUBdHCCHE19BXeyRdl05RRQ32N61kjxvqwojeKIpCUlISI0eOlABdRI1hw4YxcuRIkpKSUBRlqIvz5aY1kjk/l/TxQ12QS6EjdVYuOTP0EX/CcF8JVe9tpyhdexnL9TU2Ig1LhZ0aWy4GzVAXRnxZ6WcWUrwiB2OUHkOXPUhX7i6m5v2tFE4axJVqFHRJOi761Zl0C6nXaVHGmZj0Tfmi7Q9Fq0OXcPnbbNSoURKci6g1bNgwRo0aNaDPahN1aKXbAd005i/O557x0d0YF+zzFD1ZiwrJnTb24t87YeoXwBeDVTpxPhXoQA0OdTnEl5fC2Ju+T/rtRrRf1yD9cjA+uImq/1jKtIv1lq7dOI4ALbup+VBuWUdMycRaWUXxnMhHjQZqxIgRl30bXxnxmaz47VaeujNuiAsSx60Pv8grq39EckyXlzUpLFi7lfJl04nR6PmRdStbV/6QhCtdvGt/hPW3W7H+MAGGZ/BU+VbW/iS5+zJxE8lf+wrFP0khpteVnDOQY1SZamHLW6WYb4ruwFSEXYY+z7OtgKyMOVhrfYO2TtHFKQfFORlkPVaOWwJ18RX11c5JT0zFeI2Kc2M5daeGujCiN1+JUfS4DJ5aM5GapeupDwxsFTG3P8Lau5tY+mwNfa7ilIua324mcHBoLzhjbr2f/Gkn2bHi9zR3K6yfE6fBfzoAwTb8AQicPom/5wriprKk5N+YHqjh2SUb2Ht2HTFMX/YqS6aEw+ZgAH9bK01/2cbm3+7GE14uLiWT+XmzmDo+kbhgG80fvMXmV/7Agfbwanx+VAIETvkhqKKq4Pef7F4G/wE2v7KbtcseZNZfLPy+ue/6fiWOUSGEEF860TOSrhhIX1LC1io7drudqvJiFk3VdVvE+HAZDQ0NlD1ohIRMiu0NNDQ00FBRSGovtyqU1AkYfHa2vuHuc7P6dDPFm6uosTfQYK+h6nUbRQ+Y0A3w1od2Ug5Ftq1n17d9czHmuw3db5Fq9KQvLqGsyk7D+3ZqKkuxPpDK2cxFJR1r1Xas882UVNqxV5VRNMtEzrNbqbHXsP2F3LP5U9o5JdgrLWTOWETx61XYw+uz3N19REg7p4SG923kdBnWVEwWtr+/HcvUcOmUTIprGmiwW0nXQuriraH2bbBTMuv8vErt5FyKXt5Ojb0B+39ux/ZkNsav4cBhTLIB/SXWO9FwAxdNqgg0s/utP1DfPMArgcGg0ZN5bwbKX37LjuYe7wX9+E8HUP1+QMXv7/x3d3GTp3NrwIMn5jampp4/jh34eDNLly5l6fJVrH/LTWKmGfM9iaE3E6bzyLJ8prKHLWuKWG2r4vi3f8K/mTNI7FYOlVBcHiqTv5dyBJzb2PHJGGbdO53BujehTLWwvaEB+4s56DV6cl62h86h90tZ1PO5GJ2J3GfK2F5jpyHc55mn6XpdbyQi7csiPW8H/fzWmsh9pjRc3yrKVmWfn0t8wTZRyCy207B5Ue85yIoJy5t2ti4xRl6mfvZ5aHRMe7iYsj+G+u6qTRbSk7ovYniwLLyO0N/2ZaZeU2SU8ZlY1m2l6r2G8PdAGSXLskkdwK0n5S4rNQ0NNDRsx2LSYpxTRGll6Nizr8vutv2I96vOxKJV4f31vp2aN0uxPph2rq9TUrG82cD2J7vWT0vOiw002HI4eyRrc7C93xD+7jagnZxLcXkV9vcbaPhPK+ldth1RmyjpWP/zXPs2vG8jp+eu0qRSWNFAzbOZdHtLoyd3kx37i13K1582uRglFcubdmzzTWQ/ee5Y3/psLqldC9KPNom4n1D0pD9cTNkfa7C/34C9aiu2FbmYeiwaWV11mH5qpbQyvK73qthqs7IoXd/9WNamkrPCxtb/tNPwfmh9pc+ayUzpX+PpHrDRYO8en3SpGOnP1GB/OZfOqEZ7Y87ZOjS8V8XWdYVkJnffZn/OiW40erKf3U7De2UUTuuy0waprv0VJSPpOtKfXEvx909QubGI4qYODDMLKXy2mI6H8ik/GFrK9VoBc3YMZ+x9a7HNbMb6UAkOFeg4iqe32137yrAs9uBo62Oz4xex2pqHduc6il5w4kVH8uQMZk4yMvoNB97+3kJLWcS6EjOG5gpsRcW40ZOalsW0O5LZ+q4bLwAKpsVrsd4HtRuKWLffh25aPkuXrKM4OB/z7zyhdWn0pP9Az6+eL2D3vcVYnrbi2LIWy8pbsKzK5p5JFbj2hUdUR2exdMl+Kl8poqxVR8ajy8ktWo2nKZ/y5n6UX63l53lzKFHSsGy2oHvDzPI3DgOnaT/W/ZatkrKIdS/ko3eWUWJpwPMvd5C/xMIapZ35q2u5tBu8MaQsXMvK63ez2ZNCVuo4EkaqeOxbWL+5ntbwfkm49X7yf5LBbfo4OHUc1/u/p/Q/as6OuMZMWcJL/xs2r6znhgfnkz4hkTg8/L5oKa+3/ZAVz99Gq13html6Wt8pZZd+LnNTE2j947OseqOJwPAMnvrN/fhfXMz6PaGVxqQ/xau5ftabQ6PmyfOKKf5xMgD/Vj49tOHWGlYv3cCBAEAcKT/M58Ef3Io+IQ58Hj58p5QNbx4IjzAnkLnyN+TfDPAI5VsfASDwl/X8dO3u0Kh64g+xliwgJRyY7P31Qp79U/egM0Y/nQUL5zI9JREFP62f7Ob10s3Ut4bbc8FaVuprsHkmMtc0jgQtHN2zmZLf7D577iROWUD+T9KZeG0cnG7F/cEONm6spvl0lw0lz+DO8a3sLtvby4i/n8BpOOk/QQAInPbjP90zOI7j1u9OJODcwLbhj7BgykRiPuixrtMnafV4CAAejx/j96YyPTGRGFoZ9b0sbht+gM0lm6nxAjTh8l/NsnsSSBwOracJB+l+8AP/9HPytErcyd7uPrSx+897ud+cwXTdbqq9vSzST+peG/nZ5cRPNGNbPZHdTy3mFRdAO0dbuiyoMZD7XDGPJu6n7Ll12P9bi2leAfnPlsDDi7B90s+7JRH2ZZGet4N/fmuZ9kgh2h3lWBcXg+lRrIsLMNtrsLzri7hNmg+6ITWJsRpwa0wUbizi+19UY33EhkOjR6+Dw3/re1DmPP3o8wDG3LkUs6OS0pWlNGszsPxsEQULa7A/46Bzj7l/V8CcnfEomhTy11uZ2Nt2FROPPm8ly1dByVNWGtsVdMl3MPPOOzBcXYmzr++svqrx3hpy7m1g+SsWDDOXs+ZWLdUvFVAzs4T8U+1nl4t4v44wUfhSCblaJ+Xrn2D34Vj0k+9k9u1TGPu7Ojz9OTx9lVhmO5i9qoz5N+VinZWK7401PDEyj1/MbD+3zUjbRLWzduEcSq9SUO4qouzBXrYZdFKzy03urBmYRlRT23knfez3yTCC4xc1dJ7ug3+sK6QuKEK7q4KSx0vouCkPy+JCVp9wM++ZutBxEmmbRNxP6Eh/8iWKM6Fu8xp+tc9H7Lgp3PODKaQmVuDwqv2qq27OCoof+SaODT+n4IMW1JHJTJoxkyk3jaWsNhyjoCV9WTGWqW42rS3A6lZRrjUy/e7p3HK9luqmyDtU30E3Ho0J/XVAm0L6ijIKbj1MxbICyg+OIWlsLL5mN0cBkrKxrrVg/KycEksNHsVI1sOFrPiFgndBMY7wvo70nOguFItapqlUrCxgnb2zRQavrv0VHUF6yjzyM8fgeGEx1m2hA8Cx18vomzaRk2Oi4rlwB+jz4vHB1SdVQKW9xXPBzkJtceK4wGYVww0YNEeperuSunDA69pXR/WAKqElc2EeqWo1lseLqW0DcOCorWRT18US7mH+HANH3zSzeku4XvvcDB9fQdGPc0h9cx3OUOlxVqyhfJcP463HUK+rw7ahGqc2Hi9ZjO4y7KpojlG54omzJ6zzuRswbV5Exgw95c0eIqfia/HgU9rp+AI62r14Wnr7vJb0hXmk/k8lZostdKGEAxcGKp+cR9aGWipa+7HZ8wQgECAmJYPbPliFZaMHkn/EypWPML/pAL+0++HaTJYsziCw/XkWv9NEQJ9B/rJ8lt13CEtZUyhI9ByidUQGWWYDqnMLq37tJjA8Bv/ngBIAxcgN7U+zdONcXnx0ARP/o4iibC3oAAAgAElEQVSi/3qEtXd/B0NlE00RlLR529MsPLqE3+QGsD1uo14FghDojDrHz8L8k4kc2lTEqvdaSZhi5qlH85n78VI2NwG0Uf3vC2l9cC3LdNtY/HxNKHgPBs4Frq1/YNXCalBuI3/NkvNH3GNSmLvUzNSjm3n2sWrc35jIrIJ/Y8lj/41l1R/wBAPwzwAxN2Yw4+P1FC1pQk25n2dWLmDWnno2fBCA4VO5/8Hp8OYq/ve7zai6W1mwdAkL7j7A6rfOHQOJN08ksd3Fh33EQYc+3sWHrW1AgEOf1LMn0No9AI+fyoybA3z44ofsHX6A/P9vBrcN30v96d7WFkNi6p3cdu1xDrzhJkAMKeP1xHy6gwNdgpiAczPPOrt87J+tNO3ZC95Q2s3fP6jnyOHe7z74nQdoYj4TJ8RQbR+EOxSqD2+LD9917ZwG1ONH8bSc30kp38ll/iSV2qIibDtDXwTOjyHpjWKy759G6cpa+hMHRdaXRXreXo7zW6WxfDnmV8MHzsHtOBemkWRIAlwRt4nb3YJPq0evBbSpmJLHMEZjwjgaHFcnodN4sLv703KR9nkhHftsmC2V4QCvhaq5i7CMM6DFcTboC31PeUHR0d7Xg6MjDRgToaWqgkp7uE32O6jb0Y+id6uGD29rOyoKpsxkyhcvwrYPMtM7aD/REV4o8v2qvzefnGQPFY8VsC60II76WioHVjh8rR5OdCjoZtzD1evzKNjiRnffPDjlw9c5GBZxm6h4D3nwAtrjfe9r53/W4n4ghzunKdTuDC2n/950JnQ4KP5z5966PN9lHXttFKyuDh0T+36ObZIJ64wMTEoddWrkbRJxP3HjPPJnjsG1MY+CjeG2q6+jdlvXUkVaVwXDt76J1tfEn7bV4vABuHDWV1PedXWa0RgMOlR3KVvfDh//nzhx1Fb0u73Uv7k5HMwiaawCrlTuuFXPGJ2eKTdpKf9sLAYdeHa6UAHjj3NJG1lH8dPrqGwFcOI8pif15RzmZ5bi2B7etxGdE93bx7S0BOtMeGflUopruwTeg1jX/oqKdBedKRWjppHdu7p0jkE3H+33MSYllTGX6albde8u6o7oyVm1ieKluWRO1kf85P55lEnccasW3wd/wn6BURDl5kkYR/o48IGzy5ewF4fTDddNYtLoLuXr7LyCob+Ozn8DdGsTL8cOd+msmj+isQ30hm8OvD4Xohi5I1WLd+9unF0263N8hFtj5JabB2mr/gPUVIdGVAPN1ew6qGC8NfSgn/67MzC21fDbd5poC4L/0xpe3+kmccoMDJ0ZFN42/CSSeHQbv9xaT/PnrXiaPbSdDQiP42r04P/8KG204f64leOHW/GPTLh46kmnYODsfgqcChA4HSAQ6BLsNW9j1VILG/7kwR8I4NlTT9OpRPT6LmkeARX+GVqX/3TnOrpvJnA6QOBU719IMSkzmD7WQ83vqmlqh0DbAXa8VY9//PeYem2XBdv3suOdJvxAwP0hLm8c4/ThmioJJMSBv60NfxACrXspfWphtwAdYtDrE+FzN4d6jWcDNP1hA6/vCZ0Anj+Vsvm97t9wCXdMJeX0h9Q7A/j31XPgGxPPS3mJmZzPq5vLKS8v50VLOmptKa9/4AfiSIiPI+BrO3s3pVdBDzWvlFLjAWhld9kGqpv7WPb0ITxehWv0l/8h6a4Mk1PRBV001HcZpzvlYP9/qeiMt/R7SrmI+rJIz9vLcn534O0R/KpBULoME0XSJurBRloYi+E6BSVlAkmf2bG36rnRqKBcrycp2MzfmwdQvAi1t3q6jKx2hGZwuWoA7eFzUNPgw7jARukqMznpRnSD1G2qDRVs2RcayKpemcW8X4RHbyPer1pMplSUww5qnP254ImAt5aycPqp940C0hfYcHWey4PdJk011B7UYpoxLXwu6EibkUqH421qOr+jL9N3Wft/e7scJz4O/NUNCQYMib0sfIE2ibSf0JtMGHFTs/MCd5EirquKc1cd7pHpLH+5BMtPMzEl95L6FfRgf88JpkJKXyxi0Zw0jAOdJcDnxt0aS9L1+lA76RqxO3yM/ZYBJVbPmNE+3P/wATpMNxqg+SMcXWJo1fURTW0KxlRjrzFPn+dEp6uGY1y4juIfX03tM0ux7uxxoT6Yde2nqBhJH63VgsbIo6/XkN/l9dhYLcpn8eiA/owHR8xbTdGiwzTkziMrbT4rHihkxaE6KtYXs662n1vUjGGMFtqPX+TmWFw8Cu2093iOrd2nAlrirwaO9W/T51NRT4H26ss1P6+OeC3oMn9B1fe7XpHGolXgxNWDs5WAt5VD/+z8n0pbm5+4hEQUYki8NpGY639E8W9/1P1Dp4+TqIGms0FkANfe+vMfXgy/528PACoBTuD3Ab11opfiG4kY717A3CkGEoYDxBAXH8OBbyjQ9yOi/XNtIqOCRzj0+bmXAp5DtHIbiYkxdOb/BNqO09rZnv9UCaiAJhwgt9dTvfNOHlnyEr+Z6+LAxx/y4Xu17D7YveXi4uLA7++jPS8mgalTJhJwPh9KBQrspb4xnwXfvY2YPfVnWyPQuI2nX6knQAyjrruNzPuWYI3bQJHNNVgtdk6wjf/2w8j4q4lh0PbIRShotQp0dHC624BOB+3+DhhxdWg6sP6k20XUl0V63l6Z87u7CNvkMzfNJ8egT4plwreSUZvLaYgzkT1ez5iOscS2OGj+MkzkFXRTYZmP58e5zElPx2xdhOWkm9rfFbNmY5dR+QFwf9J47vOq2iUYiXS/xnN1ggK+Y/1P+bxo4T7C2Zl6ElS7T5842G0SdFH1nou8e+9k2ohaarUZZNzcgcNa1yWAvjLHevvJ8Pf7yF7e7LNNIu8ndKO0gBffBRsp8rqq9cXkP/gReTkzmXbvCnIWg3dfJWufW0f12YkLVFwbzeQdzCNn1jRmLynB/IQX185Sip+vwNmfPCHVhfsfkJE0Fq3RiMHrYu1fYcVkI9pkPWPxsOe/VNCMJj4eaPdxrNux6aP9AjFP3+dEJwV9sg5t8ATHWntLhRnEuvZTVATpx3wdEHRSVmClqkdlVfUYRy/n9EpeJ5XrnVSuB2VcGvlPW1m0qgiPy0xFy8U/flawHd9JGK69SGDsb0cl/ryTNV6rAB20n+hvBXqjJX4E+E5criPHR7sPvI7VmF/pkRTyhUq7d7C+JXuup3sYFWjczNIVf+CCdyODfnp5ZrBzDZdUukgk3mNmyd2w43kL25xtBGKmsuSlJYP2oCIQGoW/ZG3Uv2LhwLsTmTplKhNTszCvns3UjUX8svaScpfO0U1l6o0xJGiW8ep3w69pYog5NZ3b4uqp79xPp9vwfBrOSf+0Gdc/x/GbxzKZvvVDjrb5ibk2gUQNXZ5DiSEm5vy7D9FLxedTITaW4bF0OcxjiY+LhVMnzqUA9MdF+7JIz9srdX53FWmbNPP3zyDjOiPGFD0ehxPXqGMkjU/hm/+jo+PTv395puNTPdS9Vkzda4DWQObDP2fFw8Us/zT7XJ7+oIp0v7Zzol0FfTyXa5inT4PcJu6dNbgXzGOaScGZOJ3Uk3UU7eq6nitzrA/s+z3yfsLX7gMUtP8CfSfR96+uvk+qsa2uxoaCzpTD8p8VsmK1j+audz9Qcdduorh2E2i0GGct5+dPWFh9ys285xy9BMN96cB16CjaZD2GmyaguCtwHIzHN8uA8brRjG5z424DgsdobwfitIzW0KWfvMSY54t2av59OcdesGG2WvEsfoKK82ZRG6y69k9UpLt49zpwY2BCcjvuZne3P0+L77zKq0FAowx6Kod6qI7SHQ7UEQaMhn6uXXXS8LGKbvI0TBfo2dSP9+NStaRMntCl/DpMqQb4bD/7jwyk5ArdfhTReAspCSpul+ts23UQPse73kYfoTC891KiBiE2tq9K7KfhYx86441oW7rvL/chD95Bmu4yRpdI4tkjNI4xOgW/9zgqATyeVrj2BgxdK5CgJ3FQo18VlRhiumRjjEqI63Ve7T4SUTAY9HBwF1XOtvBDoHoStb3MaHIpxWxt5bjmGsZ1SW2J0Y8jkVYO9ZGL3Wtp4+Lwew5Q82Yp61ct5dmdKrd9b0q3ec79fj/ExQ3oIiPxu1Mxnq5nw9MWLEXhv1WbOaBMZPrki6zxGwpKTADXJ24C+oncOqbLe8mzWGmz8qPrB1AoTQL/Kw5Otp8Y3Eu2zi+PPs4ht9OJV2Pkjq6dxQgTd0xQ8P51zyUHmr32ZZGet1fo/O4pojYJenB/5mP09dO55Tof7v/y4P7bYWINtzBl3BiO/aN5gF+WF+nzLjefm+rN79AY1JL87aSLLz8QEe9XH859jajXpZFxoXn+g+EfbOqWmhWP0tto8UAMRps011Lj0jI9PZ2MGZPw1f8Je9fj9zId68O7fSGHv9+PuHD18y55pP2EZ58LDxOYlm7oe2UDrquK11HB9j1elOsMJPd1SAR9uHZsofYz0H/T2M8LPBX33/4B1xjIMCZxrLkR33/9Hc8oI1NuSiL2UzcuFcDL/iY3JN/SbcYfJRzzuPbuH3iw3OFi05NFVPpMFD5vIf1Cd9UvWlcd6U+WUVW1lZL5vafgROoKjaTHk3R7JpnXdXnpC5XD+2pxtgKfbKX0T9lYl5Zg1W3h7QNeSEwlY+YEWn5dxKb93Zvds9+JZ2QW8x7JxFvnRTsuldGHK6io789VlIJpySaKJjfy1ps1OJtPwDWTmLNgGkqbnYbG/u5qL++8WkbO+kWsKFHZ8vpu3P8cwwRTBtNGvM2KldWhlJ22d9jyVi4l9xax4oiN7X8Nze5iToO65ypwBunR6UVAk0r+cxbULTW4MZD1cA6GtlpsXaeraHbjIYs70vRU7jiK1pTD8sfvQac5ev761CY+cqmk35VPzl+34/6nDuMNUPdadbhT8FG7pQLXS3kUvwCl23bjPqnFkDaHjJFvU/RM9SXdrj0r7jaysififtMFqXO5M8XPgXdDD4W2vr+LA7MXMDdvKu7/qMefOJX7H3uEqZ+uZ7Gtt5lHBiDQylFvHFNunEicfS9+3VRmTdET6Dl27/MTGGFk4q163J/CSN0o8ByguS3A8eNtxHzbgDEe6knhh/NuI84fgPgEOJs0EuCE30/MpInMSD7AgcBIEnQKrR+H8u2JiSFGA51XYjFKDDHDQ4F+4HSAQOMudnsyyLgvk/dfrMYzfCJz751KzIHX2fM5EYm5OZ+1ywzsfv55tn3cRiDeQLJewd/q6ZLaEr44utnAuBho61cjJzJlihG/cz27mj1d9o+f+k9+wv1TbiXOXh96afhIEsM54nHX3krW3KkoB7fx4VFos++g5ofLmPvYAk5ufY9DMRPJyptL4n+VsnsgOXHDx6HXqRzxDG5Cner6iCZfDhn35dGAkw6tgQkjXJTtCD2LotZXUNl0D3mFVhbFbMERnrUhfaST0tfr+vlFE2lfFul5e4XO7x4iaxOVpr950M5OI2WUm4pGFV+SG0/S90kb0UHz2/2Y2aXbxi/W50VOSdAzJkFB0eiIvwoYqUOfbED9op2jh7yogDa9iNIlehy/387u/Yc5ETsW09wcJuDhnX0DqIOiRZcYjwIoI7XoE3W0t3nxdTuQIt+v7u2lvJP9C3KsJbB5K3taFfTGO8i4XWXLU8XUtRG6YPKo5Nw0nQlaB04MZD5cxPybgL3dCoc2Uc/VscBVWuITdag+L74eQWHkbaKgG6cn/ipQRoX6RO1YAwadSrvXg7drGBB0U/teI/m5ZnJjVXY/Ze9xbl2eY12XacHaYmP7Ph/aqfMxp8XieqUy/LBm5G0SaT+h7ivnlfcyKHpoDcUjy3nnQDvKuAnMuGsCnvVPYNuvRl5XjZHcF9dwT1s1le824DoGupQM8r6vQ/34I5o6N5qUTfFLucS+V8H2OhfejqsxTJtPdrKKe9f+freb76AbzzVppCnQXOVGbdVx+GQeaVNVju5zn71B4KyooG6mBbO1kNOv1uAdOYk5D+egb66geGeXnR/ROdGDt47iJ9cx5iULP3vOi3exLZSK1N+6aqczZ1bomYq02fcw4TVXKLYbgCsTpGt0pC+2kt7tRQ8Vj9lxtqqAl+pVZlhcSP79K8hMUFDb3Dj/XEFVLzMjqPU2Vrw0GkvuCmwPgO+IG8cbDirrnf34clNxvlVK9TV5zF7yC8wJCqrPi9tZiXWVbUDTsan7bBQ80c7Sh3PIX5mDFh8el4Pq15o4FwqrONYvZ3WwkPwFVmw68LU0Ure2kDXbBxgoBJ3U1I8me3kJxgTwHrSz7sk14RlmOsu2hXWvGbEs3UrtUh9Hmx1UrC9Fa53dywo9VDy3GsPTZszPZRIb9OJx1XDsT9W4wylA6n4bBY+3s/TRHMzW3G51HawbtYFP69mfcD/WjQZGaY7jri5l81/CIWNrNbb1ceTn5bP21SVw6jjuD17n+c2DFKADBJuo2lpNyoIlvDjFT1trE1Xv7cU/t0c5D1Tx1l4jcwvWkkmAttYDvFVygOY2aKp6neob81ny4iscb21iz29tbG5bxrJ7V/KUv4hn3w0F/M21O6hJvZ/8Z1+EgJ/jzdVs+KSJNvT8aPVa7h/fZYMLf0P5QqB9N780r6c+0MS2EhtxD97Pyt/kowTb8Dh38MuN1RdOBepah49fZ8Nbj7DgsbXMSlDgtB+Ps4r1v+3enq3OA3jum8ptBjgQyfQ3nfTT+c54Pwf+8GGP/dNG/QcuFvxkKrfGh4L0mJsXsHbtglC5/K14nDt4vvz3NAcB/142r7HBwrnMX/5DFLUV9webef6Vmgs/TNqHmNSJGHCzrXGQc2V81az5fzew4v/kYS3Rgs9DY90r1L7tDAV9qgvbsidg2aPMK7JhVlS8TXZKn1jDpv60K9CfvizS8/ZKnN/nVyOyNjn6dze+5GwMLQ7cPqDZzWFySbvGTe3fBjqOdvE+LzIKqQ++hO2+Lg8iz7KydRbgq6Uoy0K1Cr73KyidlM/8Hy8ne4kWRfXhOeigYoWNX9n7Xwfle8up6JwT/AEb2x/wUlk4G2uPdUW8X9vqsP6fIrxL8skuKCZXUfEdbqSuspR/nF3Qyzu/WscdK/OxVc2mo+0Y+3eWY9uhw9L1NwG02RS/ZcGkATCz9Y9m3K/mMe8lV7eyRdwm2mysb3SuL8RcvhUz4NqYR96vu6/XvbOGxocKST1WibWhl3jiMhzrXvufOXa7GetCPbEdHpxvFGHd2KVcEbZJ5P2Eh8qVZk4/Ukj+vRaKH1RQvW6cuyrY3iWGiqiuQRdVr1Zg+Gk2+asWoRuhono9OHeto+ClLr/u2lJDWZmR/Jx8rPfpUFDxHm7EsfEJbK90nW4rQn/7JHweu6g9qIL6Dz5p0ZI5CRxvnssK4FAFRU8oLF+Sw/IXctEGvbgdFRS9sO7s9IsQ+TnRk3qwgqIiPbYXFlG8qgXzU5W4+1vXkw7e/rObSTPiQ8ffJdwZHWYwGM4M/ONiqGnnlFDzpEJxlpmKfs6tGw0Mht5vz6XkrWXlhF0sXfn7AQVf4jLR6PnhymKyDj/P0sG6YzFkEsh4ai3zT5fy2NrdF3wY1u0e4AitEOLrQ0nF8rtS0urNlzVPWXx9REVOuhDiSyLoofqNGpgyl1nJQ12YSxOTOpcf3XiU6jcvHKALIYQQQ0GCdDGkzpyRGzlfNgHn65TuSWDWoh+R3NtTtF8GcRNZsGA6J9/ZyLbmCy8qx6gQQoihIOkuX3bJJjINPhzvuQZ/Ttsr4JprrmHkyMGaDkCIwXfy5EmOHBnQtEtCiK8VHanpqShuB47myzh5tvjakCBdDClFUUhKSmLYsGFDXRQhznPmzBlaWlpQVckuFUIIcWVJuosYUqqq0tLSwsmTJyWtQESNM2fOcPLkSQnQhRBCDJmo+MVR8fWmqqqkEwghhBBCdCEj6UIIIYQQQkQZCdKFEEIIIYSIMhKkCyGEEEIIEWUkSBdCCCGEECLKSJAuhBBCCCFElJEgXQghhBBCiCgjQboQQgghhBBRRoJ0IYQQQgghoowE6UIIIYQQQkQZCdKFEEIIIYSIMhKkCyGEEEIIEWUkSBdCCCGEECLKSJAuhBBCCCFElJEgXQghhBBCiCgjQboQQgghhBBR5qqhLsDXmaIojBo1ihEjRjBs2LArtt0zZ85w6tQpjh8/jqqqV2y7QgghhBAiMjKS3o2OzGe2Y/9jMdmJl3dLiqKQlJTEyJEjr2iADjBs2DBGjhxJUlISiqJc0W0LIYQQQoiLu2wj6UpyJo8+vZTcScfYtCAPW9Pl2tJFyjGjiLdeyEZ33jsqjueyMG/zdX/5C+i4AuUaNWrUFQ/Oexo2bBijRo3iyJEjQ1oOIYQQQgjR3eAH6RodpgeWY3kondEnfURFMkXQS+0viig72L00voM9AnS8VK+cQ/UVKNKIESP6flOj5/5n1/Kj9lIWWqvxD2QD8Zms+HU+V29biuUNz8DKIYQQQgghhsSgB+lKmhnrwmScm8wsPTSHLdbkwd7EAJzm2D+cOPdFxSUDwIVH0YN+TpwGv9/fx0VOAplFL5F/cyu/L1rK6wd7WUT14w8A/guH+EM9mi+EEEIIIc436Dnp6q4Scu/Pw/Kqg6PBwV775aIl58UGGho6/2qw3nV+rrYyyUyZ3c7WJamcfTdlEaXv2Slb3OW1S+bnpD9A4HQfAXbiVKamHMfzeSJTv5vS+zLBAIHTAfwXCdJ7MswpZvt7drY/m41e089iCyGEEEKIQXEZHhz14W2NnhHryPioXD2HeTnzmFdYjruPiwt1fynFr7nR/7iAvBRAoydnSR4TPiuj+GXnoKb2+E/78fv9BHp5L3HKDIyte9j8JxeJt3+HlF6DaT/+034Cp/uzVYWUtGnoRyjop01jogTpQgghhBBDQqZgDFNbPbgBNB0XCLZVnC8XU5ZmI+/RHBx/uoP81BbKFpfiHNTrkgBHPqlnr7/1/Lc0iUyZYqB132YO7PlvXPPu5Dvf3kxTY4/l/tmKy1GP8nlvYX5fVGpfWUcld0B9KbVftmstIYQQQoiviK9HkK7Rk2Ozk9PlJd+7FrKeru3/6LfqpPS5MqZtKGTdbdDyOzOl+wc/mm1+t5Tm3t64djrfGd/K3rImAq1tfHjwJ2R9N4XfNjZ1H3UPtrJ7c2m/t6t+UoHVUjGwQgshhBBCiEHx9QjSg16qn7OwtcsDlh3H3QNOT1H/1oCzdRHGcR4anQNfz0Dov/sdDIf3svEgQCt7PnDzk7tnYCxr4kB/Bs2FEEIIIUTU+noE6Zym/VAjzkEZ8VZIfchC9jfqqKyfxD2Pm6nZV0xdz9kcLwdNMjOmJBOj1/PMK5nh12KIiUlgakoMBz6WKF0IIYQQ4qtgyIN0wxwrax4xwQc2lq+o7POhzWihmB6l6L547KvMWJuy0G96FMviGuY/5+Cyx+nXfYepeg/Va5+n6vPOF0dxp/kppnzXSMzHB3p90LQ/lBtzKFx4B9SVsm67KzrmuRdCCCGE+JoZ/NldNFr0440YU4wYErWAglYf/r+uxySFGj3pszMx6HQY7pxN+thBL03EtIl6DMkGDNfGogDafwn9X5+oPbfQCBOPLsthdL2Nkne90FzOutcaGTPHgnmqts91D5bk6VNJbN3Lrg88eD7t/DvAnz7wMGrydIwxl7oFhfSFheSkp5PzeD7pgzenpBBCCCGE6IfBH0nXZlFUbsHUZfq+nOIycgD3a/nkre0yVWHQg31nHbO/ZQJHFfbDg16ayGgM5Dy/FfON514yPLmVNABHMVnmCrwomB6xkJPo5FdPVtL5G56uzSVU3GUjd5mZmkXFOC7XcLomhe/drue403be3QbPnvfx3JvF9IkxHNh7KWPpKgfq7Hi+Mw3sdg5E+V0NIYQQQoivqmEGg+HMUBfi68hgMAx1Ec5yu91DXQQhhBBCCNHFZfgxIyGEEEIIIcSlkCB9iJw5Ex03MKKlHEIIIYQQ4hwJ0ofIqVOnhroIQPSUQwghhBBCnCNB+hA5fvz4kI9inzlzhuPHjw9pGYQQQgghxPkkSB8iqqrS0tLCyZMnr3iwfubMGU6ePElLSwuqKjOhCyGEEEJEmyH/MaOvM1VVOXLkyFAXQwghhBBCRBkZSRdCCCGEECLKSJAuhBBCCCFElJEgXQghhBBCiCgjQboQQgghhBBRRoJ0IYQQQgghoowE6UIIIYQQQkQZCdKFEEIIIYSIMhKkCyGEEEIIEWUkSBdCCCGEECLKSJAuhBBCCCFElJEgXQghhBBCiCgjQboQQgghhBBRRoJ0IYQQQgghoowE6UIIIYQQQvz/7N1/WNR1vv//O9G8TWg8cI1QMXU+jO0Rd5c42k7rrlpXYJ/F3E3sB2pH86yiFbkfwV2j5RPppUuHJFt/XGtj6dgeg01hK7Vf0EnoUqHQSVikzeFzcvhsDiU6H/g6vfnxnka+fwA64C+wgRnlebsurouZec3r9Xq/onq8X/N8vyfISEgXQgghhBAiyFwf6AkIIYKboihERkYycuRIQkJCAj2dszo7O2lra6O5uRlN0wI9HSGEEMKvZCddwMhJZBVXUGaZiyn0+3dnmr2Bkn27yEnUf//OrhFX65ooikJMTAxhYWFBFdABQkJCCAsLIyYmBkVRAj0dIYQQwq9kJ30whSaQucPK3Njux14N9wkHRz7ZjXVzMbUtgZycLw3oQPP6qbfvgO/801egKHoD+lA3rhb/7NBerWsSGRkZdOG8r5CQECIjIzlx4kSgpyKEEEL4TYjJZOoM9CSuWd0hfcZX68ncYqPjej0xdyQxb0Eq476ysHDxNux+CsbCj5Rk8ktyMWyfRdqfHYGeTUDFxsZeIKTrmPibTfzux4fJW2pFfXQdufc52Pj4Sxxo99/YusRs/vx4NO/kLONNw1JeXRZPVf4SNld7zmvb2dlJQ0OD/wYXQgghAkx20odCWyNHv7CjAfYjNmq9JvYsn0HKhALybfnpJPoAACAASURBVFJL2z8KisHIuHEJTL43hqObLJQHzScRgTL4a3KxXXRV1aC9FfWMB7W9FdpV1J4TTt0EntyYTZKh+7HHQ0uTncMfbMf6YQNdEVuH8Z75pD04kbibI8DtpO6j7VjerKalp592FQ0VTQXCVVRUWtXzA/ql5imEEEJcrSSkB4D7uBM3CYyO9nlSMZH4ZCbp080Y9eBuqKBo4xq2Vbm6X08kd08GFJaif2Qe5hEOPti0HvukLNLvGc3pKivPPF3YtTMfPYn05WkkJpgwRujB7eTo/kLy1xVjd/uOmUjue/kkR3Q/9trI/5/pFPu2QSHx+RKeu85Czt/jeGzGFOJu0kNzLcX5WVgqzjU2LSqg6Im4s4+dO9OZtdZGr9MQJYGsnRZMu5+m7ObHSL07DmPECNz23azLyae00adpbDJPZaYx7U4ThpEAGq4GJ6fcDZy+BRhgIDUmppOxIAXz7Qb0uHF9ZefAHiuWnTZcXs7uoJ8tG19SxKElXeNWrp5Gxjs9x6pgXl6EZbYRWkrJmmFBWZJD+vQEjHqF2k3nduD7tSaxCykoTMK28nWY/hj33mEiaoQbR7mF557fjcOn8UDWRPnhXDasfYo4927+sCSfctfA1uviPHyrtuJp/xYVUFs1PO0e1D5tGt7OY8O+ZrghkrjE+Ty2IIPWhmVsr4fwCfPJTp9C68c7WPuKA+UH05gzaznLPc+S83ZDVxeqhnpGQ3WDJ1zFc0blW/W8yQghhBDXpGF/4eiYMWPYsmULhw4dYsuWLYwZM2bQx9TfHIXee5JTTT3PGEj8/TryZxqo3Z5DRsbTWO2xpOXlM/d2nzeGGkn8pZGDazNY//cYUp7NJem4layVJWgTU7j/ju6L51pcHKspwfp8FulPppOz6WO0SVmsWWKm1+V1WgXrFsxkVuos5r1Se+k5J2aS+SMH1iUzSEpeSIErgYX/ax5xPheaOnZmMDN1FrPm5FDadPG+QMG8MIspp15n2SNJJM5ej/22VJYt8JmffhJZ61Yw7foScuZPY1pqBoVHOuCrQp5bnEXhF5df515uX8jq3HnEOqzkLJnHvCU5rCtxEnVHHKN7jkEr5w/zZjIzNZ/KNrC/ns7MlJnMTJlBTqnvmYuG7ZU0Zv52N86wW5j69BrS4+y8lp1PaZOG5j418DUJjSN1+Sx4/zkemzaZGatt3JicQfp9PheaDnBN9BOmYI5W0N8+ick/8O+Fla3t2tndc7VNBVVFPdO7jaY24XQ6cX5ZR1nRXhxnIoiK0gHhTPzFFKIbStmwtZTqo/VUvbuRDW8fRgu/iZ5zRo/aikfr3qFXNVRvV2AXQgghhoNhv5OenZ3N+PHjARg/fjzZ2dksXrx4kEZTME5MJWO+mY4jL7O7unuLdOws0pKjsP1xCblvOgGwVbsY/aNtpKaaKX6hZ+dVo7Z4DYX73cRNOIV2WyWWzaXU6kfhYhqjI7uH0eyU/sV+btiaWjoSprFh/BRMoTafOngN13EnLkDffJmym693k7+ykK7qHDsVnzlJn20iNpRz/bldON0uUAycvsxFkq79G8jZWokb4HgZBxuymHSrCT22rvncO5v7b3FQsHwbtgaASl5+rYxpLy4gdcIHAy4TUkxjMIWepOT93VTWdL3XXlNJaa9WGu5GJ27lNB3fQcdpF85G54U7dLs46dZASSB5wm4yFqynstXMHd914G7r6NWuf2uiYduSxfqPure7K/ZTryUTc1sM0PXPcqBr4nrfiiVOY1zL+xRW+7esqrnhMFWhzq7dc+cRqqqd58pU+gqNYOzUiZjUOl4/6gFdHKbbwmk6eJgmn/c0vP0Sq33f12Kn+tMTHPcALQ7qDoKzza+HIYQQQgStYR/SewL6xR77g/4X+VRMBUIBzYX9o5fJXFd4NtwazAnEhR5l/X6fQOh18LcjbuaNTSAq1EbPK2fvwOLt+uno+Z3u/rt6JGF2Gmm/nETcrVHorwcUBb5WGBHq034gWt1dJSE98+jQ+ow5MO1uN+eirNZVxhB+brc3JsaAojVyzKf8RTvh4hRRGH3LhPpJq95P5YlkUldtY3TpB+wt/5jyGiffO7p6NWrfK6SyBcBGfuo08F5Jrx10uH22ib0aWgcoPv+GDnhNWmxsW2m7grlcnqf2LTb2fPhy9F02Hu3bQsfY2esofATQ6dC1OynbupkyF3BDBBGjoKWlhQtXmHdzVbH9le7fvdXs+FO1fw9CCCGECGLDPqTX1NT0CuY1NTV+H8O9fz2ZW+zc8UQ+maYDWNcV9rr94mi9HkLjeGpHGWk+7xsxQo/y1SgMwEX2cy8obtEGLAtupHxjLml7bDjbFCY9u4cNZj8dEMB3HZdv02/n93XqlBtNicF4E9DQ9Zxyk4HRnKT2kqU0F+EqJWfh1xyaO4tpkx5jxb9lsuJ4JcUb81lfPpDV7esk9iPn3j+YX6rj9zUZVB4aPuiuSb8uklvjk3h4US7ZN+SQt6+7iR/uyS+EEEJcq4Z9TXpeXt7ZYF5TU0NeXp7/B2lr5OgXNgrXWrDpU8hYmojvV9qccneAt5aCjDTSFp77mTd3FjN/a+XoQHa+Q+NIui8ODr3Gmp22q7Y8wPVxEeWuOGY9lUpcBGAwkzY/CX196bkyoQF3WsvujTmkz5lG4oMZFHxzB3NX5ZAa49epD5pBWZNBpJ1uwvkPJ86GOqretbB9n0b8/UnEhrbQ0gIREdHofN8QqkOnu1hvQgghxPAy7EP6sWPHWLx4MXfddReLFy/m2LFjgzfY8WLyt9oYNT2DDJ9vnnRV23BgYlzsaRwNjl4/zkb3wEoyQkd0lbRo7T770yPQ33iVfSOjqxzrdhvKz9Kx7KmgojiXRHcxOb+3+OXe8trxSqzv2NBGmogz9V0bDc0LI0Z8/3H8aqBrEmFm7op88pcl++WbZP1BF6qgeBzUOVSifxyP0Wde0VOXsylvPvES1IUQQggpdxlqjp3rKbhvG+mZGVRU53bd1/qLIqx7U8hdtoFcw+u8X+eC6ASSpo+j8ZUcth0ZQEzXjnLwiIu5984i7e569nylJ/7BDJZNHgHfGYkbDbVna5oVDLcaGXU9KJFdQVV/iwmTQeO0y4lrgHfSUCKMREUoKKEGRl0PhBkwxprQvjvNyeOugZ1sKJOYu8DMqfJc1n/o7PrGzlYX9lOXfeeFOsO8dBs544+y5+0yahu+hZvuYOb8ySgtFRw62mdmWj1/s2sk3pdG6t934ThjIG4MVP6lFEdPGNYbiNIrwA0o+igMhtO4XeefUAVyTQzT08h8wAyM5XRlOblVQ7vbroRHYzTqIFRH9L9M5eF7ImnadxiHV8XxXikNOQ/w1OPNvLHXgee2u5n/6Fia9rxB3SUL1YUQQojhQUL6UPPaKXixgKStC8lYWoFtdTluXJSuSoclmaTNWUFyhILW4qD242JKGgcarDQqN+ZguTGLeS8UsdDrwl5RxOpFBUz5fQZT7jZSvLO7hlqfQu5fszD77GamFxaRDti3zmPeK/YLjnBhCgmLNnXdO7zHA7kUPQC4y8mZlkXpQA5FO0LZ+zbMj+SwYbrP865aCtdksX5AN/3WqN1jpfSmecxY+iLpEQqa24Wjdje5qyyUnteVk+IXVmN6Np30F5IZ4XXhtJdxam8pjsauYzU/YT17rMa8XaS0lZOTnEVpr/KiwK6Ju/oANlcCcS2VVPz3UJfD6Ih9cAXrHgTwoLqc1JdbsLxR13WxaP0O1m6Ax2Y/zPJV4eB2cvi9l7D23CNdCCGEGOZCTCZTZ6AnIcTlKehjzaQuX0F6XC05D2VROuzvmT34a2Iymfzb4SByOByBnoIQQgjhN8O+Jl0EI4VJSyxYnvD98iUNd0MlxR/Z0fQGRusv8fZrkqyJEEIIMZxIuYsIQhqu7/QkzE4n84SVEruLDvQYfnAXs//dDH+3YjsR6DkOtcCsSWdnJyEhIf7v2M86O+UDQSGEENcWKXcRwWlkHCm/zWTu3QkYDQqKV8N9woH94AdYNxdiG0hJ+rUiAGty0003ERYW5v+O/ay1tZUTJ4bdmZsQQohrmIR0IcRFKYpCTExMUO+md3Z20tjYOKhfJCWEEEIMNalJF0JclKZpNDY20traGnQlJZ2dnbS2tkpAF0IIcU2SmnQhxCVpmialJEIIIcQQk510IYQQQgghgoyEdCGEEEIIIYKMhHQhhBBCCCGCjIR0IYQQQgghgoyEdCGEEEIIIYKMhHQhhBBCCCGCjIR0IYQQQgghgoyEdCGEEEIIIYKMhHQhhBBCCCGCjIR0IYQQQgghgoyEdCGEEEIIIYKMhHQhhBBCCCGCjIR0IYQQQgghgoyEdCGEEEIIIYKMhHQhhBBCCCGCzPWBnoAQwr8URSEyMpKRI0cSEhIS6OmIa1xnZydtbW00NzejaVqgpyOEENcM2UkXfmeavYGSfbvISdQHeiqDQrkvl7JDhzjU87N9IabQ81phXr7rXJtDh9i13Iwy2HNTFGJiYggLC5OALoZESEgIYWFhxMTEoCiD/RcuhBDDh+ykD6bQBDJ3WJkb2/3Yq+E+4eDIJ7uxbi6mtiWQkxs82nfAd4GexeDRKtbx2INWlOvBvNRK1ugLtqJ26xJm/lVBCR1L2sZc4odgbpGRkRLORUCEhIQQGRnJiRMnAj0VIYS4JshO+hBw719P2vx5zFucwR921nLj1Cwsf1xI3Hm7r9cG55sZTEuaSW65O9BTGRxtLpzHHTganJzquHgzrcWJs8GB4ysXp4fopGXkyJFDM9A1QDf5d7z2Rj4PGQM8kRvGMj//NdbNj0fn+/zND5H7RhG5v4qAG5LILixi3aOx/h07dCzz1xVRuHwKulAjD+UWUbTyV0T0ahTBxIw/8drKX2G8zH+z5O9PCCH8R3bSh0JbI0e/sKMB9iM2ar0m9iyfQcqEAvJtUsMp/Oda2EUfO28d89W15LztHNQ+PA1l7HgjHEdAP9HSMfbBRSTrDpBXVIfH9yW3ioYHT5sKXg1NA1VtPftyxK9yeXX+2LOPPaebcB49wBvbd1Dd1NMonof+fT5J441EKxpNX1bx1jYrZQ09I6l82w5quwe8Lage8LS3ovaaYwtV/7mDKflpzJ96kLwPm7iYa+HvTwghgoXspAeA+7gTN1GMjvZ5UjGRuHQDRSUVVFRUUFKYz8KJhgu8W8E0PZMNO0qo+PQQh/aVULA+i5Qfnqv/1s/cwKFPLaT6bIcp5ix2fbqLrInnakbP1VbvIsusJ25mDtbdFRw6dIiK9Sk+9dMGzL/Oxbq7jIpPD1Gxr4QiSy4LE429aqxNiwouW4NtmLmBik8LSB/b+3nl7hxKPt1FltnnHf1ek35SjCQ+kU/Be93HUVKEZcVczD5d6s1zybUUUfJfFRz6tIKy3QXk/9rM9xi1/0aaydxeRsV/WUk3D9fa3nBMsdGXb+aPPpzVlO45QL16+aaDJuJuHp4aRd2eN6lr7/OaV0Vt1+jK5SpquwdV7T1Zz+kqNi9fxrJlWax6tYzm2IdYOn8K4QChRpIzfseccc2Ubc0jZ42Vg947eXJ5GhNH+Y7hQVNVQENVe37vo+UAOz50Ej/jIeJv8PciCCGEuJBhv5M+ZswYsrOzGT9+PDU1NeTl5XHs2LFBHVN/cxR670lOnd2QMpD4+3Xk3/stu7fmkF/fgWl6Jpl5+XQsTqPwy3PvNc58EcvvzZwufZnV6+y4/ymOKdOSmPyj0ez+YmDlJdq+NaQ+eIhnXsvCNP0Z1kzQU7opg7LpG0hrO322nWHmCvKf/B/YNv+BjM8a0cJiuePu6fz0R7dQUH5up9KxM4OZH426ZA226+MybEtzmJxowlLv6H5WwZw4BcNXJZTU9nyy0P816R8Dib/fRH4yVG5fw8s1bkbc+lPu/+VPSYguxubqGtf9TSN/+9jK3j+7cHkVbvnJbNIX5/NMYwpZHw5y+c5tdzFprB4lNIHJPzFhsdn90+8NSWRbH0LdWYbu50mYDOEop+vY8+pG3q3v2VENZ+yv0lj0ywkYRylozQ6q39uO9YP67l1VHWMXrGOl8R2y9oQzf8EDxBvD0bnKyFu6mbqf/45Xf6FyoD2eKbEeDhS+g+4Xc5h4s8qBjTlYq1V0P3mSTb+NZEdaHmXtXX1OSN/E8ogd/DqvDI9uCr97dSkTw4GEdRQ92jWzutceZ/UH3dvdOiNJC9N56C4T0eGgflNHaYGFHZ/1vH75PnSJ2fw5fUJXaYm3gR3Ls3irz4Z7xE/mkP5oEvG3hENbM/ZP38L6n2U4PT3r+QBN/7mX8MSpjDVEEN5ezzuvbOStz3sCbjjxDz7J/PvvJFavw+Nu4PAH29n8dl2vXeroKVOIP1PNxk8usJ3vVVHbVVCBMyqt7RrhrX0+eTuj0vy1s2teTifvJCSRPfZWokJBvX0q08Z5OPCnjbxV0TVqfQPolt5JRBRwGkDF0w6t6rd4AE9795gX4Czfj33GHJImWKn7xHPBNkIIIfxn2If0noAOMH78eLKzs1m8ePEgjaZgnJhKxnwzHUdeZnd19/9wx84iLTkK2x+XkPtmV1qwVbsY/aNtpKaaKX7BhgagmFmwYBLKp/ksW1lMd0sqPyy8suloblxNp9FQMCfHUrhkIZYaSE7s4PS3PcXWCqYf/A/07nr2vlmOzQ1gp7aqlPNGdbtwul2gGC5eg91Sxvu2DFZMTsS01YHD23VcSRMNOErLOJvR+7sm/fXDWaRNj8K+dR4ZW7tPDqoqKX+zT7vj5RTvPPewttrFDxMLmPazO1A+rBzYmANVvwfL60ZmxjjZ+bafAvpZ0UycEsna//gN1e4IJqbnsnTRw9Rl76DBCxGTn2T5zEjKNj3Ds9XNRP50Pst/s5zHmpax+TMV8OD8hxN+PpX0eRqOt/PIOtoCYdDiAbyAKR7WPsNLP1lD9oIk3sxZhvXhPzF/cjzbq6suP0XPATb+polHV60k/tNnWfWus2u9PecCYXRyGml3abyR/zil/wgn/tFsli+ag712M9We/vXh2beWX38CSuyj5D53gVNJ469Y/ptk+OAllrxdh+efk1m6PI3l7cfJKqjvLkmJZkrirWxet4yNrmiSluWS9mgiB1a+S5MXdOPmkPbLSPavXcKzR1XCxz3A0t/O5+HPs9he3zNQOPE/jkOrt3C47y46wJkm6g9Wg6urFOXYZ1Wc+Pri4VhnnMiUH0fS9NlhnF6IuD2W6DMO3qnxCd2nD2DNPdDrfcc/38/hphbAw/EvqjjoaeKCo7iqqfvHfJIS4tB9UnfhNkIIIfxm2If0noB+scf+oP9FPhVTgVBAc2H/6GUy1xVi93a9bjAnEBd6lPX7fbbzvA7+dsTNvLEJRIXacHqBuCkk3KRh317ClVfrXph2qJjXa7oiaOnKaZSjdQdSjdr9lTgeTOWZLRv415L3Kfu4ElvDle4qu6n8yEbHyskk3rYNRwMoE6ZgjnBQWlJ7tlW/16SfjGYzcTiwfOS4dEN9HCmL0phxTwImg54RACOh48sRAznIK+SkfFMO5YPUu+OTd6huAWjhcHk1zf87njujoOGbcO685044tJY3q7sCWtPBHZR8PoXHpsRj/awKD6C5VdSIeLS3l2Hd17suWQegObB/oXL8thZocVD3tQonWwiPDUeBfp3geNq7/u40r6erTrqPpo9eYtkn0ORSAZW6T+povs+EyQDV3/SvD7wePF7weC48I+PP78GkHiDv7bquE5AvS3lj3zSe//ndmHbW05OxHft2UNUE0ERVtYO02bdivA6avEBkOBGoqC0qHjy0HH2L1Y+/1Xug0ChujYKTB49fOPB6nZS9Zu05cg4UbD6viS4iieXWu7t+vwFaat9k7dtdJxIRETeiU4/RfMmF91D/7uazx+Tca2X7Rds243CqRN5sJJw6rtGbUwkhRNAY9iG9pqamVzCvqanx+xju/evJ3GLnjifyyTQdwLqusNftF0fr9RAax1M7ykjzed+IEXqUr0ZhAJyAEnEjo0I7qP//LnFLkSvk+OIorp4HmtYrUGlV+aQt+hvzUqcz+cEVpC4BV81u1r2wntIvB7637P5kL7bWFUy+18S2PztJuHsSUQ2llPmUsPR3TfrLEKkHXLhdl2gUaiT1Dxay/uUIlv9IJ/NTB27iSC8sIHVARxiMVJq/aT77yONqpoUJRBp0cNLIrQYdEROyKZza522fRxEOXYHMq4HHweGDF7lwUFVRvYBHg3YV7QxdO+y971ny/YSPZcr8h0kaG40SClwXTsR1zq4TYL/QcevNEXDyBMd9krPzmyaIiCA6lK5A69VocZ3bodbOANcpZ6/B8FSXUdr4O9JeepVpX9ZRV1vN/vL91Lt8Or0ukrBw+Lb1yuOu53QV1twd2M/oCDeM4c5fziF75Y28tGI733oBFD/em9+D6lbBFEl4KLQM4CRZCCHEwA37kJ6Xl3deTbrftTVy9AsbtWstTNmeRcbSCmyry+nZiz7l7gBvLQUZuZT02aDWtFOc7PmfoVuj3TsC/Y0j6N++pP+4vyjFsroUCwoGcyrPPJfJitVuGuZbzn4i0P/Oyvng4DPk3pOI8S82kiZH4XivpFc//V6T/g552g0o6P8JuNiHADfdy7Sf6bFvXc+2iu4d92voNpm9dmt7jssLXX9LHpx7VrGsoL7v23rzqrRe4kJLT5/f/RjPgXCmLFjKwzcfYOOqVVR944Gx81m3cijuQN/XZYo92uvYseJxysZN5KfmeO782WOsnDaFN3JX825Dn7bfJ+yeUWl2dtek/6OBeoeOsZvmkPzTN9jc8i2e8AgiRvaerk6nw+P5HsUqEs6FEGJIDPu7uxw7dozFixdz1113sXjx4sG9aPR4MflbbYyankGGz7dxuqptODAxLvY0jgZHrx9no/tsHNfsh6hrUbhjUtIl7zbSQXeE9w2YIxX8c1MGDZetmF0HXSi3mYi9om06jYqPKnHHTSb53mmYo49S1qcMpb9r0l/OGjtOxjE50XTxRtd1lbR0tJ67aBbFgOFSt34+088J9KudgUlP5LLh+XQmfd8bnJwnnOioyLOPdNHRRNPCif/nAe9Jjp+E6Ntu7XV/7PCbjYT78yTlDIAO3dk/RIXIUeEXbKpcaFydibh/VnAe3NsV0IGI24xEX+S/Yhfs47I8HP+mBaJu5VafMwyjMRpcJ2nqd7bVER4OTUcP8G7BZlY/k8ObJ+OY+vPYc03ONNOqwo36iIv2MmBnABSUUAX1aD1OTMSP91njG+KZn7+J7KlXMqaOcH04tDd3fWIihBBiUA37kD7UHDvXU/D3KFIyM0js+f/kF0VY92pMWraB3F8nM8lsZtL0heT8KZ+Fd/ik4LZyrIU2SMxgw6qFJN89icQH5pKZbyX/33zCZ4MDJybummREQcFgnkvub+/H0De0KHoM0aNQACVMjzHagL5v6A6NY65lFwV56aQmmkm4w0ziw5mk3WtA+/xv1PukZSXCiDHWhOk2A6OuB8IMGGNNGG81nPeRu/bpXg64xzFrSRLGv5dR2tCnQX/XpJ+0mkJe2+cmYfEa8p9IIXFyIsmz08ndsoH0nv6+tnGkAcbNSCN5rBHjDxNJz8siaTSMuMWE8bxhNRr+jwMtNonUByZhnphIyi8S0J/XzIHd4SZq8kxS7jZjvjuZ5AvdSnLsLDIXJDPpFwt56sG4AR/j5ZimPMQUow5uiCXpF3cS/o/DVLsAVKr2VaHGP8T8RCPhoTqiJ8zhd6tzWXqP/wKk5+vjNHEr8QldfYb/+AGm3N6nkbeVb1sh6l8mMPbmaKL/eSzx46K7duTPNNN8GqJMY4gOhfDYJOb8PBqVMG7U6/rXB6C7QYfuBh3huq5/oIouvOu57gbOT/ZhD5/IQw/GExEK4WN/xaP3ROOs2Ed9P8Op8ZHneXXVfCZEd3UabozDpNdo+santKX75CjKeOuVf+JwXTiRtxgxGo3EjpvIQ48/QJxWx+HPVfhHCXtsHu58dClzJsd3vZ7xJEm6w5QdupISm0iMxnCav3ESyLtWCiHEcDHsy12GnNdOwYsFJG1d6FP24qJ0VTosySRtzgqSIxS0Fge1HxdT0th7z9jxehaZrRmkz5nHimQ9tLpw1JRRXH3qbBut5nXW/yWOrGVFlC9zc7LBRvFGK/rcGb36Uu55huK85K5Q+W8Wdv2bi92ZM8it8BnTa6fkz8WYfp1C2qqFGEZqaC4ntfvXk7GpsOvuLF29kbBoE5bZPl/f+EAuRQ8A7nJypmVR6nsobRWUVbpJeUCPbefHF6gv7/+a9I+T3SvTaX8yk7QHs8hfpKC5HNTuL2ZXT3/eWl5elc/o7DRWbE+FFge29zeQ/sY4Mv/3ZKbFbsPSpxrEsTOf9abnSHt6A6m4cVYX4NhbS22vMOdi98Y1xD2bTuaLySiaC/vbqymv6nO3mK8OUV6fivEWBxWfXeYC14HytnD4YBMTl20i/ZZwtK8Ps93yztmLb9VPrKyNSGP+w7m8ukhBa3ZS9+FLWMv9eHngN+XsePdOnlywjldntdDy5X5KPmkizqhDoacio4kD75byswWPkrtxftcX9Hz6OquONuHxOil98x3iH09j3StzaGqs4s2tFpoez+bh5Sv5Ni+Ht768TB/hyWRvTSPe54T1ofzXeAig1sqC3FJU57ts/NONpD/6OzY9qIDaRN3HG1n7dkO/D9X57stsj1pE2n/8mciRdPWxbzPWfb7rqVJXa0eZEU/8DQeovtAdXi5DN2oiT66d2PXAo9L0ZTVvrLVS2gTQwgHLfxD+74t4YEE2D43UaKo/gHXtdqpOX6rXi4iYwJ3/rFH/nl3u7CKEEEMgxGQydQZ6EkII/zCZLlDOc0MS2a/OQf3TEjYelHgVVCKS+N3ax6BwGS/584RoEBgfzCV/6nHWLt98yRMKh8PPJ5hCCDFMSbmLEEIESst+3vzwJHfOeDi4v8kzYgpzCm6J1QAAIABJREFUfmHE/t5bV7TjL4QQYuAkpAtxDenslA/Gri4eGvZspdQzhbRH4v18Nxx/iWDivDnEf/Mm1g8vcvvNbvL3J4QQ/iPlLkJcQ2666SbCwsICPQ0xTLW2tnLixIlAT0MIIa4JspMuxDWkublZdjNFQHR2dtLc3Hz5hkIIIfpFQroQ1xBN02hsbKS1tVXCuhgSnZ2dtLa20tjYiKYN7ZesCSHEtUxuwSjENUbTNCk5EEIIIa5yspMuhBBCCCFEkJGQLoQQQgghRJCRkC6EEEIIIUSQkZAuhBBCCCFEkJGQLoQQQgghRJCRkC6EEEIIIUSQkZAuhBBCCCFEkJGQLoQQQgghRJCRkC6EEEIIIUSQkZAuhBBCCCFEkJGQLoQQQgghRJCRkC6EEEIIIUSQkZAuhBBCCCFEkJGQLoQQQgghRJCRkC6EEEIIIUSQuT7QExjOFEUhMjKSkSNHEhISEujpnNXZ2UlbWxvNzc1omhbo6QghhBBCDDsS0gNEURRiYmKCKpz3CAkJISwsjJEjR9LY2ChBXQghhBBiiPk/pBvMzF2STsrd4zDpwf31Ucp2bGDDzlrcfh/s8pS7c9jzxxQM572iYXthGulvBmJWEBkZGZQB3VdISAiRkZGcOHEi0FMRQgghhBhW/BvSQ+NY+OIG0sLKsa6zUtsEpnvTSF++nqiOx8jY5fTrcP3mdVH+Yg4FX/beEXZ/GZiADjBy5MgLPq9LzObPj0fzTs4y3jQs5dVl8VTlL2Fztcd/g9/8ELnr5kDh4+R8dCfZ1ieJfjeLZW809HueQgghhBBi8Pg3pHvtFL+Qgc1lo9bV9ZSt+mv0CUWk/fJejLsKCUxMb+fU/62ltiZ4yjYuuoverqKhoqlAuIqKSqvaHdB1E3hyYzZJPR8LeDy0NNk5/MF2rB820BPjw8cm89i8B5h4ezTh3hYaPtvD9tfepe50dwO3ioYHT5sKXg1NA1VtHdg8hRBCCCHEoPH73V3c9ecCOgBeJ85TGop+FDeG+ns0PzKYmft8AbvKKjhUUUFJYT7pk/sUyehTsXx6iEOHDlGwyIR+/FzyC0uo+PQQh/4rl0TFD/NQNdQzGqobPKqK54zKt6pvAw8Nb69m2bJlLFuRx47Pb2TiggweHdv9csQUnlyexkQO8vqaHFZbSmj+l0f5XXoS0T1deFXUdo2uXK6itntQ1V6DXJTyw7lY3qugbEcWiefXEAkhhBBCCD8Y/FswhpoYE6OgNTbS6B300a5MqIm5L+TzVLyL0hcySMvIocg5lnl5G0j/oU/ydu8ma8Ys1ts0Rv9oLrmrUtBK1vD0a7Voraf9UnPvUVvxaCqql67A7u0K7L40tQmn04nzyzrKivbiOBNBVJQOgOh7pnHnDXXs2LCdstp66j55i7WvllJPBNE3dHfgVVHbu3frz6i0tmtorf37lEE/YQrmaAX97ZOY/AN/nJUIIYQQQoi+Bv3uLoo5heRYF+XbygJy4Wh/KD+by2N3aJTn5GD5qGuWtZ9DzF/zSZkzGevKcroirIa7ycm3HQqGu+/nxo3zyHjdgWH2LGhz4/bHSUiLnepPT3DcA7Q4qDsIzraLtA2NYOzUiZjUOl4/6gF0jL3diO4f71DXcq6Zp3Y7ebU+7zvTRP3BanB5wNvCsc+qOPF1/2reXe9bscRpjGt5n8Lq4CkfEkIIIYS4lgxuSNebyVyWwijbeqx7AxjRQ42kWipI9XnK/WEW057tCt+m8QkYvHYOVfnMsc3Gkf+jkRL3r5hCy7H3DeCucgr+6uj69a8ZJL6tofkjpLuq2P5K9+/eanb8qbpPAx1jZ6+j8BFAp0PX7qRs62bKXADhRIwKx+NuoelSc/E6KXvN2v2giQMFm/s/vxYb21ba+t9eCCGEEEIM2OCF9FAjKc/lkjKynNX/UYwjkKUuXhelL2RR9OW5pzqaHd274wp6vQIdHbR3+L6pg9NqB4y8EX0o0Hf+jr9R27PD7fVTQO8XDw0f5LFhXzNcF8mt8Uk8vCiX7BtyyNur4cd7wAghhBBCiAAZpJBuYNLT68ia4ODlpaspbRycUfqvndPHj1J75ELlGRputwYjRnDDCOBskxGMCh8Bbd/6p4zFj7TTTTj/0QQ4cTbYUaPWkX1/ErEfv0lLi4ru5giiQ8F5dt46dDoPHknwQgghhBBXhUG4cFSPeekGcqe6sT6dReEXl65bNs3MpaikhKLnUzAF6O4vjtpaXKFx3GXWn3typJm7xim4/n4wsJ8C9JMuVEHBg/0LBx5jPBOifF6MfYCVllwe+mc/DBRhZu6KfPKXJQfsn5cQQgghxLXOzzvpehKeWE/+7BuxbXqZ2uvjMJt7XnPjqLXj8s3soUYSZyRjMgBTZ5Bo2Y3juH9n1B9aVTG76+9nXmYuC3WvY/t/esyzMkgMq8W6o/Lc5joK+mgjN44ArtczKtqA5nbhvtiFnYNECY/GaNRBqI7of5nKw/dE0rTvMA4veCreoexXy3n4N/NpLdrHcV080+Y9TPT/sXLADzepN0xPI/MBMzCW05Xl5FbJxaNCCCGEEP7m528cjWFyYgJ6BRKXbSDR9zWtktxpGez2zXReJxUfVTLjB2awlVDxtV9n03+aHcvyp2H5U8zKsZCuaLjqK7A+vYZt9T7t9Cnk78nCHAqQTtF76Tj+PI9Zm+xDOFkdsQ+uYN2DAB5Ul5P6cguWN+q66tHVaravscCCh3nsmV+haE04PtvO2tfKLn0xaT+5qw9gcyUQ11JJxX9LQBdCCCGEGAwhJpOpM9CTGI5MJlOgp9BvDocj0FMQQgghhBhWBv/LjIQQQgghhBADIiE9QDo7r44PMK6WeQohhBBCXEskpAdIW9sQX216ha6WeQohhBBCXEskpAdIc3Nz0O9Sd3Z20tzcHOhpCCGEEEIMOxLSA0TTNBobG2ltbQ26sN7Z2UlrayuNjY1omtzBRQghhBBiqA3SN46K/tA0jRMnTgR6GkIIIYQQIsjITroQQgghhBBBRkK6EEIIIYQQQUZCuhBCCCGEEEFGQroQQgghhBBBRkK6EEIIIYQQQUZCuhBCCCGEEEFGQroQQgghhBBBRkK6EEIIIYQQQUZCuhBCCCGEEEFGQroQQgghhBBBRkK6EEIIIYQQQUZCuhBCCCGEEEFGQroQQgghhBBBRkK6EEIIIYQQQUZCuhBCCCGEEEHm+kBPQASOoihERkYycuRIQkJChmzczs5O2traaG5uRtO0IRtXCCGEEOJqITvpQcVA8vO7qHgvn5TowR1JURRiYmIICwsb0oAOEBISQlhYGDExMSiKMqRjCyGEEEJcDWQnfZApd+ew548pGM57RcP2wjTS33T3fvo76BiCeUVGRg55OO8rJCSEyMhITpw4EdB5CCGEEEIEGwnpQ8HrovzFHAq+7F3a4f6yT0DHRenKmZQOwZRGjhx58RdDjczJW8dDp60syC1FvZIBRiWz4pU0bnxzGVl/dV7ZPIQQQgghhikJ6UOinVP/t5bamuCpv77kLrpX5dt2UFWVXjPWTeDJjdkk9Xws4PHQ0mTn8AfbsX7YgMe3raaiegD10hE/0Lv5QgghhBDBSGrSg4Ke1D8d4tChnp8ycu87v1ZbuSOdgooKipYmcPbVsQux7qugYInPc9+bSqvqwdN+oYDtoeHt1SxbtoxlK/LY8fmNTFyQwaNj+zTzevC0e1AvE9L7Ms3MZ9e+CnblpWAMveIDEEIIIYS4qg37kD5mzBi2bNnCoUOH2LJlC2PGjAnALNzsXj2TWamzmJVZiMN74VbaESv5f3FgfCSDeWOBUCOpS+cx7qsC8rfU4s99erVdRVXV3rvjPfNQm3A6nTi/rKOsaC+OMxFERen69oDaruJpH8ioCmMnTcY4UsE4eTLxEtKFEEIIMUwN+3KX7Oxsxo8fD8D48ePJzs5m8eLFQz4PrcmJAyC04xJhW6N2Sz4FkyzMeyoV2967SEtopGCJlVq/VtJ4OPFFFdVq06WbhUYwdupETGodrx/tE+fPNGG3VaF8c6GYfzEa5a+tZzd3QZWV8uCpDhJCCCGEGFLDPqT3BPSLPfaLUCOplgpSfZ5yf5jFtGfLB777rdVifaGAyZszWX8nNO5Mx3rE/2m24UMrDRd8RcfY2esofATQ6dC1OynbupkyV59m3iYObLcOeFzti2Jys4oH/D4hhBBCiGvJsA/pNTU1vYJ5TU2N/wfxuih9IYuiL8891dHsuOLyFO2/D1HbtJC4W50crb3yfq6Mh4YP8tiwrxmui+TW+CQeXpRL9g055O29zM67EEIIIYTol2Ffk56Xl3c2mNfU1JCXlzcIo7Rz+vhRao/Unv2xH+97+8X+UkhYnEXKdZXsrhrF/b9NZ5Ler5O9LO10E85/OHE21FH1roXt+zTi708iVmrIhRBCCCH8YtjvpB87diwgNehXSjE/Rc7sUVSsSie3fhrGbU+RtaSMx16wcaWx3x90oYpf7i6j/DCVzAV3QaWV9bvsQ/wpgRBCCCFEcBj2O+nBQh9txBRrwnTzCBRA/09dj43RPtvkI808tTyV0VUWNnzogoZC1v/lKFEzs0ifOHTb6Up4NEajEeM/xzJh6nzm3BNJU+3hi96VZgA9k7ggk9TERFJ/m0ai/+4pKYQQQghxVRn2O+lBIdRE6toi0n947inT74uYBGDLZ1p6MS4UzE9mkRpdy8u/303Pd3jat2+g+D4Lc5enU7YwH9ugb6friH1wBeseBPCgupzUl1uwvFF3wds1DoxGXWUFzp9NhooK6r536BdCCCGEuDqFmEymzkBPQgw9k8kU6Cmc5XA4Aj0FIYQQQoigIuUuQgghhBBCBBkJ6cNUZ2dwfIASLPMQQgghhAgmEtKHqba2tkBPAQieeQghhBBCBBMJ6cNUc3NzwHexOzs7aW5uDugchBBCCCGCkYT0YUrTNBobG2ltbR3ysN7Z2UlrayuNjY1omtwJXQghhBCiL7kF4zCmaRonTpwI9DSEEEIIIUQfspMuhBBCCCFEkJGQLoQQQgghRJCRkC6EEEIIIUSQkZAuhBBCCCFEkJGQLoQQQgghRJCRkC6EEEIIIUSQkZAuhBBCCCFEkJGQLoQQQgghRJCRkC6EEEIIIUSQkZAuhBBCCCFEkJGQLoQQQgghRJCRkC6EEEIIIUSQkZAuhBBCCCFEkJGQLoQQQgghRJCRkC6EEEIIIUSQkZAuhBBCCCFEkJGQLoQQQgghRJCRkC6EEEIIIUSQkZAuhBBCCCFEkLk+0BMQQohLURSFyMhIRo4cSUhIyJCN29nZSVtbG83NzWiaNmTjCiGEECA76SIYjJxEVnEFZZa5mEK/f3em2Rso2beLnET99+/sGnG1romiKMTExBAWFjakAR0gJCSEsLAwYmJiUBRlSMcWQgghZCf9WhaaQOYOK3Njux97NdwnHBz5ZDfWzcXUtgRycr40oAPN66fevgO+809fgaLoDehD3bha/LODe7WuSWRk5JCH875CQkKIjIzkxIkTAZ2HEEKI4SXEZDJ1BnoSYpB0h/QZX60nc4uNjuv1xNyRxLwFqYz7ysLCxduw+ykYCz9SkskvycWwfRZpf3YEejYBFRsbe4GQrmPibzbxux8fJm+pFfXRdeTe52Dj4y9xoL2fHYeOZf7aXJKdG/n1OgcPrFrHHM92Hl/1Lhc6d+3s7KShoeH7HYwQQggxALKTPhy0NXL0CzsaYD9io9ZrYs/yGaRMKCDfJrW2/aOgGIyMG5fA5HtjOLrJQnnQfBIRKIO/JhfbRVdVDdpbUc94UNtboV1F9T3hDI1m4qw0Hr4nntgIUE/aObDTyvYKJ56uHvi2HdR2D3hbUD3gaW9FHeA8hBBCiMEiIX0Ych934iaB0dE+TyomEp/MJH26GaMe3A0VFG1cw7YqV/frieTuyYDCUvSPzMM8wsEHm9Zjn5RF+j2jOV1l5ZmnC7t25qMnkb48jcQEE8YIPbidHN1fSP66Yuxu3zETyX0vn+SI7sdeG/n/M51i3zYoJD5fwnPXWcj5exyPzZhC3E16aK6lOD8LS8W5xqZFBRQ9EXf2sXNnOrPW2uh1GqIkkLXTgmn305Td/Bipd8dhjBiB276bdTn5lDb6NI1N5qnMNKbdacIwEkDD1eDklLuB07fABbdcL8GYmE7GghTMtxvQ48b1lZ0De6xYdtpweTm7g362bHxJEYeWdI1buXoaGe/0HKuCeXkRltlGaCkla4YFZUkO6dMTMOoVajed24Hv15rELqSgMAnbytdh+mPce4eJqBFuHOUWnnt+Nw6fxgNZE+WHc9mw9ini3Lv5w5J8yl0DW6+L8/Ct2oqn/VtUQG3V8LR7fAK2jrEPL2fpr3RUvbGRrf+tYZryKHOeWo6nJYvtn3vAq6K2e9BUFdBQVQ9a+8UiuhBCCDH05MLRABszZgxbtmzh0KFDbNmyhTFjxgz6mPqbo9B7T3KqqecZA4m/X0f+TAO123PIyHgaqz2WtLx85t7u88ZQI4m/NHJwbQbr/x5DyrO5JB23krWyBG1iCvff0X1xXYuLYzUlWJ/PIv3JdHI2fYw2KYs1S8z0uvxOq2DdgpnMSp3FvFdqLz3nxEwyf+TAumQGSckLKXAlsPB/zSPO50JTx84MZqbOYtacHEqbLt4XKJgXZjHl1OsseySJxNnrsd+WyrIFPvPTTyJr3QqmXV9CzvxpTEvNoPBIB3xVyHOLsyj84vLr3MvtC1mdO49Yh5WcJfOYtySHdSVOou6IY3TPMWjl/GHeTGam5lPZBvbX05mZMpOZKTPIKfU9c9GwvZLGzN/uxhl2C1OfXkN6nJ3XsvMpbdLQ3KcGviahcaQunwXvP8dj0yYzY7WNG5MzSL/P50LTAa6JfsIUzNEK+tsnMfkH/r3wsrVdO7t7rrapoKqoZ7pf1MWTdF8szR9ZsbxbRf3Rakq3rmXHJ82EGXrOTFU87dCqfosH8LSrqBLShRBCBBHZSQ+w7Oxsxo8fD8D48ePJzs5m8eLFgzSagnFiKhnzzXQceZnd1d1bpGNnkZYche2PS8h90wmArdrF6B9tIzXVTPELPTuvGrXFayjc7yZuwim02yqxbC6lVj8KF9MYHdk9jGan9C/2c8PW1NKRMI0N46dgCrX51MFruI47cQH65suU3Xy9m/yVhXRV59ip+MxJ+mwTsaGc68/twul2gWLg9GUuknTt30DO1krcAMfLONiQxaRbTeixdc3n3tncf4uDguXbsDUAVPLya2VMe3EBqRM+GHCZkGIagyn0JCXv76aypuu99ppKSnu10nA3OnErp+n4DjpOu3A2Oi/codvFSbcGSgLJE3aTsWA9la1m7viuA3dbR692/VsTDduWLNZ/1L3dXbGfei2ZmNtigK5/lgNdE9f7VixxGuNa3qew2r9lVc0Nh6kKdXbtnjuPUFXtpKXn78AYxxi9Sv3n9u7SFoAmSv+0ulcfxz/fz+GmFsDD8S+qOOhp8mkvhBBCBJaE9ADrCegXe+wP+l/kUzEVCAU0F/aPXiZzXeHZcGswJxAXepT1+30CodfB3464mTc2gahQGz2vnL0Di7frp6Pnd7r77+qRhNlppP1yEnG3RqG/HlAU+FphRKhP+4FodXeVhPTMo0PrM+bAtLvdnIuyGt+qQPi53d6YGAOK1sgxn/IX7YSLU0Rh9C0T6ietej+VJ5JJXbWN0aUfsLf8Y8prnHzv6OrVqH2vkMoWABv5qdPAeyW9dtDh9tmt92poHaD4/BdiwGvSYmPbStsVzOXyPLVvsbHnw5ej77Lx6LnXdKMiiKCFupZLRW4P9e9upr77kXOvle2DMlMhhBDiyki5S4DV1NRc8rE/uPevJ21BOusr3HDqANZ1hb1uvzhar4fQBJ7aUUZZWc9PCS9ON6CEjcIwwPHiFm3AsnQS7vdySfvlZCbfk8jT7/itILnLdx2Xb9Nv5/d16pQbTYnBeNO555SbDIzmJM5LltJchKuUnIVp5L7fgH7iY6zYsovytzeQmWi88mkDcBL7kXMnV5qm+e1Wln35fU0GkVwOLYQQ4monIT3A8vLyzgbzmpoa8vLy/D9IWyNHv7BRuNaCTZ9CxtJEfL/S5pS7A7y1FGSkkbbw3M+8ubOY+VsrRwcS+kLjSLovDg69xpqdNpxt/j6YoeH6uIhyVxyznkolLgIwmEmbn4S+vvRcmdCAO61l98Yc0udMI/HBDAq+uYO5q3JIjfHr1AfNoKzJIPC0NNFKBBEGXe8XdDp0F36LEEIIEXSk3CXAjh07Nog16H0cLyZ/axLWpRlk7LeRW95V3uCqtuEglXGxp7F83x3v0BFdJS1au8/+9Aj0N15l39joKse63cakJelY9mQy4js3zppiclZa/HJvee14JdZ3bMwzJxBnUqDRN+R27YaPGPH9x/Grga5JhJm5S2fxr+69WDaW4hiqe/J/XY/dFc6EhHh0n1R315mHM/GpNTymvc4zlqqL3mpRCCGECBYS0ocZx871FNy3jfTMDCqqc7vua/1FEda9KeQu20Cu4XXer3NBdAJJ08fR+EoO244MYJdUO8rBIy7m3juLtLvr2fOVnvgHM1g2eQR8ZyRuNNSerWlWMNxqZNT1oER2hXj9LSZMBo3TLicu90VHuSAlwkhUhIISamDU9UCYAWOsCe2705w87hpYCYQyibkLzJwqz2X9h86ub+xsdWE/ddl3XqgzzEu3kTP+KHveLqO24Vu46Q5mzp+M0lLBoaN9ZqbV8ze7RuJ9aaT+fReOMwbixkDlX3yCrt5AlF4BbkDRR2EwnMbtcp93jIFcE8P0NDIfMANjOV1ZTm7VEO22e+ooKaljyqNpLP36dd75XCX65w8x/yceDqw5LAFdCCHEVUFC+nDjtVPwYgFJWxeSsbQC2+py3LgoXZUOSzJJm7OC5AgFrcVB7cfFlDQONFhpVG7MwXJjFvNeKGKh14W9oojViwqY8vsMptxtpHhndw21PoXcv2Zh9rn4M72wiHTAvnUe816xX3CEC1NIWLSp697hPR7IpegBwF1OzrQsSgdyKNoRyt63YX4khw3TfZ531VK4Jov1A7rpt0btHiulN81jxtIXSY9Q0NwuHLW7yV1lofS8rpwUv7Aa07PppL+QzAivC6e9jFN7S3E0dh2r+Qnr2WM15u0ipa2cnOQsSnuVFwV2TdzVB7C5EohrqaTiv4e2HMb57ku8dF0a83/xJCsfVVCddRyw5HXdI10IIYS4CoSYTKbOQE9CiOCnoI81k7p8BelxteQ8lEXpAHf6rz2DvyYmk8m/HX4PDocj0FMQQggxjMiFo0KcR2HSEguWJ3y/fEnD3VBJ8Ud2NL2B0fpLvP2aJGsihBBCDCUpdxHiPBqu7/QkzE4n84SVEruLDvQYfnAXs//dDH+3YjsR6DkOtcCsSWdnJyEhIf7v+ArmIYQQQgwlKXcR4kJGxpHy20zm3p2A0aCgeDXcJxzYD36AdXMhNj/f9v2qEIA1uemmmwgLC/N/xwPU+v+zd/9hVZWJ3v/fRHup4PbAg1JBzXHbHGkmYrTBsVHrGbAT1uSPbLA8/jij5BQ5R3AyGk5MfjPmMDLO8ceV0Q+xOSSTydREWUmnoKNimRQM2iSco5un3JTkfuBxuxDWbsv3D0A3/gRF2erndV1cl3ute933vdbeV33Wve917+Zm9u+/7O7MRESkDymki0jAMgyDqKioPh1Nb2tro76+HssKnLXgRUTk0qc56SISsCzLor6+nubm5gs+5aStrY3m5mYFdBER6ROaky4iAc2yLE01ERGRy45G0kVEREREAoxCuoiIiIhIgFFIFxEREREJMArpIiIiIiIBRiFdRERERCTAKKSLiIiIiAQYhXQRERERkQCjkC4iIiIiEmAU0kVEREREAoxCuoiIiIhIgFFIFxEREREJMArpIiIiIiIBRiFdRERERCTAKKSLiIiIiAQYhXQRERERkQBzZV93QEQuLYZhEB4ezoABAwgKCurr7shFrK2tjcOHD9PY2IhlWX3dHRGRC0oj6XLJcdy3kk2bXycrwd7XXTkvjNuzKd2xgx2dfwVzcQSfUIr4Ra8fK7NjB68visc4330zDKKioggJCVFAl3MWFBRESEgIUVFRGMb5/vSKiAQWjaRfyoLjSF+fz4yhHa99Fp79TnZ+WEz+s0VUN/Vl584f61vg277uxfljlS9n1j35GFdC/IJ8MgaftBTVa+Yz5c8GRvBwUlZlE3sB+hYeHq5wLr0uKCiI8PBw9u/f39ddERG5YDSSfhnwbFlByuyZzJyXxlOvVDNwfAZ5/z6XmBNGXy8NrlfTmJA4hewyT1935fw47Ma1z4mzzsWB1lMXs5pcuOqcOL90c/AC3bQMGDDgwjR0CbCNfYQXX85lanQfd6T/cGbnvsjy2bHY/LdfPZXslzeQfXcY9E8ks3ADy6cP7VHVtoRMCl9ezv3Xg+1HC3jx5ed5aKSta5nrp5K95mlSRoaeti59tkTkcqOQfjk4XM/uz2uo2VlB2Z9yyVhTATdNYvJIfX0svetSGEUfPnM52fecW3LuTh3eulLWv/wGu/r0Gy0bw+95gCTbVvI37MLrv8tjYuHFPGyCz8KywDSbuxwdOjyJh5Y8zYuFG9hQ8Dy5aXcTO8ivQIuJhYlltv/bxKTZ7NIK3j1vsubdZhJn309s/1P39FL4bImI9IRC+mXIs8+FhyEMjvTbaDhIWLCSDZvKKS8vZ1NhLnNHR5zkaAPHXemsXL+J8o92sGPzJtatyGDy947N/7ZPWcmOj/JIDvM7Kj6D1z96nYzRx24Mjs2tfp2MeDsxU7LILy5nx44dlK+Y7Dd/OoL4n2eTX1xK+Uc7KN+8iQ152cxNiO4yx9rxwLozzsGOmLKS8o/WkTr8uLO6NYtNH71ORrzfEd2+Jt1kRJPwYC7r3uo4j00byHtiBvF+VdrjZ5Cdt4FN/1nOjo/KKS1rKGYVAAAgAElEQVReR+7P4zmHVrtvQDzpBaWU/2c+qfGX6w1cKI6hkWcu1ht1uCopeWMrteY5Nncuwm7l3vFD2PXGq+xqOW6fz8RssWjP5SZmixfT9Ots2DgeWpTCaD7mpaVZLMnbROM/TOeR1ESOnr1pYR6xMD3gNU28R0wOnXC+XureepXt/ROZevu5XnsRkUuH5qT3sWHDhpGZmcmIESOoqqoiJyeHvXv3ntc27VcPwe77hgMNnVsiSPj1cnJ/cojiNVnk1rbiuCud9JxcWuelULjn2LHRU35P3q/jOVjyDEuW1+D5uxjGTUhk7PcHU/x5z6aXWJuXknzPDh57MQPHXY+xdKSdktVplN61kpTDB4+Wi5jyBLkP/T0Vzz5F2if1WCFDuenWu/jR969hXZnraDnnK2lMeW/Qaedguz8opWJBFmMTHOTVOju2GsQnjCPiy01squ5cQaL716R7Ikj49Wpyk2BbwVKeqfLQ79ofcedPf0RcZBEV7vZ2PV/X89cP8nn/j27cPoNrfngfqfNyeax+MhnvnufpO9eNYsxwO0ZwHGN/6CCvoqZ36u2fSGb+VMxXSrH9OBFHRCjGwV288fwqNtZ2jqqGMvzuFB746UiiBxlYjU4q3yog/51a2jOdjeFzlrM4+k0y3ghl9pyJxEaHYnOXkrPgWXb9+BGev8Nka0ss44Z62Vr4JrY77mf01SZbV2WRX2li++FDrP5VOOtTcihtaa9zZOpqFoWt5+c5pXht43jk+QWMDgXilrNhenvPdr34C5a80zHcbYsmcW4qU0c5iAwF8+tdlKzLY/0nnfvPXIctIZM/po5sn1riq2P9ogxeO/YxBiDsh/eTOj2R2GtC4XAjNR+9Rv5/lOLydl7PiTT8x/uEJoxneEQYoS21vPncKl77rDMBhxJ7z0PMvvNmhtpteD11fPpOAc/+ZRf+GTly3Dhij1Sy6sOTDOf7TMwWE0zgiElzi0Vo87EVViJvm8DN/XdRsLKAUjdALTXmQBbdGUZkf2hoAa/ZjNcyMX20B3Zfe2A/gfkppR83kjk2keh31uPynfrjJCJyuVBI72OdAR1gxIgRZGZmMm/evPPUmkH06GTSZsfTuvMZiis7/oc7fBopSUOo+Pf5ZL/anhYqKt0M/v5akpPjKfpdBRaAEc+cOWMwPspl4eIiOkqy7d3Cs+uO5cHdcBALg/ikoRTOn0teFSQltHLwUOdkawPHd/8eu6eW918to8IDUEP19hJOaNXjxuVxgxFx6jnYTaW8XZHGE2MTcKxx4vS1n1fi6AicJaUczejdvSbd9b1ppNw1hJo1M0lb03FzsH0bZa8eV25fGUWvHHtZXenmewnrmHDLTRjvbutZmz1V+wZ5L0UzJcrFK3/ppYB+VCSjx4Wz7N9+SaUnjNGp2Sx44F52Za6nzgdhYx9i0ZRwSlc/xuOVjYT/aDaLfrmIWQ0LefYTE/Di+sIFPx5P6kwL519yyNjdBCHQ5AV8gCMWlj3GH364lMw5ibyatZD8e59m9thYCiq3n7mL3q2s+mUD059cTOxHj/PkRlf79fYem54RmZRCyiiLl3N/QckXocROz2TRA/dTU/0sld7u1eHdvIyffwjG0Olk/+Ykt5LRd7Pol0nwzh+Y/5ddeL+TxIJFKSxq2UfGutqOKSmRjEu4lmeXL2SVO5LEhdmkTE9g6+KNNPjAdsP9pPw0nC3L5vP4bpPQGyay4FezufezDApqOxsKJfbGGKzaPD49fhQd4EgDtR9XgtsLvib2frKd/V91noeN4ddHY/vizS7TdbzVBeRU+9XRVEPlR/vZ5wWanOz6GFyHT3rxqanehXn7cEaGgct9ujdKROTyoJDexzoD+qle9wb7HbmUjweCActNzXvPkL68kJqO0aqI+DhignezYovfcJ7PyV93epg5PI4hwRXtI1sx44i7yqKmYBOuk7RzLqwdRbxU1R5BSxZPoAyrI5BaVG/ZhvOeZB57YSU/2PQ2pR9so6LubEeVPWx7r4LWxWNJuG4tzjowRo4jPsxJyaZj6aLb16SbouPjicFJ3nvO0xe0xzD5gRQm3RaHI8JOP4AB0LqnX09O8iy5KFudRdl5qt354ZtUNgE08WlZJY3/GsvNQ6Du61Buvu1m2LGMVysb8AINH69n02fjmDUulvxPtuMFLI+JGRaL9ZeF5G9u6FK3DcByUvO5yb7rmtoD4VcmfNNE6NBQDOjWDY63pf1zZ/m8mC3eE/Y3vPcHFn4IDW4TMNn14S4ab3fgiIDKr7tXBz4vXh94vSfvUfSPb8NhbiXnL7vab0D2lPDy5gn89se34nills6M7dy8nu0NAA1sr3SSct+1RF8BDT4gPJQwTMwmEy9emna/xpJfvNa1oeAhXDsEvvl4HyfpJfhclL6Y33nmbF33rN/OUMIGheL1NLW3dyru7RQ811lfJeufrjxlUe+X+2gglquibe03BiIilzmF9D5WVVXVJZhXVVX1ehueLStIf6GGmx7MJd2xlfzlhV2WXxxst0NwDA+vLyXF77h+/ewYXw4iAnABRthABgW3Uvv/TrOkyFlyfr6bo4NnltUlUFnbc0l54K/MTL6Lsfc8QfJ8cFcVs/x3KyjZ0/OxZc+H71PR/ARjf+Jg7R9dxN06hiF1JZT6TWHp7jXprohwO+DGc7oRwuBokp/KI+MfdpL3b6mkf+TEQwyphetI7tEZBiKTxq8bj77yuhtpYiThETb4JpprI2yEjcykcPxxh302hFCgCcBngdfJpx83cFJmx7QKr9X+wOIR2kfYu65Zcm5ChzNu9r0kDo/ECAauCCXsClf7DXCvsHHt1WHwTcfocwfX1w0QFkZkMO0h3WfR5D42ccU6AlxhHH0Gw1tZSkn9I6T84Xkm7NnFrupKtpRtodY//F4RTkgoHGo+uydXez1GH2zGJJSwS/PnDUREekwhvY/l5OScMCe91x2uZ/fnFVQvy2NcQQZpC8qpWFJG51j0AU8r+KpZl5bNpuMGqC3rAN90jpR5LFp8/bAP7Ef3xiV7j+fzEvKWlJCHQUR8Mo/9Jp0nlniom5139BuB7ldWxjsfP0b2bQlE/6mCxLFDcL61qUs93b4m3W3yoAcwsP8dcKovAa76CRNusVOzZgVryztG3C+hZTK7hLrO8/JB+2fJi+uNJ1m4rvb4w7rymTSf5kFL73H/7sV4DoQybs4C7r16K6uefJLtX3th+GyWL74QK9Af7wwRuWUX65/4BaU3jOZH8bHcfMssFk8Yx8vZS9hYd1zZs5r/bdLUZGK7uv3G4di3SjZsNq//7B4RETlLWt2lj+3du5d58+YxatQo5s2bd34fGt1XRO6aCgbdlUaa369xuisrcOLghqEHcdY5u/y56j1H47hVs4NdTQY3jUk87WojrXREeP+AOcDgNKur9YCFu6KI1z92Y1znYOhZLUJiUf7eNjwxY0n6yQTiI3dTetw0lO5ek+5yVdXg4gbGJjhOXeiK9iktrc3HHprFiCDidMtDH+lmB7pVLoIxD2az8repjOn1RTZCiRwSfvSVLTKSSJrY/3+94PuGfd9A5HXXEuZ/xNXRhPbmTcoRABu2ox9Eg/BBJ1+b2zhZuzYHMd8xcH38fntAB8KuiybyFP8VPWkdZ+Rl39dNMORarvW7w4iOjgT3NzR0O/zaCA2Fht1b2bjuWZY8lsWr38Qw/sdDjxU50kizCQPtYaes5XT9rPnciTc6lpFD/DYPncjivGymfucsqhwUQigmTZfozxuIiPSUQvplxvnKCtb9bQiT09NI6Px/8+cbyH/fYszClWT/PIkx8fGMuWsuWU/nMvcmvxR8uIz8wgpISGPlk3NJunUMCRNnkJ6bT+4/+YXPOicuHIwaE42BQUT8DLJ/dScRx4cWw05E5CAMwAixEx0Zgf340B0cw4y811mXk0pyQjxxN8WTcG86KT+JwPrsr9T6pWUjLJrooQ4c10Uw6EogJILooQ6ir404YSlG66P32eq5gWnzE4n+WykldccV6O416SarqpAXN3uIm7eU3AcnkzA2gaT7Usl+YSWpnfV9VcHOOrhhUgpJw6OJ/l4CqTkZJA6Gftc4iD6hWYu6/3ZiDU0keeIY4kcnMPmOOE6YLWA5qXF6GDJ2CpNvjSf+1iSSTraU5PBppM9JYswdc3n4npgen+OZOMZNZVy0DfoPJfGOmwn94lMq3QAm2zdvx4ydyuyEaEKDbUSOvJ9HlmSz4LazCZAn5/1qHw1cS2xce52hN05k3PXHFfI1c6gZhvzDSIZfHUnkd4YTe0Nk+4j8kUYaD8IQxzAigyF0aCL3/zgSkxAG2m3dqwOw9bdh628j1Nb+hhq20PZtHQVcH26mJnQ0U++JJSwYQoffzfTbInGVb6a2m6Pe0T/7Lc8/OZuRke2VhkbH4LBbNHztN7Wl4+ZoSPS1Z/WNQ1P5m5Q2xXDvL2eTGDeU4T+8mwVp9xL536VsPYuHVmzXXUskDexzaRheRAQ03eXy46th3e/Xkbhmrt+0FzclT6bC/HRS7n+CpDADq8lJ9QdFbKrvOmbsfCmD9OY0Uu+fyRNJdmh246wqpajywNEyVtVLrPhTDBkLN1C20MM3dRUUrcrHnj2pS13GbY9RlJPUHir/KY/X/8lNcfokssv92vTVsOmPRTh+PpmUJ+cSMcDCcruo3rKCtNWF7auztNdG3AOrybvP7wdkJmazYSLgKSNrQgYl/qdyuJzSbR4mT7RT8coHJ5lf3v1r0j0uihen0vJQOin3ZJD7gIHldlK9pYjXO+vzVfPMk7kMzkzhiYJkaHJS8fZKUl++gfR/HcuEoWvJO242iPOVXFY4fkPKoytJxoOrch3O96up7hLm3BSvWkrM46mk/z4Jw3JT85cllG0/brWYL3dQVptM9DVOyj85wwOuPeVr4tOPGxi9cDWp14RiffUpBXlvHp0mYX6Yz7KwFGbfm83zDxhYjS52vfsH8st68Zd+vi5j/cabeWjOcp6f1kTTni1s+rCBmGgbBp0TSBrYurGEW+ZMJ3vVbLwHG3B99BJP7m7A63NR8uqbxP4iheXP3U9D/XZeXZNHwy8yuXfRYg7lZPHanjPUEZpE5poUYv1uWKfmvshUgOp85mSXYLo2surpgaROf4TV9xhgNrDrg1Us+0tdt0/VtfEZCoY8QMq//ZHwAbTXsflZ8jf7X0+TXdU1GJNiie2/lcqTrfByOmYlBUvzYM69zHrsbgyrAecnBSx7sfT0D5OelI2YuFhCv9jaxz/uJCISOIIcDkdbX3dCRC4NDsdJpvP0TyTz+fsxn57Pqo81ShpQwhJ5ZNksKFzIH3rzhqinQkezYNkCwt5ayJKNp3gwGHA6e/nmUUQkgGm6i4jI5appC6+++w03T7qX2N55aOQs2Bj603sZ7S3ltfdOHdBFRC43Cuki0mva2vTF3MXFS90bayjxjiPlZ7G9vBpO99iun8gDd4Sw5T/Ws+s0U2702RKRy42mu4hIr7nqqqsICQnp627IJai5uZn9+/f3dTdERC4YjaSLSK9pbGzUiKf0ura2NhobG89cUETkEqKQLiK9xrIs6uvraW5uVliXc9bW1kZzczP19fVY1oX9ATURkb6mJRhFpFdZlqVpCSIiIudII+kiIiIiIgFGIV1EREREJMAopIuIiIiIBBiFdBERERGRAKOQLiIiIiISYBTSRUREREQCjEK6iIiIiEiAUUgXEREREQkwCukiIiIiIgFGIV1EREREJMAopIuIiIiIBBiFdBERERGRAKOQLiIiIiISYBTSRUREREQCjEK6iIiIiEiAUUgXEREREQkwCukiIiIiIgFGIV1EREREJMAopIuIiIiIBJgr+7oDIhI4DMMgPDycAQMGEBQU1Nfd6ba2tjYOHz5MY2MjlmX1dXdERETOmUK6iADtAT0qKuqiCuedgoKCCAkJYcCAAdTX1yuoi4jIRU8hXc4fI4Hst3JJCut4fdiDu76Gik0vsfylbbh9fdo7OU54ePhFGdD9BQUFER4ezv79+/u6KyIiIudEc9LlvHO9nU3K3BRSfpVF3haL2Hm/Z+VDcRh93THpYsCAAafYE0bS4g1s2NDx9/IT3B3mt/vqqWS/vIHsu8OgfyKZhRtYPn1oj9q2JWRS+PJy7r8ebD9awIsvP89DI21+BUby0PN+fVg+m+HBPT0PERGRi4dG0uW8s5qc7N5ZjQVUV+yEf9hE1q2J3PBsNdUaTQ8Ypx9F99Lwbg4L/6MGjnjx+r9vHhMLL97DJvgsLAtMs7nL0aHDk5g1cyKjr48k1NdE3SdvUPDiRnYd7CjQYmJhYplAqImJSbPp9Wu+kmdTp5F/hY3wOxezPOFsz0NEROTioJAuF94RwNdKa+frYAdJC9OZNTaGqMgI7D43zupS8petoKSu69xi4/ok0v8lhcSbHUQYFp79TnZuKSJ/TTHVTX4FI8cwd+HDTBrtYEg/D64dm8hbtoKyfWfZ54h45i5IZdKtNxAdAp6vdrPtrXzyCrbhsgAMYu7NIH1qPDHXDcFugLuuguLncskrc3Wtyx5H8sJUkm+Nw2E3sDwudleUsOHFfEpq/c7XcJDwUDqpd8UTbQdPXTkbVi1l7Xb3Cd0zvjeDlcseJsZTzFPzcyk7sUjv8HrxHr/NZ2K2WHibAUzMFi+GaR7bHzaOhxalEPv1Rl5a+hENobFMnDGdR1KbeWxpKQ0ApoV5xML0gDfUxHvE5JB5fDvg9XmxjpyncxMREQkgCumXuWHDhpGZmcmIESOoqqoiJyeHvXv3np/GDDuO21JJHuFh2+pN1HSOxvpcfFXzMUVVr+A6cAgGxzBhdipP/NZD3ey8Y+WMeB5els0ETxErM7PZfdAgYugo7ho/CsdAv5A+IJ70Vb8nuV85+b9bQbUZTWJKGtnLIHX2Cqp7+kzhgHjSV69khr2awlWPsvWrfkSPGM+kH/6Ia17pDOkWB/btZOv6cl76yo3V7xpi7krh4SezOPjfqRQevTmwk7Aol4zRTtYuTyPbaWFcHcO4O8bxg+/YKantTNcRJPx6Obk/OUTxmixya1tx3JVOek4urfNSKNzTtYv2keOIjzQgcgxjv2tQ5r6AD076TMwWE0zgiElzi0Vo87H2I2+bwM39d1GwsoBSN0AtNeZAFt0ZRmR/aGgBr9mM1zIxfbQHdl97YBcREblcKaRf5joDOsCIESPIzMxk3rx5vdqG45/yKf+njhc+NxVrsljyqtOvhEX1m4VUH31dTbUxjjufiCf+Kqip79gc4iAmEuo3FVFc3nH8zgq2vdm1vYhJKSRf5yR/dgZr9wBUUPF/BuL4Uwozf5JPxrs9S3/R96SQPNRF0S/TWFHRHj4rtpdRfFw59/ZiCv3OocI5mMTxD/OjkQaF+zpCa/BgHI4ILGc+G96uwA3weTUVZUVdKxs+jZSkIVT8+3yyX20fia+odDP4+2tJTo6n6HcV+Mdw99v55MVY3ND0NoWVF3hlkyMN1H5cCW4v+JrY+8l29n/VOd5uY/j10di+eJNdft90eKsLyKn2q6OphsqP9rPPCzQ52fUxuA5fwHMQEREJMArpl7nOgH6q173B9W422UVOrCsHcs3wcUybs5L863OZn1WMq2OUPHrsXObMnED8dwczpF8/CDYwqKGf/9OlngpKd3jImJ1HflQxmz4opbS8hq6DxgbxP4zD+LKI8jq/zV9VUF3/MEk3OjDerab7MdZOfHwcxlfFlJ5hCN4YmkDKgzNJiHMQbe/Xvi3YYFtwP+hs0eeifHM1KQ+mk/90DG+8V0r5B9uoaepaV0R8HDHBu1mxxW+qjM/JX3d6mDk8jiHBFUevHQBNFaxdXNHts+pVPhelL+Z3vGhg67pn/XaGEjYoFK+niYbTPX/g3k7Bc531VbL+6crz01cREZGLhEL6Za6qqqpLMK+qqur1NqwDTqqrOh8c3UaFJ5qix1OZc8s7ZJdbGKMzWJ47GevtJTyWVUaN28K4K5eyJ6K6VuRzUpQxC9fPZjAlIYHU7LlkNDspeyWXpWs6RqWxM8huwNBk1v7npGPz3ulHvxADz98G9rD3gxgYZoDnwOmXjAxL4InVuYypL+SpBemU7/FgRcwg7630468GNWtSmblnJskTxzJpwUpSH3VT814+ucuKqO4Y5B9st0NwDA+vLyXF7+h+/ewYXw4iAjhupnvAOmEOu4iIiJyRQvplLicn54Q56eebu87JAcYQfXX7aHN8UiKO5jIy/r2EmjNNcbBcbPtTLtv+BNgdJD34FE88mMtjX0zumMbi4aDHgrpiHv11EV91PRir6ZsejKIDHOTQQQuiB2E/TSljzJ0kRLgofvwZyvacqQULZ9lacsvWQrCdmImP8dSjGSw57GRaxzSWA55W8FWzLi2bTcfNzrGsA3xz0ayKY9LUZGK7OozIYPxG/23YbF68SvAiIiInpXXSL3N79+5l3rx5jBo1innz5p2/h0b92K+LYnCwG1dD+zh3v2ADrBZa/YLnkLDTReIOHiclBe+w22dn6D90jrpb7KqqxrouBgdOnHX+fy5cTT2dr+2humo31nVjSPz+qVd272e0T2nxtPrVH3H6YA+Az0PNmy9R9iVE/33M0fLuygqcOLhh6MHjzsGJq95z4o1GWDwznsgld2ESjlOsH943vNR87sQbHcvIIX6bh05kcV42U7/TZx0TEREJaMHh4eH/X193Qi5RwQ4SZ/wj1zTWUHMwhChHDKN+MpO0hyZw9X//BznPVeD2+fDYb2Ry0iiGNO+m5kA/vnvHL/nN3HGEh17J/6sspnRveyS1J2Sxbvl0HMa3tF0RSvjfj+CnD/wzd/y9h/KCF9j8ZXvK99TtZ3DiLGbddQP9mk0YdB03jZ/OgrmjOFj+EV/2MKc31R0gavy9TB5/M4O8zVwxOIZb7pjOv8y7hcbycr5sAaslgrGT7uSmsAb+VnuIkJsm8a+PzyRuYD/avvqI4o/q8QFETSa34CnujoLWtisZNOR6bpn6IDP/92D2v7eWgh0dv5R5wMlBxxT+Ofl/8/dBJi1XhnPdiAn8c9p0vvvlf1F53ATviKm/4el/HovjphiMqtfY7Or5UHt4ePgp9vTnuz/5KTGerZR82kBPV0Bs+fog4eMmMeEHA/Ec+H/Yrh3HjF9Mw/HFa/yxxInZ1rP6+g9P5KfD3PzXu3/FfYpjm5qaTr5DRETkIqGQLudPR0gfeeNY7r77bu5OvIUbv9OPr8qe5amc9fytYx3sw7Wf8kXIzSRN/zkp03/KyP/1FcVLn6LsilEkXd/IW6V7sABr/34O/q8buePuaUybkczU20cR5d3J2yuzWfGBm6Ox1KqnvHw3/YYnMvm+mSRPHM8PrrGo2/IO733yJZ4ehkJavmRzuZN+372Fu382nal3jiPuGh+17xfz3o6O+ppq2Ll/MKPu+jm/mJvMhLh+VP/xN6z869XcNn4w//NGOfU+wFPP/m+jufmOe5k5/X6m3j2eGyMbqXhlKdlrKvz6dpg9W8v54u9+wD9Omc70qZMZ/4PBHK7+Tzb9107qj5sW5Ps2jB/cdjP2r95j3brN1J3FyijnK6Tj/Zpd1Q2E35TIxCn3Mv6H1+D9rIi859/ji9YzH35CbxTSRUTkMhDkcDh6GllE5BLkcDhOsSeMpMWrmejKYeGaXX3+IGjY3dmsHl/Lk4sKqD3FFwZOp/PkO0RERC4SmpMuIt1ns2HrqznvwWCz2TD0Xy0REbkMaHUXEQGgra2NoKCgU+y1EXnHExTeAfh2UZC6hI0XckaJbSQPrc4kMazjtav2lEXb2vTloIiIXPw03UVEALjqqqsICQnp626cs+bmZvbv39/X3RARETkn+uJYRABobGy86Eeh29raaGxs7OtuiIiInDOFdBEBwLIs6uvraW5uvujCeltbG83NzdTX12NZPV0LX0REJPBoTrqIHGVZlqaKiIiIBACNpIuIiIiIBBiFdBERERGRAKOQLiIiIiISYBTSRUREREQCjEK6iIiIiEiAUUgXEREREQkwCukiIiIiIgFGIV1EREREJMAopIuIiIiIBBiFdBERERGRAKOQLiIiIiISYBTSRUREREQCjEK6iIiIiEiAUUgXEREREQkwCukiIiIiIgHmyr7ugMjFzDAMwsPDGTBgAEFBQX3dHQlgbW1tHD58mMbGRizL6uvuiIhIgNNIuvS+6xOY++Bk4gZ0s/yAMWQUlVOaNwNH8HntWa8yDIOoqChCQkIU0OWMgoKCCAkJISoqCsMw+ro7IiIS4BTSLweR8cx4PI8Nm0op/2gH5f/5OvlPzmBM5Plpzn7TFFLnTCCmX3ePsIBWLN/56c/5Eh4ernAuPRYUFER4eHhfd0NERAKcQvql7trJ5L6Yx8M/gorCpWRlZpFb8AHumGTuGxPd171rd7iC3OREJvyyEOdFFNQHDDjdVwU2Yh94mg1rFjDadpYNBEdzf+4GNmQlEXqWVZyT4OHMXr6BwkXjsAVHMzV7AxsW303Yha6jF9gSMil8eTn3Xw+2Hy3gxZef56GRZ/vGnMLVU8l+eQPZd4dB/0QyCzewfPrQkxY9/WdHREREc9IvcdEkL0ojgRKy5mVR0tC5vYTil1b0ZccuCacfRfdyyPRCi4nZZbuNcYv+yIIfdQREnxezqYHaD1+l4OWtuLx+RX0mh1rANE36ZgZzR/stXvA1YXrB29Lc9XzCYpn6z7NJHBFNpGHRsGc7r63Np7TO2/06LoQWEwsTywRCTUxMms3OPnbvPQkdnsSsmRMZfX0kob4m6j55g4IXN7LrYEc1HhMLL97DJvgsLAtMs/mk3dE3MCIiciYK6ZeyoUlMvqUfFavy/AL6KUTEM+NX6ST/2EF0P3DXlVP8zFLyyt3t+40Est9Ig8IS7D+bSXw/J++sXkHNmAxSbxvMwe35PPZoITV+I+H2kXPJfWAaY6+307p/N5uey2bF2/eEQqwAACAASURBVM5jgdNIIPutXJI6h1V9FeT+YypFHv+OGST8dhO/uSKPrL/FMGvSOGKuskNjNUW5GeSVe7qUjZmYTvrsROKi7LQe2M22P61k6SvVdKmy/YRJeDyP3yQNouaFNFJfqunJle2W5hYTb4vJoSMn7vN+VkDGmkoIDiXyxgnMnplKalMtWW/4v1HtQdLbci6RNpToOAe2ul3UHTxz6S58JmaLF8s0AQvT9GL59yU4mqS0R7j/6lrWrylglyeMW+6ZzUOLwPzXZ9l+sBt1XCimhXnEwvSAN9TEe8Tk0HHdOO17EjaOhxalEPv1Rl5a+hENobFMnDGdR1KbeWxpKQ10nquFtxmg/bwNsw/OVURELgkK6X1s2LBhZGZmMmLECKqqqsjJyWHv3r29Urd9xA9w4GJdhev0BYMdzPhdLg9H7mTd71ZQ/n/txE9LIyVnJTw4l7zPO2J1cDQJP43mmWVpbL0nl4zHs6l4aTkZi39AxpOTufOmImqqOsvGMfNhi6IXs1jXEMHYlIXMffwpPP8zk7zajnatcpbPmUL+lQbG7Vmse+A055KQTjrPkDs/lwqPg7mr15L6LzMp/Sjv6I1B9JTfs/LXN+H6cx6PfuCkX+w00hbkkt2cQtqbx10DI4axYxzYB0DcmDgiXqrB3eMrfHqmaUGLRfPJpvC0NNPgcuEFXC6TmNtGMy4yEhsN+A+mmy0mpml22dYjwUMYP/shbAULya/uaS0m3hZoNg/hBbwtJqZ/wL5+PBNu8LL16VW8Vt6+vbYObAtuJmwIcLAbdZyB7cbZ5D6WxMken2j8cBkL8yq7dW28ZjNey8T00R7Yfe2BvYvTvCfht03g5v67KFhZQKkboJYacyCL7gwjsj80tNAR0k0wgSMmzS0Woc1axUVERM6OQnof6wzoACNGjCAzM5N58+b1St2DB0dg4ObAGUbRjVtmMOsmi7KsLPLea08u1Z9B1J9zmXz/WPIXl3WMfltUFy2lcIuHmJEHsK7bRt6zJVTbB+FmAoP9n4XzuSh64tGjAb/668HEv5JOwoQ48mqrOwpZuPe5cAP2xjOEma+KyV1cSIUFUEP5Jy5S73MwNJj2kG7EM2POGHg/g/RlZe0j5xXVtEZv4Pf3TyLm7bwuo/xYFRSuLmLQ7QZ//dOmXg/oAJbrU7ZXu2g8bSkbkXHjufnqRnb92Xlc4PSy//PtVJpn+hrk/Nn32RY+bWgCvOz7fDsfe4/dRIRdP5TII07erPIL3Qe3kp+9tdt1nIm39g1yMt/HdrJVf8zu10NTDZUf7WefF2hysutjcB0+VeHj3xMbw6+PxvbFm+xq8utbdQE51X6HHWmg9uNKcLdP7dn7yXb2f3XWt1ciInKZU0jvY50B/VSvLwTHiDgifDXs2O43tHi4gp3/bTE55gc4gsvonAxydAUWX/tfa+e/AboEKTcHvvIL3l/tZGc9JA9zYFDd8znWzR7cfiHbau0cse/YMHQU8VdZ1DxX7je1xaKishbuuoEbQqCmy8iphfPtXDLe7mlHus/72UZWfXbyfbYRKfyxIAWCbdiuMKl9ZxXrPzlxhLnu3Xzqzl8Xz8BL7cZn6fziw/V+PgV+e8PCBmIz93L6+6vT13HmLjTR4Go6c7kzcW+n4LmOf/sqWf905QlFTv2ehBE2KBSvp4mG0z3Y7HNR+mJ+x4sGtq579tz7LSIily2F9D5WVVXVJZhXVVX1Wt0HDrixuIbBkcApc46B3W5Aaystrf7bWzlotsKAgdh7Ze1yD62HwQgdiB3OfeT62y6dxQiPwAg2GPPrTZQu8ttxpR0juJqBdjjJxPQ+4939Ko+/uB0vNsKvu5mk+xaQHfosWXnbT/1WdVsoiY89zawbAAyM/jZY9DzjfIDPyatZS9j49Tk30nFzZnCprPh96vek5uynG4mIiJwlhfQ+lpOTc8Kc9N7i2flXnMQTFx8Ntaeal27h8VjQrx/9+8GxIe5+DArtB4cP4fFx3Cj5WQi2Y7eDdeDQeVmpxDroxvJZbFudwortx+389iAH9p+HRs9FSxOuLzrmP39RR82Ra3n+l0mM27Cdjed8B2Oyfc1j1PS3AdcyYdEsQv+Sw6t7AJ9J0zfn3HsAvmk6hDc0jLAB4J9ibTYbXm/vxFrbjSnkPpZI5Ek+f+bWVczP2957AfqU78mnfNNkYrs6jMhgcB0dTbdhs3nppVMVERHpQiG9j+3du7fX5qCfYE8JxR/NJOO+VBJKsijzD3/BduzBHjwWOKurcc8ax6h4O8VlHcPNA+IZdYOBe9vH7WuX9zikG3T5UcXr4om7BpybTrbSSi/Y81eq3XMZF3MNB17Z1o02DBx3PUzq7QP5659WUlgRAMPsVxgYvbR0t+luaF/mMNiG1wdmUwMuV++mSXN3LS6SiB0RSsnmjqk6/WOZnbOAyI0Z5Lx/7t8JeGtfJSdz07nPST9bVxgYNi81nzvx/jCWkUNew9X5LcTQiSzOuplPl2Tx2hfnuyMiInK5UUi/pLkoWrGSUauzyF4bQfGfN7Fj30GMa37A+EmTGL4zi1m/3YZnexHFtXcyMz2bubaXqOhY3SUhpJr89dvObuQ7OI5ZT6Zz6I/vsJsbmDx/JjGebWS/6fQrZBBxbTSDrgQjvD3R269x4IiwOOh24e5Jbra2UVhQQeLCbFb48tnwQQ1uI5pRd0wguiKXrFedXcsb8cyYP4OESBg7oIZNFUXn5eHRU+ofQmR0+49JhV49kgn3jsbY8yqf9tIo9wXxxSbeqEgkdfoC7ve9yUfuUG6ePItE26es2tEL88ih9+akd8dp3pOm8jcpvXsR9/5yNs0bNrPPFsuEmfcS+d/5bD3D4kkiIiJnQyH9UldXTMa8b5jxwCwmz0hjcoQdmlzs/ngduf9R0T7ibNWQt+hRWPQw07LySDUs3LXl5D+6lLW1Z2rg5Cx3GRu2R5H85FpiwsC9p5wVmU9RXO9XyD6Z7D9nEO83SppauIFUoGbNTGY+17O1y52vZJD6bRrp96fwxEQ7NLtwVn1A0d8OnKSDNZRvc5KYNIiabdUXNqDTvrTg8uWzAfCaDbiq32RZ4WvU9fYvrvrqKFj0y16utFMTW/P+jdB/foCJczKZOsCioXYr+csK2tdIv8ic9j0xKylYmgdz7mXWY3djWA04Pylg2Yulp3+YVERE5CwFORyOtr7uhMjFyOFw9HUX5CLmdDrPXEhERC5bV/R1B0REREREpCuFdJGz1NamL6Hk7OizIyIiZ6KQLnKWDh8+5U9WipyWPjsiInImCukiZ6mxsVEjotJjbW1tNDY29nU3REQkwCmki5wly7Kor6+nublZYV3OqK2tjebmZurr67Gs8/GTXiIicinREowi58CyLPbvD7SfMxUREZGLnUbSRUREREQCjEK6iIiIiEiAUUgXEREREQkwCukiIiIiIgFGIV1EREREJMAopIuIiIiIBBiFdBERERGRAKOQLiIiIiISYBTSRUREREQCjEK6iIiIiEiAUUgXEREREQkwCukiIiIiIgFGIV1EREREJMAopIuIiIiIBBiFdBERERGRAHNlX3dA+o5hGISHhzNgwACCgoIuWLttbW0cPnyYxsZGLMu6YO2KiIiIXCw0kh5QIkj67euUv5XL5Mjz25JhGERFRRESEnJBAzpAUFAQISEhREVFYRjGBW1bRERE5GKgkfTzzLg1izf+fTIRJ+yxqPjdBFJf9XTd/C20XoB+hYeHX/BwfrygoCDCw8PZv39/n/ZDREREJNAopF8IPjdlv89i3Z6uUzs8e44L6LgpWTyFkgvQpQEDBpx6Z3A09+csZ+rBfOZkl2CeTQODknjiuRQGvrqQjD+7zq4fIiIiIpcphfQLooUD/6ea6qrAmX992lF0n8mhFjBNkxN6HBzJ6Gkp3HtbLEPDwPymhq2v5FNQ7sLrX84yMb2AefqI39ej+SIiIiKBSHPSA4Kd5Kd3sGNH518p2befOFfbuCmVdeXlbFgQx9G9w+eSv7mcdfP9tp0zk2bTi7fl+IBtY/i9i1hwdyT73lpF1pPLWF89kHEPL2L6jbauRX1evC1ezDOE9OM5puTy+uZyXs+ZTHTwuZ2FiIiIyMXqsg/pw4YN44UXXmDHjh288MILDBs2rA964aF4yRSmJU9jWnohTt/JS1k788n9k5Pon6UxczgQHE3ygpnc8OU6cl+oPnHU+xyYLSamaXYdHbfFknj7UBrfyydv43Zqd1dSsmYZ6z9sJCTi+CddTcwWE29LT1o1GD5mLNEDDKLHjiVWIV1EREQuU5f9dJfMzExGjBgBwIgRI8jMzGTevHkXvB9WgwsnQHDracK2RfULuawbk8fMh5OpeH8UKXH1rJufT3WvzqTxsv/z7VSaDV03R8cwzG5S+1mNX3hvoOTpJSdWcaSBmortGF97T9x3ShZlL66gmFGwPZ+ywJkdJCIiInJBXfYhvTOgn+p1rwiOJjmvnGS/TZ53M5jweFnPR7+tavJ/t46xz6az4maofyWV/J29n2br3s2n7rhttkFhhNHErqZuBG9fA1sL8nvcrvV5EdkZRT0+TkRERORSctmH9Kqqqi7BvKqqqvcb8bkp+V0GG/Yc29Ta6Dzr6SnW/+ygumEuMde62F199vWcVdsXsC0RERGRy9VlPyc9JyfnaDCvqqoiJyfnPLTSwsF9u6neWX30r2bf8csvdpdB3LwMJl+xjeLtg7jzV6mMsfdqZ0/J29RAM2GERRz3kKjNhu3kh4iIiIjIWbjsQ/revXuZN28eo0aNYt68eezdu7evu3RaRvzDZN03iPLVS8helk/1300mY348FySnf1VLjTuU4XGxfqE8lNEPL2d56mhCe6EJ43vJZOTmkjElphdXqxERERG5uFz2IT1Q2COjcQx14Li6HwZg/7v219GRfvF7QDwPL0pm8PY8Vr7rhrpCVvxpN0OmZJA6+gLEdO8uNm3aRehtKSyYNJrh18cybuYjpPzQy8ebPz27Hz3qwiBhTjrJCQkk/yqFBKV0ERERuUxd9nPSA0Kwg+RlG0j93rFNjl9vYAxARS4TUotwYxD/UAbJkdU88+tiOn/Ds6ZgJUW35zFjUSqlc3OpONtZNN3k2vgH/nBFCrPveIjF0w1M1y625uVQ8FlPVnE5FYtd28px3TIWysvZdYqlKEVEREQudUEOh6OtrzshF57D4ejrLhzldDr7ugsiIiIiAUXTXUREREREAoxC+mWqrS0wvkAJlH6IiIiIBBKF9MvU4cOH+7oLQOD0Q0RERCSQKKRfphobG/t8FLutrY3GxsY+7YOIiIhIIFJIv0xZlkV9fT3Nzc0XPKy3tbXR3NxMfX09lqXfMBURERE5npZgvIxZlsX+/fv7uhsiIiIichyNpIuIiIiIBBiFdBERERGRAKOQLiIiIiISYBTSRUREREQCjEK6iIiIiEiAUUgXEREREQkwCukiIiIiIgFGIV1EREREJMAopIuIiIiIBBiFdBERERGRAKOQLiIiIiISYBTSRUREREQCjEK6iIiIiEiAUUgXEREREQkwCukiIiIiIgFGIV1EREREJMAopIuIiIiIBBiFdBERERGRAKOQLiIiIiISYK7s6w6IiJyOYRiEh4czYMAAgoKCLli7bW1tHD58mMbGRizLumDtioiIgEbSJRAMGENGUTmleTNwBJ97dY77VrJp8+tkJdjPvbJLxMV6TQzDICoqipCQkAsa0AGCgoIICQkhKioKwzAuaNsiIiIaSb+UBceRvj6fGUM7XvssPPud7PywmPxni6hu6svO+bOAVixfL9X2LfBt79TVVwx7BPZgD+6m3hnBvVivSXh4+AUP58cLCgoiPDyc/fv392k/RETk8hLkcDja+roTcp50hPRJX64g/YUKWq+0E3VTIjPnJHPDl3nMnbeWml4KxtKLjCRyN2UTUTCNlD86+7o3fWro0KEnCek2Rv9yNY/c+Ck5C/Ixpy8n+3Ynq37xB7a2dLPi4OHMXpZNkmsVP1/uZOKTy7nfW8AvntzIye5d29raqKurO7eTERER6QGNpF8ODtez+/MaLKBmZwXVPgdvLJrE5JHryK3QXNvuMTAiornhhjjG/iSK3avzKAuYbyL6yvm/JqcaRTdNC1qaMY94MVuaocXE7LzhtI3koVWZJEZ0vPZ6aWqo4dN3Csh/tw5vew0cagGzxQu+JkwveFuaMXvYDxERkfNFIf0y5NnnwkMcgyP9NhoOEh5KJ/WueKLt4KkrZ8Oqpazd7u7Yn0D2G2lQWIL9ZzOJ7+fkndUrqBmTQeptgzm4PZ/HHi1sH5mPHEPqohQS4hxEh9nB42L3lkJylxdR4/FvM4Hst3JJCut47asg9x9TKfIvg0HCbzfxmyvyyPpbDLMmjSPmKjs0VlOUm0Fe+bHCjgfWseHBmKOvXa+kMm1ZBV1uQ4w4Ml7Jw1H8KKVXzyL51hiiw/rhqSlmeVYuJfV+RYcm8XB6ChNudhAxAMDCXefigKeOg9fASYdcTyM6IZW0OZOJvz4COx7cX9aw9Y188l6pwO3j6Aj60Wnj8zewY357u9uWTCDtzc5zNYhftIG8+6KhqYSMSXkY87NIvSuOaLtB9epjI/DduiZD57KuMJGKxS/BXbP4yU0OhvTz4CzL4ze/LcbpV7gn18T43gxWLnuYGE8xT83Ppczds+t1al4Omc14Ww5hAmazhbfFe1zA9lL3lxxWbm6E/uHEJMxm1pw0musWUlAL+EzMFi+WaQIWpunFajlVRBcREbnw9OBoHxs2bBgvvPACO3bs4IUXXmDYsGHnvU371UOw+77hQEPnlggSfr2c3CkRVBdkkZb2KPk1Q0nJyWXG9X4HBkeT8NNoPl6Wxoq/RTH58WwS9+WTsXgT1ujJ3HlTx8N1TW72Vm0i/7cZpD6UStbqD7DGZLB0fjxdHr+zylk+ZwrTkqcx87nq0/c5IZ307zvJnz+JxKS5rHPHMfdfZhLj96Cp85U0piRPY9r9WZQ0nLouMIifm8G4Ay+x8GeJJNy3gprrklk4x69/9jFkLH+CCVduImv2BCYkp1G4sxW+LOQ38zIo/PzM17mL6+eyJHsmQ535ZM2fycz5WSzf5GLITTEM7jwHq4ynZk5hSnIu2w5DzUupTJk8hSmTJ5FV4n/nYlHxXApTflWMK+Qaxj+6lNSYGl7MzKWkwcLyHOj5NQmOIXnRNHj7N8yaMJZJSyoYmJRG6u1+D5r28JrYR44jPtLAfv0Yxn63dx+8bG6xjo6em4dNME3MI13LWGYDLpcL155dlG54H+eRMIYMsXXsNfG2QLN5CC/gbTExFdJFRCSAaCS9j2VmZjJixAgARowYQWZmJvPmzTtPrRlEj04mbXY8rTufobiyY4h0+DRSkoZQ8e/zyX7VBUBFpZvB319LcnI8Rb/rHHm1qC5aSuEWDzEjD2Bdt428Z0uotg/CzQQGh3c0Y9VQ8qeaY81WVdMaN4GVI8bhCK7wmwdv4d7nwg3YG88w7earYnIXF9I+O6eG8k9cpN7nYGgwx+rzuHF53GBEcPAMD0m6t6wka802PAD7Svm4LoMx1zqwU9Hen5/cx53XOFm3aC0VdQDbeObFUib8fg7JI9/p8TQhwzEMR/A3bHq7mG1V7cfWVG2jpEspC0+9C49xkNZvofWgG1e96+QVetx847HAiCNpZDFpc1awrTmem75txXO4tUu57l0Ti4oXMljxXsdwd/kWaq0koq6LAtrfy55eE/fb+eTFWNzQ9DaFlb07raqx7lO2B7vaR89dO9le6aLpVM9XBIcxfPxoHOYuXtrtPbp532db+LShCfCy7/PtfOxtwHuKKkRERC40hfQ+1hnQT/W6N9jvyKV8PBAMWG5q3nuG9OWFR8NtRHwcMcG7WbHFLxD6nPx1p4eZw+MYElxB556jK7D42v9aO/9NR/3tNRJ3XwopPx1DzLVDsF8JGAZ8ZdAv2K98TzR72qeEdPaj1TquzZ5p8Xg4FmUtDplA6LHR3qioCAyrnr1+01+s/W4OMIRo/2lC3WRVbmHb/iSSn1zL4JJ3eL/sA8qqXJxzdPVZVL9VyLYmgApykyeA72xqbaXV4zda77OwWsHw+y9Ej69JUwVrF1ecRV/OzFv9Gqs6v3zZvZFVu48vYWP4fcsp/Blgs2FrcVG65llKj0658VK78VlqO1653s+n4Lz0VERE5OwopPexqqqqLsG8qqqq19vwbFlB+gs13PRgLumOreQvL+yy/OJgux2CY3h4fSkpfsf162fH+HIQEcApxnNPKuaBleTNGUjZqmxS3qjAddhgzONvsDK+l04I4NvWM5fpthPrOnDAg2VEEX0VUNe+zbgqgsF8Q/Vpp9KcgruErLlfsWPGNCaMmcUT/5TOE/u2UbQqlxVlPbm6x/uGmp3Hjj+fP7rT69fkvPJS907HnPQrwrk2NpF7H8gms38WOe8HXGdFREROoDnpfSwnJ+doMK+qqiInJ6f3Gzlcz+7PKyhclkeFfTJpCxLw/0mbA55W8FWzLi2FlLnH/mbOmMaUX+Wzuycj38ExJN4eAzteZOkrFbgO9/bJXBjuDzZQ5o5h2sPJxIQBEfGkzE7EXltybJpQjyutpnhVFqn3TyDhnjTWfX0TM57MIjmqV7t+3pyXa3IeWQcbcH3hwlW3i+0b8yjYbBF7ZyJDe+EHs0RERM43jaT3sb17957HOejH2VdE7ppE8hekkbbl/2fv/qOiuu79/z8NmYOK4wcWShLH3MuYFmxrqKZjbJVkFcwnGBs10ZKYqnwaiY3EXMHWYPmEq0szvSTE1h8rBmMd0xKpBmoimh+QRshSISITIUgah14dbupgROcDX8aDeKYD3z8GdFBUUJBR34+1WIuZOWfvfQ6T+Dp73mePFXOxt7zBWWHFTjyjw5vI2n2dS3AEBHpLWrQWn/npQPRDbrJvbHQWY8m2MnFRElm7Ugj8lwtHZR7pK7J6ZW157Xgplt1W5pqiiDQqUOcbcjU0DwQGXn8/vaqn5yTYxJzFT/FD1x6y1hdi94M1+XUBCjfZO1EIIcRtSkL6bcb+7lq2PrKFpJRkSirM3nWtv87FsmcG5iXrMIe+w0fVTgiLInbqaOreSmfL4R7MkmpHOHjYyZyfPkXiQzXs+qeeMU8ms2RSIPzLQOQwqDpf06wQOtLA0DtBCfFGJ/09RoyhGk1OB07XZXvpkhJsYHiwghIQytA7gcGhGMKNaP9q4tRxZ8/qv5WJzHnWxOliM2s/cXi/sbPZie30VffsqjFMi7eQPvYIu94voqr2DNx1P08kTEJpLKH8yEUj02r40qYR80gi8X/fib01lMhRUPoXn6CrD2W4XgEGouiHExrahMvpuuQY+/OchE5NJGWaCYigqbQYc9mNnW1XgsIwGHQQoCPsu5OZ9XAI9XsP+cXFghBCCHE1EtJvNx4bW1/fSuzm+SQvLsG6qhgXTgpXJsGiFBJnLycuWEFrtFP1WR4FdT0NVhql69PJGpLK3Fdzme9xYivJZdVzW4n+bTLRDxnIe7e9hlo/A/NfUzH5lB8k5eSSBNg2z2XuW7Yue+iaQtRzG7xrh3eYZiZ3GuAqJn1KKoU9ORTtMEUfWTH9PJ11U32ed1aR81oqa3u06LdG1S4LhXfNZfri10kKVtBcTuxV+ZhXZlF4SVMO8l5dhfHlJJJejSPQ48RhK+L0nkLsdd5jNT1vOX+shoydzDhbTHpcKoWdyov695y4KvZjdUYR2VhKyX/f6HIYHeFPLmfNkwBuVKeDmuIssrZVywouQgghbgoDjEZjW38PQgj/p6APNxG/dDlJkVWkz0ylsIcz/beevj8nRqOxdxu8Dna7vb+HIIQQ4jYiN44KcQmFiYuyyHre98uXNFy1peR9akPThzJMf4Xdb0lyToQQQogbScpdhLiEhvNfeqKeTiLlpIUCm5Nz6An9znie/j8m+LsF68n+HuON1j/npK2tjQEDBvR+w9cwDiGEEOJGknIXIboyKJIZv05hzkNRGEIVFI+G66Qd28GPsWzMwXqdi+DclPrhnNx1110MHjy49xvuoebmZk6evO2uzIQQQvQjCelCCL+lKAojRozo19n0trY26urq+vSLooQQQoiLSU26EMJvaZpGXV0dzc3NN7zkpK2tjebmZgnoQggh+oXUpAsh/JqmaVJqIoQQ4rYjM+lCCCGEEEL4GQnpQgghhBBC+BkJ6UIIIYQQQvgZCelCCCGEEEL4GQnpQgghhBBC+BkJ6UIIIYQQQvgZCelCCCGEEEL4GQnpQgghhBBC+BkJ6UIIIYQQQvgZCelCCCGEEEL4GQnpQgghhBBC+BkJ6UIIIYQQQvgZCelCCCGEEEL4GQnpQgghhBBC+BkJ6UIIIYQQQviZO/t7AEKIW4uiKISEhDBo0CAGDBjQ38MRN7G2tjbOnj1LQ0MDmqb193CEEOKGkpl0ccsxPr2Ogr07SY/R9/dQ+oTyiJmi8nLKO36y52MMuGQrTEt3XtimvJydS00ofT02RWHEiBEMHjxYArq4bgMGDGDw4MGMGDECRenrd68QQvgXmUm/lQVEkbLdwpzw9sceDddJO4c/z8eyMY+qxv4cXN/R/gX8q79H0Xe0kjXMe9KCcieYFltIHdblVlRtXsQTf1VQAiJIXG9mzA0YW0hIiIRz0esGDBhASEgIJ0+e7O+hCCHEDSMz6bcB1761JCbMZe6CZF55t4ohk1PJ+sN8Ii+Zfb01OHYkMyX2CczFrv4eSt8468Rx3I691sHpc5ffTGt04Ki1Y/+nk6YbdNEyaNCgG9PRLUA36Te8vS2TmYZ+HsjACBIy32ZNwhh0vs/fPRPztlzMjwfDwFjScnJZ80x4j5rWxaSRs20Ns+8D3YOLeXvbJhaO03Xe5r6ZmDe/QeK4oCu2Je8tIcTtRmbSbwdn6zjytQ0NsB22UuUxsmvpdGaM20qmVeo8Re+5FWbR+UR/pwAAIABJREFUI+auIUFdTfr7jj5tw11bxPZtQdj79RMtHRFPPkecbj8ZudW4fV9yqWi4cZ9VwaOhaaCqzedfDn7czKaEiPOP3U31OI7sZ1v2dirq259sUdFQ0VQgSEVFpVnt1Avuo7vZ/MmP+V3CbMq+tlDd0vVIb4X3lhBC9ITMpN+GXMcduBjOsDCfJxUjMYvXkVtQQklJCQU5mcyfENrF3grGqSms215AyYFyyvcWsHVtKjO+d6H+W//EOsoPZBEf7LOXKZWdB3aSOuFCXemF2uqdpJr0RD6RjiW/hPLyckrWzvCpnw7F9EszlvwiSg6UU7K3gNwsM/NjDJ1qrI3Pbb1qDXboE+soObCVpIjOzysPpVNwYCepJp89un1OukkxEPN8Jls/bD+Oglyyls/B5NOk3jQHc1YuBX8rofxACUX5W8n8pYnr6LX7BplIyS6i5G8Wkky3a/1vEMbwsKtv1httOCoo3LWfGvU6u7sewQ8xa/JwqnftuDQce1TUFg1vLldRW9yoaufBupvK2Lh0CUuWpLJyUxEN4TNZnBDN+TlxVUNt1VBd4FZV3K0qZy45Xje1H+6gbGAsMx+53nMvhBC3DplJ72ejRo0iLS2NsWPHUllZSUZGBseOHevTPvV3D0fvOcXpjtkuQon57Royf3qG/M3pZNacwzg1hZSMTM4tSCTn6IV9DU+8TtZvTTQVvsmqNTZc/yuS6CmxTPr+MPK/7ll5ibb3NeKfLGfZ26kYpy7jtXF6CjckUzR1HYlnm85vF/rEcjIX/jvWja+Q/EUd2uBw7n9oKg9+/x62Fl+YqbS/m8wTnw69Yg2287MirIvTmRRjJKvG3v6sgikmmtB/FlBQ1fHJQvfPSfeEEvPbDWTGQWn2a7xZ6SJw5IM89rMHiQrLw+r09uv6to4vP7Ow509OnB6Fe370NEkLMllWN4PUT/q4fOfe8UyM0KMERDHpR0ayrLbeaXdgLGmWmajvFqH7SSzG0CCUpmp2bVrPBzUds6pBRDyeyHM/G4dhqILWYKfiw2wsH9fgzXQ6Ip5dwwrDblJ3BZHw7DTGGILQOYvIWLyR6p/8hk2PquxvGUN0uJv9ObvRPTqbCXer7F+fjqVCRfejhWz4dQjbEzMoavG2OS5pA0uDt/PLjCLcumh+s2kxE4KAqDXkPuMdWfXbv2LVx+3T3ToDsfOTmDneSFgQqN9WU7g1i+1fdLx+9TZ0MWn8KWmct7TEU8v2pam8d9GEe/CPZpP0TCxj7gmCsw3YDryH5c9FONwd53Ma9X/eQ1DMZCJCgwlqqWH3W+t576uOBBzEmCcXkvDYA4TrdbhdtRz6OJuN71fjm5HDoqMZ01rB+s+7mM73qKgtKqhAq0pzi0ZQ80WfvLWqNJxweMflcLA7Kpa0iJEMDwDVA261GbemonrwBnaPN7BfQj1E0cEG0ibFYvh4Ow5P128lIYS4nUhI72cdAR1g7NixpKWlsWDBgj7qTcEwIZ7kBBPnDr9JfkX7P7gRT5EYNxzrHxZh3uFNC9YKJ8O+v4X4eBN5r1rRABQTzz47EeVAJktW5NG+JaWf5FzbcDQXzvomNBRMceHkLJpPViXExZyj6UxHsbWC8Tv/jt5Vw54dxVhdADaqygq5pFeXE4fLCUro5WuwG4v4yJrM8kkxGDfbsXu8xxU7IRR7YRHnM3p3z0l3fe8pEqcOx7Z5Lsmb2y8Oykop3nHRdseLyXv3wsOqCiffi9nKlB/fj/JJac/67KmaXWS9Y+CJEQ7efb+XAvp5YUyIDmH1f71IhSuYCUlmFj83i+q07dR6IHjSQpY+EULRhmW8XNFAyIMJLH1xKfPql7DxCxVw4/jGAT+ZTNJcDfv7GaQeaYTB0OgGPIBxDKxexu9/9Bppz8ayI30JlllvkDBpDNkVZVcfons/61+s55mVKxhz4GVWfuDwnm/3hfKMsLhEEsdrbMv8FYXfBDHmmTSWPjcbW9VGKtzda8O9dzW//ByU8Gcw/2cXl5KGx1n6Yhx8/HsWvV+N+9/iWLw0kaUtx0ndWtNekhJGdMxINq5ZwnpnGLFLzCQ+E8P+FR9Q7wHd6Nkk/iyEfasX8fIRlaDR01j86wRmfZVKdk1HR0GM+UEkWk0Wh7oqMWmtp+ZgBTjd4Gnk2BdlnDzh7mJDL51hAtE/CKH+i0MXQnajjYoDJznuBhrtVB8Ex9kuTz62qmrURyIYFwwO52W7EUKI24aE9H7WEdAv97g36B/NpGQyEABoTmyfvknKmhxs7f+QhpqiiAw4wtp9PtN5HjtfHnYxNyKK4QFW7z+6kdFE3aVhyy7g2qt1u6aV5/FOpTeCFq6YQjFaeyDVqNpXiv3JeJb9cR0/LPiIos9KsdZe66yyi9JPrZxbMYmYe7dgrwVlXDSmYDuFBVXnt+r2Oekmg8lEJHayPrVfeUN9JDOeS2T6w1EYQ/UEAgyCc0cDe3KQ18hB8YZ0ivuodfvnu6loBGjkUHEFDf93DA8Mh9pvg3jg4QegfDU7KupxA/UHt1PwVTTzosdg+aIMN6C5VNTgMWjvL8Gyt75T2zoAzY7ta5Xj9zZ6A+EJFU41EhQehALdusBxt3jfd5rHjdpyaSCt//T3LPkc6p0qoFL9eTUNjxgxhkLFt91rA48btwfc7q5HZPjJwxjV/WS8X+29ADlayLa9U/jdTx7C+G4NHRnbvnc7ZfUA9ZRV2El8eiSGO6DeA4QEEYyK2qjixk3jkfdY9av3OncUMJyRw+HUweN0Gb09DoretnQcOfu3brxkE11wLEstD3l/HwiNVTtY/X7NhfacZWS/1dFeBdvfqOjymAHc/zxOPWO4y6DzXhgIIcRtTkJ6P6usrOwUzCsrK3u9D9e+taT80cb9z2eSYtyPZU1Op+UXh+n1EBDJC9uLSPTZLzBQj/LPoYQCDkAJHsLQgHPU/H9XWFLkGtm/PsL5yTNN6xSotLJMEp/7krnxU5n05HLiF4GzMp81r66l8GjP55Zdn+/B2rycST81suVPDqIemsjw2kKKfEpYuntOuis0RA84cV1phjDAQPwrWaR+9zBZ/5VEygE7LiJJytlKfI+O0B+pNHzbcP6R29lAI+MICdXBKQMjQ3UEj0sjZ/JFu301nCCgEcCjgdvOoYP1dEltL6twa94bFlvxzrB3XrPk+gRFEJ0wi9iIMJQA4I4ggu9weC+Ae4WOkXcHw6n22ed2jm/rITiYsAC8Id2j0ei8ULiitQJ3KOfvwXBXFFFY9xsSf7+JKUerqa6qYF/xPmp8w+8dIQwOgjPN137nqrupDIt5O7ZWHUGho3jgZ7NJWzGE3y/PvuwNoJfV1IxKEMG35tcbCCFEj0lI72cZGRmX1KT3urN1HPnaStXqLKKzU0leXIJ1VTEdc9GnXefAU8XWZDMFF01Qa9ppTnXMGLs0WjyB6IcE0r15yd7j+rqQrFWFZKEQaopn2X+msHyVi9qErPOfCHS/sWI+PrgM88MxGP5iJXbScOwfFnRqp9vnpLtdNrkABf3/Ai73IcBdP2XKj/XYNq9lS0n7jPsttExmp7nRjuPygPe95MaxayVLttZcvFtnHpXmK9xo6b7o916M50AQ0c8uZtbd+1m/ciVl37ohIoE1K27ECvQXu8pMc0s125f/iqLRE3jQNIYHfjyPFVOi2WZexQe1F217PfXfrSoNjvaa9G9qqbHriNgwm7gHt1G9V2bDhRDiesjqLv3s2LFjLFiwgPHjx7NgwYK+vWn0eB6Zm60MnZpMss+3cTorrNgxMjq8CXutvdOPo851Po5rtnKqGxXunxh7xdVGztEe4X0D5iCFgb1yEBpOax47DzpR7jUSfk2LkGiUfFqKK3IScT+dginsCEUXlaF095x0l6PShoPRTIoxXn6jO7wlLeeaL9w0ixJK6JWWh27t5gC6tV0oE583s+53SUzs9UU2gggbHnL+kS4sjDAaOfn/3OA5xfFTEHbvSIJ997jbQFBvXqS0AujQnX8jKoQM7XptbqWrfnVGIv9NwXFwjzegA8H3Ggi7zP9Fu2zjqtwc/7YRho9kpM8VhsEQBs5T1Hc79+oICoL6I/v5YOtGVi1LZ8epSCb/JPzCJq0NNKswRB982VZ6rBVAQQm4hv8whw4mCJXGW/TrDYQQoqckpN9m7O+uZevfhzMjJZmYjn+bv87Fskdj4pJ1mH8Zx0STiYlT55P+Ribz7/f5x/ZsMZYcK8Qks27lfOIemkjMtDmkZFrI/IVP+Ky148DI+IkGFBRCTXMw//oxQi8OLYqe0LChKIAyWI8hLBT9xf+2B0QyJ2snWzOSiI8xEXW/iZhZKST+NBTtqy+p8UnLSrABQ7gR472hDL0TGByKIdyIYWToJUsxagf2sN81mqcWxWL4exGFtRdt0N1z0k1aZQ5v73URteA1Mp+fQcykGOKeTsL8x3UkdbR3wsrhWhg9PZG4CAOG78WQlJFK7DAIvMeI4ZJuNWr/YUcLjyV+2kRME2KY8WgUl1QLaHZsdhfDJz3BjIdMmB6KI66rpSQjniLl2TgmPjqfF56M7PExXo0xeibRBh0MDCf20QcI+uYQFU4AlbK9ZahjZpIQYyAoQEfYuNn8ZpWZxQ/3XoB0nzhOPSMZE+VtM+gH04i+76KNPM2caYbh3x1HxN1hhP1bBGNGh3ln5FsbaGiC4cZRhAVAUHgss38Shspghuh13WsD0A3UoRuoI0jn/YMquiDvc+0bOD7fiy1oAjOfHENwAARFPM4zD4fhKNlLTTdnvQ0//x2bViYwLszbaJAhEqNeo/5bn9KW9ouj4YaR1/6Jwx1BhNxjwGAwED56AjN/NY1IrZpDX/V8XUndvSMJo57jDpmBF0IIkHKX24/HxtbXtxK7eb5P2YuTwpVJsCiFxNnLiQtW0BrtVH2WR0Fd5zlj+zuppDQnkzR7Lsvj9NDsxF5ZRF7F6fPbaJXvsPYvkaQuyaV4iYtTtVby1lvQm6d3akt5eBl5GXHeUPmLLHb+wkl+ynTMJT59emwU/CkP4y9nkLhyPqGDNDSng6p9a0nekONdncXbGlHPbSDraZ+vb5xmJnca4ComfUoqhb6HcraEolIXM6bpsb77WRf15d0/J93jIH9FEi0LU0h8MpXM5xQ0p52qfXns7GjPU8WbKzMZlpbI8ux4aLRj/WgdSdtGk/J/JzElfAtZF1WD2N/NZK3xP0l8aR3xuHBUbMW+p4qqTmHOSf7614h8OYmU1+NQNCe291dRXHbRajH/LKe4Jh7DPXZKvrjKDa495Wnk0MF6JizZQNI9QWgnDpGdtfv8zbfq5xZWByeSMMvMpucUtAYH1Z/8HktxL37Tz7fFbP/gARY+u4ZNTzXSeHQfBZ/XE2nQodBRQFLP/g8K+fGzz2Ben+D9gp4D77DySD1uj4PCHbsZ86tE1rw1m/q6MnZszqL+V2nMWrqCMxnpvHf0Km0ExZG2OZExPhesMzPfZiZAlYVnzYWojg9Y/8YQkp75DRueVECtp/qz9ax+v7bbh+r44E2yhz9H4n/9iZBBeNvYuxHLXt/zqVJdZUOZPoYxA/dT0dMackA3dAILV0/wPnCr1B+tYNtqC4WXuW3gCi0RGTWGoG/2U92vX+4khBD+Y4DRaGzr70EIIW4NRmMX5TwDY0nbNBv1jUWsPyizpH4lOJbfrJ4HOUv4fW9eEPVU0AQWr15M8IdLWPXB5RO+3d7LF49CCOHHpNxFCCFuV4372PHJKR6YPosxvXPTyDXQEf6zWUxwF/Hepz2eghdCiFuWhHQhRK9pa5MP5m4ubmp3babQHU3iz8f08mo43aO7bxrPPTqYfX/efsVlG+W9JYS43Ui5ixCi19x1110MHjy4v4chbkHNzc2cPHmyv4chhBA3jMykCyF6TUNDg8x4il7X1tZGQ0PD1TcUQohbiIR0IUSv0TSNuro6mpubJayL69bW1kZzczN1dXVo2o39AjUhhOhvsgSjEKJXaZomZQlCCCHEdZKZdCGEEEIIIfyMhHQhhBBCCCH8jIR0IYQQQggh/IyEdCGEEEIIIfyMhHQhhBBCCCH8jIR0IYQQQggh/IyEdCGEEEIIIfyMhHQhhBBCCCH8jIR0IYQQQggh/IyEdCGEEEIIIfyMhHQhhBBCCCH8jIR0IYQQQggh/IyEdCGEEEIIIfyMhHQhhBBCCCH8jIR0IYQQQggh/IyEdCGEEEIIIfyMhHQhhBBCCCH8jIR0IYQQQggh/IyEdCGEEEIIIfzMnf09ACGE/1AUhZCQEAYNGsSAAQP6ezjd1tbWxtmzZ2loaEDTtP4ejhBCCHHdJKQLIQBvQB8xYsRNFc47DBgwgMGDBzNo0CDq6uokqAshhLjpSUgXfUeJwfxhJnHB7Y/PunDW2bAWvMOad0pxevp1dOIiISEhN2VA9zVgwABCQkI4efJkfw9FCCGEuC5Sky76nOMjM4nzE0n8dTpZ+zTGLHiddQujUPp7YKKTQYMGXeaVYOJW5JKb2/6zbTmPB/u8fPdMzNtyMT8eDANjScvJZc0z4T3qWxeTRs62Ncy+D3QPLubtbZtYOE7ns8E4Fm7yGcOaBCICenocQgghxM1DZtJFn9Ma7Rw5XIUGVFkPw3cLSH8oltEbq6iS2XS/ceVZdDf1n2Sw5M82aHXj9v27uVQ03LjPquDR0DRQ1ebzLwc/bmZTQsSFlprqcRzZz7bs7VTUtz/ZoqKhoqlAkIqKSrPq9um+go1JT2G5Q0fIYytYE3OtxyGEEELcHCSkixuvFfCc41zH4wAjcUtSmDcpkhFhoeg9TuxVRVhWr6WwtnNtsXJfHCn/kUjsA0ZCFQ3XSTuH9+Vh2ZxPVaPPhmETmb/kBaZPMDI80IWjvICs1WspPn6NYw41MX9xEtMfGo1hMLhOHKH0QwtZ2aU4NACFyFmppMw0EXnvcPQKOGut5L+VSVaxo3Nb+ijilyQR/1AURr2C5nJwxFpI7tsWCmt8jlcxErMwhaSpJgx6cNWWkLv+NbaUOS8ZnvK9Oaxb/QKRrnxeWZRJ8aWb9A63G/fFz3lU1BYNdzOAitriRlHVzrs1lWFZtR2bR0eQ4QFmJcxmccJxXly9HxVA1VBbNVQXuINU3K0qZ9SL+wG3x43W2kfHJoQQQvgRCem3uVGjRpGWlsbYsWOprKwkIyODY8eO9U1nih7jw0nEj3VRuqEAW8dsrMfBCdtB8irfxXH6DAyLZEpCEst/56I2IevCdoqJF1abmeLKY12amSNNCqHh45k6eTzGIT4hfZCJlPWvEx9YguXVtVSpBmITkzGvhqSEtVT19J7CQSZSNqxjjr6KnPUvsf9EIIaxk5n+owe5592OkK5x+vhh9m8v4Z0TTrTAe4icmsgLK9Np+kcSOecvDvTELM0kdYKdLWuSMds1lLsjiX40mh/+m57Cmo50HUrMb9eQ+dMz5G9OJ7PmHMapKaRkZHJuQSI5RzsPUT8uGlOYAmETmfQdhWLnDbxx0qOitqigAq0qzS0aQc0X9d+q0nDCgcMNOBzsjoolLWIkwwNA9YBbbcatqagevIHd4w3sQgghxO1KQvptriOgA4wdO5a0tDQWLFjQq30Yf2Gh5BftDzxOrJvTWbXD7rOFRtXuHKrOP66iSonmseUmTHeBra796cFGIsOgriCP/JL2/Q9bKd3dub/Q6YnE32vHkpDKlqMAVqz/MwTjXxKZ+1MLqZ/0LP0ZnkwkPtxB3ovJrLV6w6e1rJj8i7ZzluWT43MMVvswYie/wIPjFHKOt4fWgGEYjaFodgu5H1lxAnxdhbU4r3NjEU+RGDcc6x8WYd7hnYm3VjgZ9v0txMebyHvVim8Mdn5kIStSY3TjR+RU3OCVTVrrqTlYAU43eBo59kUZJ09cMt9+ns4wgegfhFD/xSEcHRdgjTYqDpzkuBtotFN9EBxnb8johRBCCL8kIf021xHQL/e4Nzg+MWPOs6PdOYR7IqJ56tl1WO7LZFF6/vmQZpg0n2fnTsH0nWEMDwyEAAUFG4G+d5e6rBSVu0hNyMIyIp+Cz4ooKrHRedJYwfSjKJR/5lFS6/P0CStVdS8Q9wMjyidVdD/G6jGZolBO5FN0lSl4JTyGxOfnEhNlxKAP9D4XoFAaEAgdPXoclOytIvH5FCxvRLLr0yJKPivF1ti5rVBTFJEBR1i7z6dUxmPny8Mu5kZEMTzAeiHgAjRa2bLC2u2j6lUeB0VvW9of1LN/68ZLNtEFx7LU8pD394HQWLWD1e/XXCidcZaR/VZHexVsf6Oir0cthBBC+DUJ6be5ysrKTsG8srKy1/vQTtupquy4cbQUq8tA3stJPPvjjzGXaCgTUlmTOQPto1UsSy/G5tRQpmZSvHxE54Y8dvJS5+H4+RyeiIkhyTyf1GY7xe9m8trm9llp9AzVKxAez5a/Tb9Q904ggYMVXH8f0sPRD2VIsAKu01deMjI4huUbMplYl8Mri1MoOepCC51D1ocpF58NbJuTmHt0LvHTJjF98TqSXnJi+9RC5uo8qton+Yfp9RAQyQvbi0j02TswUI/yz6GEAhdVuvs1d1MZFvN2bK06gkJH8cDPZpO2Ygi/X55NdUt/j04IIYTwPxLSb3MZGRmX1KT3NWetndNMxHC3d7bZFBeLsbmY1D8UYrtaiYPmoPQvmZT+BdAbiXv+FZY/n8myb2a0l7G4aHJpUJvPS7/N40TnndEaT/VgFh2giTNNGhiGor/CVsrEx4gJdZD/8psUH71aDxr24i1kFm+BAD2R05bxykuprDpr56n2MpbTrnPgqWJrspmCi6pzNO00p262VXFaVRoc7TXp39RSY9cRsWE2cQ9uo3rv5UtjhBBCiNuVhPTb3LFjx3q9Bv1q9PeOYFiAk6p67zx3YIACWgvnfILn8OArReJ2LjuF2R/z1M9TCP/uCPjEBmhUV1ahTYrEiJ3S2usdrYuqyiNoP55I7PffpOpw1wE8UPGWtLjO+bwe6g32V1xoxePCtvsdimfHMf/fI9Hj/UTAWWHFTjyjw5vI2t2NpVqCTcxZ/BQ/dO0ha30hdn8P8a0ACkqAApeuFyOEEELc9iSkiz6nDIskyqRAoB7DqElMT4gh8HAWeWXeQFtlteKKi+bpp02c2OMk9CdzSEmIggAXo76jh1rvVLI+Jh3LYgPW93ay//AJzgTeg2lWPKNx8HHlhRtRHbst5D+5jhfWZDJ0y07KT0Do96KZ+iONd/9zLaU9XDXEvtPCxzNeJ968DrJzOVivYIgcT+yPNN5Jy6S0EVyVBzmipRA3dwYlWVZc//5TklLiMXpAMUai0H6j54gZZG6YQ+DePHaW2nCeG4Jx0jxmhGvY9x2+EOi/zsWyZwbmJeswh77DR9VOCIsidupo6t5KZ8tFFwuhUxNJmWYCImgqLcZcdoNvHr2aO4IIuceAwQM6/UgeeHwakVo12V9dvM6iEEIIIUBCurgBDI+mkvUooLlw1tdhKzSTtDkfW3uOdO5+jVeMZpKfXUfuwnM4bKXkpc/nzLT/5NmYieg/LcQFuA7kYbk/kXk/X8aMxXoUzYXjqJW85Vm8WeITSl1WMpNfwpXyAjNeWsd8RcP5zyqsH77D/zR3NcKraCzF/B/pOBcnMiM5kzmK5l0nPd/C/3QE/to8zK8aSX8+FctfwXWiioItSSTpXyB9eixRihWrBtQVsXVrJInxiZifDkVBw3niCNbNL5H1dpVPp04KVybBohQSZy8nLlhBa7RT9VkeBXWXBnBXxX6szigiG0sp+W8/C+iAbugEFq6e4H3gVqk/WsG21RYK66+8nxBCCHG7GmA0Gtv6exBCiP5nNBov80owcSs2MM2RwZLN1f1enBL8uJkNk2tYuTSbmsuU9djt9q5fEEIIIW4Sd/T3AIQQNxGdDl1AP/UdADqdDkX+ryWEEOI2IOUuQggA2traGDBgwGVe1RH26HJyHgU81WQnreKDxsts2hd041i4IY3Y4PbHjprLbtrWJh8OCiGEuPlJuYsQAoC77rqLwYMH9/cwrltzczMnT57s72EIIYQQ10U+OBZCANDQ0HDTz0K3tbXR0NDQ38MQQgghrpuEdCEEAJqmUVdXR3Nz800X1tva2mhubqaurg5N87/VbYQQQoiekpp0IcR5mqZJqYgQQgjhB2QmXQghhBBCCD8jIV0IIYQQQgg/IyFdCCGEEEIIPyMhXQghhBBCCD8jIV0IIYQQQgg/IyFdCCGEEEIIPyMhXQghhBBCCD8jIV0IIYQQQgg/IyFdCCGEEEIIPyMhXQghhBBCCD8jIV0IIYQQQgg/IyFdCCGEEEIIPyMhXQghhBBCCD8jIV0IIYQQQgg/IyFdCCGEEEIIP3Nnfw9AiJuZoiiEhIQwaNAgBgwY0N/DEX6sra2Ns2fP0tDQgKZp/T0cIYQQfk5m0kXvuy+G+c/PIGpQN7cfNJHUvBKKsuZgDOjTkfUqRVEYMWIEgwcPloAurmrAgAEMHjyYESNGoChKfw9HCCGEn5OQfjsIMzHn5SxyC4ooOVBOyd92Ylk5h4lhfdOd/v4nSHp2CpGB3d1DA86hefpmPH0lJCREwrnosQEDBhASEtLfwxBCCOHnJKTf6kbOIPPtLF54EKw5r5Gelk5m9mc4I+N5eqKhv0fnddZKZnwsU17MwX4TBfVBg670UYGOMc+9Qe7mxUzQXWMHAQZmZ+aSmx5H0DU2cV0CIkhYk0vO0mh0AQZmmnPJXfE4wTe6jV6gi0kjZ9saZt8HugcX8/a2TSwcd61/mMu4eybmbbmYHw+GgbGk5eSy5pnwLje98ntHCCGEkJr0W5yB+KXJxFBI+oJ0Cus7ni8k/521/TmwW8KVZ9HdnFHd0KKiXvKaDsPDCSQ+OYHIu4PB5aD602yydlTQ6HuR4lE50wKqqtI/Fczt/be4wdOI6gZ3S/OF47lvNmvMMzF0lCi1qNR/U0HBNgsffKV2r40bpUVFQ0VTgSBID7skAAAgAElEQVQVFZVm1e2zwZX/JsGPm9mUEHF+a3dTPY4j+9mWvZ2Kjv+uXCoabtxnVfBoaBqoanOXw5FPYIQQQlyNzKTfysLjmPHjQKw5WT4B/TJCTcz53VZ2FpVQXlJCQU4mSZNCL7yuxGAu2Il5XhLr8ksoKdhK+jQT8Rm5FJUUsfMPc4i8qJ5cP24+mTkFlBwooSjfQupUI50qcZUYzH8rp7y8/edAFvH6iwemEPO7Iooy4pk4L52svAKK9pZQlJ9F0qSLN1aInJZKVl4BJSXePs1PR3FJk94DJublXIr2FpA1L/IqJ+faNLeouFtUzrR2fj5oXAJpSdEMObKD1SvTWb/LTtjjS1k6PfyiFrxB0t1yPZE2CEPUGMKHXsOuHhW1xY2mqoCGqnb87qO1nqLVS1iyZAmpr1nY7x5DwovzOD9J3Z02bgRVQ23VUF3gVlXcrSpnfIbRnb+Ju6mMjUuXsGRJKis3FdEQPpPFCdEXPuXwqKgtGt5c7j1utT+OVQghxC1BQno/GzVqFH/84x8pLy/nj3/8I6NGjeq1tvVjf4gRB1VWx5U3DDAy59VMXhjjpPDVZBKT08l1RDA3Yx1J3/OJ1QEGYn5m4ODqZNb+fQQzXjYTe9xC6ooCtAkzeOx+322jmPvCD7HnpJP04iry6gzEv/wKiRE+/WolrHn2CZ6Kf4q5b1Vd+VhiUkj5vh3LounExs1nqzOK+f8xt9OFgeGJ11n38hSUMgsvJSfzyvtOxizOxDyti7IeJZJJE43oB4USNTGK0Eu3uG6qqkGLRnOnEp4gJjwaTVhtIes2F1JxpIayD9az7v1DaEF3XVIGoraoqKqKm2sUMJzJCQuZHH4tpR0q7hZoVs/gBtwtKuolFwxumhsdOBwOar/az45PbahDwwgL6kkbl6f7QQJrsnPI6eLnjaRxdPeo3Gozbk1F9eAN7B5vYPfq5t+kVaXhhAOHo5aag7vZXVmPEjaS4R3vQY/32DTVu21zi4bWLKu4CCGEuDZS7tLP0tLSGDt2LABjx44lLS2NBQsW9Erbw4aFouDk9FVm0ZUfz2He/RrF6elkfepNLlVfwYi/ZjJj9iQsK4rbyy00qvJeI2efi8hxp9HuLSVrYyFV+qE4mcIw33vhPA7ylr9E1tfePau+HYbp3RRipkSRVdMRyDWcxx04AX3DVcLMiXwyV+Rg1QBslHzhIOlpI+EBYPMAiok5z06EPamkrC7GBWCt4pwhl9dnTyfyoyzvdh00Kzkb8hj6iMKXfynA2Z0T2kOa4xBlVQ4afJ/UGTHeG0T9wUPU+4yn9v3fs+qSFtyc/LqMCvVqH4P0neNf7eNQfSPg5vjXZRx011/+giEonNifRMLRXVS7rrGNi7hrdpGRtgddV6v+qN1vh0YbFQdOctwNNNqpPgiOs+2vdeNvcvHFk84wgegfhFD/xSEcHfu01lNzsAKc3tKeY1+UcfLENV9eCSGEuM1JSO9nHQH9co9vBOPYKEI9NsrLfJLVWSuH/6ExI/KHGAOKsbU/fX4FFo/351zH7wCdgpST0yd8gveJwxyug/hRRhSqel5j3ezC6ROgtHNa5z7Dx2O6S8P2VgkXjkLDWlEDU0czejDYfA4PNOwfZZL6UU8H0n3urz5g/VcXPRkQTPBQaGxs7FbArP3EQm0fjK173NR8sJGa9keOPRayL97kDgOPr8ghzgO6gTrc35aR/YfCC8G1O21ccQiN1Dsar/0QOjjLyH6r/XdPBdvfqLjwWjf/JrrgWJZaHvL+PhAaq3aw+v2aC/t4HBS9bWl/UM/+rRuvf9xCCCFuWxLS+1llZWWnYF5ZWdlrbZ8+7UTjHoaFAZfNOQp6vQLnztFyzvf5czSp52DQEPS9sna5i3NnQQkagh6uf+b6X50GixISihKgMPG3BRQt9XnhTj1KQBVD9ECnkN5Puryg6W1BxC57g3mjARSUgTpYuoloD+CxsyN9FR9820tdtdZT9MZqdjvc6AaHEfmTWcxOX0FQxkreO3qTzCJ382/ibirDYt6OrVVHUOgoHvjZbNJWDOH3y7OpbunzUQohhLjNSEjvZxkZGedLXiorK8nIyOi1tl2Hv8SOiSiTAWouV5eu4XJpEBjIwEC4MMUdyNCgQDh7BpeH6w+VAXr0etBOn+mTlUq0JieaR6N0QyJryy568V9NnD7ZB51ek0YaG8EYHIYOn3KNAB26O9y4eyXXqpRtXoZtoA4YyZSl8wh6P4MdRwGPSuOp3uijg5tmZy2ObwAc1P6jnqCITKY8Esnuo9XXXkvfTveDRDKXxRLWxftP3b+eRVll191Ht/8mrSoNDgcON/BNLTV2HREbZhP34Daq994kFyRCCCFuGhLS+9mxY8d6rQb9EkcLyT8wl9Snk4gpTKfYd/o6QI8+wIVLA3tVFc550Yw36ckvbp9uHmRi/GgFZ+lB79rlPQ7pCp2+VPFeE1H3gL2gqm8mtI9+SZVzPtGR93D63dJu9KFgnPoCSY8M4cu/rCPHeoOm2d12qu0qcT8YgyGgmtr2WdywyUsxP+pgfVo21b2Q91RnvXeZwwAdbg+ojfU4HDcqSOpA1zsru7trdpCRVnD9NelX7OTqf5PjXe3XCqCgBCjQOyMRQgghzpOQfktzkLd2HeM3pGPeEkr+XwsoP96Ecs8PmTx9OhGH05n3u1JcZXnk1zzG3BQz83XvYP1/ekxPJRMzuArL9tJrm/kOiGLeyhTO/OljjjCaGYvmEukqxbzb7rORQuhIA0PvBCXEm+j19xgxhmo0OR04e5KbtVJysq3ELjGz1mMh9zMbTsXA+EenYLBmkr7D3nl7xcScRXOICYNJg2wUWPP65ObRS6kc+rCQ2vRpvPCrBrbtseO+9yESnomgfte2XgnoN5aOwcEGDAZAF4LxJzOZEt5I9a7rn0UHeq8m/Yqu/jcJBrgjiJB7DBg8oNOP5IHHpxGpVZP9lSyzKIQQovdJSL/V1eaTuuAUc56bx4w5ycwI1UOjgyMHt5L5Z6t3xlmzkbX0JVj6Ak+lZ5GkaDhrSrC89Bpbaq7WQdc0ZzG5ZSOIX7mFyGBwHi1hbdor5Nf5bKSfgfmvqZh8ZkmTcnJJAmyb5zL3LdvFzV6R/d1Ukv6VTMrsRJZP00OzA3vlZ+T9/XQXA7RRUmonNm4ottKqGxTQvdw121m9DuY9PYulK4PA5eDQh7/H8n5t73fmqSV76Yu9326HO8KIXbqGWACPm8ZvbZRt/i+2f35zBdfu/E10QyewcPWE9h1U6o9WsG215erfQSCEEEJcgwFGo7GtvwchxM3IaDT29xDETcxut199IyGEELct+TIjIYQQQggh/IyEdCGuUVubfAglro28d4QQQlyNhHQhrtHZs2evvpEQXZD3jhBCiKuRkC7ENWpoaJAZUdFjbW1tNDQ09PcwhBBC+DkJ6UJcI03TqKuro7m5WcK6uKq2tjaam5upq6tD0/riK72EEELcSmQJRiGug6ZpnDzpN19nKoQQQohbhMykCyGEEEII4WckpAshhBBCCOFnJKQLIYQQQgjhZySkCyGEEEII4WckpAshhBBCCOFnJKQLIYQQQgjhZySkCyGEEEII4WckpAshhBBCCOFnJKQLIYQQQgjhZySkCyGEEEII4WckpAshhBBCCOFnJKQLIYQQQgjhZySkCyGEEEII4WckpAshhBBCCOFnJKQLIYQQQgjhZ+7s7wEI4U8URSEkJIRBgwYxYMCA/h7OeW1tbZw9e5aGhgY0TeuTPvz12MUFN+J9IIQQwj8MMBqNbf09CNEP9PFk/S0VU0D7Y4+VzP+dRJ7rBo5BMRK3KIXEOBPGYHCdtFP01jLMHzlu4CB8hqMojBgxwq8DaltbG3V1db0e0G6GYxcX9NX7QAghhP+QmfS+FBBFynYLc8LbH3s0XCftHP48H8vGPKoa+3FsrnzSf25l6J2gPJLO1ueuvouiD0Uf4MLZ2BvBQCFq4Wssn+oib00y5nqFe+4bDf99qhfavjYhISF+H1IHDBhASEgIJ0+e7NV2b4ZjFxf01ftACCGE/5Ca9BvAtW8tiQlzmbsgmVferWLI5FSy/jCfyICr79t3NJzH7dhr7dQ1dCN0K3GY8wvIfMLQO90ro4mNMXJqTxZvfmSlylpK4btbKKzpv5nBQYMGdfGsjgkvbiI3ayHjdDoiEt4gN/s3RA/s3b51MWnkbFvD7PtA9+Bi3t62iYXjdD0Y5/W5fJvBxK3IJTe3/Wfbch4P9nn57pmYt+VifjwYBsaSlpPLmmfCe3dwN6KPgAgS1uSSszQaXYCBmeZcclc8TvDV9+yBbryXIhJYs+3C+d704gS6fhf0zftACCGE/5CZ9BvhbB1HvrahAbbDVqo8RnYtnc6McVvJtN6uH1cPYYgCWrOGv5yBy80kq6oGLc2orW7UlmZoUVE97S/qxrFwfRqxoe2P3W4a620c+jgbyye1uNufDoqIY97caUy4L4wgTyO1X+wi++0PqG5q36BFRUNFU4EgFRWVZtVNV/pixvvKbbqp/ySDJX+2Qasbt8fnJZeKhhv3WRU8GpoGqtrc/qKO6KV/YvGD7THT40ZtrKfm8x1kb9uPo+Pwgscw8/8kEDvWQJiiUX+0jPe2WCiqdXejj96icqYF1BY3eBpR3eBuaUb13eSK4+zesV7xvQRQk82SudvQ3aHw0K83MfsKI5ZPPoQQ4tYmM+n9wHXcgYvhDAvzeVIxErN4HbkFJZSUlFCQk8n8CaGX7KvcF0fq2lwK9pZTfqCEovytrFs6gyifKT/9E+soP5BFvM9ziimVnQd2kjpB6dlglTgyi8opLzETo4eoRbmUl5dTXl7Cumn6nrXVU6Em5vxuKzuLSihvPydJkzqfE+URM0Xl5ZSX7yTVpCfyiXQs+SWUl5dTsnYGPTzaLrg5ozbjbjmDCqjNGu4Wd+fwhpva91exZMkSlizPYPtXQ5jwbDLPRLS/HBzNwqWJTOAg77yWzqqsAhq++wy/SYrl/FtA1VBbNVQXuFUVd6vKmc6dXJbyvTlkfVhC0fZUYi59y/Qe90UBHcCjorZoeDOzitriRlUvOjtfZXvPzbKVrN9lJywuiaTH2o88wEBc8m+YPbqBos0ZpL9m4aDnAe/5Gtr9Pq6bx9uupqqAhqp2/E73x3m1Y+3WewnwuHG7NbSLz7UQQojbym0/kz5q1CjS0tIYO3YslZWVZGRkcOzYsT7tU3/3cPSeU5yu73gmlJjfriHzp2fI35xOZs05jFNTSMnI5NyCRHKOtm+mmHhhtZkprjzWpZk50qQQGj6eqZPHYxyS3zc17loxr8x9gnXKRFKzUwn9axLL/noCaKHp9DXcZarEYN7lDfyKAvwii5KnAc5hfXUGybvb2wwwMufVTF4IO8zWV9dS8v/0mJ5KJjFjHTw/n6yvvfPv2t7XiH+ynGVvp2KcuozXxukp3JBM0dR1JJ5tutwoeqS5RTs/46meVUFVUVs7b6Op9Tgc9YADx6k9RMfMZvhwHdS4CXt4Cg8MrCZ7XTZFToAabOoQlj4WTNhAqG8Bt9qMW2ufVVU1VI83sHeHflw0pjAFwiYy6TsKxc4b+NmER0VtUUEFWlWaWzSCmi/qv6WZeocDN+BwqEQ+PIHosDB01OO+bzJTRrvZ/8Z63ivxxtWaWtAtfoDg4UBTN/u4biruFmhWz+AG3C3tfXbozjivdqx0770khBBCgIT08wEdYOzYsaSlpbFgwYI+6k3BMCGe5AQT5w6/SX5Fe9CIeIrEuOFY/7AI8w7vyibWCifDvr+F+HgTea9avSUhg41EhkFdQR75JXbvvoetlO7uo+ECoOGqc+BSmjj3LzjX5MRRdx2rr2hWshbN5x1lNIlr0onYt4plebWAxul/Xkilyo/nMO9+jeL0dLI+9T5f9RWM+GsmM2ZPwrKi2HtONBfO+iY0FExx4eQsmk9WJcTFnKPpzLnrOfDzGmoPURbg8M54Og5TVuGg8XKznAHBREyegFGt5p0j3jKIiPsM6L7ZTbXPRZS7KpuMKp/9Gm1UHDjJcTfQaKf6IDjOdm98zo8sZEVqjG78iJyKG1w81FpPzcEKcHrLRI59UcbJE12X6YCOsKjJPHB3A9V/teMGgu8LJ6zVzu5Kn0DctB+Lef819nHtjn+1j0P1jYCb41+XcdBdf75cqVvj7OTSY4UevpeEEELc1m77kN4R0C/3uDfoH82kZDIQAGhObJ++ScqaHGzt/ziHmqKIDDjC2n0+4ddj58vDLuZGRDE8wIrDA7isFJW7SE3IwjIin4LPiigqsXEjJ06vnwvHURsooTR5QHOdwFZju2Qr49goQj02yst8ppPPWjn8D40ZkT/EGFB8/vx10MrzeKfSezIKV0yhmN6pd3dXvcf6jkB95APWH7l4Cx0RT68h5+eAToeuxUHR5o3ts+ZBBA8Nwu1qpP5KYcxZRvZb7b97Ktj+RkX3B9hoZcsKa/e3700eB0VvW9of1LN/68ZLNtGNTeRP2YkQoEN3h0rNx+vZ/oU37AYHD0GnHuOK9y53o4/r56bmg43UtD9y7LGQ7fNqt8bJlY8VuvNeEkIIIbxu+5BeWVnZKZhXVlb2eh+ufWtJ+aON+5/PJMW4H8uanE6lKcP0egiI5IXtRST67BcYqEf551BCAQeAx05e6jwcP5/DEzExJJnnk9psp/jdTF7bbMXZ6yPvLwp6vQLnztHSaTL8HE3qORg0BH0AcFHotX995MI50G7kDaluaj/OYN3eBrgjhJFjYpn1nJm0gelk7NHo/Tnfm4v7yA5efrsMNzpC7n2AuKcXYw7aSHpWWfvfUOmFewf6WDfHeaVj7c8VV4UQQtx8bvuQnpGRcUlNeq87W8eRr61Urc4iOjuV5MUlWFcV0zFHfNp1DjxVbE02U3BRHbKmneaUbxjVHJT+JZPSvwB6I3HPv8Ly5zNZ9s0MUj+5kd9E1Jc0XC4NAgMZGAgX0nYgQ4MC4ewZXH5WIqA11eP4pr0mvdaGOnwNaY/FEv7ZDhobVXR3BxMWgPcTEQB06HRu3LdDgm9pxPFNe532N7XYWkey6cU4onPLKG48gzsomOBB4Hs1o9PpcPvRyTnV3XFe4Vg/uHWuooUQQtwAt/3qLseOHWPBggWMHz+eBQsW9O1No8fzyNxsZejUZJJjLqyM4qywYsfI6PAm7LX2Tj+OOtflZ4RddgqzP+aIR0/4d0ecf/oc7bnWdx32QQpXXdr7iuu2e1ebCAy8WiO9w15VhTMgkvEmnxVkBpkYP1rB+feD2P0spHdFF6Cg4Mb2tR23YQzjhvu8GD6NFVlmZv5bL3QUbGLO8kwyl8Rh7Ne193vgDgVFB+qRGhwYGTM26MJrA8eQkLmBtMm9u0r59biucbYfqxBCCNETt/1M+o1mf3ctWx/ZQlJKMiUVZoobga9zseyZgXnJOsyh7/BRtRPCooidOpq6t9LZctgb0/Ux6VgWG7C+t5P9h09wJvAeTLPiGY2DjyvtFzqpteNgCuMnGsjffQq9KZ5lv36M0ICuv83TddSGnelMSYjDXupEP1JP3UfF2HyvDrQavrRpxDySSPzfd2JvDSVyFJT+pbBPArNWlkd+zWPMTTEzX/cO1vbVXWIGV2HZXnrhwkXRExo2FAVQBusxhIXS1OjEdYPr9JWgMAwGHQToCPvuZGY9HEL93kPYPeAu2U3R40uZ9WICzbl7Oa4bw5S5swj7h4X913EPbofQqYmkTDMBETSVFmMu87ObFAYOJszg/RKsoLvHMWXWBJSjOzh0CvAUsMsaS9Izi5nt2c0BZxAPzJhHrO4Q68t7UiASTFz6BhIjbFiWrKKwt2etv7naOHVXP1YhhBCiBySk32geG1tf30rs5vk+ZS9OClcmwaIUEv//9u4/Kso6X+D4m9jnUSQ8cFBMZ9vD6A3cIlJDZjPrHO2c1faqWC1moXTVOrtU1x+b0bJy9GS0JNe9qNd2+kV1Ka4urJbl2aC9Dh1j3AYQXKRNpmzIHN3QuXDEB/B5Qu4foI7KT5uBUT+vc+YI83zn+3w/z3zP8fN85zNfFq5lVriK3uSi5pMiio9dSLiaPysi7/ZlLP7lcyQtD0PVm3EfrqRorZU/2i+00w+8w6b/iSV9VSGlq5o5UV9J0ZY8wrLmdT+mA3nkvDKO9JS1WB+F5uN2rAdKqav3buSm6KX1mNekkfbSLIa1e3DX2Ti5pwTXMT9cJ70O6+pnYfWTLMi0kqbqeJx28p7dwJvOC83Ue5+jKHsWYQCPWnn/UQ+7Vs4jyz6YiapC9ANryX0AwEDzuHGWWrFuq+2sjNCqyd9ghSUPsfi5Oah6A679+Wx8y9b7l0n7qbm6jEpPPLFN+7B/FWAJOqDclkpubioAhtaAu+ZDNhbspL4doIky6+8Jfexx5i7J4MEQnQZnGXkb83EMZAdNJZbYaIWm/SWU+aWspH/j7D1WIYQQov+CzGZzx1APQohAYDabh3oI/eZyufpuNAA9xx7OrHUvM9edzao3agP3S7AxqeSuS6T6hVXkHwrYUQ5A518wTW3bwlNbHT1ed1/PAyGEEIHjuq9JF0L0k6KgBGjNe3hMNOEuG3u+vAYS9GAFRVFRA/RaCyGEGBxS7iJEl46ODoKCgoZ6GH3q6PD9h1+9x64Q9fO1FPwcaK8lP209uwNqP0GFuFuicO6xee2ec5WKSSX3+TmYuhL0pr09N/XHPBBCCBE4pNxFiC5jxoxhxIgRQz2MPrW0tPDdd9/5tM+rJXZxgT/mgRBCiMAh5S5CdGlsbAz41cmOjg4aGxt93u/VELu4wF/zQAghROCQlXQhvKiqSkREBCEhIQFV+tLR0UFrayuNjY3oun92cAnU2MUFgzEPhBBCBAZJ0oUQQgghhAgwUu4ihBBCCCFEgJEkXQghhBBCiAAjSboQQgghhBABRpJ0IYQQQgghAowk6UIIIYQQQgQYSdKFEEIIIYQIMJKkCyGEEEIIEWAkSRdCCCGEECLASJIuhBBCCCFEgJEkXQghhBBCiAAjSboQQgghhBABRpJ0IYQQQgghAowk6UIIIYQQQgQYSdKFEEIIIYQIMJKkCyGEEEIIEWB+NNQDEOJapqoqERERhISEEBQUNCjn7OjooLW1lcbGRnRd98s5hiIuMfgGYy4JIYTonqykX4smzGDpr5KID+ln+5BppBfZsVlTMAf7dWT+46MYTJZkUuYnEOaDIamqyrhx4xgxYsSgJrJBQUGMGDGCcePGoaqqz/sfqrjE4PP3XBJCCNEzSdIHQ1QCKWusFBbbsH9Wgf2v75P3fArTovxzurDb55O2ZDaxw/r7Ch04g97un/EMjn7GoIZhiuopBVeJmZfGyuSpjPLBzUpERMSQJrFBQUFERET4vN+hjksMPn/NJSGEED2TJN3ffpxEzltWnkyEyoINZGZkkpP/CZ7YZB6eZhrq0XVqrSQneSazny7AdbUm6v2KIZLkzTbe/91MBmNNMCSk548ylLuf4a1tW1l2m3KFvSvEPb6VwjeWY+mli97GcKV66zN6QQ6FhYVdjwKeuddrcMExpOYWUrB6OkqwiQezCilcN4dwn4+wd8qMDAq25bJwAiiJy3lr22v8evKVvg89uOlBsrYVkjUnHIbPJKOgkNxHon17jn7oM9aYVHK3FZ5/z1572kJPV8Ifc0kIIUTPpCbdr0wkr17BDErIfCKTkoZzz5ew651NQzkwMQh6XW1u0TBoQdOM7o+HWli++RmmGzayl79C9WXNDE5rBrRpaFc6hivUV59G/U7WrNmB+6yBcdENk8bpNtDaDGhvQjPAaGu5fPw9xa5M5tdbMpgZee5EBk0NdVR9lE/ex/WcaxYaM4vFi+ZimRBFaHsT9fs/IP+t3dSe6mrQpqGjoWtAqIaGRktP78OVatbQMTBaNWjX0XXQtJbLmim3LSN33SxCy7fw9Mayi69FeBwPPpbKzEkmolSdhsMOdr6Zh63eABSmr36b5YldKXW7gdbUgPNvO8jfVob7XDh9xerMZ9WibSg3qNzzm9dY2EtI8umJEEIMLllJ96foWST9bBiVBVavBL0HkQmkvPgu79vsVNjtFBfkkHZ35IXj6gyyit8na3Eam3fZsRe/S+bcBJKzC7HZbbz/nynEXlKiETZ5KTkFxdg/s2PblUf6L8wXryCrM8j6awUVFV2Pz6wkX1YJojLjRRu27GSmLc7EWlSMba8d2y4raXdf2lgldm461qJi7PbOc2Y9HD/g+u7IR61U2K0kd7vE2jke++spmPodQyTJ1goqKopJTwDuzsTe1b74+RndrqpHz1rJ5u1d1+49K2kWX1SpX2BoLWhndU43d388dNJ0Jhtu3MoULPHdr222tGkYbRqnzw7gxCEJrMy3Yf9rHmkJ/vs8wbgsQQfaNbQ2A13TAB1NO/fzxXqP3aD+vfWsWrWKVWuz2f75jViWrOCRmK7D4dP59eplWCjnnQ2ZrLcW03jLIzyTNpPz1WWajnZWR2sGQ9Mwzmqc7u1O50q0a2htOp15eWfc2mWxKsTeNZnQI260ifdgGel1KNjErBXPsHBiI7Y3ssnckEd5+5TO2LzaGZ/nd16L555nywcuomalkXa/Vx1df2JtNzAM/SovdxNCiGvPdZ+kjx8/ntdff52Kigpef/11xo8f77O+wybdgRk3NZXu3hsGm0l5KYcn4zyUvLSCZSsyKXTHsCh7M2k/9Uqkgk3M+FcT5RtXsOkf40hak8XMo3mkrytGtyRx/+3ebeNZ9OQduAoySXt6PUXHTCSveYFlMV7n1e3kLpnPguQFLHq1pvdYZqxk5a0u8p6ax8xZS3nXE8/Sf1900Y2Baf5/sHnNbFRHHs+uWMEL73mIW55D1tyBlfU0H3bhDo7EdDOAyoy1hbz/3mZSJgCMZtzYYTR/6+JEv2PwsCtzPvOTFmE9AFRuYkHSfOYnzSdlo53L9qy4OZnnUoLgKGYAAAvRSURBVEZR/kY6S59YT3FLPEuXL7rsJugH0U5jtGu0dJschjL5rjiMmu3s+FxhSmJctyUImqZDm07LQJKrm6cyLSYMNTyeu+80X9nYr5iG0QYt2mkMwGjT0NouvQB9x65rDbjdbtyHa7EV7sF1NpzRoztbRd07mynDa9m+OR9bjZPav+1k42slOAknanjn6w2tBUPX0NrpTGLbO5NYn2rvjE3XgLMaLW06esslM02JY/qkUGo/2k51WwyWO0MvHJtwH7MnGpS9u4Wd9lqcNWXk5+ZT8k+V8NFefbS10OB24z7ipPrjHTiOQHhU1PlrNiixCiGE8IvrPknPyMhg0qRJAEyaNImMjAyf9T1qVCQqHk72sYqu/iyFxbfrlP5XJtaPK6mpLOXNdZv5qDmWpIV3e6306tQUbaDg00pq6k+if1uM9ZUSKitdeBjFKO/vdbW7KVr7LNa/VFJTWYL1xXeoIZYZs+O9Gul4jrpx1bs41tjH9mrHd5GzroDKBh1a67Dvd8M4M9HnElc1gZQl02DPC6zcWMS+ykpK384k5y9tJCycN6AEV//KxfH2UYwbq4Iaz9TJJkZHJpB4axioYzFHgvuruq7kun8x6B437mMnaf4eOHMa9zE37mNuPM3dvKbZxoanMin43xrqDpZQtNcFN3vF6gtNLqr+dpCj3SXYIy3cc5tBVXkV1eW1KJPvYcrwbmJyV+GocdE4kPM6P8D6Tgn7Pn6TP75Xd4WDv3JHP/+UqvomwODoFw7KnQ1cVGjSz9gBCA4n5j4LZq2W6kOdJSAxE0woR2qpbbrQzKjJJ3vDTmrbup5oqqP6s1qOGkCTi9ryWtytPg70bAPO8mqcns7Snq/3O6g9fnFJjRJvYUqok+qKKhwHNWISLefr88MnRBN11kXtAa+bmFNl5GVtoeRwdydUiIq/jyk3NVJb7bpwTQcjViGEEH5x3dekn0vQe/p9MJgnxRPZXkeFw2uJq7WSg1/qJMXegTm4lHPp1PmPpNs7H2fO/QxwURLp4eRxrwT0+EEOHoPk8WZUai5fPe5LSzMer4RSP6NffM7oqSSM0al71c6FKHQqq53wi4lMHAF1/V3Ba3bhahhG/E9MEG7GHHkIe6WJ6H8xo35iYvSoZlzf+HE5sMlDvXf3Z850/uvTlfRqtluruz0UPtVCTFsVW2oMNNVB7ZJULPEKjvKLkzzj891s+XygJ3ZT+nImpVc26h/IwLn7FZznRrInj/xLWvQdu0LMw7kU/BJQFJQ2N7Y3XsHmAQglfGQoRnMTDb19uuBxkP9q18/t1Wzf2v378IO0u7G9ldf1SwNl775ySQOFKXdNQTm0HccpA728Fm25hSnhNmxNEB5+I4r2NX3dOyuTlvF2/jIIVlBu0HB+tIXt+70S+8GIVQghhF9c9yvpBw4c6PX3H+LkSQ86kYzqdatFlbAwFc6coe2M9/NnOKWdgZAbCfNJctjMmVZQQ2/0yR7gfH/RYFEjIlGDVab9thibzXb+UfzbGajBN3LjQE6q1+H6BkaNG0tYbCxmTx17/uHGNCGWsGgzY3Hj+vJa/cMq4VgS4zBqHNQagFaN45BC3F1Tetx149rRn9gN6j/KJj0znfSM9fxhh4vxj2eRcV9U19GrxPDOentnuQMNMGod1LbFMT2xay29HUDtcxci49AO1mSmk56RzvqtH9KYsJysNMug75gjhBDC9677lfTs7OzzJS8HDhwgOzvbZ303H/w7LhKITzCBs6e6dJ3mZh2GDWP4MLiwxD2MkaHDoPU0ze388FXc4DDCwkA/eXrgq+j9oJ/yoLfr7Ht5GZsclxz8/hQnvxtIb2eoO3qCsGgT5lsnorqKqDw8kua5ZmJvHsWoJheupr57uSpFWrD8VCE8eDVv39X1XLCC0jqdKaEOHL7+gmMg6Sv2romrn2rAfaQBcOOur0MbnUvG/TOJ/mQHTU0ayk3hRAWD+/xquoKiGBgBlMGH3jmdyeGhqI+/RsGSricVBRIthH9cwomm0xih4YSHcNGdh6IoGN6BtDXhPuLGANxH6qk7+2Nee3oW0wsd7PYMYkBCCCF87rpP0r/++mueeOIJ/3R+uIRdny0i/eE0ZpRkUur9n2ZwGGHBzTTr4KqpwbN4OlMTwthV2lVnEZLA1Ikqnn3lnft+DzhJV7noDwTenED8WHAV1+CXQpHDf6fGs5TpsWM5+ad9P/AcOq6vvgGLmZn6OE7WH6L5y0jcEXeTeOswhh35O3VXdKehQ7sOP1K56H4ogETdZSG2zcErv99O3bldW4ZPZlnmQ0yfFIrD/kOz9Eim/WoVD//EzZ82W9nX165Dg6jP2Mt7fq0SrKJiUPeFC+POOCaP3on7n10Ho+eyLnMKVesz2XnE31H0RyiTE+OgJp/n86vPb7uo3LKQ3z1mwRJZQskhJ25mETcplJK9XS2Gx5GavZyo3elk7+llHtygol77H7sIIcQ177pP0v3LTdGmzUx9OZOsNyPZ9ediKo6eQh17B/fNm0fMwUwWv7iPZkcRu5z3s2hlFkuVd6j8vzASFqxgxoga8rbvu7JkMjiexc+v5PTbH3GIiSQ9tYjY5n1kfejyaqQS+WMTI38EakRnRh821ow5UueUx41nIJm2vo+C/EpmrspiU3sehZ/U4VFNTP35bEyVOWTucPXdh5fmwy7cY6YxTYX6Yhd6QyTHWxYxzaJz4oDL6yZgIDE0U3PQhZ6SRNp8N7bjYIoxc2pPAaXHBjQ8P4kiMTEWrWYLn9a7vRZQNRxfPMLCxMmE2st63Re9TzELWLlkFuZgiDxiY9+rg//l0e71I/byzsjV0ChMJgWCFaJuuY+H7o2gYW8VrnYw7B9im7Oah55OpaVwL0eVOGYveoioL/Mo62OTpYsMt/DM1meYcmInazK3U+/L7QlHWrDEqzjfLcN5xOsjoYYyah9ejuWuKEp2F/NB5UzSHlnOwvYP+cwTypSkxcxUqthS0QTnCoCGjyDK1Ll7UuhNk5n9kAX18A6qTvhwvEIIIYaEJOn+Vr+L9CdOkPL4YpJSVpAUGQZNbg6Vv0vOf1d2Jpt6HdbVz8LqJ1mQaSVN1fE47eQ9u4E3nX2doHu6p5RCxziSn3+T2HDwHLazKeMFdnkno2FJZP05nQSvVfq0gkLSgLo3FrFogAmc60/ppH2/gpULl7F2bhi0uHEd+ISif5wceABffcFxUpg2po7Swzro3/DFsTBm3Q6V79VduHEZYAx1+S+QMyadJb/ZTHJwM55v69j19QeUHguAfelM0/nZBI3a3VWX1FY34dhfR+ojFiaPLKPsVA+v749vKyh1JmMa68K+f2A3Tn7Vn9jDbIBC9ANryX0AwEDzuHGWWrFuq+18nVZN/gYrLHmIxc/NQdUbcO3PZ+Nbtt6/THoJJToOc6hBbWGxbxN0IPROC3HBtbyz/5KarbYqHJ/rLE9MJGr3bsqsvyf0sceZuySDB0N0Gpxl5G3Mx+H1/iu3pZKbmwqAoTXgrvmQjQU7fT5mIYQQgy/IbDZ3DPUghLgWmc2DvQ9591wu3ybjvcUVvSCHFxOqSM/Y7lUTfvWJmpdF7pwGtqzacm1/D+C8zr9gmtq2hae2Onr8Aq6v55IQQoieXfe7uwghfE+5QUHx5ZaVgyqUmBgTDWXFVF0PCXqwgqKoqFft+yWEENcmKXcRwk86OjoICgoa8jH4o8/e4lKiHySn4EHAwLH13/jD3gDaVqU/FDOxJjefbnNePVs6XqmYVHKfn4OpK0Fv2ttzU3/MJSGEED2Tchch/GTMmDGMGDFiSMfQ0tLCd98NaP/LPgVCXGLw+WMuCSGE6JmUuwjhJ42NjUO6+tjR0UFjY6PP+x3quMTg89dcEkII0TNZSRfCj1RVJSIigpCQkEErfeno6KC1tZXGxkZ03T+7wQ9FXGLwDcZcEkII0T1J0oUQQgghhAgwUu4ihBBCCCFEgJEkXQghhBBCiAAjSboQQgghhBABRpJ0IYQQQgghAowk6UIIIYQQQgQYSdKFEEIIIYQIMJKkCyGEEEIIEWD+H7QkXFTbhvZ7AAAAAElFTkSuQmCC;" vertex="1" parent="1">
                    <mxGeometry y="1110" width="860" height="776.89" as="geometry"/>
                </mxCell>
                <mxCell id="7" value="" style="shape=image;verticalLabelPosition=bottom;labelBackgroundColor=default;verticalAlign=top;aspect=fixed;imageAspect=0;image=data:image/png,iVBORw0KGgoAAAANSUhEUgAAAwcAAAGnCAYAAADi2yuIAAAABHNCSVQICAgIfAhkiAAAABl0RVh0U29mdHdhcmUAZ25vbWUtc2NyZWVuc2hvdO8Dvz4AAAAvdEVYdENyZWF0aW9uIFRpbWUATW9uIDIwIEphbiAyMDI1IDA5OjQ1OjQ1IEFNICswNTQ1qd+rkgAAIABJREFUeJzs3X9Y1GW++P8n0bxNaDzwGaVibA9Tu2C7yKpNUohdgZ2gdhOtMFvNs4pWk3sEN8M4sXrp0rpOtv64srFyrKNQKluJWUGfAi8VCp2EkEr4nhpOOZToHPgwDsJ7Ir5/8GtAFFAUtNfjurguZuZ+3/f9vpnyfr3v1/t++xgMhhaEEEIIIYQQP3tXDXYHhBBCCCGEEEODBAdCCCGEEEIIQIIDIYQQQgghRBsJDoQQQgghhBCABAdCCCGEEEKINhIcCCGEEEIIIQAJDoQQQgghhBBtJDgQQgghhBBCABIcCCGEEEIIIdpIcCCEEEIIIYQAJDgQQgghhBBCtJHgQAghhBBCCAFIcCCEEEIIIYRoI8GBEEIIIYQQApDgQAghhBBCCNHm6sHugDg7RVEIDAxk+PDh+Pj4XLJ2W1paOH36NLW1taiqesnaFUIIIYQQg0tWDvpFR9xzuyh8z0xC0MVtSVEUgoOD8fPzu6SBAYCPjw9+fn4EBwejKMolbVsIIYQQQgyeS79yoDMy64kkEiZHYAgA1/Gj2N63sn5zEY7mS94blMnp7P5HArozPlGx/T0e01uurm//CE2XoF+BgYGXPCjozsfHh8DAQI4fPz6o/RBCCCGEEJfGJQ4OFIwLUkn6dRnWNVZsxyEk6lFMc55n9dUm5m0sY1CSWJqdFDyfTubXXVt3fd0tMMBJ3vJp5F2CLg0fPvzsH/rqmblqLQ/UW5mbkYf7fBoYEceyl5O49q3FpP7TcX79EEIIIYQQV5RLHByo2P4xm3hU2lPZK46UQUguGXfFMmZTGWWDsHoAjZz8nzLKSodOfv05Vw2a3ZxqBLfb3TWY0ozniQ1pxLYvg3g81NVUcPiDrVg/rMLjXVZ14/YA7nOHFoO9eiGEEEIIIS6dS3/PgdoZGHS+paKerqf7dfqhQ0vii4c4dKj9J5+Mu8/MxVfGmsgsLGTnogg6Pg2dh3VfIZkLvd67YG4a3B48jT1N7D1UvbOSxYsXs3jZKrZ/cS2Rc5N5JLRbsWYPnkYP7l6Cg+4M08zs2lfIrlUJ6H3P+wSEEEIIIcQQNLg3JCs6wu5JISmqkYLMHOyDsmrQFy5yVk5jRuIMZqRknbWf6hEr5jfs6B9KZnYo4KsncdFsxnyXifnVgU2Zcje6cbvdXVcD2vvhrsHhcOD4upz8nR9j/ymAUaM03WvA3ejG09ifVhVCoyahH66gnzSJcAkOhBBCCCGuKIO2lan+DxZ2LjKi4MT2WjqrP3QOVlf6RK1xYAfwbTrHJF+l7FUzmVEWZj+ZiO3j20iKqCZzoZWyAc1Y8nD8q2JK3DXnLuYbQOiUSAzucrYd7RZG/FRDha0Y5YeewouzUSl4bR053AbFVgqGThaWEEIIIYQYAD4Gg6FlMBpWdAYMQTqCfx3L7AUJaPenY3qugEsdIpxttyLXh6nEP1twZiBws4nMrESq0uNJ/6jn2bEy1sSWTbMJbobqHed3o7XBYOjnEXTeczDCg6cZ0GjQNDrI37yKTYW9BBLnYLfbz/tYIYQQQghx+Ri0lQPVaafCaafiKxtl6Nn9dBIJ2wvY8vUgdKbZSd7fU9np1XZTrf2804DU/z5EWc08wkY7OFp2/vWcHw9VH6xi/b5auCqQ0eGxPDg/g7Rr0ln18fkHCEIIIYQQ4so3JJ6Q7PrhBC7CCL5ega8HI1elkfpjRyk7MhBtK0QsSCXhqiJyisdy759N5JeaKbqEd1ur9TU4vq0BHDiqKnCPWkvavbGE7N1O1ZC9r0MIIYQQQgy2S35DsjbEgK7bjaz6W8aga3Zgt585OTdMy2Bnbi47n0vAcBncAKsYnyT94REUblxJxhorZf+SQOpCI9pB7pfGVxmQ3ZKUWxJJNZtJnRY2gLsvCSGEEEKIoeDSrhwMjyJ5/fNE1+SwLTufIzVww7gZJM0x4Hj/aXZXdyvvqydmahwGHTBlKjGWHOzHLmmPO2iD9Iz0U+D6YSiA9l/0GEJAbTiJo6ZtWWC4kSeXJDKy2MziD51AFuveiGXL/FRMBUmYiy/N8oHiH4RerwFfDUG/msKDdwZSs+/wAOwGpRAzN4XEGAVuh8/fTyVPbkoWQgghhLhiXNrg4HQR5qdXcmr+oyQ+nUCKFlzfH6Vo69NYXis68zkHzQ4KPypi6i+NYMul8PtL2ttOvgYS1+zEdEvnW4ZndhIFYDMTb8rGiYLxiVQSg8p46Zkc2p85XLF1Pdl3W5i1xET+PDO2ix4faAiZvoy10wE8uJ0OKgssWN4s73Hb0/5RKS8qxHH7JCgspFxSlIQQQgghriiDtluROLfz2q3oIpHdioQQQgghfh4G9yFoQgghhBBCiCFDgoMhqqVlaCzoDJV+CCGEEEKIi0+CgyHq9OnTg90FYOj0QwghhBBCXHwSHAxRtbW1g37VvqWlhdra2kHtgxBCCCGEuHQkOBiiVFWlurqahoaGSx4ktLS00NDQQHV1Naoqe5UKIYQQQvxcDIknJIueqarK8ePHB7sbQgghhBDiZ0JWDoQQQgghhBCABAdCCCGEEEKINhIcCCGEEEIIIQAJDoQQQgghhBBtJDgQQgghhBBCABIcCCGEEEIIIdpIcCCEEEIIIYQAJDgQQgghhBBCtJHgQAghhBBCCAFIcCCEEEIIIYRoI8GBEEIIIYQQApDgQAghhBBCCNFGggMhhBBCCCEEIMGBEEIIIYQQoo0EB0IIIYQQQggArh7sDgghLm+KohAYGMjw4cPx8fEZ7O50aGlp4fTp09TW1qKq6mB3RwghhLgsyMqB6N3wKFKzC8m3zMLge+HVGR5eT+6+XaTHaC+8sivE5TomiqIQHByMn5/fkAoMAHx8fPDz8yM4OBhFUQa7O0IIIcRlQVYOBpNvBCnbrcwKaXvdrOI6bufIJzlYN2VTVjeYnfOmAk2ozQNU24/AjwNT12BRtDq0vi6cdQNzRfpyHZPAwMAhFxR05+PjQ2BgIMePHx/srgghhBBDno/BYGgZ7E78bLUFB1O/W0fKqzaartYSPDaW2XMTGfOdhXkLtlAxQBNyMYCUOMy5Gei2ziDpdftg92ZQhYSE9BAcaIj800ae+s1hVi2y4n5kLRl329nw2AscaBy4tjUxabz+WBDvpi/mLd0iXlkcTrF5IZtKPGeUbWlpoaqqauAaF0IIIa5QsnIwFJyu5uhXFahAxREbZc0Gdi+ZSsL4TMw2yZXuGwVFp2fMmAgm3RXM0Y0WCobMystgufhjcrZVA7dbhcYG3D95cDc2QKMb9xmBbgBx6RtJ+k0Nb6cvZvvX3p9p0N85h6TpkYRdHwAuB+UfbcXyVgl17fU0ulFxo7oBfzdu3DS4zwwMztVPIYQQQnQlwcEQ5DrmwEUEI4O83lQMxDyRguk+I3otuKoK2blhNVuKnW2fx5CxOxmy8tA+NBvjMDsfbFxHRVQqpjtHUl9sZenTWa0rEUFRmJYkERNhQB+gBZeDo/uzMK/NpsLl3WYMGe+ZiQtoe91sw/xvJrK9y6AQ81wuf7nKQvqXYTw6NZqw67RQW0a2ORVLYWdhw/xMdj4e1vHascPEjDU2uoQ/SgSpOywYcp4m//pHSZwchj5gGK6KHNamm8mr9ioaEseTKUnETzCgGw6g4qxycNJVRf0NQD8nwvoYE8lzEzDerEOLC+d3FRzYbcWyw4azmY4Vg47bAhbu5NDC1naLVsaT/G77uSoYl+zE8rAe6vJInWpBWZiO6b4I9FqFso2dKw59GpOQeWRmxWJbvg3ue5S7xhoYNcyFvcDCX57Lwe5VuD9jotwyi/VrniTMlcNfF5opcPZvvM7Owyl3A57GU7gBd4OKp9GDu3uxoEgiQ2tx/BBE5B2hbP+6suMj//FzSDNF07B3O2tetqP8Mp6ZM5awxPMs6e9UtRZyq7h/UnG7wOPvxvOTm1NnNCKEEEKI/pAbkntx00038eqrr3Lo0CFeffVVbrrppovepvb6UWibT3Cypv0dHTHPrMU8TUfZ1nSSk5/GWhFC0iozs272OtBXT8zv9Bxck8y6L4NJeDaD2GNWUpfnokYmcO/Ytpsy65x8U5qL9blUTE+YSN+4FzUqldULjXS5bVMtZO3cacxInMHsl8vO3eeYFFJ+bce6cCqxcfPIdEYw7z9mE+Z1A7N9RzLTEmcwY2Y6eTVnrwsUjPNSiT65jcUPxRLz8Doqbkxk8Vyv/mmjSF27jPirc0mfE098YjJZR5rguyz+siCVrK96H+cubp7HyozZhNitpC+czeyF6azNdTBqbBgj289BLeCvs6cxLdFM0Wmo2GZiWsI0piVMJT3PO2JSsb2cxLQ/5+Dwu4EpT6/GFFbBa2lm8mpUVNfJ/o+JbxiJS2bA+3/h0fhJTF1p49q4ZEx3e93A3M8x0Y6PxhikoL05ikm/HNgbdhsa1Y7VAvdpN7jduH/qWiZo4mTCag6y9eMKgm69ndCO74o/kfdEE1SVx/rNeZQcraR4zwbWv3MY1f862mNVj7sBj9q2IuFWcTe3BgpCCCGEOH+yctCLtLQ0xo0bB8C4ceNIS0tjwYIFF6k1BX1kIslzjDQdeYmckrZLwqEzSIobhe0fC8l4ywGArcTJyF9vITHRSPbf2680q5RlryZrv4uw8SdRbyzCsimPMu0InMQzMrCtGbWCvDcqOpstLaMpIp7146Ix+Nq87nNQcR5z4AS0tb2kN32fg3l5Fq1ZUBUUfubA9LCBEF8663M5cbicoOio7+XmW+f+9aRvLsIFcCyfg1WpRI02oMXW2p+7HubeG+xkLtmCrQqgiJdeyyf++bkkjv+g3+lYiuEmDL4nyH0/h6LS1mMrSovI61JKxVXtwKXU0/QjNNU7cVQ7eq7Q5eSESwUlgrjxOSTPXUdRg5GxPzbhOt3UpVzfxkTF9moq6z5qu7xfuJ9KNY7gG4OB1r9lf8fE+b4VS5jKmLr3ySoZ2PS12qrDFPs6WlcLHEcoLnF0pgMB+AYxcaKBmtKtlB/8XypmTOH2X22l8iigMWC40Z+ag4ep8Tqm6p0XWOndSF0FJZ8e55gHqLNTfhAcpwf0NIQQQoifHQkOetEeGJzt9UDQ3mOmcArgC6hOKj56iZS1WR2Tap0xgjDfo6zb7zURbbbz+REXs0MjGOVro/2Tjh2Fmlt/mtp/p63+1hqJeDiJpN9FETZ6FNqrAUWB7xWG+XqV748GV2vqTXs/mtRubfZPo8tF5xRabU0X8e+8uh0crENRq/nGK81IPe7kJKPQe6dj9ZFasp+i43EkrtjCyLwP+LhgLwWlDi54ytysUvZeFkV1ADbMifHQfD61NtHk8ros3qyiNoHi9V9wv8ekzsaW5bbz6EvvPGVvs6F9senoHjYc7Vbg+mhuv7mGksxKPDV1HP76EeLvCOXNo5V4fAMIGAF1dXX0fAdBG2cxW19u+725hO0vlgz4eQghhBA/N5JW1IvS0tJzvh4Irv3rSJprYl2hC04ewLo2q8s2piO1WvCN4Mnt+eTnt//k8vx9OhS/Eej62V7Y/PVYFkXhei+DpN9NYtKdMTz97oAlnLf6san3Mn12Zl0nT7pQlWD013W+p1ynYyQncJwzZeksnHmkz0si4/0qtJGPsuzVXRS8s56UGP35dxuAE1Qc6QzqVFUdsC1huxvwMbmI9HfcjuH7EvZ9DVDDwc/sBI6fTJiGHoJZIYQQQlwqsnLQi1WrVnWkFpWWlrJq1aqBb+R0NUe/slG2xkL01lSSFxViW1lA+3Xik64maC4jMzmD3G451ap6khPN9H0i5RtG7N1hcCiD1TtsXK4p2s69OymYZ2bGk4kU/i2bCl8jSXNi0VZmd6Zj9bvSMnI2lJGzAZTRUSQ9m8G8Fek4KkxkV/d++GC7KGNyMfiGMHliCBq9nudei2t7T4NGE0BkqIbyyjrq6sAQEISGms7VA18Nmqs8eM65nCCEEEKICyHBQS+++eabi3iPQTfHsjFvjsW6KJnk/TYyClqn7s4SG3YSGRNSj+VCr/D7DmtNHVIbva7HD0N77WX2BFlnAdatNqIWmrDsTmHYjy4cpdmkL7cMyLMh1GNFWN+1MdsYQZhBgWrvyXXr1f9hwy68nQHV3zEJMDJr0Qx+6/oYy4Y87JfqmRo33k6k3kHe2jXk/tD+ZiBTTGlMvCMMzRd2yu1u4n4Tjt63nKq2fgVNWULGPQ42pG2lXAIEIYQQ4qKQ4GCIse9YR+bdWzClJFNYktG6L/1XO7F+nEDG4vVk6LbxfrkTgiKIvW8M1S+ns+VIP64Kq0c5eMTJrLtmkDS5kt3faQmfnsziScPgRz1hI6Gs4yq5gm60nhFXgxLYGjxobzBg0KnUOx04+7nsoAToGRWgoPjqGHE14KdDH2JA/bGeE8ec/cvvV6KYNdfIyYIM1n3oaH3CcIOTipO9HtlTZRgXbSF93FF2v5NPWdUpuG4s0+ZMQqkr5NDRbj1TK/m8QiXm7iQSv9yF/ScdYTdB0RteE2ytjlFaBbgGRTsKna4el9N1xjkO5pjo7ksi5X4jEEp9UQEZxZdmdSEkOpKgmhL2f+bA0RGQOPj4Mwdxd0UTpinn8Ht5VKXfz5OP1fLmx3Y8N05mziOh1Ox+UwIDIYQQ4iKS4GCoaa4g8/lMYjfP80ovcpK3wgQLU0iauYy4AAW1zk7Z3mxyq/s7oVMp2pCO5dpUZv99J/OanVQU7mTl/Eyin0kmerKe7B1tOfLaBDL+mYrRK2XJlLUTE1CxeTazX67osYWeKUTM39i693+7+zPYeT/gKiA9PpW8/pyKeoT8920YH0pn/X1e7zvLyFqdyrp+bdqvUrbbSt51s5m66HlMAQqqy4m9LIeMFRbyzqjKQfbfV2J41oTp73EMa3biqMjn5Md52Ktbz9X4uLXjXPWrdpFwuoD0uFTyuuymM7hj4io5gM0ZQVhdEYX/fYnSjnxDufNWPbVlljNWKhwHP8UxPZ7ocA3lJdtZsx4effhBlqzwB5eDw++9gLX9GQdCCCGEuCh8DAZDy2B3QogLp6ANMZK4ZBmmsDLSH0gl73K9oWLAXPwxMRgMA1vhRWS32we7C0IIIcSQJ7sVicuQQtRCC5bHvR/apuKqKiL7owpUrY6R2nMcfkWSMRFCCCHEhZO0InEZUnH+qCXiYRMpx63kVjhpQovul7fx8L8b4UsrtuOD3cdLbXDGpKWlBR8fn4GveIC1tMgCqRBCCNEXklYkLk/Dw0j4cwqzJkeg1ykozSqu43YqDn6AdVMWtgF+bMNlYRDG5LrrrsPPz2/gKx5gDQ0NHD/+s4sYhRBCiH6T4EAIcd4URSE4OHhIrx60tLRQXV2Nqg6hZz0IIYQQQ5TccyCEOG+qqlJdXU1DQ8OQS91paWmhoaFBAgMhhBCiH+SeAyHEBVFVVVJ2hBBCiCuErBwIIYQQQgghAAkOhBBCCCGEEG0kOBBCCCGEEEIAEhwIIYQQQggh2khwIIQQQgghhAAkOBBCCCGEEEK0keBACCGEEEIIAUhwIIQQQgghhGgjwYEQQgghhBACkOBACCGEEEII0UaCAyGEEEIIIQQgwYEQQgghhBCijQQHQgghhBBCCECCAyGEEEIIIUQbCQ6EEEIIIYQQAFw92B0QQlxaiqIQGBjI8OHD8fHxGezuiCtcS0sLp0+fpra2FlVVB7s7QggheiErB+KSMzy8ntx9u0iP0Q52Vy4K5e4M8g8d4lD7z9Z5GHzPKIVxya7OMocOsWuJEeVi901RCA4Oxs/PTwIDcUn4+Pjg5+dHcHAwinKxv+FCCCEulKwcDCbfCFK2W5kV0va6WcV13M6RT3KwbsqmrG4wO3fxqD8CPw52Ly4etXAtj063olwNxkVWUkf2WIqyzQuZ9k8FxTeUpA0ZhF+CvgUGBkpQIAaFj48PgYGBHD9+fLC7IoQQ4hxk5WAIcO1fR9Kc2cxekMxfd5Rx7ZRULP+YR9gZV5uvDI63komPnUZGgWuwu3JxnHbiOGbHXuXgZNPZi6l1DhxVduzfOam/RMHS8OHDL01DVwDNpKd47U0zD+gHuSPXhDLH/Bpr54Sj8X7/+gfIeHMnGb8PgGtiScvaydpHQga2bd9Q5qzdSdaSaDS+eh7I2MnO5b8noEuhACKTX+S15b9H38v/s+T7J4QQQ58EB0PB6WqOflVBxREbBW+YSd1sg7FTSRgvS/BiYF0Jqwahs9eSMf3CZux9qcNTlc/2N3dTPqgreBpCp88nTnMA685yPN4fudyoeHCfdkOziqqC291wZg2/SeLFnTt5bUk0/t0/DAjngWQzL76Wxc6s13hx5RPEhniHIG5ONYK70QPNdbg94GlswN2lkjqK/2s75foHmTMl6JxncyV8/4QQ4konwcEQ5DrmwMUoRnr/O6sYiFm0np25hRQWFpKbZWZepK6HoxUM96WwfnsuhZ8e4tC+XDLXpZJwS2d+v3baeg59aiHR6/KfYkxl16e7SI3sDEg6c+d3kWrUEjYtHWtOIYcOHaJwXYJXfrwO4x8zsObkU/jpIQr35bLTksG8GH2XHHrD/Mxec+x109ZT+GkmptBuZzU5ndxPd5Fq9Dqiz2PSR4qemMfNZL7Xdh65O7Esm4XRq0qtcRYZlp3k/t9CDn1aSH5OJuY/GrmAVvtuuJGUrfkU/l8rJuPPNXD0xxBy7gnogNXhKCFv9wEq3b0XvWgCJvPglFGU736L8sZunzW7cTeqtMYDbtyNHtzu7p3VEHbHePy/deAeM5nIEV4f+eqJS36KmWNqyd+8ivTVVg42T+CJJUmd5Zpb61XdbkDF7W7/vZu6A2z/0EH41AcIv2aAzl0IIcSgkHsOenHTTTeRlpbGuHHjKC0tZdWqVXzzzTcXtU3t9aPQNp/gZE37OzpinlmL+a5T5GxOx1zZhOG+FFJWmWlakETW153H6qc9j+UZI/V5L7FybQWufwkjOj6WSb8eSc5X/UvjUfetJnH6IZa+lorhvqWsHq8lb2My+fetJ+l0fUc53bRlmJ/4V2yb/kryZ9WofiGMnXwfE399A5kFjo5y9h3JTPtoxDlz7J1787EtSmdSjAFLpb3tXQVjTDS673LJLWvf7aTvY9I3OmKe2Yg5Doq2rualUhfDRk/k3t9NJCIoG5uztV3XD9V8vtfKx687cTYr3HDrw5gWmFlanUDqhxc5TerG24gK1aL4RjDpVgMWW8XA1HtNLGnWB3DvyEdzRywGnT9KfTm7X9nAnsr2a9X+hP4+ifm/G49+hIJaa6fkva1YP6hsu4qsIXTuWpbr3yV1tz9z5t5PuN4fjTOfVYs2UX7HU7xyj5sDjeFEh3g4kPUumntmEnm9mwMb0rGWuNHc+gQb/xzI9qRV5De21jnetJElAdv546p8PJponnplEZH+QMRadj7S2rPy1x5j5Qdtl/c1emLnmXjgNgNB/uD+oZy8TAvbP2v/vPc6NDFpvG4a35rC01zF9iWpvN35NQYg4NaZmB6JJfwGfzhdS8Wnb2P9r3wcnvbxvJ+a//oY/5gphOoC8G+s5N2XN/D2F+0Ta3/Cpz/BnHsnEKLV4HFVcfiDrWx6p7zLVfmg6GjCfyphwyc9LF80u3E3usEN/OSmoVHFv6HbbkCacKLH+VP+zibqpj9B5K3+5Be0tXDzFOLHeDjw4gbeLmx9r7IKNIsmEDAKqAdw42mEBvcpPICnsa3NHjgK9lMxdSax462Uf+LpsYwQQoihT4KDXrQHBgDjxo0jLS2NBQsWXKTWFPSRiSTPMdJ05CVyStr+oQ+dQVLcKGz/WEjGW62zFFuJk5G/3kJiopHsv9tQARQjc+dGoXxqZvHybNpKUvRh1vl1R3XhrKlHRcEYF0LWwnlYSiEupon6U+3J9AqGX/4rWlclH79VgM0FUEFZcR5ntOpy4nA5QdGdPce+Lp/3bcksmxSDYbMde3PrecVG6rDn5dMRG/R1TPrqlhkk3TeKis2zSd7cFpQUF1HwVrdyxwrI3tH5sqzEyS0xmcTfPhblw6L+tdlflbuxbNMzLdjBjncGKDDoEERkdCBr/vYnSlwBRJoyWDT/QcrTtlPVDAGTnmDJtEDyNy7l2ZJaAifOYcmflvBozWI2feYGPDi+dcAdUzDNVrG/s4rUo3XgB3UeoBkwhMOapbxw62rS5sbyVvpirA++yJxJ4WwtKe69i54DbPhTDY+sWE74p8+yYo+jdbw9nRPRoLgkkm5TedP8GHnf+hP+SBpL5s+komwTJZ6+1eHZt4Y/fgJKyCNk/KWHEFb/e5b8KQ4+eIGF75Tj+UUci5YksaTxGKmZlW2pP0FEx4xm09rFbHAGEbs4g6RHYjiwfA81zaAZM5Ok3wWyf81Cnj3qxn/M/Sz68xwe/CKVrZXtDfkT/psw1EoLh7uvGgD8VEPlwRJwtqb8fPNZMce/7zop10REMsG/ku2HDlPzSzdPTYwkoCCfOiDg5hCCfrLzbqnXZL/+ANaMA13qOPbFfg7X1AEejn1VzEFPDT1O/Z0llH87h9iIMDSflPdcRgghxJAnwUEv2gODs70eCNp7zBROAXwB1UnFRy+RsjaLiubWz3XGCMJ8j7Juv9fly2Y7nx9xMTs0glG+NhzNQFg0EdepVGzNxdFDOxdCPZTNttLWqW/e8ngKUNsmwipl+4uwT09k6avr+W3u++TvLcJWdb5X0V0UfWSjafkkYm7cgr0KlPHRGAPs5OWWdZTq85j0kd5oJAw7lo/s5y6oDSNhfhJT74zAoNMyDGA4NH09rD8neZ4cFGxMp+Ai1W7/5F1K6gDqOFxQQu1/hjNhFFT94M+EOyfAoTW8VdI6Maw5uJ3cL6J5NDoc62fFeADV5cYdEI76zmKs+2q61K0BUO1UfOXm2I11UGen/Hs3nKjDP8QfBfoUWHkaW793arOnNQ++m5qPXmDxJ1DjdANuyj8pp/ZuAwYdlPzQtzpo9uBpBo+n5x7p77gTg/sAq972EadxAAAgAElEQVQpbw18vs7jzX3xPHfHZAw7Kmmf29v3bae4BqCG4hI7SQ+PRn8V1DQDgf4E4MZd58aDh7qjb7Pysbe7NuQ7itGj4MTBYz1PtJsd5L9mbT9zDmRu6lZAw4Q7JqA5up3ieg/qwXLciyKZEJBPfh0EBFyLxv0NtecceA+VezZ1nJPjYytbz1q2FrvDTeD1evwp5wrdbE0IIa54Ehz0orS0tEtAUFpaOuBtuPavI+XVCsY+bibFcADr2qwu25iO1GrBN4wnt+eT5HXcsGFalO9GoAMcgBJwLSN8m6j8f+fYIuc82b86irP9hap2mcipxWaS5n/O7MT7mDR9GYkLwVmaw9q/ryPv6/5fS3d98jG2hmVMusvAltcdREyOYlRVHvleqUJ9HZO+0gVqAScu5zkK+epJ/KuF1F8dwfI3Eymf2nERhikrk8R+neFQ5Kb2h9qOVx5nLXWMJ1CngRN6Rus0BIxPI2tKt8O+GIU/tE4Em1Xw2Dl8sIYeud24mwGPCo1u1J9oXVHougfPhfEPJXrOg8SGBqH4Alf5E3CVozXwHhAaRl8fACeOc8xrxu74oQYCAgjypXUi3axS5+y8Iq/+BFyldNxj4ynJJ6/6KZJeeIX4r8spLythf8F+Kp1elV4ViJ8/nGo4z2n2NROIjNBQ+WZxa6pSeTHljUuInhhA/od1bWOvDOCzNTy4XW4wBOLvC3X9CM6FEEIMHRIc9GLVqlVn3HMw4E5Xc/QrG2VrLERvTSV5USG2lQW0X3s/6WqC5jIykzPI7XZBXlVPcqL9H2GXSmPzMLTXDqNv12EHjuurPCwr87CgoDMmsvQvKSxb6aJqjqVjBaTvlRXwwcGlZNwZg/4NG7GTRmF/L7dLPX0ek742We8CFLT/Apxt0eO6u4i/XUvF5nVsKWxbYbiCtpvtcnW6/byaofW75MGxewWLMyu7H9ZVs5uGc9zA6+n2+wCGBYA/0XMX8eD1B9iwYgXFP3ggdA5rl1+KJ0h010tSTWM525c9Rv6YSCYaw5lw+6Msj4/mzYyV7KnqVvY8J9n+t0YzPsAfZf4rZM1te1OjgYmRBHyYx4m6U3j8AwgY3rW7Go0Gj+cCkoIkKBBCiMua7FbUi2+++YYFCxZw2223sWDBgot7M/KxbMybbYy4L5lkr6cHO0ts2DEwJqQee5W9y4+j2tURBqgVhyivUxgbFXvO3XOaaAsdvCe2wxUGZpMRFactm10HnSg3Ggg5r8uSKoUfFeEKm0TcXfEYg46S3y3dp69j0leO0gocjGFSjOHsha5qTR1qaui8GRtFh+5cW7f/1McO9KmcjqjHM1j/nImoC92w5wz+BI0K7HilCQoiiDqO/68Hmk9w7AQE3Ti6y/72/tfr8R/I4OgnAA2aji+iQuCIMzbfbP2kp3Y1BsJ+oeA4+HFrYAAE3Kgn6Cz/l+uxjl55OPZDHYwazWivyEavDwLnCWr6PKfW4O8PNUcPsCdzEyuXpvPWiTCm3BHSWeSnWhrccK024Ky1nJ0/4yeGQ9lWVqSlkpre+vPs5mLcoZFE6sB9tBIHBsLHeY3xNeHMMW8kbcr5tKnBX+sPjbWtK0RCCCEuSxIcDDH2HevI/HIUCSnJxLT/+/zVTqwfq0QtXk/GH+OIMhqJum8e6S+amTfWa/Z9ugBrlg1iklm/Yh5xk6OIuX8WKWYr5j94TXqr7DgwcFuUHgUFnXEWGX++F133yZKiRRc0AgVQ/LTog3Rou0/2fcOYZdlF5ioTiTFGIsYaiXkwhaS7dKhffE6l1yxdCdCjDzFguFHHiKsBPx36EAP60bozUhvUTz/mgGsMMxbGov8yn7yqbgX6OiZ9pJZm8do+FxELVmN+PIGYSTHEPWwi49X1mNrr+97GkSoYMzWJuFA9+ltiMK1KJXYkDLvBgP6MZlWq/j87akgsifdHYYyMIeGeCLRnFLNTYXcxatI0EiYbMU6OI66nLVlDZ5AyN46oe+bx5PSwfp9jbwzRDxCt18A1IcTeMwH/bw9T4gRwU7yvGHf4A8yJ0ePvqyFo/EyeWpnBojvPZxLZM8/3x6hhNOERrXX6/+Z+om/uVqi5gVMNMOpX4wm9PoigX4QSPiaodQXip1pq62GU4SaCfME/JJaZdwThxo9rtZq+1QFortGguUaDv6b1D6po/Fvfayvg+GQfFf6RPDA9nABf8A/9PY/cGYSjcB+VfZwU6x96jldWzGF8UGul/vowDFqVmh+8UojagrJR+tH9X2EZEUlkhELlJweo/NaBo+2nqvAA5Y1hRN4RBN/mstvmYcIji5g5KZyQMZE8kPwEsZrD5B86n1SmQPR6f2p/cDCYu78KIYS4MJJWNNQ0V5D5fCaxm+d5pRc5yVthgoUpJM1cRlyAglpnp2xvNrnVXa+R27elktKQjGnmbJbFaaHBib00n+ySkx1l1NJtrHsjjNTFOylY7OJElY3sDVa0GVO71KXcuZTsVXGtk9k/WNj1Byc5KVPJKPRqs7mC3NezMfwxgaQV89ANV1GdDsr2ryN5Y1brbkOttRExfyOWh70ePHV/BjvvB1wFpMenkud9KqcLyS9ykXC/FtuOvT3cP9D3MekbBznLTTQ+kULS9FTM8xVUp52y/dnsaq+vuYyXVpgZmZbEsq2JUGfH9v56TG+OIeU/JxEfsgVLt6wb+w4z6wx/Ienp9STiwlGSif3jMsq6TCKd5GxYTdizJlKej0NRnVS8s5KC4m67H313iILKRPQ32Cn8rJcbp/uruY7DB2uIXLwR0w3+qN8fZqvl3Y6but2fWFkTkMScBzN4Zb6CWuug/MMXsBYM4G2nPxSwfc8Enpi7lldm1FH39X5yP6khTK9BoT3zpYYDe/K4fe4jZGyYg6e+Bsen21hxtAZPs4O8t94l/LEk1r48k5rqYt7abKHmsTQeXLKcU6vSefvrXurwjyNtcxLhXoHyA+bXeACgzMrcjDzcjj1sePFaTI88xcbpCrhrKN+7gTXvVPX5VB17XmLrqPkk/e11AofTWse+TVj3eY+nm/KyCpSp4YRfc4CSnnYsOgv/WyMJ9y1n22fd/j6Nhyn+QmXRxIkE7dnDAcvf8P/3+dw/N40HhqvUVB7AumYrxfU913tOAeOZ8AuVyvcqZKciIYS4jPkYDIaWwe6EEOLSMBh6SJu6Jpa0V2bifnEhGw7KtG5ICYjlqTWPQtZiXhjIQOwi0E/PwDzlGGuWbDpnIGO3D3BgK4QQYkBJWpEQQgxVdft568MTTJj64NB+8nBANDPv0VPx3tv9WuEQQggx9EhwIMTPSEuLLBReXjxU7d5MnieapIfCB3h3p4ESQOTsmYT/8BbWD8+yjW0b+f4JIcTQJ2lFQvyMXHfddfj5+Q12N8TPVENDA8ePHx/sbgghhDgHWTkQ4mektrZWrt6KQdHS0kJtbW3vBYUQQgwqCQ6E+BlRVZXq6moaGhokSBCXREtLCw0NDVRXV6Oql/bhjEIIIfpPtjIV4mdGVVVJ7RBCCCFEj2TlQAghhBBCCAFIcCCEEEIIIYRoI8GBEEIIIYQQApDgQAghhBBCCNFGggMhhBBCCCEEIMGBEEIIIYQQoo0EB0IIIYQQQghAggMhhBBCCCFEGwkOhBBCCCGEEIAEB0IIIYQQQog2EhwIIYQQQgghAAkOhBBCCCGEEG0kOBBCCCGEEEIAEhwIIYQQQggh2khwIIQQQgghhADg6sHugBBCDDZFUQgMDGT48OH4+PgMdndED1paWjh9+jS1tbWoqjrY3RFCiCuWrBxcVnTEPbeLwvfMJAQNQHXDo0jNLiTfMguDb7fPtIlYPj3EoUNtP59aSNQOQJvi8nOu78kVQFEUgoOD8fPzk8BgCPPx8cHPz4/g4GAURRns7gghxBVLVg4GW3AU8xYmMXXiGPRaUOsclBXnsu3VTIqO9XB17EdoGrDGVaAJtbmHj1w5pD9kY8TVoNydTub8AWtUXHbO8T25AgQGBkpQcBnx8fEhMDCQ48ePD3ZXhBDiiuRjMBhaBrsTP1vDjaRsXU+iUkb2jl18/j2M/NffEv27eMaetPDon7JxDIEJmfZBC/lPg/nfTGS7Brs3QgyskJCQswYHITPMmB8KaXvlofjFP/LCPk/rS99Q5qzJIM6xgT+utXP/irXM9GzlsRV7qBuozl2KNtAQ+aeNPPWbw6xaZMX9yFoy7raz4bEXONA4YI2giUnj9ceCeDd9MW/pFvHK4nCKzQvZVNI2nprxPLExjdiAtgMce0hfspXKHv4f2NLSQlVV1cB1TgghRAdZORhEijGe+BtdfPB0Muv2t68S5JH9hhWdnxPnEAgMxM+Ar4L2BgNhEZOI/aWTrI05QyIovVR6WzXwVL3Ns8++heMnD54u4+LmVCO4Gz3QXIfbA57GBtzdjtf8Jom1y+PwP7iBP6050PVz3yAiZyTx4J3hhASA+0QFB3ZY2VrowNOPNi6U261CYwPunzy4Gxug0Y3b+1x77WcfzrXRjYob1Q34u3HjpsHtdbSnhE2mGViv0hB473LWxpy9v7LSI4QQF48EB4PNV2FEgBZwdr6nOnF2ySjSkvhiPqmR7a9d5KXFk/6RVyElhozdyZCVh/ah2RiH2flg4zoqolIx3TmS+mIrS5/OoqK5rex7ZuLar9A12y5oVUBrnMXSpASMv9Sj04LruB3bO+tY/bqt86x8Dcx7bSemW0AtNhO/3MHsZ1NIjDSgVRxkLZjButJ+3GQYMo/MrFgKn9nGsIeTmDrewLAGO7Zd61i5saijXeXuDHJXxaHFQbbpUXJGJ5M6914ighXUwgxiUnJob1V7SyLJf55F7K/1aJud2A/nYl33EnlV3fqlMzJvkYmpk8eg9wPX90cpes+KZWsRDq+i2nGzSF6YSOyv9QxrcFD28Wus+0cOFd7VaSNIXGwicXIEBq2C6nJw1JbHztes5FV2FlRujiPlP5KInWBAp6i4jts5sj8b6+Ycys7jErJ+sonkBQkYb9ahVYDTThzVJ3H+UMgNCjhO07fvScg8rFlJqBumYtrh9R0OSGD97lR0W2cze7O9/SwIuz+FlDmxRARraTp5lKI31rN6Rxldvnp9HBOgdfXtZTOJN9jJTDNhsV2cG1U9ZwQGQLMbd6MH1e0GVNxuD2rjGaEBYXeMx/9bB+4xk4kccYD8+s7PQh9cwqLfayh+cwOb/1vFEP0IM59cgqcula1fePrYxgWfHafcDXgaT+EG3A0qnkaP18S+D/3s9VwBt4r7JxW3Czz+bjw/uTnV/VSawdPsQf1pgE9RCCFEn8kNyb246aabePXVVzl06BCvvvoqN91004DVrdpyya8aRszTFsyPxxERdLab7FzkrJzGjMQZzEjJwn62q7q+emJ+p+fgmmTWfRlMwrMZxB6zkro8FzUygXvHttWvFrJ2bmt9s18uu+DzcP1Qzed7raxOTybpT0+z+n0noQvMLL3H6w7mZjuZi+JJer0Crvstyc+nMsmZTfrybOzqKZpc5zGp8zWQ+EwSwTYLqQtNmPeD8Y8ZLL1f11FE3beaxOkZFNSNwnDfUlb/+yhsG5NZV6jSdNpr5hKcQMbaVKLZy/rUJEzLrZRdn8iy51MwDvdqc7iRlI3rMRlV9m54GlNyOutzv+eGWydyw7DOYkroPNb940mi3XmsTzWRvDYP7kpl9TMxdI6KlpglZlKjoGBtMklzk0j+WxZHGMNvf+E1doqRJ9dkEP9/bFjSkpi9IJn0zYW4Rt+G4dr+D5sy1sTq5xLR2VaTNDWWaaZ1FLkUnLl/xZRiwXa6ffD68D2pyiP/S4iYHIvO623t5EmM9T1K/kf2jvf0055n/bPxKMVWnk5O5q/vOAlfZCbjfr33kX0bk3Y33kZUqBYlIIJJtxr6PxgXxI2nERrcp/AAnkY37u4Td0040eP8Kf9gOyWNoUTe6t/ls9i7Q6j9yIplTzGVR0vI27yG7Z/U4qcL6nsbA6ChUe1YLXCfdoPbjbt9gt6nfvZyroDH3YBHbVuRcKu4m1sDBSGEEEOLrBz0Ii0tjXHjxgEwbtw40tLSWLBgwcBUftqGeeHTnFz8JLPnZhAzV8XxZSF5/7SS+X5Fl6upao0DO4BvE2efRquUZa8ma7+LsPEnUW8swrIpjzLtCJzEMzKws5zzmAMnoK0dgCutxwrI3tH5sqzEyS0xmcTfPhblw6KO/qp1TlzuJpSQOKILMpj1XA7OUBNP4qL+PBOo7VmLSX3DAYDtSzNjb7Vwb0w02ndzWsdPdeGsqUdFwRgXQtbCeVhKIS6mifpTnbd2hz00iyi/IszPriOnBqCMspN6Il5N5NE4K7ZdrVfF9dOTSAxxkP2nZNa1XaW2FReQ06VXWmLmzibi/+VgSrXQWsxGBQZynplB/KYCsmsA35EYDDpUu5Wd77etsnxVhq0gu+tJ+hkIC4Lq3GxyCtsm20dsFL17PiOmYJyeQFhtLqZNBdhVwJnFS3kJZM5KYtKOVArag4M+fU8c7C04ypNPxBKryybb2Xr+UZONDPvSSl5Ve7NGZs2Ngo9TSVlT0Pq3sZXRpN/J8zOnEva+pXVVq69j0q5yN5ZteqYFO9jxTsX5DMgFOfbFfg7X1AEejn1VzEFPTdc0m4hIJvhXsv3QYWp+6eapiZEEFOS33i+gD+MmrZvKLyq8jqkh78WV/WpjINRWHabY19G6WuA4QnGJg7r2ixB97Oc5zxWgroKST49zzAPU2Sk/2LZCJYQQYkiRlYNetAcGZ3t9wWqK2JI2m/gHkkjflMP/+BmZt2IL25bFdLkS21cdO8o0t/40tf8OcLG2odSGkbDYjPWdXPL3FVJYsIXEm0EZNuwsBzjIf+OD1olfpYV5dyeT5TxL0XNqwnnyROdLtYwjX6soNxp63HJTPZTNtlIVUMlbHs+M59sDFx3GWwxQ9Tk27+yuis+prFMIiwijdc1Fi9EYgfK9jfyycwRVShi3RWhxlhzAu5jL9jl23zB++5u2FZxmB4X7ysCYgvXFdOZNiyIsoIf6XDbyD7kIm2PBusJEYkwYuvPeyVGL/gYd1DhaA4M2J487Qasj+Dy2q3XszafMN4LoyW3fWG0UU8YPo6xgL472QiG3YbxOpaKw0CvoVbGVVELIGMb4tb3V1zHpbJ2CjekkP2uhqKb/fb8wHir3bGL7wdbpr+NjK1v3eXdCw4Q7JqA5WkxxvYeKg+W4x0Qyoe18NCMCCKCOurpzTfV7a2OAzqTsbTa8U966OnF0Dxt2lnSkFfWtn+c+VwCcxWx9OY+qZqCxhO0vvk35QEc5QgghLpgEB70oLS095+uBolaXkfe6meSZiSTvOoH+PhMzbrkoTQ0sXz2Jf7WQfvcwCteYSIiZxKSYeWR+fY5jXJV8/mXnzFQ9PXB54vWnm8DvWpQeggP7V0c774FQVTqeo+Q7khEjALeLk11StlzUnwbtte0z5hFcG6CA62QvN4vrGKEFXdzz5Obnk9/+s/1JIpRhaDtSgVQqNpuYnWqlSDUwddF6Mt/LJXNFIhHek/RmO9mpj5K8MR9ncAymjExy39uJeb7xPAJIFyf/1wUj9ei9Agz9dTpwfU/1+aR5VOeSXwLGO6PRAUrkZIzDysj/qCM0QAnUofgqRD2T2zke+fnkPhOD4nstHUPc1zG5HFwzgcgIDZUHi3EDnvJiyhvDiZ7YOWO+XB7l1Ws/+3CuQgghLg+SVtSLVatWdaQWlZaWsmrVqovcohPbR0U47o/HcKMCXw3x6cN1dxF/u5aKzevY0p7yMmgPyhrGCP9h0HCqf3vyN5+kvh7w1zLSF1wdx2oZMRxcp9pnzPWcqldBP4Jzz1Nd1LvAaVuJ6bXKrh/9qFLf5W5zFXvBFswFW8BXS9j9S/nr06msPG1nxt9tnZMy1UHRG2aK3gC0BuIe/yvLHjez9NsEUj/sz4xepXB3Lva74jHNySd9qw315lkk3afHkWem8LzSPJzkF5SRsjCW6IAPqI8xMuywlXyvC9xqvRO1WaVoYxLrirsd/mM9J7tsWd/HMRni/G+NZnyAP8r8V8ia2/amRgMTIwn4MI+6uhoaiCRApwHvRCGNBo3HM+CpQ+fL04d+9nqug9BvIYQQ50eCg1588803A3ePQXe6CIw6O7bKrpO7UTcbGMVJ9l7yNIle9DTpv6o1daipwevmXkWHbngPZQfcMLh6GB3XNYePZeyvFFxlX3G0X1txOjlSaYfpvyUiAOxtywtK2G8JDVCpKDnS1oKLstKjqLdHEfvrlyg7cpZpqnqEQ1+4SAi7BW11HufKQOqi2UXFu9somBnHvH8NQ4uNHrOtXHbytn7AjIdSCPlVMHzYv1x7tdiKdV8syx7OIHuOtnUnpb0rWbzh/Cfezr252JKTiZ0Sg+tWBdum/K59//pzypzziA67gZM7iuhzONPrmOiIenwxD//CwY71g5FadDb+jJ8YDmVbWbHVK0XnVzP5z3+PJFKXR973lVQ4/RkfEY7mk5K2abc/kU+u5lF1G0stxQO+Zel56bWf5b2f63mlDQohhBgMEhwMGgXj3JVYpoPt/d3kHjrKidNa9OPvY9ZDRppsZnK8Jp/aID0j/RS4fhgKoP0XPYYQUBtO4qjpby6Igm60vvXpx4Ft2fQ3GDDoVOqdDpzdqnN9XYGdqcTPicNe5EQ7Wkv1+wWtW3J+b+NIFSROTSLOlkW5byhTH08mdiQMu8GAXinoyG1XAnRo/Vsn9COCdOhOuXDWXch1YIWYhWZSfLdxoGYYEdOSuVfnIGdXQeckV9GiCxqBAih+WvRBOurrnHTfHKksO5ui+1IxZaTQ+Ho+Tr+xTHs8EX1VNuaPOgfEvsvKBwnPk5ixHrbu5GCNgj7sNmJvVdmWZqaoDsBFwbZsKjbOxvwPsL51AHuDFkPUNGL93if9ubzWCW5wAuaNsxi2L5tdRRU4m67FMOlREkJU7PuPdEyCtTHpWBfpsb29iwNHvufUsBswPpjIGBx8UGqn38Y+SlIMFG5cza5KFyqgnrR32Ya1fXz7/D1x5pNvSyZ1jokm3yOs39ttNqgWkbXVRuziDNY1W9m5twKnoue2e+LR28ykv9V2Hn0ckw6hM0iZG4fBF3Tf5lP08qW/KblHIyKJjFCozDxA5bde181rDlD+8CIi7wgib085ubnlRD+SxKLvt/HuF26C7niAObd6OLD6cL8CA/0MM2sfCuDA2sVs+GSAQwpPL/0cMbkP5zpkojYhhBC9kOBg0KjYNiwk+eRcHv23qSTfZ0Lr27Z//TvpvLQpr3PLUl8DiWtanxHQzvDMTqIAbGbiTdk9X2E+G20CGf9Mxei1EmDK2okJqNg8m9ndJ1ilVsybgkmdtQzLH8D1fSGW0gIqqoDmMl5aYWZkWhLLtiZCnR3b++sxvTmGlP+cRHzIFiyVrecwe0PnOaS+k0tq6TriF2T1r+9duLAVVGCYlUFiiBaOl/HB382sK/Z6PsCdS8leFdeaBvQHC7v+4CQnZSoZhd1mwseySX9aYemiRJb+Y1brcw5s2aT/Y13n1p4AdUVk/Ec6zkVJJCSbmaWorc85yLHyP16TZfWIheQ/17P4yURMGbPQ4sJRYSPvjcrOq+bV+WRmhpGUmETGwzoUVJzfH8W2+Wksr3VuHer6NBvr2CQefWgpCYu0KKoLx9c2spdZeKn7efTFf+eTW3QXs58wE+N134GrMofVz2Z07jDUr++Ji/yCIyRPjoKPLOT3kEdi35GK6cdkUmYmsex+LTQ4sJfuJfvLk52F+jgmHb47REFlIvob7BR+dh6B0kXif2sk4b7lbPus20A0Hqb4C5VFEycStGcPjj0v8MJVScy55wmWP6LgdpRzwLLK69kBfWqNsJv18EM++baLs9Zwrn76x/TtXCU8EEKIy4OPwWBoGexOCNFvIfPI3D6b6mXxpH54uWShD1G+WvTj40n+SyqTvjMz40/ZnbsM/QwYDGd/PkLIDDPPGQ+TmrZ96D41WjOeJzYuYfSHqaT/88r4ywX8PoONUypZsWQrlWcZd7t96ASDQghxJZHdioT4OfGNYJ7ZQurd3g+oc+Gw5fBBuQvlOj26QbuhfOjSXKVBM1TH5Rdh/z979x4XdZ33//9BNB8TGi+4oVRO7ZepvcDdiFUj8YDdFuq3sG2p2WJ2ebhWyd3Ivh42l9YrNm+6tG6srYdbLh2k9iLZDFfz0O5CV0E/FQslcZE2YS8brnJI0bng5ziInwn5/QHogAdAOZnP++02t5iZ97wPHyZ5v96nDxHXlbc5Heqq5Q8WiwVDf5lERPqMlhWJXEsanbgDokh+/BmcjVsocbohIISw4Q+QPH4Ajnd2dXEz99WvqakJPz+/i75vCZtMRs5kwEvxSz/hxR395RyhZkHh4Vg+2c7Oq/1IIMsInli7mPjW00+dlRdN2tSkCW8RkZ6iZUVydbJGMDYmBFfJbiqu9k5RLzPCEnhy3gwSh9sJsRrNd5H+soKS998k843d/Xf5TA+56aabCAgI6Dih9Bv19fUcPXq044QiItJlCg5E5JpmGAZDhw695OyB9B9NTU1UV1djmtprJCLSE7SyU0SuaaZpUl1dTX19vZar9GNNTU3U19crMBAR6WHacyAi1zzTNLVMRUREBM0ciIiIiIhICwUHIiIiIiICKDgQEREREZEWCg5ERERERARQcCAiIiIiIi0UHIiIiIiICKDgQEREREREWig4EBERERERQMGBiIiIiIi0UHAgIiIiIiKAggMREREREWmh4EBERERERAAFByIiIiIi0kLBgYiIiIiIAAoORERERESkxfV9XQGRa5lhGAQHBzNw4ED8/Px6pcympiZOnTpFbW0tpmn2SBl90S7pfb3xXRIRkd6lmYNr0R1xzP7ZRKIGdjL9wLGkbiyiIHMadv8erVnP6aY22GKSmDYpGms3VMkwDIYOHUpAQECvdqD9/PwICAhg6NChGKXKjEcAACAASURBVIbR7fn3Vbuk9/X0d0lERHqfgoP+IDSaac9mkptXQNHHeyn6ry1kLZ3G2NCeKc561yRSZiUSMaCznzCB05iNPVOf3tHJNhhWbKEX6/obhE9IYUHSPQzuhiApODi4TzvPfn5+BAcHd3u+fd0u6X099V0SEZHep+Cgr906kYw3MnlyFJTkvEDa4jQysj/EFZHEo2NtfV27ZqdKyEiKJ/GpHBxXa4DQqTaEkLS6gC3/EU9vjIEOHHjxqRvLuKd5462XSL7Tcpm5W4h8/CVy180j5hJZXKoOl+tSeYZNySA3N7flkcPT9/pUzj+cmStzyVkUi8XfxuT0XHKXPEhQt9fw0ixxi8l5ayVT7wDLqHm88darPDHicn8PF3HzZNLfyiX9wSC4IZ7FObmsfCyse8vohA7bGj6TlW/lnv2dvfpUDBe7Ej3xXRIRkd6nPQd9ykbSovnEkU/anDTya1pfz2frm6v6smLSCy45ul7vwUs9Ho+37et3TGVl+mRsrTMXDR5qvigl760s3v3U45PQy0mPFxo8eLi4nhjh7yhPb9Vmnn12E84zXrxtAjUPJxvA0+CFxjo8XvA21J+rf6fbHkRC2lqS76xhc9pCNhxqW35geAIzpj9EzB2hBDbWUfXJNrLfeJfyE+fyNfFgeoBADx481Lf/PVwptwcTL95THmg0MU3weOrPteDBdF6dGX72ufdEDc6Du3grewOlrf9OBEUy+d9nEj/cRqhhUnOomM2vZ1FQ1bautikZrPyxjcrshaS9W9PmvQ7bWpnNwulvYbnOYPzPX2XqJZqk2SIRkW8GzRz0pbAEJo4eQElOpk9gcBEh0Ux7fj1bCorYW1REXk4GKeNCzr1vxJGet4X0GSms3lpEUd560h6KJml5LgVFBWz5/TQi2i2FsY6YTUZOHkUfF1GwNYvUB+xtR8yNONL/ay9797Y8Ps4k6bwVNwZxzxdQsDyJsTPSyNyYR8GOIgq2ZpIyrn1ig4iHUsncmEdRUXOZ6Y9GdXn9fsi/ZbK3KJOkCw4pN9en6LVp2DrdhhCSMveyd28eqdHAuDSKWtLnLY274CxCWMICVm9ouXbvZJIS0x27EM7xeurxnDE56b7Am2dqKFixkIULF5L6Qha7vJHMfGoG7Qe36xs8eBs8nDzThYIHRrMgu4Ci/8oiJbrn5k+85wUGQKMHT4MX0+MBTDye1p99dKbtoTHEhNfiPBJKzJjwtp8PiuWJRcnEsIc3X0hjWWYetf/6GE+nxHN2FZ/HxHPGxOMGr8eD94yHk5eKsC5HowdPg0lzPNDcbk+7tnpPFPPyooUsXJjK0lcLqA2bzLyZsQQC+NtImP80U4fVUrBuOWkvZLGncWRz2wb5ZOIfxvhoG84varGPGsV5KxU709ZGL16veZUvKxQRkc5ScNCB22+/nddee429e/fy2muvcfvtt3db3tbh38OOk7IS56UT+tuZ9tsMnox0kf/b+STPTyPXGc705atJ+Y5PB87fRtyPbOxZMZ9V/xjKxGfTiT+cReqSPMyYifzwLt+0UUx/8ns4ctJIeWoZG6ttJD37a5J9+1JmEStnTWJK0hSmv1J26bbELWDBdx1kzZ1AfMJs1ruimP1/p7cJSGyTfsfqZxMxirP4xfz5/PodF5HzMkh/qGvLp9yHHDj9Q7DdBmAQ91wuW95ZzbQ7AIYw9JYBuL90cKzTbXCxNW0SkyZOJ3M/ULKKKRMnMWniJKatKOK8M1huS+KZaYPZsy6V2XOWkVcfxex5088Lvq6I5yTeRg/1F+yUeqmvc+J0Oqn6dBeb3q/AMyiU0MB2WXhMaDCp70qn7rZ7GBtuxQiKYtzd9itowOXw4G2Aes9JvIC3wYOnof0F6LjtoaPGE1Gzh+wPKgi9ezThPr+X0HsTGXlDORtWZ1NQVkn5R5tZ8Wo+lQQRekNLCZ56vKYHTyPNnefG5s5zt2psbpvpAc54qG8wMevbfdPOeKj9yonTWUXlnu1s31+DEXorQ/yBO+4jcZiXXevXsLmonMqyXWSvzCb/iEHQEJ88wkYTc7ODD3J24QwbTezNbYvolbaKiMhVRcuKOrB48WKGDx8OwPDhw1m8eDFz5szplrwHDw7BwMXxDmYNjNHTmHGXSWFaGpnvN//lLvsUhv45g4lTx5G1pLClA2tStvEFcna6iRhxHPO23WS+nE+ZdRAuEhnsu1+w0cnG535B5mfNnyw7MpjotxcQlxhFZmVrJ9rEddiJC7DWdnBM4VdbyViSQ4kJUEHRJ05SHrUT5g8VjYARzbRZY+GDVBasKMQNUFLGaVsuv5s6gYi/Zjan6wTzvx181ZjI0FsMqIjinhE2hoTYGPVdKzlf3oI9BJzvV5y9Jp1pg+ly4iQE99fA6ZM4q53nBwWt3AW8MDedwjqAMjbumEHSNJ+2doc6B/s+MjncUX6BYcSPiYBD2yhv16kznfsoLnNS25VyK7eR+aaNSUOdvP1ORRcrfeUOf7qTfTV1gJfDnxWzx1vDRRf0XKjt/qGMGmWnZn825Xv+l4op9zH6X7OpPAhgIfwOG5YvtlNedy4bb1k2y33jxroKSj8+ymEvUOegfA84T3VzQ8/UULmnFFzNS6g+/6SYo19dfOmSxRZD7J3B1HyyD2cjBN0RRugZB9v3+wRPJ3aRlb6rzefCx8QQ+sUH7Ckv58YjDzFyjI3N7/gMRvRGW0VE5Kqi4KADrYHBxZ73BvvwKEIaK9hb7NP7O1XCgX+aTIz4Hnb/Qlq7cWen/hubH6dbfwZoM7Lt4vhXPt3frw5woBqSbrdjUHbxjvHF1Ltx+XRkzdNm2zLD7iH6JpOKV4o41wqTktJKeGAYwwKgorMjlm4HjpoBRH3LBkF27CEHKSqxEfZtO8aHNoYMduP4nx4c/qxzUeWb/enTzf/t1pmDUjZkll74vetsPLgkh4RGsNxgwXukmOzf5+NsF0h4P32XNZ92tWAnhWvTKLycOl8xL5Xvvkxla00+yCK7fZKO2n5zLKPvqKF0fSXemjr2HXqMxDHhvHWwEi+BBA0KxOuuo+ZSQZermOxXWn5uLGXDSxf5PVyJRicFb2S1PKlh1/qXz0tiCYpnUdb45p9vgLqyTax4pxIvEBR0IxbP51wyZvcPZ/TdoTgK91DjreHj0hoeujsG27bN565Xb7RVRESuKgoOOrB///42AcH+/fu7Le/jx12Y3MLgUKDuYqkMrFYDTp+m4bTv66c54TkNA2/E2i2dUjenT4EReCNWwHWl2X3dprIYwSEY/gZjf5lHwSKfN663YviXcaMV6Gx/3qzA8T8QP/QWrBER2F0VrPwHPDc8AmuYjVtwsuef3+AbMp2poeClFWx3erEEhBIx5hGmpi0hcPlSNh/q5o2z/U0HbbeNGY39q1LWHQKoYc8nDh77wXgi1ldS7uXisxD9kPdEMVnpG6g4YyEw5HZG/mgqi5fcyIvPZXOyEcC45KlalmHjGRXiIG9P89Rk1Z5iah4cTYxtM5u/6I0WiIjI1UjBQQeWL19+dmnR/v37Wb58ebfl7T7wdxxEExVtg8qL7TswcbtNGDCAGwbAuSH9AQwKHACnTuJu5MpHrf2tWK1gHj/Z9VmDTjBPuDAbTXavTWZVcbs3vz7B8aNdye00FYePYQ2zYf/uMAzHRkoODcL9kJ2I2wYzuM6B46LB1jeBl3pXFc4vAJxU/bOGwPAMEu+PYPuh8quqA9x1l2h71UnGjwrDYrPx/BsJzcn9LVgsQcSEWyj/1ENdnQfLzUGE+uMz02LBYvHi7W8X7oyHWqcTpxf4oopKh4XwtVNJGPUWL9edxBsYRNBA2kQ8FosFr9cLWIgYM4LQG0J5LCOHx3zeHz3axuYvOtjnJCIi1ywFBx34/PPPu22PwXkO5bP14+mkPppCXH4ahb7D9f5WrP5u3CY4yspwzYjlnmgrWwtbhtcHRnPPMAPX7j3N5/Z3OTgwaHND09uiiboFHHllnR7A75JDf6fMNZvYiFs4/vbuKyzDxPHf/wMxduLNoRyvOoj7nyE4g8cx6rsDGPDF36m4rAjHhEYTrjdoE4ddFSxgCew4WYdCGPuzhTz6LSdvr85kd0enaPULLW2/LZIYm5P8lSvIO9L6XjD3pSxm1JgILJ+WU/GZA+/dkYwYshlna5qwh1iSNpJ9y9L694j6GQADw9/Ac7ASJwlEDg8kf0fLvoMbIpm5fB6h76ayfIed2OHBVL2zjNVFrbtOLNz6w0XMix5P2KYNVOn0IRERuQAFB33KycZVq7lnbRrpr4ew9c957D18AuOW73HfhAmEH0hjxvO7cRdvZGvlD5m+IJ3Zljcp+V8r0VPmExdQRtaG3ZfXifWPYsbSBZz84984yDAmzp1OhHs36dsdPokMQm61Meh6MIKbIwnrLXbsISYnXE5cXenhm7vJyS4hfmE6qxqzyP2wApdh454fJGIrySBtk6PjPHy4Dzlw3jSWsQZU5Tkwa0L4qn46Y2NMju13+AQfXWmDm7IDDsxpE0mZ5KTgK7CF2znxQQ6F1V2qXg+zEBBkw2YDLMHYx0wmMayO8m3dMGsQPoUFsxKw+0PIFwXsfqX3NyVf2sXbboudSmhNKTs/cfrMCjj54BMnCd+PJcJSTnnRdgoeXMQjT82kPncHhy2RJE5/hNB/ZrGrK4PpN8Tw9EtPM/LYZp5N66GO9nWBBN9iw9YIFuutjHzwISLMcrI/9UBNHttK4kl5bB5TG7fzsSuQkRNnEG/Zx5q9dVgiYxgZ7CBvRzlOn3bV/L+l1N47ktG3baCqqgfqLCIiVz0FB32taiupc44x7fEZTJw2n4khVqhzcnDPejL+s6S5k2tWkLnoF7DoSaakZZJimLgqi8j6xQu8XtlRARdmugrJLR5K0tLXiQgC16EiVi3+NVt9O8HWiaT/OZVon1mJlJxcUoCKddOZ3sWOo+PtVFK+ns+Cqck895AV6p049n/Ixn8c73oD/vszvmIaY2+qoPCQCeb/8Fm1lYS7oOSdinMBUxfbUJH9azJuSmXWz1eT5O/G9WUFWz/fRmF1Pzrf8bpQ4hetJB6g0UvdkQqK1/2GDR91w2H8X+6lsDIJ2y0Oij7pWsDWKy7W9j02Hplio7Ys87w7YDv3fIzz4URiIy2Ul5aS/UImzHqEGc88iGHW4PgkmxVvFFx6k3I7lrBI7IFeynPzemwE3jIohidWxDQ/8XqoOVTKWyuyWu6JUseuzN8Q+O+P89CsxUweaFJTuYusFdkUn7AwYvRIAh15FB9pm6f3UDGlrnhixoSxQdGBiIhcgJ/dbm/q60qIXIvs9t6+j8CFORzdGwRcql1hUzJ4PnofqYs3nHe60tUkdEI6Kx+sYc3CNRR39w3S+iULsYv+yMyGNcx9qfiiM1Td/V0SEZHep5ugiUivs1xnwdKdR7/2qkDCw23U7Mpj37UQGPhbsFgMjKv29yUiIl2hZUUifaSpqQk/P78+r0NP5HmpdlnCJpORMxnwUvzST3hxR387JqgDFjsRNic736r8hp8MBYTPZOXSB7G1BAZ1Oy6etCe+SyIi0vu0rEikj9x0000EBAT0aR3q6+s5erRL58h2qD+0S3pfT3yXRESk92lZkUgfqa2t7dPR1qamJmpraztO2EV93S7pfT31XRIRkd6nmQORPmQYBsHBwQwcOLDXlhg1NTVx6tQpamtrMc2euZtDX7RLel9vfJdERKR3KTgQERERERFAy4pERERERKSFggMREREREQEUHIiIiIiISAsFByIiIiIiAig4EBERERGRFgoOREREREQEUHAgIiIiIiItFByIiIiIiAig4EBERERERFooOBAREREREUDBgYiIiIiItFBwICIiIiIigIIDERERERFpoeBAREREREQABQciIiIiItLi+r6ugFycYRgEBwczcOBA/Pz8eq3cpqYmTp06RW1tLaZp9lq5IiIiItK3NHPQJSEkPL+For9kMDG0Z0syDIOhQ4cSEBDQq4EBgJ+fHwEBAQwdOhTDMHq1bBERERHpO304c2AQPeNJIirfJKfY1Xe1GJ/Gtt9PJOS8d0xKfptIyiZ325e/htO9UK/g4OBeDwra8/PzIzg4mKNHj/ZpPURERESkd/RdcBA6kRmzkmDtm+QU91ktmjW6KPxdGusPtV1C4z7ULjDARf6SSeT3QpUGDhx48Tf9bUxdvpLJJ7KYlZ6P53IKGJTAc68kc+OmhaT+2Xl59RARERGRb5Q+Cw7sEyYSbRaS9l7fzRqc08Dx/ymjbH//WV9/yVmDRg8nG8Dj8XBejf1DiZmSzCP3RhIWBJ5jFex6O4vsIide33SmB48X8Fw6tOjr2QsRERER6T19s+fAiCbpRxEce38LRe0H5/slK0kv7WXv3tZHAen3n78W37grhfVFReTOi+Lsu+GzydpRxPq5Pq9dMQ/1Hi/ehvYdewvhjyxi3oOhHP7LGtKWrmBD2Y3EPrmIx+60tE3a6MXb4MXTQXDQnn1SBlt2FLFl+URs/lfWChERERHpX/okOLB+fwqJoRXkv1OCiRX7XRHYrH1Rk85ys3XZJKYkTWHKghwcjRdOZR7IIuNPDmw/ns/0cMDfRtK86Qz7cj0Zr5WdP8p/BTwNHjweT9vZAEsk8feHUft+FpnvFlN5sJT8dSvY8FEtASHtd1B78DR48DZ0pVSD8LHjsA00sI0bR6SCAxEREZFvlD5YVmQj8eFxDChdRe4hYOBYUtYu5MTiCaQX9Z9lPe2ZNU4cAP6nL9HJNyl7LYP1YzOZ/mQSJR/cQ3JUNevnZlHWrU3zcvSzYko9NW1ftkVwu9VD5acVPkFDDfkvLTs/izM1VJQUYxzxnv/eRZkUvrGKrdwDxVkU9t9fl4iIiIhcht4PDsInMDHqNIVL83ABDBiE1R9O9HpFfPjbSMosIsnnJfd7qSQ+W9j10X6zjKzfrmfcywtYNRKq304h60D396Kr3suiqt1rlkFBBFFHeV0nOvyNNezKzupyueZnG0lP3djlz4mIiIhI/9fLwYHB2KQEIo7nserDls0GN1q7cS3+ZWp0kf/b1OaZjBanax2XvQzI/O+9lNXMJuJWJwfLLj+fyyq7F8sSERERkW+W3g0O/O2MussGQ5PI3OEzTu8PUS8W8cPd6cT9fGsfdHAbOHH4IGXdMsJvEDUnlYnX7WZr8V388OcpFOzPYHcvbLz21tVQTwxBIRbw3Y1gsWDxeunKAiIRERERufb07obkRgdv/nI602dOZ/qs5kdy2kYcjS4Kf5fM7N8XnBcY2Celk5uXR+7zE7FfBRtgjegnSXt0EEVrl5G+Iouyf5lI6txoemW/9VeVVLgCCY+K5NzZRIHEPLmSlSkxBHZDEcZ3kkjNyCB1UkTfz/iIiIiISLfq5dOKTFxVFVR8du5R9oUbEzhx5CAVh9sNr/vbiJuQgD0kBPt9E4i7pXdr68saasMeZsd+8wAMwPovzc9toT7d/oHRPLkoicHFmax+zwVVOaz600GGTEolJaYXwgNvOXl55QTem8y8CTGE3xFJ7PSnSb7by54d+y7vZmltGMTNWkBSXBxJP08mTtGBiIiIyDdK390hudVFjgVtfs9J0fu7mfDtaCjJo+irXqtVW/52klbkkvKdcy/Zf5nLWICSDBJTNuLCIPqJVJJCy/jDL7fSes/hiuzVbLw/k2mLUiiYnUFJDy8vcr77Ii9el8zMHzzBkscMPM5ydmUuJ/vT7lhUZFK+uwjn6HFQVET5pX53IiIiInLV8bPb7U19XQk5n91u7+sqnOVwOPq6CiIiIiLSC/rmDskiIiIiItLvKDjop5qa+seETn+ph4iIiIj0PAUH/dSpU6f6ugpA/6mHiIiIiPQ8BQf9VG1tbZ+P2jc1NVFbW9undRARERGR3qPgoJ8yTZPq6mrq6+t7PUhoamqivr6e6upqTFP3XBYRERG5VvT9UaZyUaZpcvTo0b6uhoiIiIhcIzRzICIiIiIigIIDERERERFpoeBAREREREQABQciIiIiItJCwYGIiIiIiAAKDkREREREpIWCAxERERERARQciIiIiIhICwUHIiIiIiICKDgQEREREZEWCg5ERERERARQcCAiIiIiIi0UHIiIiIiICKDgQEREREREWig4EBERERERAK7v6wqIyNXNMAyCg4MZOHAgfn5+fV2ds5qamjh16hS1tbWYptnX1REREbkqaOZAOjZwLKkbiyjInIbd/8qzsz+6mrwdW0iLs155Zt8QV+s1MQyDoUOHEhAQ0K8CAwA/Pz8CAgIYOnQohmH0dXVERESuCpo56Ev+USzYkMW0sJbnjSbuow4OfLSVrJc3UlbXl5XzZQKnMRu7Kbevga+7J6++YlhDsPq7cdV1z4j01XpNgoOD+11Q0J6fnx/BwcEcPXq0r6siIiLS7/nZ7famvq7ENaslOJjw5SoWvFbC6eutDL0rnumzkhj2ZSaz57xORTd1yKUbGQlk5KUTkj2F5D86+ro2fSosLOwCwYGFmKfW8vSd+1g+LwvPYytJv9/Bmp++yK6G7ivbEreYP/40lO1pC9kUMo9XF0ZSnDGXl0u956Vtamqiqqqq+woXERH5htLMQX9wqpqDn1VgAhUHSihrtLNt0QQmjlhPRonWSneOgRFiY9iwKMZ9fygH12ZS2G9mXvpKz1+Ti80aeDwmNNTjOePF01APDR485wW6QSSkrSX5zho2py1kw6HW1y3ELvoj80ZZmp82evHU1VD50Say39qFs7Xv3+DBxIPpAQI9ePBQ7zk/MLhUPUVERKQtBQf9kPuwEzdRDA71edGwE/fEAlIeiMZmBXdVEblrXuD1YlfL+3Gkb5sPOflYfzyd6AEO/rZ2FRVjU0m5dzAnirN45hc5zTMRoWNJWZRMXJQdW5AV3E4O7swhY+VGKty+ZcaR/pcMEoJanjeWkPH/pLDRNw0Gcc/n8avrMkn7RwQzJsQScZMVasvYmJFKZtG5xPbH15P7s4izz51vpzBlRQltwh8jitS3M7Fv/QUFN88gaXwEtqABuCu2sjItg/xqn6RhCTy5IJnEkXZCBgKYuKqcHHdXceIWoIsdYVtcCvNnTST6jhCsuHF9WcGubVlkvl2Cq5GzMwZntwXMzWXv3OZydy9LZP721rYaRC/KJfNRG9TlkzohE2NuGikPRGGzGpStPTfj0KlrEjab9TnxlCx5Ex6YwffvsjNkgBtHYSa/en4rDp/EXbkmxnemsXrFk0S4t/LruRkUurp2vS7Oy0lPPd6Gk3gAT72Jt8GLp32y0BhiwmtxHgklZkw4Gw5Vts3l02xS15WCfyChdyYyc3oKKXWVpG2raU7gMfGcMfG4wRvowXvGw8nzChEREZGu0IbkDtx+++289tpr7N27l9dee43bb7+9x8u03jwEa+Mxjte0vhJC3C9XkjEphLLsNObP/wVZFWEkL89g2h0+H/S3EfcjG3tWzGfVP4Yy8dl04g9nkbokDzNmIj+8q2VTZp2Lz/fnkfV8KilPpJC29kPMsam8MDeaNts2zSJWzprElKQpTH+l7NJ1jlvAgu86yJo7gfiE2ax3RTH7/04nwmcDs+Pt+UxKmsKUqWnk11w8LzCInp1K7PE3WfjjeOIeXUXFbUksnOVTP+tYUlc+R+L1eaTNTCQxaT45B07Dlzn8ak4qOZ91fJ3buGM2y9KnE+bIIm3udKbPTWNlnpMhd0UwuLUNZiG/nj6JSUkZ7D4FFW+mMGniJCZNnEBavm/EZFLySjKTfr4VZ8At3PeLF0iJqOCNxRnk15iY7uNdvyb+ESQtmgJ//RUzEscxYVkJNybMJ+V+nw3MXbwm1hGxRIcaWO8Yy7hvd++G3foG8+xsgeeUBzwePGfapgkdNZ6Imj1kf1BB6N2jCW+/2b2hnhqnE+cXlZS+t4niLyAoNJSW+QS8nnq8ZsuMhMfE09gcKIiIiMjl08xBBxYvXszw4cMBGD58OIsXL2bOnDk9VJqBLSaJ+TOjOX3gD2wtbRkSDp9CcsIQSn4/l/RNTgBKSl0M/u7rJCVFs/G3rSPNJmUbXyBnp5uIEccxb9tN5sv5lFkH4SKRwcEtxZgV5P+p4lyx+8s4HZXI6uGx2P1LfPY5mLgOO3EB1toOljd9tZWMJTk0r4KqoOgTJymP2gnz51x+bhdOtwuMEE50sPnWtXM1aet24wY4XMCeqlTG3mrHSklzfb7/KD+8xcH6Ra9TUgWwmz+8UUDi72aRNOJvXV6OZdhvx+5/jLy/bmX3/ubPVuzfTX6bVCbuaidu4wSnv4bTJ1w4q50XztDt4pjbBCOKhBFbmT9rFbvro7nr69O4T51uk65z18Sk5LVUVr3fMrxftJNKM4Ghtw0Fmn+XXb0mrr9mkRlhMqzur+SUdu/ytdqqfRT7O5tnC5wHKC51Uue7rMg/lFGj7NTsz6Z8z/9SMeU+Rv9rNpUHL5SbhdCo+xh5cy3lf3ZwduFQXQWlHx/lsBeoc1C+B5ynurUZIiIi1xwFBx1oDQwu9rw7WH+QQdF9gD9guqh4/w8sWJlztlMdEh1FhP9BVu306Yg2Ovj7ATfTw6MY4l9C6ztnTxRqbH6cbv2ZlvybcyTq0WSSfzSWiFuHYL0eMAz4ymCAv0/6rqh3Ny+9aa3HabNdmV3T4HZzrgttNi8XCTw3uj10aAiGWc3nPsuMzKMujjMEm+9yrE4yS3ey+2gCSUtfZ3D+3/ig8EMK9zu54i5zo0nZX3LYXQdQQkZSIjReTq6nOe32GRZvNDFPg+Hzf3CXr0ldCa8vKbmMunTMW7aZNa2TTQffZU37Tv/NsYy+o4bS9ZV4a+rYd+gxEseE89bByrOdf8vwZP6YnQz+FizXeaj82xo2fOKzbshVTPYrLT83lrLhpdIeaYuIiMi1RMuKOrB///5LPu8O7p2rSJ6VwqoiNxzfRdbKnDbHmA62WsE/iic3FFBQ0PrI43cP7vUpLQAAIABJREFUhGAEDCKki+VFPL6azHljcf8lneQfjWPcvXH8Ynu3LThv9vXpjtN02vl5HT/uxjSGYrvp3GvGTSEM5hjOSy5ZughXPmmzk0n/axXWmBk899oWCt9ZzYI42+VXG4BjVBw4F9SZptltR8K21+3XpAfZxozG/lUpOw4B1LDnEwfBI8YTYTmXxntwE8+mpZK6OJVlL22nNnoe6SkxBF0sUxEREblimjnowPLly88uLdq/fz/Lly/v/kJOVXPwsxLKVmQSm53K/HlFlCwrpHWc+Lj7NDSWsX5+Onnt1lSb5nGONdL5EXr/COLvj4C96bzwdglX6xJt14e5FM7OYMqTSRT9ZiMV/tEkz4zHWrnx3HKsLmdaxtY1ZWxdA8atY0l+Np3ZS9NwVqSwsbrjj/e1HrkmPcE/jPGjwrDYbDz/RkLLaxYsliBiwi2Uf9qSrqEO5xdOvIDziyoqztzKq08lEJtbzLvdHMuKiIhIMwUHHfj88897cI9BO4c3krEunqx585m/s4T0wuauu6u0BAdJDAs7QeaVjvD7D2heOmQ2+IzHD8B641V2B1lXIVnZJYydm0LmtgUM+NqNc/9G0pZkdsu9IczDu8naXsL06Cgi7AZU+3aum0f/Bwy48nK6VVevSVA00+ZN4XvuD8hck4+jt+6pcdtoYmxO8leuIO9I64vB3JeymFFjIrB8WnHxz15nYFgu/raIiIhcGQUH/Yzj7VWsv/91UhbMp6g0vflc+s9yyfpgIukLV5Me8iZ/LXdBaBTxDwyj+pU0Xj/QhVFh8yB7DriY9v0pJI+vZNuXViIfns/CcQPgaxsRg6Hs7Ci5QcitNgZdD0Zwc/BgvcWOPcTkhMuJq4vTDkaQjSFBBoZ/CIOuBwJCsIXZMb8+wbHDrq6t7zfGMm1WNMcL01n1nrP5DsP1LiqOd/jJC2VG9LzXSRt+kG3vFFBWdRJuuotJM8dh1BWx92C7mpmV/L3CJO7+ZJL+sQXHmRAibofdf/LpYFtDGGI1gBswrEMICTmB2+U+r419eU1CHkhmwUPRQDgndheSXtw7swthsTGE1pSy8xMnzrMBiZMPPnGS8P1YIiwtwcENAYTampd1Bd48gsRHYjAObWLfsV6ppoiIyDVJwUF/01jB+t+tJ37dbJ/lRS7yl6bA3AUkT32OhCADs85B2YcbyavuaofOZPeaNDJvTGX6b3OZ3eiioiiXZY+vJ/aX84kdb2Pj2y1r5K0TSf9zKtE+S5ZScnJJASrWTWf6K5cY4T2PQdTja5vP/m/1UDq5DwHuQtISU8nvSlPMAxT8tYToH6ex+gGf111l5LyQyqouHdpvUrYti/ybpjNh3u9ICTIw3S4cZVtJX5pJ/nlZOdn422XYn00h5bcJDGh04awo4PgH+Tiqm9sa/bOss221Ld/CxFOFpCWkkt/mNJ2+vSbu0l2UuKKIqNtN0X/30rIj/3DuvdtGbVnmeTMVzj0f43w4kdjIbMoBy50zWblyJgBeTw3Osu2syNlMle4aLiIi0mP87HZ7U19XQuTKGVjDokla9BwpEWWkTU4l/2rdUNFtev6a2O327s2wBzkcjr6ugoiISL+n04rkKmQwdm4mmT/zvWmbibtqNxvfr8C0hjDYeomPfyPpmoiIiMiV07IiuQqZuL62EvVoCguOZpFX4eI0VkK+fQ+P/ns0/COLkqN9Xcfe1jfXpKmpCT8/v+7PuJs1NWmCVEREpDO0rEiuTgMjmPjzBUwbH4UtxMBoNHEfdVCx529kvZxDybV41GUfXJObbrqJgICA7s+4m9XX13P06DUXMYqIiHSZggMRuWyGYTB06NB+PXvQ1NREdXU1ptmP7vUgIiLST2nPgYhcNtM0qa6upr6+vt8t3WlqaqK+vl6BgYiISBdoz4GIXBHTNLVkR0RE5BtCMwciIiIiIgIoOBARERERkRYKDkREREREBFBwICIiIiIiLRQciIiIiIgIoOBARERERERaKDgQERERERFAwYGIiIiIiLRQcCAiIiIiIoCCAxERERERaaHgQEREREREAAUHIiIiIiLSQsGBiIiIiIgACg5ERERERKSFggMREREREQHg+r6ugIj0LsMwCA4OZuDAgfj5+fV1deQbrqmpiVOnTlFbW4tpmn1dHRER6YBmDqTX2R9dTd6OLaTFWfu6Kj3CuD+dgr172dv6yJ6N3f+8VEQv2nIuzd69bFkUjdHTdTMMhg4dSkBAgAID6RV+fn4EBAQwdOhQDKOnv+EiInKlNHPQl/yjWLAhi2lhLc8bTdxHHRz4aCtZL2+krK4vK9dzzK+Br/u6Fj3HLFrJjIezMK6H6HlZpA6+YCrK1s1l0p8NDP9wktekE9kLdQsODlZQIH3Cz8+P4OBgjh492tdVERGRS9DMQT/g3rmK5JnTmT5nPr9+u4wb70sl8/eziThvtPmbwblpPonxk0gvdPd1VXrGKRfOww4cVU6On754MrPOibPKgeNLFyd6KVgaOHBg7xT0DWAZ9zRvvJXBZFsfV+SGcGZmvMHKmZFYfF+/eTLpb+WS/mAQ3BDP4pxcVj4W1r1l+4czc2UuOYtisfjbmJyeS+6SBwlqkyiImPkv8caSB7F18G+Wvn8iIv2fgoP+4FQ1Bz+roOJACYV/yiB1XQncNYGJIzQFL93rmzBrED59JekPX1mPvTN5eKsK2PDWNsr7dAbPQvjDj5Ng2UVWbjle37fcHky8eE55oNHENMHjqT8/hzuTeSk3lzcWxRLo+8YdU1n5Vi65uS2P7Dd4KX0eD97pm8rDyQbwNHihsQ6PF7wN9XjalFBH8X9uoNz2CDPvC71ka74J3z8RkW86BQf9kPuwEzdDGOz7d9awEzdvNbl5RRQVFZGXk8HsmJALfNrA/sACVm/Io+jjvezdkcf6ValM/M659f3WSavZ+3EmST7Df0Z0Kls+3kJqzLmA5Nza+S2kRluJmJRG1tYi9u7dS9GqiT7r40OI/kk6WVsLKPp4L0U78sjNTGd2nK3NGnr74+s7XGMfMmk1RR+vJyW8XavGp5H38RZSo30+0elr0kmGjbifZbD+Ly3tyMsl87lpRPtkaY2eRnpmLnn/VcTej4so2LqejJ9EcwWldt7AaBZkF1D0X1mkRF+rgWMg9rBLd0C7LQ9nKfnbdlHp6ThpjwkazyP3DaF82ybKG9q91+jB02DSHA948DR48XjaV9ZCxJgRBH7hxDNsPDGD2r19poaCFQtZuHAhqS9kscsbycynZjCidYqisTlf0+MBTDye1p/bqdvFhvecRE6YTOQN3dBuERHpM9pz0IHbb7+dxYsXM3z4cPbv38/y5cv5/PPPe7RM681DsDYe43hN6yshxP1yJRnfP8nWdWlkVJ7G/sACFizP4PScZHIOnfusbdLvyPxlNCfy/8CylRW4/yWC2MR4xn13MFs/69oyHnPHCyQ9vJdn3kjF/sAzvDDCSv7a+RQ8sJrkUyfOpguZ9BwZT/wfSl7+NfM/qcYMCOOu8Q8w6ru3sL7QeTad4+35THp/0CXX2Ls+LKBkXhrj4uxkVjpaXjWIjosl5Ms88spaTzvp/DXpnBDifrmWjATYnf0Cf9jvZsCto/jhj0YRFbqREldzue4j1fz9wyw++KMLV6PBLXc/SsqcDJ6pnkjqez28TOq2exgbbsXwj2Lc3XYySyq6J98b4lmcNRnP2wVYxsRjDwnEOFHOtlfX8G5l61h1IOEPJvP4j0ZgG2Rg1joo/Us2WX+rbBlFthA+ayVLbNtJ3RbIzFkPEWkLxOIqYPm8lykf8zSv/sDDroZIYsO87MrZjuUHU4m52cOuNWlklXqw3P0Ea38ezIbk5RQ0NOc5ImUti4I28JPlBXgtsTz96jxiAoGoleQ+1lyz8jd+yrK/tQzvW2zEz05h8j12QgPBc6Sc/PWZbPik9f2O87DELeaPKSOal/A0VrFhUSqbz32NAQi6eyopj8UTeUsgnKql4uPNZP1nAU5v6/V8iJr//IDAuPsIDwkisKGS7a+sYfOnrR3rQCIffoKZPxxJmNWC113Fvr9l8/I75W1G5UNjY4k8U8qajy4wfdHowdPgAQ9wxkN9g0lgfbvTgCyRxA4PpPydl6l7+Ali7g6koNC3BC/1dU6cTsDpxBkUQ8KToYQGAnUAHrwNUO85iRfwNrSUeQHOwp1UTJhK/Igsyj/yXjCNiIj0fwoOOtAaGAAMHz6cxYsXM2fOnB4qzcAWk8T8mdGcPvAHtpa2/KEPn0JywhBKfj+X9E3NvZSSUheDv/s6SUnRbPxtCSaAEc2sWWMxPs5g4ZKNtKRk93s5l1cd042r5gQmBtEJYeTMnU3mfkiIO82Jk62L6Q3s3/4/WN2VfLCpkBI3QAVlxfmcV6rbhdPtAiPk4mvs6wr4a8l8nhsXh32dA0djc7viY0Jw5BdwNjbo7DXprO9MIfmBIVSsm878dS1BSfFuCje1S3e4kI1vn3taVuriO3HrSRx9F8Z7u7tWZldVbiPzTRuThjp5+51uCgzOCiUmNpgVv3mKUncQMSnpzHv8EcoXb6CqEYLGPcGiScEUrH2GZ0trCR41k0VPLWJGzUJe/sQDeHF+4YQx95Ey3cTxznJSD9ZBANR5gUbAHgkrnuHFu19g8ax4NqUtJOuRl5g5LpLs0uKOq+jdxZqnanhs6RIiP36Wpe86m6+391xHNDQhmeR7TN7K+Cn5XwQS+dhiFj0+lYqylyn1di4P744V/OQjMMIeI/1XFwhhbQ+y6KkE+NuLzH2nHO+3Epi3KJlFDYdJXV/ZsvQnlNi4W3l55ULWuEKJX5hO8mNx7FryLjWNYBk2leQfBbNzxVyePeghcNhDzPv5TB75NJXsytaCAom8MwKzMpN97WcNAM7UULmnFFzNS34+/6SYo1+17ZRbomIYGVjJhr37qPm2h6dHxRBUWMAFV0oFhhE/JgIObaPcJ849/OlO9tXUAV4Of1bMHm8NF+z6u0op/2Im8VERWD4qv3AaERHp9xQcdKA1MLjY8+5g/UEGRfcB/oDpouL9P7BgZQ4Vjc3vh0RHEeF/kFU7fYYvGx38/YCb6eFRDPEvwdkIRMQSdZNJRXYezguUcyXMvRt5c39z1zd/SSKFmC0dYZOynbtxPJzEM6+t5nt5f6Xgw92UVF3uKLqb3e+XcHrJOOJuex1HFRgjYokOcpCfV3Y2VaevSSfZoqOJwEHm+45LJ7RGMPHxZCbcG4U9xMoAgIFw+tCArjTyMjkpXJtGYQ/l7vhoO6V1AHXsKyyl9j8iGTkEqo4EMvLekbB3BZtKmzuGNXs2kPdpLDNiI8n6pBgvYLo9eIIiMd9ZSNaOmjZ5WwBMBxWfeTh8Wx3UOSj/ygPH6ggMC8SATgVW3obm753Z6G1eB99OzfsvsvAjqHF5AA/lH5VTe78dewiUHulcHjR68TaC13vhGtnG3Ivds4vl75Q3Bz6H8nlrRyLPjxmP/e1KWvv2jh0bKK4BqKG41EHyo7diuw5qGoHgQILw4Knz4MVL3cHNLPvp5rYF+Q/h1iFwbM/hC3e0G50UvJHV2nJ2rX+5XQILI8eMxHJwA8UnvJh7yvHMi2FkUAEFrdHBdTYeXJJDQiNYbrDgPVJM9u/zff7f8VL57stn2+T8IIvsC14VgFocTg/BN9sIpPzCAYiIiPR7Cg46sH///jYBwf79+7u9DPfOVSx4rYK7fpbBAvsuslbmtDnGdLDVCv4RPLmhgGSfzw0YYMX4chAhgBMwgm5kkP9pKv+/SxyRc5kcnx3E1frENNt05MziDJIf/zvTkx5g3MPPkTQXXPu3svK3q8g/1PWxdPdHH1BS/xzjvm/n9T86iRo/liFV+RT4LBXq7DXprJBgK+DC7bpEIn8bSb/OJPVfD5D5mxQWfOzATQQpOetJ6lIL+yMPtUdqzz7zumqpYwTBIRY4ZuPWEAtBIxaTc1+7j306hLMrUBpN8DrYt6eGC/J48DQCXhMaPJhnaJ5RaHsGz5UJDCd25iPEh4di+APXBRJ0nbM58O4WFm69OQiOHeWwT4/deaQGgoII9ae5I91oUuc6t/zGPANcZ5zdY+MtLSC/+mmSX3yVxEPllJeVsrNwJ5Uun0yvCyYgEE7WX2Y3+4aRxERZqHyruHmpUnkx5Q2LiB0VRMF7LXmeqaHgpRVsd3qxBIQSMeYRpqYtIXD5UjYf6urYvxeP2wP2YAL9oa4LwbmIiPQfCg46sHz58vP2HHS7U9Uc/KyEshWZxGanMn9eESXLCmkdez/uPg2NZayfn05euwF50zzOsdY/wm6ThsYBWG8cQOfGYbuP+7N8Mpflk4lBSHQSz/xqAc8tc1M1M/PsDEjnMyvkb3ueIf3eOGx/KiF+3BAcf8lrk0+nr0lnizzhBgys/wJcbNLjpu+TONpKxbpVvF7UMsPwDTputk1XsLVdjdD8XfLi3LaUhesr23+srUYP9ZfYwOtt93M3hgVAILGz5vHIzbtYs3QpxUe8ED6TlUt64w4S7XXQsW4oZ8NzP6VgWAyjoiMZOXoGSxJjeSt9Ge9WtUt7mZ3swLtjGREUiPH4q+TMannRYoFRMQS9l98ysu+l3lWF8wsAJ1X/rCEwPIPE+yPYfugylwYpKBARuarptKIOfP7558yZM4d77rmHOXPm9Oxm5MMbyVhXwqAH5jPf5+7BrtISHNgZFnYCR5WjzcNZ7T4bBpgVeymvM7hrbPwlT885TUvo4NuxHWjQPYeMmLhKNrJljwvjNjthl3WojknR+7txR4wj4fuJRIcepKDdcp/OXpPOcu6vwMkwxsXZL57ouualQ6frz23Gxggh5FJHt5/pZAU6lS6EsT9LZ/XzKYy90gN7zhNI6JDgs88soaGEUsfR//VC4zEOH4PQ225tc7594M02ArszODoDYMFy9otoEDwo8IJJjQuVa7ET8S0D554PmgMDIOg2G6EX+Vfugnl0yMvhI3Uw5FZu9YlsbLZQcB2jptO9aQuBgVBzcBfvrn+ZZc+kselYBPeNCTuX5Ewt9R640Rp00VwuLpARoyKhLJuli1NJTWt+PLuuGE94DJc+1MsClgtf90uzEGgNhIba5hkiERG5Kik46Gccb69i/T+GMHHBfOJa+wSf5ZL1gcnYhatJ/0kCY6OjGfvAbNJeymD2XT6971OFZOWUQNx8Vi+dTcL4scQ9NI0FGVlk/JtPp7fKgRM794y1YWAQEj2N9J//kJD2nSXDSkjoIAzACLBiCw3B2r6z7x/BtMwtrF+eQlJcNFF3RRP3yAKSvx+C+enfqfTppRtBNmxhduy3hTDoeiAgBFuYHdutIecdaWp+/AG73MOYMjce2z8KyK9ql6Cz16STzP05vLHDTdScF8j42UTixsWR8GgK6a+tJqU1v69KOFAFwyYkkxBuw/adOFKWpxI/GAbcYsd2XrEmVf90YIbFk/TQWKJj4pj4gyis5yVzUOFwM2TcJCaOjyZ6fAIJF+q9hU9hwawExv5gNk8+HNHlNnbEHjuZWJsFbggj/gcjCfxiH6UuAA/FO4rxRE5mZpyNQH8LoSOm8vSydObdezkd1wvzfnWYGm4lMqo5z8A7HyL2jnaJGus5WQ9D/nUE4TeHEvqtcCKHhTbPQJyppfYEDLHfTqg/BIbFM3VMKB4CuNFq6VweNK+9t9xgIdDS/As1LIHNr7UkcH60g4rAGCY/HEmQPwSGP8hj94biLNpBZSc7xbYfP8+rS2cyIrQ500BbBHarSc0RnyVELUHZENutXZ9hGRRDTJRB5Ue7qPzCibPlUVW0i/KGCGLGtEaXFgKCbNhsNmxhkcROSSYxrI7yTy5n1iAYmy2Q2iNO+vL0VxERuTJaVtTfNFaw/nfriV8322d5kYv8pSkwdwHJU58jIcjArHNQ9uFG8qrbjpE73kxlQf18UqZO57kEK9S7cOwvYGPp8bNpzP1vsupPEaQuzKVwoZtjVSVsXJOFNX1Cm7yMe59h4/KE5s7sv2Wy5d9cbF0wgfQinzIbK8j740bsP5lI8tLZhAw0MV1OynauYv7anObThppzI+rxtWQ+6nPjqYfSyX0IcBeSlphKvm9TThVRsNvNxIeslLz94QX2D3T+mnSOk61LUmh4YgHJD6eS8biB6XJQtnMjW1rzayzjD0szGLw4meeyk6DOQclfV5Py1jAW/Mc4EsNeJ7PdqhvH2xmssv+K5F+sJgk3ztL1OD4oo6xNJ9LF1jUvEPFsCgt+l4Bhuqh4ZxmFxe1OP/pyL4WVSdhucVD0SQcbp7uqsY59e2qIWbiWlFsCMb/aR3bm9rMbUz0fZbEiKJmZj6Tz6uMGZq2T8vdeJKuwG7edHilkw7sjeWLWSl6dUkfdoZ3kfVRDhM2CQetCnRp2vZvP6FmPkb5mJt4TNTg/fpOlB2vwNjrJ37SdyJ8ms/KVqdRUF7NpXSY1P13MI4uWcHJ5GpsPdZBHYAKL1yUT6RMoT854g8kAZVnMSs/H43yXNS/dSMpjT7P2YQM8NZR/uIYV71R1uqnOd/9A9pDHSf7NHwkeSHMeO14ma4fv9fRQXlaBMSGSyBt2UXqhE4suIvDuGCL9y3nzk3a/n4Z9FH9qMm/UKEI/A64LJX7RSuIBGr3UHamgeN1v2PDRZXTvg0Yw8lsmlX+p0ElFIiJXMT+73d7U15UQkd5ht19g2dQN8Sx+dSqel+ayZo+6df1KUDxPr5gBOQt5sTsDsR5gezidjPsOs2LRy5cMZByObg5sRUSkW2lZkYhIf1W3k03vHWPkhEf6952Hg2KZ+gMbFX/Z3KUZDhER6X8UHIhcQ5qaNFF4dfFStW0d+d5Ykn8c2c2nO3WXIGKmTyXyyCay3rvIMbYt9P0TEen/tKxI5Bpy0003ERAQ0NfVkGtUfX09R48e7etqiIjIJWjmQOQaUltbq9Fb6RNNTU3U1tZ2nFBERPqUggORa4hpmlRXV1NfX68gQXpFU1MT9fX1VFdXY5q9e3NGERHpOh1lKnKNMU1TSztERETkgjRzICIiIiIigIIDERERERFpoeBAREREREQABQciIiIiItJCwYGIiIiIiAAKDkREREREpIWCAxERERERARQciIiIiIhICwUHIiIiIiICKDgQEREREZEWCg5ERERERARQcCAiIiIiIi0UHIiIiIiICKDgQEREREREWig4EBERERERAK7v6wqIXA7DMAgODmbgwIH4+fn1dXXkIpqamjh16hS1tbWYptnX1RGR/7+9+w+L4rwXv/82m1l/IB74kmyMm5wvG0/BNpT6g7BqsNcXkqfY1l81wehR6ZOQnIYkjz8aS47f8CRXDKkJtUW9kkNqpOYhEglUE2NOA2nEfCNr5IdACDYuPWapdTRu5MDlOogzXXn+YJEFhYWEX5rP67q8hJ175r4/M7PL/bnnnlkhhAhAkgNxdcFJZP85jRiT73dvJZn/VyqFnmFtFdCeGEyaNEmSgmvAqFGjGDduHGPHjuXUqVOSIAghhBAjnCQHw8kUzZr8HJaH+3736njOuPjsk73kvFpIbfMwts2zl/T7K5lwI5jvTWfnw4FXMQeHEWzy0Ng8uB3A0NBQSQyuMaNGjSI0NJQzZ84Md1OEEEII0Qu552AE8BzcTEryClY8sprn36pl/D1pZP/uISJNgdcdPDqNJ124GlycaupDZ9+cSMbeIjIXWQe9ZWPHju1xmRKdwssFBRT4/m37xTSUzqXYn9hGQfajTFMUIpJfpiD3SeLGDGz7lPj15O3KYulkUGJXsWPXNh6dpgResT8mLiZjVwEZ80JgTALr8wrIWhY+xHUoJDyVd3lfF+zKYPHEnjfX23ETQgghxMggVw5GggunOPa5Ex1wflZJrdfGu+sWsHDaTjIrZRpGdwGvGhh15Dy+kRLNwLjUdZGm6dDagnbJQGttgVYNzdt9AyEkpr9Cyp1u9qSvJf94x+sKceteZ1Wsr6PvNdCa3dR/spvcXaWohq9Yq4aOhq4BQRoaGi2a0b2Sb8ajoWNgXNDAq6ProGkt/WsnQJCdVVueJM4oYeOqV6k2+loHgEHJpuWU3KCg2JaR+WxEr02Wqz1CCCHEyCdXDkYgz0kVDzdzk8XvRbON+FVbKChy4HA4KMrL5CF72BXrmicnkra5gKKPK6g47KBk7062rFtIdEhnmeBFW6g4nE2S32vmmDTeOfwOaXZz/xprTiSzpIIKRwbxwRD9eAEVFRVUVDjYMj/4KiuEEf90ASUfF5G9MrJ/dfXHJQPDALp0/A3Oay0YrefRAK1Fx2g10Lqva7Fjj2hC/dKCfdaVHV7jaC5r165l7VPPsfVdF5bEVFJ/7HewNB3tko7mAUPTMC5pnL+ikm/Iq6G16rT31TW0VgNN61pJwHYCQVPjmGaoqMp07NHdrm70oQ68gGFgeCWJFUIIIa4HkhwEcMcdd/Daa69RUVHBa6+9xh133DHodQZPvJlg71ecdXe8Ekb8v2eRuSiM2tx0Vq/+FTnOcFI2ZrJ8st+K5hge25TB3P9RSfb6FFY8spr07Q48t92FbfwgNVY/wPMrFrEoKZNDF8D5RiqLFi5i0cIFpBdf5e5lcyR3z7YRPDaM6NnRXJneDK6WVv3y1QLtggaahtbt6oIldg6R7nJy9zuxzJhJRPfpXa0tuFUV9UQ91R/spuwEhFgsl6cvGVoLhu67IqHpaN72RGFAeTW0Vt/ViUsaLa06eku3DnqAdkIQ02ZFYdTms/uowvTYKJT+1iGEEEKI64pMKwpg/fr1TJ06FYCpU6eyfv16HnnkkUGqzYzVnsTq5BgufvYf7K32dcQilpCSeDOVv3ucjN0qAJXVjdz0vT+QlBRD4YuV6ADjbERa4FRRIXsdrvZ1P6vk0L5Bai4AOp5TKh7zOS7+Ay6ea0Q9pfZSvJK8VwqZcK+ZT98sonEwm3YVTQ1VlJnU9qsF6meUVas0+19dMFmIjbXhrsmlrvy/cS4gO7mbAAAgAElEQVS5h5nfyaX+2NW2pmCJvofpE5uo+6OLyzNymp1UHz7DSQNodlFXDuqFAQ7kkpv68mpoNMDbzBdHyjhzuqepSz20c4KdOXcaVL1cRfWYOlJ+PofpY6opa/06dQghhBDieiDJQQAdiUFPvw+E4B9l4rgHMAF6I84P/4M1WXk4fZ3WsJhoIk3H2HzQr9PtdfHpZx5WRERzs6kS1Qt4Kimp8JCWnE3OpL0UfVRCicNJ44ga7NVx/SmTtD8NT+1G7R621vp+OfYeW7t3+ifGMXOym+qd9RjuZqqOL2PurAh2Hau/3KlWpqbwem4KmBSUGzTq399K/hG/6TaNZeT+3vezt5r8l6sHPhCvSsmOHN8vbkp3vnpFkUDtDLnLTkRrFVtrDTRzGXUPJmOPVigrN/pchxBCCCGuL5IcBFBTU9MlIaipqRnwOjwHN7PmNSff/0Uma2yl5GTldXmM6U3BwWCK5LH8ElL81hs9Ohjz3ycQBqgAXheFaStR71/Oovh4UjMeIq3FxYG3Mnlpe+WQj9Jfi6yzZmI7Xc324wBuyo+4WPajOUTurKfO12c2ju3m6R1lGCiE3j6dxAdWkRH0KunZZQzn02e7672dIdhjozBqN7XHZVRTdiyF5FnTUcrLkOsDQgghxLeTJAcBbNy48fLUopqaGjZu3DjwlVw4xbHPK6ndlE1cbhqrVzmo3HCAjmnqZz0XwVvLztUZFHWbu67rZ/nKf1qMrnLozUwOvQkE20j8xfM884tMnjqxkLQPRsA3mI1kpnDmxIajWK28sCPR95qCooRgj1CoO+or19qMekLFANQTDTgv3ca2JxKJKyjjvZGUgfXWTuzYv6sQYlrH67N85U0KyoU4pgeVUTbQN1ALIYQQ4pogyUEAX3zxxSDeY9DNyUIytyeQs2o1qw9WknGgvTPfWF2JiySmhJ8je18/ep8eF8W577Pk/jWEf2cSfOAE4CK036Pgf6PtWDMBH/ff6/cu6OheGD060EbM2H7yGKn3jufTN7eQVzmCEpbbZ2K3qhRnbaLoy44XQ7kndT2xsyJRjjp7XvcGM+YB/iqDQeFrpyXGTmRrGa/+Oh9nxw3ZY6aRkn4fcVODKHNIdiCEEEJ8G0lyMMK43trMznv/QOqa1TiqMzjQDHxeQM7+hWSs3UJG2Bv8qa4RLNEk/GQKp36fzh8+a7+pIDg+nZxVVir3vEPpZ6c5P/pWYu5LYgoq79e4OitpcKEyl7tmW9m77yuCY5J46pc/Jsz01VXb5DnuxMUC5iYn4jrUSPBtwZz60wGc/vcy6PV86tSJvzeFpL+8g+tSGJF3wKE3i3H5X9kwx7D88eXEW+DusU6KKgtHzHSn8Dg7Fnc1B4+o7fdwAKCy/4hK4v+KI1LxJQdjxmGxtn/ZW9DEacy9z475+G6qrr77rkq5M4WsZxPh/Q2s3VE3ONN4emynhdjYSLTarRxsUP3q1ij7fBlLY6cR5Ci98hGvQgghhLjuSXIw0nid7PzNThK2P+Q3vaiR4udS4fE1pCx9hsQQM3qzi9qPCik61dlD9xwuJOf7Kay8/ykWrgrGrHtQj1dS+Ew2/+HoLKfXvMHmNyNJW1vAgbUevmqopHBrDsEZC67eppocMl+dRNryZ8j+V/CcdpBdcwBng38hlcIXN2B7OpXUFxMZ7W1EdZZwdn8xrlN+xXQnjkMuEhIn4DxUO2ISA0wR/HCGlaba7K7JDKCWH0b92VzionKpA5Q7k8nKSgbA0NyotfvYlLeHhiu+TK1nlu9GYjEayN8/SIlBb+2cuJiHJ2vUvVfVre5myo44SV5mZ9qEUkrPDVLDhBBCCDFijbLZbG3D3Qgh+sNms/W4TIlOIespK/tSN1A8Yju3QSQ8tY2VN+SwdmPJiLqJ+WubvJSsDVEcfDKdPV/2XMzlcvW8UAghhBDDTr4ETVyfblBQFALcJzFMlAgibteo3n/w2k8MTICioJj6+c3aQgghhBiRZFqRuOa0tbUxatSongsoUaRsyyMFaN6/kcd/Xz2yHs1pjeSO1lK2V4+oVn0NCgnrXufRGb47sb31vZZua5OLlEIIIcRIJ9OKxDXnlltuYdy4ccPdDNFPLS0tnDlzZribIYQQQoheyLQicc1pamqSUehrTFtbG01NTcPdDCGEEEIEIMmBuObous6pU6doaWmRJGGEa2tro6WlhVOnTqHreuAVhBBCCDGs5J4DcU3SdV2mqAghhBBCDDC5ciCEEEIIIYQAJDkQQgghhBBC+EhyIIQQQgghhAAkORBCCCGEEEL4SHIghBBCCCGEACQ5EEIIIYQQQvhIciCEEEIIIYQAJDkQQgghhBBC+EhyIIQQQgghhAAkORBCCCGEEEL4SHIghBBCCCGEACQ5EEIIIYQQQvhIciCEEEIIIYQAJDkQQgghhBBC+EhyIIQQQgghhADgxuFugBDfZmazmdDQUMaOHcuoUaOGpM62tjYuXLhAU1MTuq4PSh3DEZcYekNxLgkhhBhacuXg22hyPA/9YiHRY/tYfuxs0godlGQvx2Ya1JYNngGKwWpPYvmiGIIHoElms5lJkyYxbty4Ie1Ajxo1inHjxjFp0iTMZvOAb3+44hJDb7DPJSGEEENPkoORwBLD8qezKSgqwXG4Asef3yHnueXMtgxOdcHfX0Tqg3OJHN3XNXTgIrp3cNozNPoYgzkYq6Wnrr+ZiAWprEm6i5sGIEkKDQ0d1s7zqFGjCA0NHfDtDndcYugN1rkkhBBi6ElyMNxuW0jmjmwei4XKvJdIX59OZu5HNEYm8cBs63C3rt2FSjKTEpj7RB6uazVB6FMMYSRtKeGd/53AUIyBjh3b86Ub5e4n2bHrZVLuVL7m1hWiHn6Zgu2rsPeyid7a8HX1ts3wJZkUFBT4/uXx5A/9GmeKIDmrgLx1cSgmK4szCih4dh4hA97C3inx68nblcXSyaDErmLHrm08Ou3rHoceTFxMxq4CMuaFwJgE1ucVkLUsfGDr6IOAsUYkk7Wr4PIx2/aEnZ72xGCcS0IIIYae3HMwrKwkrVtNPMWkP5JOsbvj9WL2vrF5OBsmhkCvo+stGgYtaJpx5bKQKBb/PJmEqVYsZh338TL2/CGHkgb/sgbnNQNaNbSv24avKdA2jYY9PP30btRLBkaXRE3jfCtorQZ4m9EMMFpbura/T7GHkJj+Cil3utmTvpb8435L5mWwLTmisy3n3KjHStmVm091x/uvVUNHQ9eAIA0NjZarHYdvwqOhY2Bc0MCro+ugaS1digRFJLJyxXzsky0EeZtpOPIuuTveo+4cMHkpWRmLsXZcwWrVcJ+opmhXDu8d7XrErUsyybrfSn3uWtLfc3dZFjDW+lzWrtiFcoOZOb/cxtJeQpKrRUIIcX2QKwfDKTyRhTNHU5mX7ZcY9CAshuUv7OSdEgcVDgdFeZmk3h3WudwcT0bRO2SsTGXLXgeOop2kz48haWMBJY4S3vndciK7TYUJnvYQmXlFOA47KNmbQ9pPbF1HzM3xZPy5gooK37/D2SRdMePGTPwLJZRsTGL2ynSyC4so+dhByd5sUu/uXthM5Pw0sguLcDja68x4ILrf8/fD/jWbCkc2SVcdUm5vj+O15Vj7HEMYSdkVVFQUkRYD3J2Ow1e+6Ln4q15FCE9cw5Z83757O5tU+0DchdDJ0FrQLumc93RbYLKSuPpJlk5pomT7RtJfyqHcO51H16Vgn9C1aEurhtGqcf5SPyoeG8Oa3BIcf84hNWbwrp8YVyQGgFdDazXQNQ3Q0bSOn336GrvFjj2iCfVLC/ZZEXRnnCvj1XVrWbs2jee2ldAUvphVyXEEdRTQdLRLOpoHDE3DuKRxvrcM6+vwamitOu35QHvcmn+sIXHtcVHOGy+lsyG7iKbvLOPJ1AQuzza85KZk01rWrl1L2ks5lBpRJD+xki4XOUzhzImxop5owhYbyxUzFfsSq9fAMPRrfFqhEEKIvpLkIIA77riD1157jYqKCl577TXuuOOOAdt28NQfYEOltlLtvaDJxvIXM3ksqpHiF1eTsjqdAjWCFRu3kPpdvw6cyUr8T62Ub1rN5r9MYuHTGSSczCHt2SJ0+0J+/H3/stGseOwHuPLSSX1iA4WnrCQ9/Twp/n0p3UHWg4tYkrSEFb+v7T2W+DWs+Z6LnMcXkJD4EDsbo3no/1nRJSGxLvoNW56ei7ksh1+tXs3zbzcStSqTjPn9mz7lOe5CNYVhvR3ATPwzBbzz9haWTwa4mUm3jsbzdxdf9TmGRvamL2LRwhVk1wCVm1mycBGLFi5i+SYHVzyD5fYknlp+E+Xb03jokQ0UtUTz0KoVVyRf34h2HsOr0dK9ozb5HuZOMSjduZU9jjrqa0vJzcql+EszITd324SmQ6tOS386dbffxeyIYMwh0dw9w/ZNo+gnDaMVWrTzGIDRqqG1+u2APsZuiZ1DpLuc3P1OLDNmEtH9uFzSaDqtoqoN1JfvY1+NG7PlNm72lTO0FgxdQ/PS3nn2tneeB5S3PTZda29PS6uO3tJ5pll+OJfpY+rI35JLSW09dZ/sYdO2YuoJwTKmo5RBS7OKqqo0HC1l94dOtAkWLEF+9YTPxD7Rxf68UtTwmcRN7NqMIYlVCCHENUWmFQWwfv16pk6dCsDUqVNZv349jzzyyIBs+6abwjDTyNkAVw3MM5ez8vs6B9LTyf6w/S937VGY9MdMFi69m5xnD/g6sDq1hS+Rd9BD5LSz6LcfIvvVYmqDJ9DIXG7yv1/Qq1L4zK/I/rx9zdovbyLmrTXEz40mu76jE63TeFKlEQhuCvCYwtN7yXw2j0odwInjiErqAzbCTeD0AuYYlj84G/ansWbTATwAlbVctBbwm6ULiPxTdnu5PtD/y8Vp71wm3WoGZzR3TbNyc5iV2O8Fk/f3W7GFgfqh8/I+6UsMeqOKShiefwAXz6OeUq9MCjp4Snjp8QwONAPUUvjxSpKW+8U6EJpdVH2ic7Lb9kImh2O55GJfjV+n+VwpORmlV2xCV6soq1Vp6k+99e+S/YaVRZNU3nrb+bWa/k2cPHqQKnczYHDy8zLKDTcdk1z6FLvJQmysDXdNLnXl/41zyT3M/E4u9ceuXp9itRN3ZyjuI1WoHfu62Un14TOcNIBmF3XloF4Y4EAvuakvr4bG9ilUXxwp48zpjkgVIiZbUU7so665cxWjNpeNPeW3QeEkzIqE4+9S59e5j5hlx3JiP+V1dYz/cj7TZ1nZ87bfYMRQxCqEEOKaIslBAB2JQU+/DwXb1GjCvE4qyvz+6l+o5LO/6iyM/AE20wE6unGXL/172/9d7PgZoMsIaiNnT/t1f09/xmenIOkOG2Zqe+4Y96TFQ6NfR1a/qHetM/wuYm7Rcf7eQWcUOpXV9fCTKUwZB86+jlh6XLjco4n+ZyuE2LCFHcNRaSX8X2yYP7Jy800eXH8bxOHP5kYa/Dd/8WL7/wN65aCa/OzqK14OCRmPon1BoFwNwDj6HluP9rdilQOvpHOgv6sNCIP6916lvqMl+3PI9Vvap9gnxjFzspvqnfUY7maqji9j7qwIdh2rv5xkKCEJrMuZ0/7zGGiu3c2mtzuX01hG7u99P3uryX/5yuPwjXlVSnbk+H5xU7rzVb+FQYRMCMLwNOPuLdm8wcq8Z/NI9IIyRsH4sozc3xV3JjmmCGbOsOA6UI7bcHO42s38GXas7+7pLDMUsQohhLimSHIQQE1NTZeEoKamZsC2ffZsIzq3cpMFaO6plJngYDNcvEjrRf/XL3JOuwhjxxM8IJ1SDxcvgDloPMFA4zfd3D+6NBZzaBhmk5nZ/15EyTq/BTcGYzbVMj4Y6Gt/Xnfi+hskTLqV4MhIbI1Osv4Cz0yNJDjcyq2olP/1Ov1CJi+AeUiepjTi9CF266yZ2E5Xs/04gJvyIy6W/WgOkTvrqfP1/o1zZeRk5OO8pBAUdgfTf7qU9c+O57fP5FLXOuhR9Emfbn++5Kbk5U3sUw2UcRYiZ93H0vRnCdr4HHuOGyhT5hAb5qKovP3SZEN5Ge55M7Fb97DnxKA2XwghxDVMkoMANm7ceHlqUU1NDRs3bhywbXs++xQXMUTHWKG+p/sOdDweHUaPZsxo6BzSH82EoNFw4TweL9981NoUTHAw6GfP9/+qQR/o5xrRvTqHXklhc1m3hf84x9kz/dnaRZwnvyI43Irte1MwuwqpPD4Bz3wbkbffxE3NLlw9JlvXtq+az2MEhRAyli49SEVRMIwBfqLOCBMwdlM4c2LDUaxWXtiR2L7QpKAoIdgjFOqO+la6pNGkqqgGcKKBepdCxCtLSYzdRd3HI2EfajQ3aygTQ7CY6BzlR0FRDDoPs0FLYwPqCQCVhr+6CYrIZO69kew77iRy1jQsYywsy8xjWccWFIWZM63sORHgPichhBDfWpIcBPDFF18M2D0GVzhezN7DK0h7IJX44nQO+A/Xm4IJNnnw6OCqraVxZRx3xQSz94BveH1sDHdNMdN4qLz9uf39Tg7MdPlC09tjiL4VXEW1fR7A75fjn1Lb+BBxkbdy9q1D37AOHdd//Q3sNhL0SZxtOIbnr2GooXcT+73RjD7xKc6vleHo4NXhRjNd8rARRDtWj0oiUVODKP7YN/d+TBTJG1dheS+Njfu/aVYUxuxfrOWBf1Z5a0s2hwI9RWsIBYz9+EzsVpXirE0UfdmxVij3pK4ndlYkytG6q2/4EoAZs8lMH8fsB5mB83MXxowopt28B7UjlvD5PJs+naoN6ezpcV0FlCBQooibGkrD2xvY4mi6vOy2H69jVcwcwnfn0yBPHxJCCHEVkhwMK5XCzVu465V0Mv4Qxt4/FlFx8hzmW3/APQsWEPFZOitfOISnrJC99T9mxZoMHlLeoPK/g4lZspr4cbXk5B/6ep1YUzQrn1vD+dff5xhTWPj4CiI9h8jY5/IrZCbsNisTbgRzaHsmEXyrDVuYzrlGlcb+9PD1Q+TlVpKwNoPN3hwKPnLSaLZy14/mYq3MJH23K/A2/HiOu1Bvmc1sMzQUudDdYZxuWcFsu85XNS6/5KM/MXio/cyFvnwhqYtUSk6DNcLGuf15HDjVr+YNnhNFvFuZQOqyVSz17uNwYxDTF64kQalia8UAXC6JWMKaBxOxmSDsRAmHfj/0NyX3KEDs4QvsWNzVHDyi+o22q+w/opL4v+KIVOo4CXBDEKG3WrF6QQm+jenz5hOp15F7tB/PKx1j58mXn2T6V3t4On3gO9rNjn2UzFvHfU8k01LwMSeVKOauuA/LX3MoVYFwAIVxIVasVkAJxTZrMXPDm6l7tw6iVjI91EXRx3WofhcJ3P+nmqYfTmfm7fk0NAxsm4UQQlwfJDkYbg17SXvkK5Y/vJKFy1ezMCwYmlWOle8k8/+rbO/k6k6y1/0K1j3GkvRsUs06jfUOcn71En+oD1TB1emNBygom0TSc38gMgQajzvYvP559vp3goMXkvHHNGL8rkqk5hWQCji3r2BFPzuOrrfSSP3HatYsTeGZ+cHQouKq+YjCv5ztfwD/9TmnWc7sW5wcOK6D/jc+PxVM4veh8m1nZ8LUzxicuc+TeUsaD/5yC0kmD41/d7L3i3c5cGqkPN+xmdLsXxP084eZ/+B6Fo/VcdeXkrMpl7JzA7D5v1dwoD4J660uHEf6l7ANvl5i1yJInmGlqTb7im/AVssPo/5sLnFRCvmAMsHOo5vs7QsNDffxanZtygn8XSN+lPAobEEGdQVFgzMCr1WT+1I2PHgfK5+ah1l34zqSy6YdJZ03Kd9gIWFdFgkAXoPmL52Ubf81+Z/oRKVOJ8hVRNmXXTdrHC+jujEB+6xw8iU7EEIIcRWjbDZb23A3QohvI5ttqL9H4OpcroFNAnqLK3xJJi/EVJG2Pt9vdP/aY1mQQdY8N1vXbqVsoL8gbURSiFv3OsmtW3n85bIeJ18N9LkkhBBi6MmXoAkhhpxyg4IykI9+HVJBRERYcZcWUfVtSAxMCopixnzNHi8hhBD9IdOKhBgmbW1tjBo1atjbMBjb7C0uJXwxmXmLAYOyl/9vfjsinhDUD4qNSKvKwV31I+L25UEVkUzWc/Ow+hKD5o97LjoY55IQQoihJ9OKhBgmt9xyC+PGjRvWNrS0tHDmTL+eIxvQSIhLDL3BOJeEEEIMPZlWJMQwaWpqGtbR1ra2NpqamgIX7KfhjksMvcE6l4QQQgw9uXIgxDAym82EhoYyduzYIZti1NbWxoULF2hqakLXB+fbHIYjLjH0huJcEkIIMbQkORBCCCGEEEIAMq1ICCGEEEII4SPJgRBCCCGEEAKQ5EAIIYQQQgjhI8mBEEIIIYQQApDkQAghhBBCCOEjyYEQQgghhBACkORACCGEEEII4SPJgRBCCCGEEAKQ5EAIIYQQQgjhI8mBEEIIIYQQApDkQAghhBBCCOEjyYEQQgghhBACkORACCGEEEII4SPJgRBCCCGEEAKQ5EAIIYQQQgjhc+NwN0CIkc5sNhMaGsrYsWMZNWrUcDdHCCG+9dra2rhw4QJNTU3ouj7czRHiuiJXDvoljMQX3sHxn5kstAxyVcFJZB+uoKLC9+9wNknBg1zncBnBsZrNZiZNmsS4ceMkMRBCiBFi1KhRjBs3jkmTJmE2m4e7OUJcV4b+ysHYhWz5MJ3Z3d/L7r2s/lkGh4Z4AMA8J513f7eQsCuW6FS+OJfU3Z6uL/8DLg5Fwzx7Sb+/kgk3gvnedHY+PBSVDpOvEas5OIxgk4fG5sE9YUJDQyUpEEKIEWrUqFGEhoZy5syZ4W6KENeNYbpyoFP5ygqWLF3S+e+RLVQO15VBbyMHXkwl5ZEUv3+pZH7QLTGgkeJnF5Hw0zT2uge7UTqNJ124GlycarreL5n2M1ZzIhl7i8hcZB30lo0dO7bnhUocT+4ooKDA92/TUsJNlxdif2IbBdmPMk1RiEh+mYLcJ4kbM+hN7soUQXJWAXnr4lBMVhZnFFDw7DxCrrU6+mLiYjJ2FZAxLwTGJLA+r4CsZeEDW8cIiVWJX0/eriyWTgYldhU7dm3j0WnKwFYyFPszoKF5Hw3J/gzciiGI9Vr5XFJIeCqv87N1VwaLJ/a8uV4/p4UQ/TZs9xzojS5cx0dKp7eVs3+rpbZmpLRHjBSBrxpolG15gq3lOsYlA7x+SzQdWlvQLhlorS3QqqF5u68fQmL6K6Tc6WZP+lryj3e8rhC37nVWxfo6KF4DrdlN/Se7yd1Vimp0rB7F4p8nkzDVisWs4z5exp4/5FDS0FFA43wraK0GeJvRDDBaW9C+wT652j7oUx1BdlZteZI4o4SNq16l2vBfqGD9YTIpP7MTOTEEPCp1H+aSvbuaZi+EzMtgW3LE5dLGOTfqsVJ25eZT3ZGoezR0DIwLGnh1dB00rWVAIw0Ua5/a2V6yh+PeLigikZUr5mOfbCHI20zDkXfJ3fEeded8BVo1dDR0DQjS0NBo0QwGVID92adYA56f7axLMsm630p97lrS3+s68tK399E3FHB/9n5+Xi51ZwpZzyYSVL6VJzaVdr4HlGk8unU9CR2XqA2DZreTqvdzyfmggcvv1iGINWAdJgv2JSnc98MowkNA+8pJ6Vs55DpUDPpxjvf6fg/0mWFQsmk5JTcoKLZlZD4bQW/k6q4QA0vuOeiTYJJe9psTX1FCxr1XmeMY/hA7HTtZc28ia363k3f+7MDxcRE7n1uIzb+4ZTapmTkUFJXgOFyB48/vkPNMEpGDOc/eZOOh3Pb2O15OIjhsNqm/K6DEUUFFxTusmerfQDOR89PILizC4XBQsjeHjAei6d488+RE0jYXUPRxBRWHHZTs3cmWdQuJ9htGDV60pf0eAr/XzDFpvHP4HdLs/Zwnak4ks6SCCkcG8cEQ/XiB73g42DL/6jvPtiiTdz528M7GhVhNVy0yAHQMo2tiAAbntRaM1vNogNaiY7QaV3aYLXbsEU2oX1qwz7ryD6BxNJe1a9ey9qnn2PquC0tiKqk/9t3wYrKSuPpJlk5pomT7RtJfyqHcO51H16Vgn+DbgFdDazXQNQ3Q0bSOnwdQH+sImhrHNENFVaZjj+46Khs0LZn1qXGMP7abTc+lt8c6bx3rFoR37otzZby6bi1r16bx3LYSmsIXsyo5jqAu7dBp77+2t0kbhlgDthN6P+4hce3HkHLeeCmdDdlFNH1nGU+mJnD5VidNR7uko3nA0DSMSxrnBzjUvuzPXmPty/kJYApnTowV9UQTtthYut7O1cf30TcVYH/25fwEhchZ0wg6oaJNmdM1Rl8sDW9vaH8/P7OR/KPjsT+4mmURncsHP9ZAdShE3LeOVfMsnPzPraQ/t4n82vHEPbaOZXd2vmf7co739n7v02eGFzAMDK8M2gkx1CQ56BMPezcsYknSEpasycPV20iOKZKkdUvgT/8vK+fezYINlYxPXE3qvX6d1+ZGvqgpIueFNFIfTSX9lY/QZ6fx0uMxDNptVV4XO1fNJeV1J9zyA1b/Jo27GwtJf7YQl36ei57OD2Drot+w5em5mMty+NXq1Tz/diNRqzLJmO83jcccw2ObMpj7PyrJXp/CikdWk77dgee2u7CNH6QY9AM8v2IRi5IyOXQBnG+ksmjhIhYtXEB6cfcpYABmImbfjXWsGevddxM1aMnB1bW06pdH5bQLGmga2qWuZSyxc4h0l5O734llxkwiurextQW3qqKeqKf6g92UnYAQiwUFYPI9zJ1iULpzK3scddTXlpKblUvxl2ZCbu7YgIbRCi3aeQzAaNXQWge6a9WXOoKYNisKozaf3UcVpsdGofgts/8oDktDMVu2F1N9rJ6y97ay5e0q9KBbOqcaXNJoOq2iqg3Ul+9jX40bs+U2bu7YZ972enWtvWxLq47eMtAdiz7EGqid9H7cLT+cy/QxdeRvyaWktp66T/awaVsx9YRg8U3/MLQWDKg9+M4AABB8SURBVN034qvpaN72ju2A6sv+7C3WPp2fQPhM7BNd7M8rRQ2fSVy36SN9eR99U73vzz6en0oUcVODqHs/n+rWCOwzgq6oR9fcqKqKeryOkoL9uC6FcPPNne+EoYi11zqUKBLuDafpwxyy3yuj/lg1xds3kf9JE+PC/NK2gOd4b+93GJrPJSHE1zVM04rM/M+fbWHno5HYguErZwk7fpfJ3s9H7giB7lZxAZgu0nsrdSpfS2Pzh43tvzoOUq8nMun2SYDTV8RJ8ZvOzlVqarkYPZctU+OwmSpxDvQl846WNTfi0S5iDk8k7kAGy1/YS2NEKo/h4Vyzr5A5huUPzob9aazZdAAPQGUtF60F/GbpAiL/lN3evnE2Ii1wqqiQvQ5X+7qfVXJo3+C03RcBnlMqHvM5Lv4DLp5rRD2l9lr+wI7N7OUuKMvhwBCfXk0NVZSZ1PZROfUzyqrVLlMQMFmIjbXhrsmlrvy/cS65h5nfyaX+2NW2pmCJvofpE5uo+6Or/fL+5HAsl1zsq/H7o3qulJyM0i5rnjx6kCp3M2Bw8vMyyg03AzwBJXAdE+zMudOg6uUqqsfUkfLzOUwfU01ZK6DYsN0ehLu8Crff/ml4+7ds8P3cfU6/YrUTd2co7iNVqB3rXHJTX14Nje1TFb44UsaZ0wMdaf/251Xb2etxV4iYbEU5sY+65s7tGLW5bKz123Czk+rDZzhpAM0u6spBvTDAgfZzf3aPta/nZ8QsO5YT+ymvq2P8l/OZPsvKnrc739cB30cDobf92YfzE0CJtjM9qJ78iirc/6LxZKydkAMl+B3GTqYQIu6xY9PqeONY5z4dilh7rcMayR3BGvVHnX7ntJvilzdcbVNAD+d4b+93n6H4XBJCfD1Dnxzoxyh5K49JZz/n07+cRg/9PnN/8RjpL8JXKzI4NNCjX31hspKU7SDJ7yXPB2nMffpAgETgai5y0eMXhFdHvwjmLns6jOgHUkj56Wwib7uZ4BsBsxlOmxltotv0lMGgUvLm+zQC1Gfz0L1m9I4/hOF3EXOLjvP3Djqj0KmsroefTGHKOHB6AE8lJRUe0pKzyZm0l6KPSihxOGkcYfmd/nkhGWmFw1K3UbuHrR0dumPvsbV7p39iHDMnu6neWY/hbqbq+DLmzopg17H6y38klakpvJ6bAiYF5QaN+ve3kn+kvbMVEjIeRfuC3u/hNqh/71Xqfb+p+3PIHbAI+15HyF12Ilqr2FproJnLqHswGXu0Qlm5AaYQQiZAc3Nzr50DJSSBdTlz2n8eA821u9n0due+wqtSsiPH94ub0p2vDliEnQLHGrCdvR73IEImBGF4mrt0RK/QWEbu730/e6vJf7l6wCK8rA/7s7dY+3R+miKYOcOC60A5bsPN4Wo382fYsb6753JHM+D7aCD0tj/7dH4qTJ81HeVYPmXnDPTyOrRVdqaHlFDS3Fkm4oEs8u4HFAWlVaVk+6uUNHZuZShi7a0OZUIIITRT19x7Nz3QOd7r+729FUPwuSSE+LqGPjnwOtm71W/UnFpqW2zEbEngJzGZHBrq4V0AbyPFL6ZR4HdT4MUm19dIDPom8uEtZD84ngNbM0h5txL1gpnZT7/LlphBqrA7Tz2f/qUzOv1C58/m0DDMJjOz/72IknV+69wYjNlUy/hgwAN4XRSmrUS9fzmL4uNJzXiItBYXB97K5KXtlfj9vRM9sM6aie10NduPA7gpP+Ji2Y/mELmznjrf31Dj2G6e3lGGgULo7dNJfGAVGUGvkp5d5ksizYM3FW3AhGCPjcKo3dQel1FN2bEUkmdNRykvw7g8ot77VoxzZeRk5OO8pBAUdgfTf7qU9c+O57fP5FLX2vu6QylQOwMd92tp9LS3WM/34fxUpswhNsxFUXn7nawN5WW4583Ebt3DnhNDEUEf9OX8HNM+r75+V1n7iHxdGXWt64iLDaHkg47swKDh/Y1s+bgJbgjltqgE7ns4g/Vj0tm4f9Aff9dnffm71/s5HuD9PtgBCCG+sRHxDcn6mVOcJ5jgfxpN3z6aBlor504eo/azIajbFEnCvZFQkcFLb1UyHBdKeqOfa0T36hx6JYXNZd0W/uMcZ/0fJa2rHHozk0NvAsE2En/xPM/8IpOnTiwk7YrHwIouTOHMiQ1HsVp5YUei7zUFRQnBHqFQd9RXrrUZ9UT7U0LUEw04L93GticSiSso40DzeYygEELG0qVHqShK+w3SI0WYHft3FUJM63h9lu81k4JyIY7pQWWU6c00N4MtxIKC39QCk4Jyg8HlUC5pNKlq+5OaTjRQ71KIeGUpibG7qPt4BMXbWzsd1gDHXaO5WUOZGILFROc0DRQUxW9fjBS9xPpqwPOz/QZeyxgLyzLzWOa3fOZMK3tO9DZlcCgFPj+DZsQxLSQI88PbyHvQt1xRINZOyAfFl6cW6efcqCfcgIra4ES7OYv1P04g/KN8Ggb9inFgRrObFuyEhCl0O2gohtH5Sm/n+NEA73e5tUCIEW9YkgOzCXS/D8LgiClMQqX29JVfL2ZblMFLj8bAkWyeemZv7zcDXwtMo9unDumtfl+mNprg8X0Y/x2KG2qPf0pt40PERd7K2bcO9T158bgozn2fJfevIfw7k+CD9qtDF/Gle/5tH2sm4GO1e41VR/fC6NGBm2X+bhJrHrwLDuWw+R3nsKSeV3X7TOxWleKsTRR92fFiKPekrid2ViTKUWfP695gxqyAdqwelUSipgZR/LHvL+6YKJI3rsLyXhob9191tvOQs8yyE9laxqu/zsfZcePjmGmkpN9H3NQgyhwu6lwaiXdGYTXVXe4kWe5ZR8aPVLauz+Xk1TZ8CcCM2WRmRI+3+7cz4HGvw/m5C2NGFNNu3oPaUSZ8Ps+mT6dqQ/rIGVG/Gr9YA56fH9uImxpKw9sb2OJo8m1A4bYfr2NVzBzCd4+MDjNGoPNzNyGxUVCby3O51Zef/KN8Zyn/++d27GHFFJ/rcesophF09e90Pc7GIKZFR6F8Uu17VwVhf+wlVupv8FR29xEjH7/jHvj9LtmBECPdED+tyEzkwzm8m5dJ6vzZxHw/mtmL1pC5Oh4+K2Rv929BM1mJX5CILSwM2z0LiL91aFvrL9hixRZuwzZxNGYg+J/af7da+vn8Uf0Y5Z81Yo5ZQsocG9bwaBLXbmbt3aPhn6xE3nTlKp7jTlxEMjc5kZiYGOIXxRP5Nf6amEPCCA4aDTeOZoIljLCQq2xEP0RebiXmn2Sw+enlJN4dQ0z8QlI3ZpNxn+1yseD4dAreziZtZSKzp0YTbU/koXVJTEGltsbVub0GFyo27pptxYyZsJjlZPzyx4T10PnvU6x6PZ86dWz3ppA0J4aYuxNZvjIR2xXbNBP/4BqS4uNJ+mUK8SPmLzCEx9mxuKs5eERFPdHxr479R1RCp8YR2fFojzHjsFitWK1WImbMI/U+O+bjVVR9BZwo4t1Kg+nLVrH07ijCp9hZvPpREpQqSir6kxiEkJieR0HuMyRe+VXh35CF2NhItNpSDjb4xVpfStnnZqJipxGERtV/FtNgmc9j/5bItIgIou5JYd2yCNyOjy9PseKGIEJvbd8X4VPsLP63+UTqdVQd7UdnY4ydJ7cXkLfR/wvrBlgv7ezLcW927KOkOZL7nkgmITqciBnzWLX6Pix/LaG0P4PpwxxroPNTibIzPdTF4Y/r/PZFA1X/p5om63Rm3t73Zih3pvByQQEvP9j9qTgDIcD5OdaOPdpM/Sel1J/oPK4NjlLqWiOxz+p8yo85yILVasX6z+FMuyeZpT8MxV1b1a9BL+uSTAoKtrFq1pVPQ/rGjDqKiuoI+mEKqxbYiZgcRdyKJ0mZYVD+cVXnI097PO5BfXi/CyFGuiG+cqDjfCuT7JDHSHr0N6wIM0Ozi9pDmazZWnjlU3q8Ko4PD7HgX2KgsgjH6aFt7WUmG0mbCkj9budLtn8vYDZAZSZzUwv7Mcde59DWdLLHp7HixQIe8jbidBSw4eGdxP37auLmWCl8q1sPoCaHzFcnkbb8GbL/FTynHWTXHMDZ0L8YVmztjCHt7SLSajYz95G8K9rueiuN1H+sZs3SFJ6ZHwwtKq6ajyj8y9nLZTyHC8n5fgor73+KhauCMese1OOVFD6TzX84/O5nqHmDzW9Gkra2gANrPXzVUEnh1hyCMxZcvZ19ilWl8MUN2J5OJfXFREZ7G1GdJZzdX4zrVNd9XXfIgTrzbnA4qBsJo5AApgh+OMNKU232FZ0Ctfww6s/mEheVSx2g3JlMVlYyAIbmRq3dx6a8Pb7Ry2ZKs39N0M8fZv6D61k8VsddX0rOplzKehmpvIISSWS4QvORYkoH+mYRaxwzJ2vUvVfVbWy/mbIjTpKX2Zk2oZTS+nw2bYGVD9zHuueCwKNS9Z+/Jefths5mTrDz6CZ7+y+Ghvt4Nbs25VDcj+naSngUtiCDuoKiQRuV7rGdjREkBzzuCnXV1eS+lA0P3sfKp+Zh1t24juSyaUdJ7zcpd2/HcMbqht7PT4VpM6cT5Cqi7Muu2zSOl1HdmIB9Vjj5DQ19aoflu5FYjAby99cNyjUko5fzMyh+GVGmOt440i0hb62i7KjOqthYLMUqoBD+s2fI+hmAgdaoUn8gm+xd/WlzEJGTrfBlCSWVgzMCr773W357QwrJP3qUZ5eZ0dQ6SrM3knu0s5U9HnclkYy+vN/78/kkhBhyo2w2W9twN0KIkcpms/W8UInjyW0psP3f+K1jBE9rCSQimaxnY6l+fi25x67hOPrAsiCDrHlutq7det3Pff72xBpEwlPbWHlDDms39vDo0OuFMo1HX1nHbR+kkf7HkXJPxiCbvJSsDVEcfDKdPV/2XMzlcvW8UAjRL/IlaEJ8Y2YURRmae0IGQUhEOCGuEvb/9fpODCCIiAgr7tIiqq7rzjJ8q2JVIoi4XaN6/8HrOzEA+OdIIm+oo+TDb0FiYKL9RmjTCJoPKsS3xIh4WpEQI1VbWxujRo3qpUQQ9tU7yAM4sYe0p0bITZR9phD1HQv1+0v8noxznVJsRFpVDu6qH8m3Lw+Mb1Os1kjuaC1le/V1HykhEREoR/Zx8LrPghQS1r3OozN8d5B463st3dYmEyCEGEgyrUiIXtxyyy2MGzduuJshhBCiBy0tLZw5cyZwQSFEn8i0IiF60dTUJKNSQggxQrW1tdHU1BS4oBCizyQ5EKIXuq5z6tQpWlpaJEkQQogRoq2tjZaWFk6dOoWuj5hvsBHiuiD3HAgRgK7rcslaCCGEEN8KcuVACCGEEEIIAUhyIIQQQgghhPCR5EAIIYQQQggBSHIghBBCCCGE8JHkQAghhBBCCAFIciCEEEIIIYTwkeRACCGEEEIIAUhyIIQQQgghhPCR5EAIIYQQQggBSHIghBBCCCGE8JHkQAghhBBCCAFIciCEEEIIIYTwkeRACCGEEEIIAUhyIIQQQgghhPCR5EAIIYQQQggBSHIghBBCCCGE8JHkQAghhBBCCAFIciCEEEIIIYTwkeRACCGEEEIIAUhyIIQQQgghhPCR5EAIIYQQQggBSHIghBBCCCGE8JHkQAghhBBCCAFIciCEEEIIIYTwkeRACCGEEEIIAUhyIIQQQgghhPD5/wGCRCm/zf5QMgAAAABJRU5ErkJggg==;" vertex="1" parent="1">
                    <mxGeometry y="1886.89" width="860" height="469.39" as="geometry"/>
                </mxCell>
            </root>
        </mxGraphModel>
    </diagram>
</mxfile>